<svg xmlns="http://www.w3.org/2000/svg" width="80" height="80" viewBox="0 0 80 80" fill="none"><rect width="80" height="80" rx="10" fill="#E6F4F9"></rect><rect x="24.0928" y="14.1958" width="31.8144" height="51.6082" rx="5" fill="white" stroke="#042745" stroke-width="2"></rect><line x1="34.8145" y1="16.3196" x2="45.1856" y2="16.3196" stroke="black" stroke-width="2" stroke-linecap="round"></line><path d="M47.0645 39.4106C47.2598 39.5278 47.3379 39.7622 47.2988 39.9575C46.8301 41.3638 46.127 42.6138 45.1504 43.6685C44.9941 43.8247 44.7598 43.8638 44.5645 43.7466L42.8848 42.8091C42.1816 43.395 41.4004 43.8638 40.541 44.1763V46.0903C40.541 46.2856 40.3848 46.481 40.1504 46.5591C38.7832 46.8325 37.3379 46.8716 35.8926 46.5591C35.6973 46.481 35.541 46.2856 35.541 46.0903V44.1763C34.6426 43.8638 33.8613 43.395 33.1582 42.8091L31.4785 43.7466C31.2832 43.8638 31.0488 43.8247 30.8926 43.6685C29.9551 42.6138 29.2129 41.3638 28.7832 39.9575C28.7051 39.7622 28.7832 39.5278 28.9785 39.4106L30.6582 38.4731C30.502 37.5356 30.502 36.6372 30.6582 35.6997L28.9785 34.7622C28.7832 34.645 28.7051 34.4106 28.7832 34.2153C29.2129 32.8091 29.9551 31.5591 30.8926 30.5044C31.0488 30.3481 31.2832 30.3091 31.4785 30.4263L33.1582 31.4028C33.8613 30.7778 34.6426 30.3091 35.541 29.9966V28.0825C35.541 27.8872 35.6582 27.6919 35.8926 27.6528C37.2598 27.3403 38.7051 27.3013 40.1504 27.6528C40.3848 27.6919 40.541 27.8872 40.541 28.0825V29.9966C41.4004 30.3091 42.1816 30.7778 42.8848 31.3638L44.5645 30.4263C44.7598 30.3091 44.9941 30.3481 45.1504 30.5044C46.0879 31.5591 46.8301 32.8091 47.2598 34.2153C47.3379 34.4106 47.2598 34.645 47.0645 34.7622L45.3848 35.6997C45.5801 36.6372 45.5801 37.5356 45.3848 38.4731L47.0645 39.4106ZM38.041 40.1919C39.7598 40.1919 41.166 38.8247 41.166 37.0669C41.166 35.3481 39.7598 33.9419 38.041 33.9419C36.2832 33.9419 34.916 35.3481 34.916 37.0669C34.916 38.8247 36.2832 40.1919 38.041 40.1919Z" fill="#BCCCDC"></path><circle cx="44.1241" cy="39.1751" r="7.83505" fill="#009EDB"></circle><path d="M40.4121 39.1752L42.8863 41.6494L48.2472 36.2886" stroke="white" stroke-width="2" stroke-linecap="round" stroke-linejoin="round"></path><rect x="30.5156" y="51.9587" width="18.9691" height="6.59794" rx="3.29897" fill="#009EDB"></rect><path d="M36.8384 57.7834H36.0962L36.1011 57.4001H36.8384C37.0923 57.4001 37.3039 57.3472 37.4731 57.2415C37.6424 57.134 37.7694 56.9843 37.854 56.7922C37.9403 56.5986 37.9834 56.3723 37.9834 56.1135V55.8962C37.9834 55.6928 37.959 55.5121 37.9102 55.3542C37.8613 55.1947 37.7897 55.0605 37.6953 54.9514C37.6009 54.8407 37.4854 54.7569 37.3486 54.7C37.2135 54.643 37.0581 54.6145 36.8823 54.6145H36.0815V54.2288H36.8823C37.1151 54.2288 37.3275 54.2678 37.5195 54.3459C37.7116 54.4224 37.8768 54.5339 38.0151 54.6804C38.1551 54.8253 38.2625 55.0011 38.3374 55.2078C38.4123 55.4128 38.4497 55.644 38.4497 55.9011V56.1135C38.4497 56.3707 38.4123 56.6026 38.3374 56.8093C38.2625 57.0144 38.1543 57.1894 38.0127 57.3342C37.8727 57.4791 37.7035 57.5906 37.5049 57.6687C37.3079 57.7452 37.0858 57.7834 36.8384 57.7834ZM36.3477 54.2288V57.7834H35.8765V54.2288H36.3477ZM38.9697 56.4919V56.4358C38.9697 56.2454 38.9974 56.0688 39.0527 55.906C39.1081 55.7416 39.1878 55.5992 39.292 55.4788C39.3962 55.3567 39.5223 55.2623 39.6704 55.1956C39.8185 55.1272 39.9845 55.093 40.1685 55.093C40.354 55.093 40.5208 55.1272 40.6689 55.1956C40.8187 55.2623 40.9456 55.3567 41.0498 55.4788C41.1556 55.5992 41.2362 55.7416 41.2915 55.906C41.3468 56.0688 41.3745 56.2454 41.3745 56.4358V56.4919C41.3745 56.6824 41.3468 56.859 41.2915 57.0217C41.2362 57.1845 41.1556 57.3269 41.0498 57.449C40.9456 57.5694 40.8195 57.6638 40.6714 57.7322C40.5249 57.7989 40.3589 57.8323 40.1733 57.8323C39.9878 57.8323 39.821 57.7989 39.6729 57.7322C39.5247 57.6638 39.3978 57.5694 39.292 57.449C39.1878 57.3269 39.1081 57.1845 39.0527 57.0217C38.9974 56.859 38.9697 56.6824 38.9697 56.4919ZM39.4214 56.4358V56.4919C39.4214 56.6238 39.4368 56.7483 39.4678 56.8655C39.4987 56.981 39.5451 57.0836 39.6069 57.1731C39.6704 57.2626 39.7493 57.3334 39.8438 57.3855C39.9382 57.436 40.048 57.4612 40.1733 57.4612C40.297 57.4612 40.4053 57.436 40.498 57.3855C40.5924 57.3334 40.6706 57.2626 40.7324 57.1731C40.7943 57.0836 40.8407 56.981 40.8716 56.8655C40.9041 56.7483 40.9204 56.6238 40.9204 56.4919V56.4358C40.9204 56.3056 40.9041 56.1827 40.8716 56.0671C40.8407 55.95 40.7935 55.8466 40.73 55.7571C40.6681 55.6659 40.59 55.5943 40.4956 55.5422C40.4028 55.4902 40.2938 55.4641 40.1685 55.4641C40.0448 55.4641 39.9357 55.4902 39.8413 55.5422C39.7485 55.5943 39.6704 55.6659 39.6069 55.7571C39.5451 55.8466 39.4987 55.95 39.4678 56.0671C39.4368 56.1827 39.4214 56.3056 39.4214 56.4358ZM42.3926 55.7058V57.7834H41.9409V55.1418H42.3682L42.3926 55.7058ZM42.2852 56.3625L42.0972 56.3552C42.0988 56.1746 42.1257 56.0077 42.1777 55.8547C42.2298 55.7001 42.3031 55.5658 42.3975 55.4519C42.4919 55.338 42.6042 55.2501 42.7344 55.1882C42.8662 55.1248 43.0119 55.093 43.1714 55.093C43.3016 55.093 43.4188 55.1109 43.5229 55.1467C43.6271 55.1809 43.7158 55.2362 43.7891 55.3127C43.8639 55.3892 43.9209 55.4885 43.96 55.6106C43.999 55.731 44.0186 55.8783 44.0186 56.0525V57.7834H43.5645V56.0476C43.5645 55.9093 43.5441 55.7986 43.5034 55.7156C43.4627 55.6309 43.4033 55.5699 43.3252 55.5325C43.2471 55.4934 43.151 55.4739 43.0371 55.4739C42.9248 55.4739 42.8223 55.4975 42.7295 55.5447C42.6383 55.5919 42.5594 55.657 42.4927 55.74C42.4276 55.823 42.3763 55.9182 42.3389 56.0256C42.3031 56.1314 42.2852 56.2437 42.2852 56.3625ZM36.9043 63.8323C36.7204 63.8323 36.5535 63.8014 36.4038 63.7395C36.2557 63.676 36.1279 63.5873 36.0205 63.4734C35.9147 63.3595 35.8333 63.2244 35.7764 63.0681C35.7194 62.9119 35.6909 62.741 35.6909 62.5554V62.4529C35.6909 62.238 35.7227 62.0468 35.7861 61.8792C35.8496 61.7099 35.9359 61.5667 36.0449 61.4495C36.154 61.3323 36.2777 61.2436 36.416 61.1833C36.5544 61.1231 36.6976 61.093 36.8457 61.093C37.0345 61.093 37.1973 61.1256 37.334 61.1907C37.4723 61.2558 37.5854 61.3469 37.6733 61.4641C37.7612 61.5797 37.8263 61.7164 37.8687 61.8743C37.911 62.0305 37.9321 62.2014 37.9321 62.387V62.5896H35.9595V62.2209H37.4805V62.1868C37.474 62.0696 37.4495 61.9556 37.4072 61.845C37.3665 61.7343 37.3014 61.6431 37.2119 61.5715C37.1224 61.4999 37.0003 61.4641 36.8457 61.4641C36.7432 61.4641 36.6488 61.4861 36.5625 61.53C36.4762 61.5723 36.4022 61.6358 36.3403 61.7205C36.2785 61.8051 36.2305 61.9084 36.1963 62.0305C36.1621 62.1526 36.145 62.2934 36.145 62.4529V62.5554C36.145 62.6807 36.1621 62.7987 36.1963 62.9094C36.2321 63.0185 36.2834 63.1145 36.3501 63.1975C36.4185 63.2805 36.5007 63.3456 36.5967 63.3928C36.6943 63.44 36.805 63.4636 36.9287 63.4636C37.0882 63.4636 37.2233 63.4311 37.334 63.366C37.4447 63.3009 37.5415 63.2138 37.6245 63.1047L37.8979 63.322C37.841 63.4083 37.7686 63.4905 37.6807 63.5686C37.5928 63.6467 37.4845 63.7102 37.356 63.759C37.229 63.8079 37.0785 63.8323 36.9043 63.8323Z" fill="white"></path></svg>