<svg xmlns="http://www.w3.org/2000/svg" width="97" height="97" viewBox="0 0 97 97" fill="none"><rect width="97" height="97" rx="10" fill="#E6F4F9"></rect><g clip-path="url(#clip0_671_332)"><path d="M63.7678 72.1559H20.9189C20.3243 72.1559 19.8418 71.6719 19.8418 71.0753V37.0647C19.8418 36.4681 20.3243 35.9841 20.9189 35.9841H63.7678C64.3625 35.9841 64.8449 36.4681 64.8449 37.0647V71.0753C64.8505 71.6719 64.3625 72.1559 63.7678 72.1559Z" fill="white" stroke="#042745" stroke-width="2" stroke-miterlimit="10"></path><path d="M64.783 45.0116H19.9033V37.0647C19.9033 36.4681 20.3858 35.9841 20.9804 35.9841H63.7003C64.295 35.9841 64.7774 36.4681 64.7774 37.0647V45.0116H64.783Z" fill="#E6F4F9" stroke="#042745" stroke-width="2" stroke-miterlimit="10"></path><path d="M30.9833 39.9574C29.7659 39.9574 28.7842 38.9668 28.7842 37.7512V34.2167C28.7842 32.9954 29.7715 32.0105 30.9833 32.0105C32.2006 32.0105 33.1824 33.001 33.1824 34.2167V37.7512C33.188 38.9668 32.2006 39.9574 30.9833 39.9574Z" fill="white" stroke="#042745" stroke-width="2" stroke-miterlimit="10"></path><path d="M54.4608 39.9574C53.2435 39.9574 52.2617 38.9668 52.2617 37.7512V34.2167C52.2617 32.9954 53.2491 32.0105 54.4608 32.0105C55.6782 32.0105 56.6599 33.001 56.6599 34.2167V37.7512C56.6599 38.9668 55.6726 39.9574 54.4608 39.9574Z" fill="white" stroke="#042745" stroke-width="2" stroke-miterlimit="10"></path><path d="M64.0756 49.7279C57.0127 49.7279 51.24 44.0042 51.212 36.9634C51.2008 33.5584 52.5135 30.3504 54.909 27.9303C57.3325 25.4821 60.5638 24.1314 64.0083 24.1257C71.0881 24.1257 76.8495 29.8551 76.8776 36.9015C76.8944 40.2671 75.5705 43.4582 73.1469 45.9008C70.7066 48.3603 67.4921 49.7223 64.0869 49.7223H64.0756V49.7279Z" fill="#009EDB"></path><path d="M64.0422 25.2512C70.4825 25.2512 75.7334 30.4685 75.7614 36.907C75.7895 43.2668 70.4769 48.591 64.0927 48.6022C64.0871 48.6022 64.0815 48.6022 64.0815 48.6022C57.6132 48.6022 52.3623 43.3962 52.3398 36.9577C52.3118 30.5079 57.5347 25.2681 64.0086 25.2512C64.0198 25.2512 64.031 25.2512 64.0422 25.2512ZM64.0422 23H64.0086C60.2611 23.0113 56.7493 24.4746 54.1182 27.131C51.5096 29.765 50.079 33.26 50.0958 36.9633C50.1239 44.6175 56.4015 50.8478 64.0815 50.8478C67.8009 50.8422 71.2959 49.3676 73.9494 46.6943C76.5805 44.0378 78.0223 40.5597 78.0054 36.8958C77.9662 29.2359 71.7054 23 64.0422 23Z" fill="white"></path><path d="M59.5264 35.1793L64.6483 41.1676L74.073 30.8682" stroke="white" stroke-width="2" stroke-miterlimit="10" stroke-linecap="round" stroke-linejoin="round"></path><path d="M42.4297 50.8125V53.1328H41.2188V50.8125H42.4297ZM42.2812 63.5703V65.6641H41.0781V63.5703H42.2812ZM43.2969 61.0234C43.2969 60.7266 43.2396 60.4688 43.125 60.25C43.0156 60.0312 42.8307 59.8359 42.5703 59.6641C42.3151 59.4922 41.9714 59.3281 41.5391 59.1719C40.8672 58.9271 40.2786 58.6589 39.7734 58.3672C39.2682 58.0703 38.875 57.7031 38.5938 57.2656C38.3177 56.8281 38.1797 56.276 38.1797 55.6094C38.1797 54.9688 38.3281 54.4141 38.625 53.9453C38.9271 53.4714 39.3464 53.1068 39.8828 52.8516C40.4193 52.5911 41.0417 52.4609 41.75 52.4609C42.3021 52.4609 42.7969 52.5443 43.2344 52.7109C43.6771 52.8724 44.0547 53.1094 44.3672 53.4219C44.6849 53.7344 44.9271 54.1198 45.0938 54.5781C45.2656 55.0312 45.3516 55.5495 45.3516 56.1328H43.2891C43.2891 55.8099 43.2526 55.5234 43.1797 55.2734C43.1068 55.0234 43.0026 54.8125 42.8672 54.6406C42.7318 54.4635 42.5677 54.3307 42.375 54.2422C42.1875 54.1536 41.974 54.1094 41.7344 54.1094C41.3906 54.1094 41.1068 54.1745 40.8828 54.3047C40.6641 54.4349 40.5026 54.612 40.3984 54.8359C40.2995 55.0599 40.25 55.3177 40.25 55.6094C40.25 55.8906 40.3021 56.138 40.4062 56.3516C40.5156 56.5599 40.6979 56.75 40.9531 56.9219C41.2135 57.0938 41.5703 57.2682 42.0234 57.4453C42.7005 57.6953 43.2891 57.9714 43.7891 58.2734C44.2891 58.5703 44.6771 58.9349 44.9531 59.3672C45.2292 59.7995 45.3672 60.3464 45.3672 61.0078C45.3672 61.6849 45.2109 62.2578 44.8984 62.7266C44.5911 63.1953 44.1589 63.5521 43.6016 63.7969C43.0443 64.0417 42.3958 64.1641 41.6562 64.1641C41.1823 64.1641 40.7135 64.1016 40.25 63.9766C39.7865 63.8516 39.3646 63.6484 38.9844 63.3672C38.6094 63.0807 38.3099 62.7031 38.0859 62.2344C37.862 61.7604 37.75 61.1797 37.75 60.4922H39.8203C39.8203 60.888 39.8724 61.2161 39.9766 61.4766C40.0807 61.737 40.2214 61.9453 40.3984 62.1016C40.5755 62.2526 40.7734 62.3594 40.9922 62.4219C41.2109 62.4844 41.4323 62.5156 41.6562 62.5156C42.0208 62.5156 42.3229 62.4531 42.5625 62.3281C42.8073 62.2031 42.9896 62.0286 43.1094 61.8047C43.2344 61.5755 43.2969 61.3151 43.2969 61.0234Z" fill="#042745"></path></g><defs><clipPath id="clip0_671_332"><rect width="61" height="51" fill="white" transform="translate(18 23)"></rect></clipPath></defs></svg>