<svg xmlns="http://www.w3.org/2000/svg" width="97" height="97" viewBox="0 0 97 97" fill="none"><rect width="97" height="97" rx="10" fill="#E6F4F9"></rect><rect x="20" y="37" width="50" height="37" rx="9" fill="white" stroke="#042745" stroke-width="2"></rect><path d="M25.8145 47.3081L45.2533 60.5887L64.3599 47.3081" stroke="#042745" stroke-width="2" stroke-miterlimit="10" stroke-linecap="round"></path><path d="M62.4907 66.7748C62.8814 67.1651 63.5146 67.1649 63.905 66.7742C64.2953 66.3835 64.2951 65.7504 63.9044 65.36L62.4907 66.7748ZM52.0237 56.3163L62.4907 66.7748L63.9044 65.36L53.4373 54.9015L52.0237 56.3163Z" fill="#042745"></path><path d="M28.7065 66.7748C28.3158 67.1651 27.6827 67.1649 27.2923 66.7742C26.902 66.3835 26.9022 65.7504 27.2929 65.36L28.7065 66.7748ZM39.1736 56.3163L28.7065 66.7748L27.2929 65.36L37.76 54.9015L39.1736 56.3163Z" fill="#042745"></path><circle cx="64.3418" cy="36" r="14" fill="#009EDB"></circle><path d="M70.7207 39.6758C70.8848 39.8398 70.9668 40.0586 70.9668 40.25C70.9395 40.7148 70.6113 41.125 70.0645 41.125H59.5918C59.0449 41.125 58.7168 40.7148 58.7168 40.25C58.6895 40.0586 58.7715 39.8398 58.9355 39.6758C59.4551 39.1016 60.4668 38.2539 60.4668 35.4375C60.4668 33.332 61.9434 31.6367 63.9668 31.1992V30.625C63.9668 30.1602 64.3496 29.75 64.8418 29.75C65.3066 29.75 65.6895 30.1602 65.6895 30.625V31.1992C67.7129 31.6367 69.1895 33.332 69.1895 35.4375C69.1895 38.2539 70.2012 39.1016 70.7207 39.6758ZM60.5488 39.8125H69.1074C68.5332 39.0742 67.9043 37.7891 67.877 35.4648C67.877 35.4648 67.9043 35.4648 67.9043 35.4375C67.9043 33.7695 66.5098 32.375 64.8418 32.375C63.1465 32.375 61.7793 33.7695 61.7793 35.4375C61.7793 35.4648 61.7793 35.4648 61.7793 35.4648C61.752 37.7891 61.123 39.0742 60.5488 39.8125ZM64.8418 43.75C63.8574 43.75 63.0918 42.9844 63.0918 42H66.5645C66.5645 42.9844 65.7988 43.75 64.8418 43.75Z" fill="white"></path></svg>