<svg xmlns="http://www.w3.org/2000/svg" width="59" height="51" viewBox="0 0 59 51" fill="none"><g clip-path="url(#clip0_223_688)"><path d="M5.33594 25.5C5.33575 20.3327 7.00179 15.3018 10.0888 11.148C13.1758 6.99428 17.5206 3.93707 22.4837 2.42649C27.4467 0.915917 32.7657 1.03179 37.6577 2.75705C42.5496 4.4823 46.756 7.72579 49.6576 12.01" stroke="#042745" stroke-width="1.8" stroke-miterlimit="10" stroke-linecap="round"></path><path d="M53.7981 25.5C53.799 30.6825 52.1238 35.7275 49.0206 39.8883C45.9174 44.049 41.551 47.1042 36.568 48.6016C31.585 50.099 26.2501 49.959 21.3532 48.2023C16.4563 46.4457 12.2577 43.1657 9.37891 38.848" stroke="#042745" stroke-width="1.8" stroke-miterlimit="10" stroke-linecap="round"></path><circle cx="29.5" cy="25.5" r="18.5" fill="white"></circle><path d="M48.4206 25.5V24.6L46.6206 24.6V25.5L48.4206 25.5ZM29.568 42.482C29.0709 42.4822 28.6682 42.8853 28.6684 43.3824C28.6686 43.8794 29.0717 44.2822 29.5687 44.282L29.568 42.482ZM46.6206 25.5C46.6206 30.0014 44.8252 34.3194 41.6278 37.5042L42.8981 38.7795C46.4337 35.2577 48.4206 30.4812 48.4206 25.5L46.6206 25.5ZM41.6278 37.5042C38.4303 40.6892 34.0925 42.4801 29.568 42.482L29.5687 44.282C34.568 44.2799 39.3626 42.3011 42.8981 38.7795L41.6278 37.5042Z" fill="#042745"></path><path d="M11.6074 25.5C11.6074 23.1521 12.072 20.8271 12.9747 18.658C13.8773 16.4889 15.2003 14.5181 16.8682 12.8582C18.536 11.1983 20.5159 9.8818 22.6948 8.98396C24.8738 8.08612 27.209 7.62451 29.5671 7.62549" stroke="#042745" stroke-width="1.8" stroke-miterlimit="10" stroke-linecap="round"></path><path d="M43.8281 24.8287L50.5499 15.447L57.2717 24.8287H43.8281Z" stroke="#042745" stroke-width="1.8" stroke-miterlimit="10" stroke-linecap="round" stroke-linejoin="round"></path><path d="M15.1721 25.8286L8.45028 35.2103L1.72852 25.8286H15.1721Z" stroke="#042745" stroke-width="1.8" stroke-miterlimit="10" stroke-linecap="round" stroke-linejoin="round"></path><path d="M30.8457 17.5254V20.4062H29.3223V17.5254H30.8457ZM30.6602 33.4727V36.0996H29.1367V33.4727H30.6602ZM31.7344 30.2695C31.7344 29.8984 31.666 29.5827 31.5293 29.3223C31.3991 29.0618 31.1842 28.8307 30.8848 28.6289C30.5918 28.4271 30.1947 28.2318 29.6934 28.043C28.847 27.7174 28.1016 27.3724 27.457 27.0078C26.819 26.6367 26.321 26.1777 25.9629 25.6309C25.6048 25.0775 25.4258 24.3776 25.4258 23.5312C25.4258 22.724 25.6178 22.0241 26.002 21.4316C26.3861 20.8392 26.9167 20.3835 27.5938 20.0645C28.2773 19.7389 29.0716 19.5762 29.9766 19.5762C30.6667 19.5762 31.2917 19.6803 31.8516 19.8887C32.4115 20.0905 32.8932 20.39 33.2969 20.7871C33.7005 21.1777 34.0098 21.6562 34.2246 22.2227C34.4395 22.7891 34.5469 23.4368 34.5469 24.166H31.7441C31.7441 23.7754 31.7018 23.4303 31.6172 23.1309C31.5326 22.8314 31.4089 22.5807 31.2461 22.3789C31.0898 22.1771 30.901 22.0273 30.6797 21.9297C30.4583 21.8255 30.2142 21.7734 29.9473 21.7734C29.5501 21.7734 29.2246 21.8516 28.9707 22.0078C28.7168 22.1641 28.5312 22.3757 28.4141 22.6426C28.3034 22.903 28.248 23.2025 28.248 23.541C28.248 23.873 28.3066 24.1628 28.4238 24.4102C28.5475 24.6576 28.7591 24.8854 29.0586 25.0938C29.3581 25.2956 29.7682 25.5039 30.2891 25.7188C31.1354 26.0443 31.8776 26.3958 32.5156 26.7734C33.1536 27.151 33.6517 27.6133 34.0098 28.1602C34.3678 28.707 34.5469 29.4036 34.5469 30.25C34.5469 31.0898 34.3516 31.806 33.9609 32.3984C33.5703 32.9844 33.0234 33.4336 32.3203 33.7461C31.6172 34.0521 30.8034 34.2051 29.8789 34.2051C29.2799 34.2051 28.6842 34.127 28.0918 33.9707C27.4993 33.8079 26.9622 33.5475 26.4805 33.1895C25.9987 32.8314 25.6146 32.3561 25.3281 31.7637C25.0417 31.1647 24.8984 30.429 24.8984 29.5566H27.7109C27.7109 30.0319 27.7728 30.429 27.8965 30.748C28.0202 31.0605 28.1829 31.3112 28.3848 31.5C28.5931 31.6823 28.8275 31.8125 29.0879 31.8906C29.3483 31.9688 29.612 32.0078 29.8789 32.0078C30.2956 32.0078 30.6374 31.9329 30.9043 31.7832C31.1777 31.6335 31.3828 31.4284 31.5195 31.168C31.6628 30.901 31.7344 30.6016 31.7344 30.2695Z" fill="#009EDB"></path></g><defs><clipPath id="clip0_223_688"><rect width="59" height="51" fill="white"></rect></clipPath></defs></svg>