<svg xmlns="http://www.w3.org/2000/svg" width="80" height="80" viewBox="0 0 80 80" fill="none"><rect width="80" height="80" rx="10" fill="#E6F4F9"></rect><path d="M18.2109 63.7423L40.0015 61.1522L62.0735 63.7423" stroke="#042745" stroke-width="2" stroke-linecap="round"></path><path d="M15 61.0959V24.8346C15 24.8346 20.2928 22.3571 27.5 22.3571C34.7072 22.3571 40 24.4968 40 24.4968V61.0959C40 61.0959 32.5137 58.8436 27.5 58.8436C22.4863 58.8436 15 61.0959 15 61.0959Z" fill="white" stroke="#042745" stroke-width="2" stroke-linejoin="round"></path><path d="M65 61.0959V24.8347C65 24.8347 59.7072 22.3572 52.5 22.3572C45.2928 22.3572 40 24.4968 40 24.4968V61.0959C40 61.0959 47.4863 58.8437 52.5 58.8437C57.5137 58.8437 65 61.0959 65 61.0959Z" fill="white" stroke="#042745" stroke-width="2" stroke-linejoin="round"></path><line x1="19.8281" y1="31.555" x2="35.0579" y2="31.555" stroke="#BCCCDC" stroke-width="2" stroke-linecap="round"></line><line x1="45.5059" y1="31.555" x2="60.7356" y2="31.555" stroke="#BCCCDC" stroke-width="2" stroke-linecap="round"></line><line x1="19.8281" y1="36.9308" x2="35.0579" y2="36.9308" stroke="#BCCCDC" stroke-width="2" stroke-linecap="round"></line><line x1="45.5059" y1="36.9308" x2="60.7356" y2="36.9308" stroke="#BCCCDC" stroke-width="2" stroke-linecap="round"></line><line x1="19.8281" y1="41.8489" x2="35.0579" y2="41.8489" stroke="#BCCCDC" stroke-width="2" stroke-linecap="round"></line><line x1="45.5059" y1="41.8489" x2="60.7356" y2="41.8489" stroke="#BCCCDC" stroke-width="2" stroke-linecap="round"></line><line x1="19.8281" y1="46.7669" x2="35.0579" y2="46.7669" stroke="#BCCCDC" stroke-width="2" stroke-linecap="round"></line><line x1="45.5059" y1="46.7669" x2="60.7356" y2="46.7669" stroke="#BCCCDC" stroke-width="2" stroke-linecap="round"></line><line x1="19.8281" y1="51.685" x2="26.9497" y2="51.685" stroke="#BCCCDC" stroke-width="2" stroke-linecap="round"></line><line x1="45.5059" y1="51.685" x2="52.6275" y2="51.685" stroke="#BCCCDC" stroke-width="2" stroke-linecap="round"></line><circle cx="40.0008" cy="32.1786" r="15.1786" fill="#009EDB"></circle><path d="M40.9648 23.567C45.7461 23.567 49.6836 27.5045 49.6836 32.2857C49.6836 37.1021 45.7461 41.0045 40.9648 41.0045C36.1484 41.0045 32.2461 37.1021 32.2461 32.2857C32.2461 27.5045 36.1484 23.567 40.9648 23.567ZM40.9648 27.4341C40.1211 27.4341 39.4883 28.1021 39.4883 28.9107C39.4883 29.7545 40.1211 30.3873 40.9648 30.3873C41.7734 30.3873 42.4414 29.7545 42.4414 28.9107C42.4414 28.1021 41.7734 27.4341 40.9648 27.4341ZM42.9336 36.3638V35.5201C42.9336 35.3091 42.7227 35.0982 42.5117 35.0982H42.0898V31.5826C42.0898 31.3716 41.8789 31.1607 41.668 31.1607H39.418C39.1719 31.1607 38.9961 31.3716 38.9961 31.5826V32.4263C38.9961 32.6724 39.1719 32.8482 39.418 32.8482H39.8398V35.0982H39.418C39.1719 35.0982 38.9961 35.3091 38.9961 35.5201V36.3638C38.9961 36.6099 39.1719 36.7857 39.418 36.7857H42.5117C42.7227 36.7857 42.9336 36.6099 42.9336 36.3638Z" fill="white"></path></svg>