<svg xmlns="http://www.w3.org/2000/svg" width="60" height="56" viewBox="0 0 60 56" fill="none"><path d="M1 28H21V52C14.4769 53.9569 7.52306 53.9569 1 52V28Z" fill="white"></path><path d="M21 51V29H1V51" stroke="#042745" stroke-width="2"></path><ellipse cx="11" cy="28" rx="10" ry="4" fill="white" stroke="#042745" stroke-width="2"></ellipse><path d="M21 36C21 37.6569 16.5228 39 11 39C5.47715 39 1 37.6569 1 36" stroke="#042745" stroke-width="2" stroke-linecap="square"></path><path d="M21 43C21 44.6569 16.5228 46 11 46C5.47715 46 1 44.6569 1 43" stroke="#042745" stroke-width="2" stroke-linecap="square"></path><path d="M21 51C21 52.6569 16.5228 54 11 54C5.47715 54 1 52.6569 1 51" stroke="#042745" stroke-width="2" stroke-linecap="square"></path><path d="M23 37H43V52.8889C36.4873 54.9151 29.5127 54.9151 23 52.8889V37Z" fill="white"></path><path d="M43 52V38H23V52" stroke="#042745" stroke-width="2"></path><ellipse cx="33" cy="37.5" rx="10" ry="3.5" fill="white" stroke="#042745" stroke-width="2"></ellipse><path d="M43 44C43 45.6569 38.5228 47 33 47C27.4772 47 23 45.6569 23 44" stroke="#042745" stroke-width="2" stroke-linecap="square"></path><path d="M43 52C43 53.6569 38.5228 55 33 55C27.4772 55 23 53.6569 23 52" stroke="#042745" stroke-width="2" stroke-linecap="square"></path><circle cx="29" cy="12" r="12" fill="#009EDB"></circle><path d="M28.06 18.2C27.1933 18.1733 26.42 18.0933 25.74 17.96C25.06 17.8133 24.44 17.6133 23.88 17.36V14.78C24.4267 15.0467 25.0867 15.2933 25.86 15.52C26.6333 15.7333 27.3667 15.86 28.06 15.9V12.88C27.2867 12.5733 26.6267 12.28 26.08 12C25.5467 11.72 25.1133 11.4267 24.78 11.12C24.46 10.8 24.2267 10.4533 24.08 10.08C23.9333 9.69333 23.86 9.25333 23.86 8.76C23.86 8.09333 24.0333 7.52 24.38 7.04C24.74 6.54667 25.2333 6.15333 25.86 5.86C26.5 5.56667 27.2333 5.38667 28.06 5.32V3.82H29.4V5.28C30.1467 5.30667 30.8467 5.39333 31.5 5.54C32.1667 5.68667 32.8133 5.9 33.44 6.18L32.52 8.46C31.9867 8.23333 31.4467 8.06 30.9 7.94C30.3667 7.82 29.8667 7.74 29.4 7.7V10.58C30.12 10.8467 30.8067 11.14 31.46 11.46C32.1133 11.7667 32.64 12.16 33.04 12.64C33.4533 13.12 33.66 13.7533 33.66 14.54C33.66 15.5133 33.3067 16.3267 32.6 16.98C31.8933 17.6333 30.8267 18.0267 29.4 18.16V20.16H28.06V18.2ZM29.4 15.84C29.8533 15.76 30.1867 15.6267 30.4 15.44C30.6133 15.24 30.72 14.9867 30.72 14.68C30.72 14.4933 30.6667 14.3333 30.56 14.2C30.4667 14.0533 30.32 13.92 30.12 13.8C29.9333 13.6667 29.6933 13.5333 29.4 13.4V15.84ZM28.06 7.74C27.7933 7.78 27.5667 7.84667 27.38 7.94C27.1933 8.02 27.0467 8.13333 26.94 8.28C26.8467 8.41333 26.8 8.57333 26.8 8.76C26.8 8.94667 26.84 9.11333 26.92 9.26C27.0133 9.39333 27.1533 9.52667 27.34 9.66C27.5267 9.78 27.7667 9.90667 28.06 10.04V7.74Z" fill="white"></path><path d="M49.5 4C49.5 3.17157 48.8284 2.5 48 2.5C47.1716 2.5 46.5 3.17157 46.5 4L49.5 4ZM46.9393 35.0607C47.5251 35.6464 48.4749 35.6464 49.0607 35.0607L58.6066 25.5147C59.1924 24.9289 59.1924 23.9792 58.6066 23.3934C58.0208 22.8076 57.0711 22.8076 56.4853 23.3934L48 31.8787L39.5147 23.3934C38.9289 22.8076 37.9792 22.8076 37.3934 23.3934C36.8076 23.9792 36.8076 24.9289 37.3934 25.5147L46.9393 35.0607ZM46.5 4L46.5 34L49.5 34L49.5 4L46.5 4Z" fill="#009EDB"></path></svg>