<svg xmlns="http://www.w3.org/2000/svg" width="97" height="97" viewBox="0 0 97 97" fill="none"><rect width="97" height="97" rx="10" fill="#E6F4F9"></rect><path d="M25.5947 69.3513L50.0001 66.4504L74.7208 69.3513" stroke="#042745" stroke-width="2" stroke-linecap="round"></path><path d="M22 66.3874V25.7748C22 25.7748 27.9279 23 36 23C44.0721 23 50 25.3964 50 25.3964V66.3874C50 66.3874 41.6153 63.8649 36 63.8649C30.3847 63.8649 22 66.3874 22 66.3874Z" fill="white" stroke="#042745" stroke-width="2" stroke-linejoin="round"></path><path d="M78 66.3874V25.7748C78 25.7748 72.0721 23 64 23C55.9279 23 50 25.3964 50 25.3964V66.3874C50 66.3874 58.3847 63.8649 64 63.8649C69.6153 63.8649 78 66.3874 78 66.3874Z" fill="white" stroke="#042745" stroke-width="2" stroke-linejoin="round"></path><line x1="27.2891" y1="33.4216" x2="44.5864" y2="33.4216" stroke="#EBEEF3" stroke-width="2" stroke-linecap="round"></line><line x1="56.0488" y1="33.4216" x2="73.3461" y2="33.4216" stroke="#EBEEF3" stroke-width="2" stroke-linecap="round"></line><line x1="27.2891" y1="39.4426" x2="44.5864" y2="39.4426" stroke="#EBEEF3" stroke-width="2" stroke-linecap="round"></line><line x1="56.0488" y1="39.4426" x2="73.3461" y2="39.4426" stroke="#EBEEF3" stroke-width="2" stroke-linecap="round"></line><line x1="27.2891" y1="44.9509" x2="44.5864" y2="44.9509" stroke="#EBEEF3" stroke-width="2" stroke-linecap="round"></line><line x1="56.0488" y1="44.9509" x2="73.3461" y2="44.9509" stroke="#EBEEF3" stroke-width="2" stroke-linecap="round"></line><line x1="27.2891" y1="50.459" x2="44.5864" y2="50.459" stroke="#EBEEF3" stroke-width="2" stroke-linecap="round"></line><line x1="56.0488" y1="50.459" x2="73.3461" y2="50.459" stroke="#EBEEF3" stroke-width="2" stroke-linecap="round"></line><line x1="27.2891" y1="55.9673" x2="35.5053" y2="55.9673" stroke="#EBEEF3" stroke-width="2" stroke-linecap="round"></line><line x1="56.0488" y1="55.9673" x2="64.265" y2="55.9673" stroke="#EBEEF3" stroke-width="2" stroke-linecap="round"></line><circle cx="50" cy="34" r="17" fill="#009EDB"></circle><path d="M50 25.5312C54.7812 25.5312 58.7188 29.4688 58.7188 34.25C58.7188 39.0664 54.7812 42.9688 50 42.9688C45.1836 42.9688 41.2812 39.0664 41.2812 34.25C41.2812 29.4688 45.1836 25.5312 50 25.5312ZM50 29.3984C49.1562 29.3984 48.5234 30.0664 48.5234 30.875C48.5234 31.7188 49.1562 32.3516 50 32.3516C50.8086 32.3516 51.4766 31.7188 51.4766 30.875C51.4766 30.0664 50.8086 29.3984 50 29.3984ZM51.9688 38.3281V37.4844C51.9688 37.2734 51.7578 37.0625 51.5469 37.0625H51.125V33.5469C51.125 33.3359 50.9141 33.125 50.7031 33.125H48.4531C48.207 33.125 48.0312 33.3359 48.0312 33.5469V34.3906C48.0312 34.6367 48.207 34.8125 48.4531 34.8125H48.875V37.0625H48.4531C48.207 37.0625 48.0312 37.2734 48.0312 37.4844V38.3281C48.0312 38.5742 48.207 38.75 48.4531 38.75H51.5469C51.7578 38.75 51.9688 38.5742 51.9688 38.3281Z" fill="white"></path></svg>