<svg xmlns="http://www.w3.org/2000/svg" width="46" height="40" viewBox="0 0 46 40" fill="none"><path d="M20.0001 36.5535H5.90673C3.82962 36.5535 2.146 34.8981 2.146 32.8559V5.84166C2.146 3.79942 3.82962 2.14404 5.90673 2.14404H23.5205C25.5976 2.14404 27.2812 3.79942 27.2812 5.84166V13.3332" stroke="#009EDB" stroke-width="3" stroke-miterlimit="10" stroke-linecap="round"></path><path d="M8.20508 12.3076H19.4871" stroke="#009EDB" stroke-width="3" stroke-miterlimit="10" stroke-linecap="round"></path><path d="M8.20508 19.4873H19.4871" stroke="#009EDB" stroke-width="3" stroke-miterlimit="10" stroke-linecap="round"></path><path d="M8.1748 26.667H14.0391" stroke="#009EDB" stroke-width="3" stroke-miterlimit="10" stroke-linecap="round"></path><path d="M32.5778 37.8557C38.324 37.8557 42.9822 33.2756 42.9822 27.6258C42.9822 21.9761 38.324 17.396 32.5778 17.396C26.8316 17.396 22.1733 21.9761 22.1733 27.6258C22.1733 33.2756 26.8316 37.8557 32.5778 37.8557Z" stroke="#009EDB" stroke-width="3" stroke-miterlimit="10"></path><path d="M28.0376 27.2539L31.0643 30.2299L36.9287 24.8359" stroke="#009EDB" stroke-width="3" stroke-miterlimit="10"></path></svg>