<svg xmlns="http://www.w3.org/2000/svg" width="97" height="97" viewBox="0 0 97 97" fill="none"><rect width="97" height="97" rx="10" fill="#E6F4F9"></rect><path d="M15.916 73.4895L42.5005 70.3296L69.4284 73.4895" stroke="#042745" stroke-width="2" stroke-linecap="round"></path><path d="M12 70.2613V26.0225C12 26.0225 18.4572 23 27.25 23C36.0428 23 42.5 25.6104 42.5 25.6104V70.2613C42.5 70.2613 33.3667 67.5135 27.25 67.5135C21.1333 67.5135 12 70.2613 12 70.2613Z" fill="white" stroke="#042745" stroke-width="2" stroke-linejoin="round"></path><path d="M73 70.2613V26.0225C73 26.0225 66.5428 23 57.75 23C48.9572 23 42.5 25.6104 42.5 25.6104V70.2613C42.5 70.2613 51.6333 67.5135 57.75 67.5135C63.8667 67.5135 73 70.2613 73 70.2613Z" fill="white" stroke="#042745" stroke-width="2" stroke-linejoin="round"></path><line x1="17.6719" y1="34.4414" x2="36.6921" y2="34.4414" stroke="#102A43" stroke-width="2" stroke-linecap="round"></line><line x1="17.6719" y1="40.0742" x2="36.6921" y2="40.0742" stroke="#102A43" stroke-width="2" stroke-linecap="round"></line><line x1="17.6719" y1="45.5698" x2="36.6921" y2="45.5698" stroke="#102A43" stroke-width="2" stroke-linecap="round"></line><line x1="17.6719" y1="51.2026" x2="26.8003" y2="51.2026" stroke="#102A43" stroke-width="2" stroke-linecap="round"></line><path d="M73.1003 52.1982L72.2428 51.6838C73.1003 52.1982 73.1003 52.1983 73.1002 52.1984L73.1001 52.1986L73.0996 52.1993L73.0982 52.2017L73.0933 52.2098L73.0754 52.2394C73.0599 52.2648 73.0375 52.3016 73.0088 52.3482C72.9514 52.4413 72.8686 52.5742 72.7657 52.7354C72.5605 53.0572 72.273 53.4956 71.9456 53.9593C71.6197 54.4207 71.2456 54.9196 70.8671 55.3571C70.5054 55.7751 70.0763 56.2127 69.6365 56.4788C68.7112 57.0388 67.4551 57.3143 66.5337 57.4579C66.0537 57.5327 65.6249 57.5772 65.3159 57.6031C65.1609 57.6161 65.0349 57.6245 64.9464 57.6297C64.9021 57.6323 64.867 57.6341 64.8423 57.6353L64.8131 57.6366L64.8046 57.637L64.8018 57.6371L64.8009 57.6372L64.8005 57.6372C64.8003 57.6372 64.8002 57.6372 64.7617 56.6379M73.1003 52.1982L81.4464 31.9578C82.2494 30.9627 83.4302 30.1917 84.6791 30.4664C85.0112 30.5394 85.3238 30.6578 85.5594 30.8446C86.4455 31.5472 86.5784 33.0275 86.5784 33.0275M73.1003 52.1982L73.539 51.4668L73.6324 51.5409L74.2537 50.7573L78.1342 45.8639M73.1003 52.1982L78.1342 45.8639M64.7617 56.6379C63.7747 56.7984 63.7747 56.7983 63.7746 56.7981L63.7746 56.7978L63.7744 56.7969L63.7741 56.7945L63.7728 56.7868L63.7688 56.7606C63.7654 56.7385 63.7606 56.707 63.7549 56.6672C63.7434 56.5875 63.7279 56.474 63.711 56.3337C63.6772 56.054 63.6371 55.6641 63.6119 55.2221C63.5637 54.372 63.5618 53.2011 63.8416 52.2585C63.9131 52.0177 64.0429 51.7771 64.16 51.5815C64.2866 51.3701 64.4417 51.141 64.6082 50.9095C64.9416 50.4458 65.3514 49.9298 65.7427 49.455C66.1358 48.9779 66.519 48.5319 66.8032 48.2058C66.9456 48.0425 67.0636 47.9087 67.1463 47.8154C67.1877 47.7688 67.2202 47.7323 67.2426 47.7072L67.2683 47.6784L67.2752 47.6708L67.277 47.6687L67.2776 47.6681L67.2777 47.668C67.2778 47.6679 67.2778 47.6678 68.0215 48.3363L67.2778 47.6678L67.9063 46.9687L67.9935 47.0379L68.6114 46.2722L80.6682 31.3299C81.561 30.2233 83.0899 29.0929 84.8939 29.4897C85.3018 29.5795 85.7791 29.7425 86.1808 30.061M64.7617 56.6379L64.8002 57.6372L63.9166 57.6712L63.7747 56.7984L64.7617 56.6379ZM86.1808 30.061L85.5601 30.8437L86.1808 30.061C86.1808 30.061 86.1808 30.061 86.1808 30.061ZM86.1808 30.061C86.8559 30.5964 87.1885 31.3697 87.3551 31.8995C87.4431 32.1794 87.4967 32.4303 87.5287 32.6122C87.5448 32.7039 87.5557 32.7798 87.5628 32.8354C87.5664 32.8632 87.569 32.886 87.5709 32.9033L87.5732 32.925L87.5739 32.9326L87.5742 32.9356L87.5743 32.9369L87.5744 32.9375C87.5744 32.9378 87.5744 32.9381 86.5784 33.0275M86.5784 33.0275L87.5744 32.9381L87.598 33.2003L87.4893 33.4402L87.052 34.4054C87.0656 34.4426 87.0796 34.4815 87.0937 34.5218C87.1927 34.8042 87.3283 35.2322 87.3731 35.6204C87.384 35.7146 87.3899 35.8082 87.3926 35.8972C87.4281 37.0481 86.8702 38.0266 86.307 38.7368L80.6008 45.9325C80.0721 46.5993 79.1028 46.7112 78.436 46.1825C78.3178 46.0887 78.2171 45.9812 78.1342 45.8639M86.5784 33.0275L85.9672 34.3766L78.1342 45.8639" fill="#009EDB" stroke="white" stroke-width="2" stroke-linecap="round"></path><path d="M50 56.2377C50.3809 54.0789 51.6254 49.7107 53.5555 49.5076C55.9682 49.2536 54.3174 56.9995 56.2221 56.8726C58.1269 56.7456 59.0158 54.9678 60.2856 55.0948C61.5554 55.2218 61.9364 58.1424 63.0792 58.1424C63.9935 58.1424 64.73 57.2958 64.9839 56.8726" stroke="#009EDB" stroke-width="2" stroke-linecap="round"></path></svg>