<svg xmlns="http://www.w3.org/2000/svg" width="80" height="80" viewBox="0 0 80 80" fill="none"><rect width="80" height="80" rx="10" fill="#E6F4F9"></rect><path d="M56.1729 52H17.8271C16.9223 52 16 51.1394 16 49.8306V25.1694C16 23.8606 16.9223 23 17.8271 23H56.1729C57.0777 23 58 23.8606 58 25.1694V49.8306C58 51.1394 57.0777 52 56.1729 52Z" fill="white" stroke="#042745" stroke-width="2" stroke-miterlimit="10"></path><path d="M27.489 36.2245H19.7684C19.3425 36.2245 19 35.8832 19 35.4589V27.7656C19 27.3413 19.3425 27 19.7684 27H27.489C27.9148 27 28.2573 27.3413 28.2573 27.7656V35.4589C28.262 35.8832 27.9148 36.2245 27.489 36.2245Z" fill="#009EDB"></path><path d="M22.4261 36.2243V29.2737H19.0703" stroke="white" stroke-width="0.5" stroke-miterlimit="10"></path><path d="M22.4261 31.6814H19.0703" stroke="white" stroke-width="0.5" stroke-miterlimit="10"></path><path d="M22.4261 33.6833H19.0703" stroke="white" stroke-width="0.5" stroke-miterlimit="10"></path><path d="M24.8379 27V33.9507H28.1937" stroke="white" stroke-width="0.5" stroke-miterlimit="10"></path><path d="M24.8379 31.5476H28.1937" stroke="white" stroke-width="0.5" stroke-miterlimit="10"></path><path d="M24.8379 29.5415H28.1937" stroke="white" stroke-width="0.5" stroke-miterlimit="10"></path><path d="M52.1117 33.0651H34.944C33.8702 33.0651 33 32.198 33 31.128V28.9371C33 27.8671 33.8702 27 34.944 27H52.1117C53.1856 27 54.0558 27.8671 54.0558 28.9371V31.128C54.0558 32.198 53.1856 33.0651 52.1117 33.0651Z" fill="#D9E2EC"></path><path d="M25.4806 42H20.5194C19.6809 42 19 41.4494 19 40.7715V40.2285C19 39.5506 19.6809 39 20.5194 39H25.4806C26.3191 39 27 39.5506 27 40.2285V40.7715C27 41.4494 26.3191 42 25.4806 42Z" fill="#D9E2EC"></path><path d="M33.6705 42H29.3295C28.5958 42 28 41.4494 28 40.7715V40.2285C28 39.5506 28.5958 39 29.3295 39H33.6705C34.4042 39 35 39.5506 35 40.2285V40.7715C35 41.4494 34.4042 42 33.6705 42Z" fill="#D9E2EC"></path><path d="M42.4806 42H37.5194C36.6809 42 36 41.4494 36 40.7715V40.2285C36 39.5506 36.6809 39 37.5194 39H42.4806C43.3191 39 44 39.5506 44 40.2285V40.7715C44 41.4494 43.3191 42 42.4806 42Z" fill="#D9E2EC"></path><path d="M50.6705 42H46.3295C45.5958 42 45 41.4494 45 40.7715V40.2285C45 39.5506 45.5958 39 46.3295 39H50.6705C51.4042 39 52 39.5506 52 40.2285V40.7715C52 41.4494 51.4042 42 50.6705 42Z" fill="#D9E2EC"></path><path d="M31.0068 48.5053H19.7267C19.324 48.5053 19 48.1825 19 47.7812V45.7241C19 45.3229 19.324 45 19.7267 45H31.0068C31.4094 45 31.7334 45.3229 31.7334 45.7241V47.7812C31.7334 48.1825 31.4048 48.5053 31.0068 48.5053Z" fill="#D9E2EC"></path><path d="M40.4686 48.4409H35.4604C35.0114 48.4409 34.6504 48.0766 34.6504 47.6338V45.9273C34.6504 45.4799 35.0161 45.1201 35.4604 45.1201H40.4686C40.9176 45.1201 41.2786 45.4845 41.2786 45.9273V47.6338C41.2786 48.0766 40.9176 48.4409 40.4686 48.4409Z" fill="#D9E2EC"></path><path d="M55.3605 56.9971C55.1257 56.9971 54.8909 56.9611 54.6832 56.8891C52.2537 56.0431 50.1584 54.4772 48.614 52.3533C47.0696 50.2294 46.2297 47.7545 46.1755 45.1897C46.1664 44.7577 46.1664 43.5518 46.1664 42.3998C46.1664 41.4009 46.1664 40.3569 46.1664 39.916C46.1574 39.457 46.2929 39.07 46.5638 38.782C46.8528 38.476 47.2412 38.323 47.7199 38.314C50.1493 38.287 52.2989 37.5221 54.3129 35.9832C54.6561 35.7222 54.9993 35.5962 55.3696 35.5962C55.9295 35.5962 56.3269 35.9112 56.4624 36.0102C58.368 37.5041 60.5446 38.296 62.929 38.35C63.9224 38.377 64.5366 39.007 64.5276 39.997C64.5185 40.8159 64.5185 41.6799 64.5185 42.5168C64.5185 43.3988 64.5185 44.3077 64.5095 45.1807C64.4463 50.4004 61.0504 55.1072 56.0469 56.8801C55.8392 56.9611 55.5954 56.9971 55.3605 56.9971Z" fill="#009EDB"></path><path d="M55.3573 38.5657C57.3081 39.9516 59.4666 40.7616 61.8058 40.9866C61.8058 41.4995 61.8058 42.0125 61.8058 42.5255C61.8058 43.4164 61.8058 44.3074 61.7968 45.1533C61.7516 49.1761 59.1686 52.8119 55.3482 54.2608C53.5419 53.5859 51.9705 52.3799 50.8054 50.769C49.5861 49.0951 48.9268 47.1422 48.8817 45.1353C48.8726 44.7124 48.8726 43.5514 48.8726 42.4265C48.8726 41.9135 48.8726 41.4005 48.8726 40.9596C51.2208 40.7526 53.3523 39.9606 55.3573 38.5657ZM55.3663 37.4587L54.8425 37.8187C52.9639 39.1237 50.986 39.8616 48.8004 40.0596L47.9785 40.1406V40.9596V42.4265C47.9785 43.5604 47.9785 44.7304 47.9875 45.1533C48.0327 47.3492 48.7552 49.4731 50.0829 51.3C51.3563 53.0459 53.0723 54.3688 55.0412 55.1068L55.3663 55.2238L55.6824 55.0978C59.8369 53.5139 62.6638 49.5181 62.7089 45.1533C62.718 44.3344 62.718 43.4794 62.718 42.6155V42.5165C62.718 42.0125 62.718 41.4905 62.718 40.9866V40.1676L61.9051 40.0866C59.7285 39.8706 57.7055 39.1147 55.8901 37.8277L55.3663 37.4587Z" fill="#042745"></path><path d="M52.3569 44.0298H52.9175C53.061 44.0298 53.1784 44.0047 53.2695 43.9546C53.363 43.9022 53.4325 43.8293 53.478 43.7358C53.5236 43.6401 53.5464 43.5273 53.5464 43.3975C53.5464 43.2972 53.5247 43.2049 53.4814 43.1206C53.4404 43.0363 53.3766 42.9691 53.29 42.9189C53.2035 42.8665 53.0929 42.8403 52.9585 42.8403C52.8674 42.8403 52.7785 42.8597 52.6919 42.8984C52.6053 42.9349 52.5335 42.9873 52.4766 43.0557C52.4219 43.124 52.3945 43.2072 52.3945 43.3052H51.2393C51.2393 43.0226 51.3167 42.7811 51.4717 42.5806C51.6289 42.3778 51.8351 42.2228 52.0903 42.1157C52.3478 42.0063 52.6247 41.9517 52.9209 41.9517C53.2741 41.9517 53.584 42.0063 53.8506 42.1157C54.1172 42.2228 54.3245 42.3823 54.4727 42.5942C54.623 42.8039 54.6982 43.0636 54.6982 43.3735C54.6982 43.5444 54.6584 43.7051 54.5786 43.8555C54.4989 44.0059 54.3872 44.138 54.2437 44.252C54.1001 44.3659 53.9315 44.4559 53.7378 44.522C53.5464 44.5858 53.3368 44.6177 53.1089 44.6177H52.3569V44.0298ZM52.3569 44.8877V44.3135H53.1089C53.3573 44.3135 53.584 44.342 53.7891 44.3989C53.9941 44.4536 54.1707 44.5356 54.3188 44.645C54.467 44.7544 54.5809 44.89 54.6606 45.0518C54.7404 45.2113 54.7803 45.3947 54.7803 45.6021C54.7803 45.8345 54.7336 46.0418 54.6401 46.2241C54.5467 46.4064 54.4157 46.5602 54.2471 46.6855C54.0785 46.8109 53.8813 46.9066 53.6558 46.9727C53.4302 47.0365 53.1852 47.0684 52.9209 47.0684C52.7135 47.0684 52.5062 47.041 52.2988 46.9863C52.0915 46.9294 51.9023 46.8428 51.7314 46.7266C51.5605 46.6081 51.4227 46.4577 51.3179 46.2754C51.2153 46.0908 51.1641 45.8709 51.1641 45.6157H52.3193C52.3193 45.7205 52.3478 45.8162 52.4048 45.9028C52.464 45.9871 52.5426 46.0544 52.6406 46.1045C52.7386 46.1546 52.8446 46.1797 52.9585 46.1797C53.0998 46.1797 53.2194 46.1535 53.3174 46.1011C53.4176 46.0464 53.494 45.9735 53.5464 45.8823C53.5988 45.7912 53.625 45.6898 53.625 45.5781C53.625 45.4095 53.5965 45.2751 53.5396 45.1748C53.4849 45.0745 53.404 45.0016 53.2969 44.9561C53.1921 44.9105 53.0656 44.8877 52.9175 44.8877H52.3569ZM57.0566 47H55.9526L55.9595 46.0771H57.0566C57.2845 46.0771 57.4771 46.0225 57.6343 45.9131C57.7938 45.8037 57.9146 45.6408 57.9966 45.4243C58.0809 45.2056 58.123 44.9367 58.123 44.6177V44.4023C58.123 44.1631 58.0991 43.9535 58.0513 43.7734C58.0057 43.5911 57.9373 43.4396 57.8462 43.3188C57.755 43.1958 57.6411 43.1035 57.5044 43.042C57.37 42.9805 57.215 42.9497 57.0396 42.9497H55.9321V42.0234H57.0396C57.3768 42.0234 57.6855 42.0815 57.9658 42.1978C58.2484 42.3117 58.4922 42.4757 58.6973 42.6899C58.9046 42.9019 59.0641 43.1536 59.1758 43.4453C59.2897 43.7347 59.3467 44.056 59.3467 44.4092V44.6177C59.3467 44.9686 59.2897 45.2899 59.1758 45.5815C59.0641 45.8732 58.9058 46.125 58.7007 46.3369C58.4956 46.5488 58.2529 46.7129 57.9727 46.8291C57.6947 46.943 57.3893 47 57.0566 47ZM56.6396 42.0234V47H55.4399V42.0234H56.6396Z" fill="white"></path><path d="M52.8537 48.7576C52.8537 48.7244 52.8485 48.6951 52.8381 48.6697C52.8283 48.6436 52.8107 48.6202 52.7854 48.5994C52.7606 48.5785 52.7261 48.5587 52.6818 48.5398C52.6382 48.5209 52.5829 48.5017 52.5158 48.4822C52.4455 48.4613 52.382 48.4382 52.3254 48.4128C52.2688 48.3868 52.2202 48.3572 52.1799 48.324C52.1395 48.2908 52.1086 48.2527 52.0871 48.2097C52.0656 48.1667 52.0549 48.1176 52.0549 48.0623C52.0549 48.0069 52.0663 47.9558 52.0891 47.9089C52.1119 47.8621 52.1444 47.8214 52.1867 47.7869C52.2297 47.7517 52.2808 47.7244 52.34 47.7048C52.3993 47.6853 52.4654 47.6755 52.5383 47.6755C52.6451 47.6755 52.7355 47.696 52.8098 47.7371C52.8846 47.7774 52.9416 47.8305 52.9807 47.8962C53.0197 47.9613 53.0393 48.031 53.0393 48.1052H52.8518C52.8518 48.0518 52.8404 48.0046 52.8176 47.9636C52.7948 47.922 52.7603 47.8894 52.7141 47.866C52.6678 47.8419 52.6092 47.8298 52.5383 47.8298C52.4712 47.8298 52.4159 47.8399 52.3723 47.8601C52.3286 47.8803 52.2961 47.9076 52.2746 47.9421C52.2538 47.9766 52.2434 48.016 52.2434 48.0603C52.2434 48.0903 52.2495 48.1176 52.2619 48.1423C52.2749 48.1664 52.2948 48.1889 52.3215 48.2097C52.3488 48.2306 52.3833 48.2498 52.425 48.2673C52.4673 48.2849 52.5178 48.3018 52.5764 48.3181C52.6571 48.3409 52.7268 48.3663 52.7854 48.3943C52.8439 48.4223 52.8921 48.4539 52.9299 48.489C52.9683 48.5235 52.9966 48.5629 53.0148 48.6072C53.0337 48.6508 53.0432 48.7003 53.0432 48.7556C53.0432 48.8136 53.0314 48.866 53.008 48.9128C52.9846 48.9597 52.951 48.9998 52.9074 49.033C52.8638 49.0662 52.8114 49.0919 52.7502 49.1101C52.6897 49.1277 52.6219 49.1365 52.5471 49.1365C52.4813 49.1365 52.4165 49.1274 52.3527 49.1091C52.2896 49.0909 52.232 49.0636 52.1799 49.0271C52.1285 48.9906 52.0871 48.9457 52.0559 48.8923C52.0253 48.8383 52.01 48.7758 52.01 48.7048H52.1975C52.1975 48.7537 52.2069 48.7957 52.2258 48.8308C52.2447 48.8653 52.2704 48.894 52.3029 48.9167C52.3361 48.9395 52.3736 48.9565 52.4152 48.9675C52.4576 48.9779 52.5015 48.9832 52.5471 48.9832C52.6128 48.9832 52.6685 48.974 52.7141 48.9558C52.7596 48.9376 52.7941 48.9115 52.8176 48.8777C52.8417 48.8438 52.8537 48.8038 52.8537 48.7576ZM53.6945 49.1365C53.621 49.1365 53.5542 49.1241 53.4943 49.0994C53.4351 49.074 53.384 49.0385 53.341 48.9929C53.2987 48.9473 53.2661 48.8933 53.2434 48.8308C53.2206 48.7683 53.2092 48.7 53.2092 48.6257V48.5847C53.2092 48.4988 53.2219 48.4223 53.2473 48.3552C53.2727 48.2875 53.3072 48.2302 53.3508 48.1833C53.3944 48.1365 53.4439 48.101 53.4992 48.0769C53.5546 48.0528 53.6119 48.0408 53.6711 48.0408C53.7466 48.0408 53.8117 48.0538 53.8664 48.0798C53.9217 48.1059 53.967 48.1423 54.0022 48.1892C54.0373 48.2354 54.0633 48.2901 54.0803 48.3533C54.0972 48.4158 54.1057 48.4841 54.1057 48.5583V48.6394H53.3166V48.4919H53.925V48.4783C53.9224 48.4314 53.9126 48.3858 53.8957 48.3416C53.8794 48.2973 53.8534 48.2608 53.8176 48.2322C53.7818 48.2035 53.7329 48.1892 53.6711 48.1892C53.6301 48.1892 53.5923 48.198 53.5578 48.2156C53.5233 48.2325 53.4937 48.2579 53.4689 48.2917C53.4442 48.3256 53.425 48.3669 53.4113 48.4158C53.3977 48.4646 53.3908 48.5209 53.3908 48.5847V48.6257C53.3908 48.6759 53.3977 48.7231 53.4113 48.7673C53.4257 48.811 53.4462 48.8494 53.4729 48.8826C53.5002 48.9158 53.5331 48.9418 53.5715 48.9607C53.6105 48.9796 53.6548 48.989 53.7043 48.989C53.7681 48.989 53.8221 48.976 53.8664 48.95C53.9107 48.9239 53.9494 48.8891 53.9826 48.8455L54.092 48.9324C54.0692 48.9669 54.0402 48.9998 54.0051 49.031C53.9699 49.0623 53.9266 49.0876 53.8752 49.1072C53.8244 49.1267 53.7642 49.1365 53.6945 49.1365ZM54.7395 48.988C54.7824 48.988 54.8221 48.9792 54.8586 48.9617C54.8951 48.9441 54.925 48.92 54.9484 48.8894C54.9719 48.8582 54.9852 48.8227 54.9885 48.783H55.1604C55.1571 48.8455 55.1359 48.9037 55.0969 48.9578C55.0585 49.0111 55.008 49.0544 54.9455 49.0876C54.883 49.1202 54.8143 49.1365 54.7395 49.1365C54.66 49.1365 54.5907 49.1225 54.5314 49.0945C54.4729 49.0665 54.424 49.0281 54.385 48.9792C54.3466 48.9304 54.3176 48.8744 54.298 48.8113C54.2792 48.7475 54.2697 48.6801 54.2697 48.6091V48.5681C54.2697 48.4972 54.2792 48.4301 54.298 48.3669C54.3176 48.3031 54.3466 48.2468 54.385 48.198C54.424 48.1492 54.4729 48.1108 54.5314 48.0828C54.5907 48.0548 54.66 48.0408 54.7395 48.0408C54.8221 48.0408 54.8944 48.0577 54.9563 48.0916C55.0181 48.1248 55.0666 48.1703 55.1018 48.2283C55.1376 48.2856 55.1571 48.3507 55.1604 48.4236H54.9885C54.9852 48.38 54.9729 48.3406 54.9514 48.3054C54.9305 48.2703 54.9019 48.2423 54.8654 48.2214C54.8296 48.2 54.7876 48.1892 54.7395 48.1892C54.6841 48.1892 54.6376 48.2003 54.5998 48.2224C54.5627 48.2439 54.5331 48.2732 54.5109 48.3103C54.4895 48.3468 54.4738 48.3875 54.4641 48.4324C54.4549 48.4766 54.4504 48.5219 54.4504 48.5681V48.6091C54.4504 48.6554 54.4549 48.7009 54.4641 48.7458C54.4732 48.7908 54.4885 48.8315 54.51 48.8679C54.5321 48.9044 54.5617 48.9337 54.5988 48.9558C54.6366 48.9773 54.6835 48.988 54.7395 48.988ZM56.01 48.8728V48.0603H56.1916V49.1169H56.0188L56.01 48.8728ZM56.0441 48.6501L56.1193 48.6482C56.1193 48.7185 56.1119 48.7836 56.0969 48.8435C56.0826 48.9028 56.0591 48.9542 56.0266 48.9978C55.994 49.0414 55.9514 49.0756 55.8986 49.1003C55.8459 49.1244 55.7818 49.1365 55.7063 49.1365C55.6548 49.1365 55.6076 49.129 55.5647 49.114C55.5223 49.099 55.4859 49.0759 55.4553 49.0447C55.4247 49.0134 55.4009 48.9727 55.384 48.9226C55.3677 48.8725 55.3596 48.8123 55.3596 48.7419V48.0603H55.5402V48.7439C55.5402 48.7914 55.5454 48.8308 55.5559 48.8621C55.5669 48.8927 55.5816 48.9171 55.5998 48.9353C55.6187 48.9529 55.6395 48.9653 55.6623 48.9724C55.6857 48.9796 55.7098 48.9832 55.7346 48.9832C55.8114 48.9832 55.8723 48.9685 55.9172 48.9392C55.9621 48.9093 55.9943 48.8692 56.0139 48.8191C56.0341 48.7683 56.0441 48.712 56.0441 48.6501ZM56.6477 48.2263V49.1169H56.467V48.0603H56.6428L56.6477 48.2263ZM56.9777 48.0544L56.9768 48.2224C56.9618 48.2192 56.9475 48.2172 56.9338 48.2166C56.9208 48.2153 56.9058 48.2146 56.8889 48.2146C56.8472 48.2146 56.8104 48.2211 56.7785 48.2341C56.7466 48.2472 56.7196 48.2654 56.6975 48.2888C56.6753 48.3123 56.6577 48.3403 56.6447 48.3728C56.6324 48.4047 56.6242 48.4399 56.6203 48.4783L56.5695 48.5076C56.5695 48.4438 56.5757 48.3839 56.5881 48.3279C56.6011 48.2719 56.621 48.2224 56.6477 48.1794C56.6744 48.1358 56.7082 48.102 56.7492 48.0779C56.7909 48.0531 56.8404 48.0408 56.8977 48.0408C56.9107 48.0408 56.9257 48.0424 56.9426 48.0457C56.9595 48.0483 56.9712 48.0512 56.9777 48.0544ZM57.5637 49.1365C57.4901 49.1365 57.4234 49.1241 57.3635 49.0994C57.3042 49.074 57.2531 49.0385 57.2102 48.9929C57.1678 48.9473 57.1353 48.8933 57.1125 48.8308C57.0897 48.7683 57.0783 48.7 57.0783 48.6257V48.5847C57.0783 48.4988 57.091 48.4223 57.1164 48.3552C57.1418 48.2875 57.1763 48.2302 57.2199 48.1833C57.2635 48.1365 57.313 48.101 57.3684 48.0769C57.4237 48.0528 57.481 48.0408 57.5402 48.0408C57.6158 48.0408 57.6809 48.0538 57.7355 48.0798C57.7909 48.1059 57.8361 48.1423 57.8713 48.1892C57.9064 48.2354 57.9325 48.2901 57.9494 48.3533C57.9663 48.4158 57.9748 48.4841 57.9748 48.5583V48.6394H57.1857V48.4919H57.7941V48.4783C57.7915 48.4314 57.7818 48.3858 57.7648 48.3416C57.7486 48.2973 57.7225 48.2608 57.6867 48.2322C57.6509 48.2035 57.6021 48.1892 57.5402 48.1892C57.4992 48.1892 57.4615 48.198 57.427 48.2156C57.3924 48.2325 57.3628 48.2579 57.3381 48.2917C57.3133 48.3256 57.2941 48.3669 57.2805 48.4158C57.2668 48.4646 57.26 48.5209 57.26 48.5847V48.6257C57.26 48.6759 57.2668 48.7231 57.2805 48.7673C57.2948 48.811 57.3153 48.8494 57.342 48.8826C57.3693 48.9158 57.4022 48.9418 57.4406 48.9607C57.4797 48.9796 57.524 48.989 57.5734 48.989C57.6372 48.989 57.6913 48.976 57.7355 48.95C57.7798 48.9239 57.8186 48.8891 57.8518 48.8455L57.9611 48.9324C57.9383 48.9669 57.9094 48.9998 57.8742 49.031C57.8391 49.0623 57.7958 49.0876 57.7443 49.1072C57.6936 49.1267 57.6333 49.1365 57.5637 49.1365ZM58.8518 48.9119V47.6169H59.0334V49.1169H58.8674L58.8518 48.9119ZM58.1408 48.6003V48.5798C58.1408 48.4991 58.1506 48.4259 58.1701 48.3601C58.1903 48.2937 58.2186 48.2367 58.2551 48.1892C58.2922 48.1417 58.3361 48.1052 58.3869 48.0798C58.4383 48.0538 58.4956 48.0408 58.5588 48.0408C58.6252 48.0408 58.6831 48.0525 58.7326 48.0759C58.7827 48.0987 58.8251 48.1322 58.8596 48.1765C58.8947 48.2201 58.9224 48.2729 58.9426 48.3347C58.9628 48.3966 58.9768 48.4666 58.9846 48.5447V48.6345C58.9774 48.712 58.9634 48.7817 58.9426 48.8435C58.9224 48.9054 58.8947 48.9581 58.8596 49.0017C58.8251 49.0453 58.7827 49.0789 58.7326 49.1023C58.6825 49.1251 58.6239 49.1365 58.5568 49.1365C58.495 49.1365 58.4383 49.1231 58.3869 49.0964C58.3361 49.0697 58.2922 49.0323 58.2551 48.9841C58.2186 48.936 58.1903 48.8793 58.1701 48.8142C58.1506 48.7485 58.1408 48.6772 58.1408 48.6003ZM58.3225 48.5798V48.6003C58.3225 48.6531 58.3277 48.7026 58.3381 48.7488C58.3492 48.795 58.3661 48.8357 58.3889 48.8708C58.4117 48.906 58.4406 48.9337 58.4758 48.9539C58.5109 48.9734 58.5529 48.9832 58.6018 48.9832C58.6617 48.9832 58.7108 48.9705 58.7492 48.9451C58.7883 48.9197 58.8195 48.8861 58.843 48.8445C58.8664 48.8028 58.8846 48.7576 58.8977 48.7087V48.4734C58.8898 48.4376 58.8785 48.4031 58.8635 48.3699C58.8492 48.336 58.8303 48.3061 58.8068 48.28C58.7841 48.2533 58.7557 48.2322 58.7219 48.2166C58.6887 48.2009 58.6493 48.1931 58.6037 48.1931C58.5542 48.1931 58.5116 48.2035 58.4758 48.2244C58.4406 48.2445 58.4117 48.2725 58.3889 48.3083C58.3661 48.3435 58.3492 48.3845 58.3381 48.4314C58.3277 48.4776 58.3225 48.5271 58.3225 48.5798ZM52.3215 50.5593H51.9416V50.406H52.3215C52.3951 50.406 52.4546 50.3943 52.5002 50.3708C52.5458 50.3474 52.579 50.3149 52.5998 50.2732C52.6213 50.2315 52.632 50.184 52.632 50.1306C52.632 50.0818 52.6213 50.0359 52.5998 49.9929C52.579 49.95 52.5458 49.9154 52.5002 49.8894C52.4546 49.8627 52.3951 49.8494 52.3215 49.8494H51.9855V51.1169H51.7971V49.6951H52.3215C52.4289 49.6951 52.5197 49.7136 52.5939 49.7507C52.6682 49.7878 52.7245 49.8393 52.7629 49.905C52.8013 49.9701 52.8205 50.0447 52.8205 50.1287C52.8205 50.2198 52.8013 50.2976 52.7629 50.3621C52.7245 50.4265 52.6682 50.4757 52.5939 50.5095C52.5197 50.5427 52.4289 50.5593 52.3215 50.5593ZM53.6428 50.9363V50.3923C53.6428 50.3507 53.6343 50.3145 53.6174 50.2839C53.6011 50.2527 53.5764 50.2286 53.5432 50.2117C53.51 50.1947 53.4689 50.1863 53.4201 50.1863C53.3745 50.1863 53.3345 50.1941 53.3 50.2097C53.2661 50.2253 53.2395 50.2458 53.2199 50.2712C53.201 50.2966 53.1916 50.324 53.1916 50.3533H53.0109C53.0109 50.3155 53.0207 50.2781 53.0402 50.241C53.0598 50.2039 53.0878 50.1703 53.1242 50.1404C53.1613 50.1098 53.2056 50.0857 53.257 50.0681C53.3091 50.0499 53.3671 50.0408 53.4309 50.0408C53.5077 50.0408 53.5754 50.0538 53.634 50.0798C53.6932 50.1059 53.7395 50.1453 53.7727 50.198C53.8065 50.2501 53.8234 50.3155 53.8234 50.3943V50.8865C53.8234 50.9216 53.8264 50.9591 53.8322 50.9988C53.8387 51.0385 53.8482 51.0727 53.8605 51.1013V51.1169H53.6721C53.663 51.0961 53.6558 51.0684 53.6506 51.0339C53.6454 50.9988 53.6428 50.9662 53.6428 50.9363ZM53.674 50.4763L53.676 50.6033H53.4934C53.4419 50.6033 53.396 50.6075 53.3557 50.616C53.3153 50.6238 53.2814 50.6358 53.2541 50.6521C53.2268 50.6684 53.2059 50.6889 53.1916 50.7136C53.1773 50.7377 53.1701 50.766 53.1701 50.7986C53.1701 50.8318 53.1776 50.8621 53.1926 50.8894C53.2076 50.9167 53.23 50.9386 53.26 50.9548C53.2906 50.9705 53.328 50.9783 53.3723 50.9783C53.4276 50.9783 53.4764 50.9666 53.5188 50.9431C53.5611 50.9197 53.5946 50.891 53.6193 50.8572C53.6447 50.8233 53.6584 50.7904 53.6604 50.7585L53.7375 50.8455C53.7329 50.8728 53.7206 50.9031 53.7004 50.9363C53.6802 50.9695 53.6532 51.0014 53.6193 51.032C53.5861 51.0619 53.5464 51.087 53.5002 51.1072C53.4546 51.1267 53.4032 51.1365 53.3459 51.1365C53.2743 51.1365 53.2115 51.1225 53.1574 51.0945C53.104 51.0665 53.0624 51.0291 53.0324 50.9822C53.0031 50.9347 52.9885 50.8816 52.9885 50.823C52.9885 50.7664 52.9995 50.7166 53.0217 50.6736C53.0438 50.63 53.0757 50.5938 53.1174 50.5652C53.1591 50.5359 53.2092 50.5138 53.2678 50.4988C53.3264 50.4838 53.3918 50.4763 53.4641 50.4763H53.674ZM54.3889 51.0076L54.6828 50.0603H54.8762L54.4523 51.28C54.4426 51.3061 54.4296 51.3341 54.4133 51.364C54.3977 51.3946 54.3775 51.4236 54.3527 51.4509C54.328 51.4783 54.298 51.5004 54.2629 51.5173C54.2284 51.5349 54.187 51.5437 54.1389 51.5437C54.1245 51.5437 54.1063 51.5417 54.0842 51.5378C54.062 51.5339 54.0464 51.5307 54.0373 51.5281L54.0363 51.3816C54.0415 51.3822 54.0497 51.3829 54.0607 51.3835C54.0725 51.3848 54.0806 51.3855 54.0852 51.3855C54.1262 51.3855 54.161 51.38 54.1897 51.3689C54.2183 51.3585 54.2424 51.3406 54.2619 51.3152C54.2821 51.2904 54.2994 51.2563 54.3137 51.2126L54.3889 51.0076ZM54.173 50.0603L54.4475 50.8806L54.4943 51.071L54.3645 51.1375L53.9758 50.0603H54.173ZM55.2189 50.2703V51.1169H55.0373V50.0603H55.2092L55.2189 50.2703ZM55.1818 50.5486L55.0979 50.5457C55.0985 50.4734 55.1079 50.4067 55.1262 50.3455C55.1444 50.2836 55.1714 50.2299 55.2072 50.1843C55.243 50.1388 55.2876 50.1036 55.341 50.0789C55.3944 50.0535 55.4563 50.0408 55.5266 50.0408C55.576 50.0408 55.6216 50.0479 55.6633 50.0623C55.7049 50.0759 55.7411 50.0977 55.7717 50.1277C55.8023 50.1576 55.826 50.196 55.843 50.2429C55.8599 50.2898 55.8684 50.3464 55.8684 50.4128V51.1169H55.6877V50.4216C55.6877 50.3663 55.6783 50.322 55.6594 50.2888C55.6411 50.2556 55.6151 50.2315 55.5813 50.2166C55.5474 50.2009 55.5077 50.1931 55.4621 50.1931C55.4087 50.1931 55.3641 50.2026 55.3283 50.2214C55.2925 50.2403 55.2639 50.2664 55.2424 50.2996C55.2209 50.3328 55.2053 50.3708 55.1955 50.4138C55.1864 50.4561 55.1818 50.5011 55.1818 50.5486ZM55.8664 50.449L55.7453 50.4861C55.746 50.4281 55.7554 50.3725 55.7736 50.3191C55.7925 50.2657 55.8195 50.2182 55.8547 50.1765C55.8905 50.1348 55.9344 50.102 55.9865 50.0779C56.0386 50.0531 56.0982 50.0408 56.1652 50.0408C56.2219 50.0408 56.272 50.0483 56.3156 50.0632C56.3599 50.0782 56.397 50.1013 56.427 50.1326C56.4576 50.1632 56.4807 50.2026 56.4963 50.2507C56.5119 50.2989 56.5197 50.3562 56.5197 50.4226V51.1169H56.3381V50.4207C56.3381 50.3614 56.3286 50.3155 56.3098 50.283C56.2915 50.2498 56.2655 50.2266 56.2316 50.2136C56.1984 50.2 56.1587 50.1931 56.1125 50.1931C56.0728 50.1931 56.0376 50.2 56.007 50.2136C55.9764 50.2273 55.9507 50.2462 55.9299 50.2703C55.9091 50.2937 55.8931 50.3207 55.882 50.3513C55.8716 50.3819 55.8664 50.4145 55.8664 50.449ZM57.2316 51.1365C57.1581 51.1365 57.0913 51.1241 57.0314 51.0994C56.9722 51.074 56.9211 51.0385 56.8781 50.9929C56.8358 50.9473 56.8033 50.8933 56.7805 50.8308C56.7577 50.7683 56.7463 50.7 56.7463 50.6257V50.5847C56.7463 50.4988 56.759 50.4223 56.7844 50.3552C56.8098 50.2875 56.8443 50.2302 56.8879 50.1833C56.9315 50.1365 56.981 50.101 57.0363 50.0769C57.0917 50.0528 57.149 50.0408 57.2082 50.0408C57.2837 50.0408 57.3488 50.0538 57.4035 50.0798C57.4589 50.1059 57.5041 50.1423 57.5393 50.1892C57.5744 50.2354 57.6005 50.2901 57.6174 50.3533C57.6343 50.4158 57.6428 50.4841 57.6428 50.5583V50.6394H56.8537V50.4919H57.4621V50.4783C57.4595 50.4314 57.4497 50.3858 57.4328 50.3416C57.4165 50.2973 57.3905 50.2608 57.3547 50.2322C57.3189 50.2035 57.2701 50.1892 57.2082 50.1892C57.1672 50.1892 57.1294 50.198 57.0949 50.2156C57.0604 50.2325 57.0308 50.2579 57.0061 50.2917C56.9813 50.3256 56.9621 50.3669 56.9484 50.4158C56.9348 50.4646 56.9279 50.5209 56.9279 50.5847V50.6257C56.9279 50.6759 56.9348 50.7231 56.9484 50.7673C56.9628 50.811 56.9833 50.8494 57.01 50.8826C57.0373 50.9158 57.0702 50.9418 57.1086 50.9607C57.1477 50.9796 57.1919 50.989 57.2414 50.989C57.3052 50.989 57.3592 50.976 57.4035 50.95C57.4478 50.9239 57.4865 50.8891 57.5197 50.8455L57.6291 50.9324C57.6063 50.9669 57.5773 50.9998 57.5422 51.031C57.507 51.0623 57.4637 51.0876 57.4123 51.1072C57.3615 51.1267 57.3013 51.1365 57.2316 51.1365ZM58.0344 50.2859V51.1169H57.8537V50.0603H58.0246L58.0344 50.2859ZM57.9914 50.5486L57.9162 50.5457C57.9169 50.4734 57.9276 50.4067 57.9484 50.3455C57.9693 50.2836 57.9986 50.2299 58.0363 50.1843C58.0741 50.1388 58.119 50.1036 58.1711 50.0789C58.2238 50.0535 58.2821 50.0408 58.3459 50.0408C58.398 50.0408 58.4449 50.0479 58.4865 50.0623C58.5282 50.0759 58.5637 50.0981 58.593 50.1287C58.6229 50.1593 58.6457 50.199 58.6613 50.2478C58.677 50.296 58.6848 50.3549 58.6848 50.4246V51.1169H58.5031V50.4226C58.5031 50.3673 58.495 50.323 58.4787 50.2898C58.4624 50.2559 58.4387 50.2315 58.4074 50.2166C58.3762 50.2009 58.3378 50.1931 58.2922 50.1931C58.2473 50.1931 58.2063 50.2026 58.1691 50.2214C58.1327 50.2403 58.1011 50.2664 58.0744 50.2996C58.0484 50.3328 58.0279 50.3708 58.0129 50.4138C57.9986 50.4561 57.9914 50.5011 57.9914 50.5486ZM59.4016 50.0603V50.199H58.8303V50.0603H59.4016ZM59.0236 49.8035H59.2043V50.8552C59.2043 50.891 59.2098 50.9181 59.2209 50.9363C59.232 50.9545 59.2463 50.9666 59.2639 50.9724C59.2814 50.9783 59.3003 50.9812 59.3205 50.9812C59.3355 50.9812 59.3511 50.9799 59.3674 50.9773C59.3843 50.974 59.397 50.9714 59.4055 50.9695L59.4064 51.1169C59.3921 51.1215 59.3732 51.1257 59.3498 51.1296C59.327 51.1342 59.2994 51.1365 59.2668 51.1365C59.2225 51.1365 59.1818 51.1277 59.1447 51.1101C59.1076 51.0925 59.078 51.0632 59.0559 51.0222C59.0344 50.9806 59.0236 50.9246 59.0236 50.8542V49.8035Z" fill="white"></path></svg>