<svg xmlns="http://www.w3.org/2000/svg" width="74" height="52" viewBox="0 0 74 52" fill="none"><g clip-path="url(#clip0_214_257)"><path d="M56.6052 38.8158H4.83083C2.72248 38.8158 1.01367 37.113 1.01367 35.0122V5.41617C1.01367 3.3153 2.72248 1.61255 4.83083 1.61255H56.6052C58.7136 1.61255 60.4224 3.3153 60.4224 5.41617V35.0122C60.4224 37.113 58.7136 38.8158 56.6052 38.8158Z" fill="white" stroke="#3C6278" stroke-width="2" stroke-miterlimit="10"></path><path d="M56.6052 38.8158H4.83083C2.72248 38.8158 1.01367 37.113 1.01367 35.0122V5.41617C1.01367 3.3153 2.72248 1.61255 4.83083 1.61255H56.6052C58.7136 1.61255 60.4224 3.3153 60.4224 5.41617V35.0122C60.4224 37.113 58.7136 38.8158 56.6052 38.8158Z" fill="white" stroke="#042745" stroke-miterlimit="10"></path><path d="M16.7439 17.9907H6.49107C5.92557 17.9907 5.4707 17.5375 5.4707 16.974V6.75747C5.4707 6.19397 5.92557 5.74072 6.49107 5.74072H16.7439C17.3094 5.74072 17.7643 6.19397 17.7643 6.75747V16.974C17.7704 17.5375 17.3094 17.9907 16.7439 17.9907Z" fill="#009EDB"></path><path d="M10.0189 17.9909V8.7605H5.5625" stroke="white" stroke-width="0.5" stroke-miterlimit="10"></path><path d="M10.0189 11.9578H5.5625" stroke="white" stroke-width="0.5" stroke-miterlimit="10"></path><path d="M10.0189 14.616H5.5625" stroke="white" stroke-width="0.5" stroke-miterlimit="10"></path><path d="M13.2207 5.74072V14.9711H17.6771" stroke="white" stroke-width="0.5" stroke-miterlimit="10"></path><path d="M13.2207 11.78H17.6771" stroke="white" stroke-width="0.5" stroke-miterlimit="10"></path><path d="M13.2207 9.11572H17.6771" stroke="white" stroke-width="0.5" stroke-miterlimit="10"></path><path d="M52.8488 13.7033H30.0504C28.6243 13.7033 27.4688 12.5518 27.4688 11.1308V8.22143C27.4688 6.80043 28.6243 5.64893 30.0504 5.64893H52.8488C54.2749 5.64893 55.4305 6.80043 55.4305 8.22143V11.1308C55.4305 12.5518 54.2749 13.7033 52.8488 13.7033Z" fill="#D9E2EC"></path><path d="M14.1247 26.5658H7.54154C6.42897 26.5658 5.52539 25.6654 5.52539 24.5568V23.6687C5.52539 22.56 6.42897 21.6597 7.54154 21.6597H14.1247C15.2373 21.6597 16.1409 22.56 16.1409 23.6687V24.5568C16.1409 25.6654 15.2373 26.5658 14.1247 26.5658Z" fill="#D9E2EC"></path><path d="M25.8044 26.5658H19.2212C18.1087 26.5658 17.2051 25.6654 17.2051 24.5568V23.6687C17.2051 22.56 18.1087 21.6597 19.2212 21.6597H25.8044C26.917 21.6597 27.8206 22.56 27.8206 23.6687V24.5568C27.8206 25.6654 26.917 26.5658 25.8044 26.5658Z" fill="#D9E2EC"></path><path d="M37.4822 26.5658H30.899C29.7864 26.5658 28.8828 25.6654 28.8828 24.5568V23.6687C28.8828 22.56 29.7864 21.6597 30.899 21.6597H37.4822C38.5947 21.6597 39.4983 22.56 39.4983 23.6687V24.5568C39.4983 25.6654 38.5947 26.5658 37.4822 26.5658Z" fill="#D9E2EC"></path><path d="M49.1619 26.5658H42.5786C41.4661 26.5658 40.5625 25.6654 40.5625 24.5568V23.6687C40.5625 22.56 41.4661 21.6597 42.5786 21.6597H49.1619C50.2744 21.6597 51.178 22.56 51.178 23.6687V24.5568C51.178 25.6654 50.2744 26.5658 49.1619 26.5658Z" fill="#D9E2EC"></path><path d="M21.476 34.8957H6.4963C5.96153 34.8957 5.53125 34.467 5.53125 33.9341V31.2023C5.53125 30.6695 5.96153 30.2407 6.4963 30.2407H21.476C22.0108 30.2407 22.4411 30.6695 22.4411 31.2023V33.9341C22.4411 34.467 22.0046 34.8957 21.476 34.8957Z" fill="#D9E2EC"></path><path d="M34.041 34.8101H27.3901C26.7939 34.8101 26.3145 34.3263 26.3145 33.7383V31.472C26.3145 30.8779 26.8 30.4001 27.3901 30.4001H34.041C34.6372 30.4001 35.1167 30.884 35.1167 31.472V33.7383C35.1167 34.3263 34.6372 34.8101 34.041 34.8101Z" fill="#D9E2EC"></path><g filter="url(#filter0_d_214_257)"><path d="M55.2375 44.12C54.9257 44.12 54.6139 44.0722 54.338 43.9765C51.1117 42.8531 48.3291 40.7736 46.2782 37.9531C44.2273 35.1326 43.1119 31.8461 43.0399 28.44C43.0279 27.8663 43.0279 26.2648 43.0279 24.7351C43.0279 23.4085 43.0279 22.0221 43.0279 21.4365C43.0159 20.827 43.1958 20.3131 43.5556 19.9307C43.9394 19.5243 44.4552 19.3212 45.0908 19.3092C48.3171 19.2734 51.1717 18.2575 53.8463 16.2139C54.302 15.8673 54.7578 15.7 55.2495 15.7C55.9931 15.7 56.5209 16.1182 56.7008 16.2497C59.2314 18.2336 62.1219 19.2853 65.2883 19.357C66.6076 19.3929 67.4232 20.2295 67.4112 21.5441C67.3992 22.6317 67.3992 23.779 67.3992 24.8904C67.3992 26.0617 67.3992 27.2687 67.3872 28.428C67.3032 35.3597 62.7936 41.6102 56.1491 43.9646C55.8732 44.0721 55.5494 44.12 55.2375 44.12Z" fill="#009EDB"></path><path d="M55.2364 19.6438C57.827 21.4843 60.6935 22.5599 63.7999 22.8587C63.7999 23.5399 63.7999 24.2211 63.7999 24.9024C63.7999 26.0855 63.7999 27.2687 63.7879 28.3921C63.7279 33.7343 60.2977 38.5626 55.2244 40.4868C52.8256 39.5904 50.7387 37.989 49.1915 35.8497C47.5724 33.6268 46.6968 31.0333 46.6369 28.3682C46.6249 27.8065 46.6249 26.2648 46.6249 24.7709C46.6249 24.0897 46.6249 23.4085 46.6249 22.8229C49.7433 22.548 52.5738 21.4963 55.2364 19.6438ZM55.2484 18.1738L54.5527 18.6519C52.058 20.3848 49.4314 21.3648 46.5289 21.6277L45.4375 21.7353V22.8229V24.7709C45.4375 26.2768 45.4375 27.8304 45.4495 28.3921C45.5095 31.3082 46.469 34.1287 48.232 36.5548C49.9232 38.8733 52.202 40.6302 54.8166 41.6102L55.2484 41.7655L55.6682 41.5982C61.1853 39.4948 64.9393 34.1885 64.9993 28.3921C65.0113 27.3046 65.0113 26.1692 65.0113 25.0219V24.8904C65.0113 24.2211 65.0113 23.528 65.0113 22.8587V21.7711L63.9318 21.6636C61.0413 21.3768 58.3548 20.3729 55.944 18.6638L55.2484 18.1738Z" fill="#042745"></path><path d="M52.3569 27.0298H52.9175C53.061 27.0298 53.1784 27.0047 53.2695 26.9546C53.363 26.9022 53.4325 26.8293 53.478 26.7358C53.5236 26.6401 53.5464 26.5273 53.5464 26.3975C53.5464 26.2972 53.5247 26.2049 53.4814 26.1206C53.4404 26.0363 53.3766 25.9691 53.29 25.9189C53.2035 25.8665 53.0929 25.8403 52.9585 25.8403C52.8674 25.8403 52.7785 25.8597 52.6919 25.8984C52.6053 25.9349 52.5335 25.9873 52.4766 26.0557C52.4219 26.124 52.3945 26.2072 52.3945 26.3052H51.2393C51.2393 26.0226 51.3167 25.7811 51.4717 25.5806C51.6289 25.3778 51.8351 25.2228 52.0903 25.1157C52.3478 25.0063 52.6247 24.9517 52.9209 24.9517C53.2741 24.9517 53.584 25.0063 53.8506 25.1157C54.1172 25.2228 54.3245 25.3823 54.4727 25.5942C54.623 25.8039 54.6982 26.0636 54.6982 26.3735C54.6982 26.5444 54.6584 26.7051 54.5786 26.8555C54.4989 27.0059 54.3872 27.138 54.2437 27.252C54.1001 27.3659 53.9315 27.4559 53.7378 27.522C53.5464 27.5858 53.3368 27.6177 53.1089 27.6177H52.3569V27.0298ZM52.3569 27.8877V27.3135H53.1089C53.3573 27.3135 53.584 27.342 53.7891 27.3989C53.9941 27.4536 54.1707 27.5356 54.3188 27.645C54.467 27.7544 54.5809 27.89 54.6606 28.0518C54.7404 28.2113 54.7803 28.3947 54.7803 28.6021C54.7803 28.8345 54.7336 29.0418 54.6401 29.2241C54.5467 29.4064 54.4157 29.5602 54.2471 29.6855C54.0785 29.8109 53.8813 29.9066 53.6558 29.9727C53.4302 30.0365 53.1852 30.0684 52.9209 30.0684C52.7135 30.0684 52.5062 30.041 52.2988 29.9863C52.0915 29.9294 51.9023 29.8428 51.7314 29.7266C51.5605 29.6081 51.4227 29.4577 51.3179 29.2754C51.2153 29.0908 51.1641 28.8709 51.1641 28.6157H52.3193C52.3193 28.7205 52.3478 28.8162 52.4048 28.9028C52.464 28.9871 52.5426 29.0544 52.6406 29.1045C52.7386 29.1546 52.8446 29.1797 52.9585 29.1797C53.0998 29.1797 53.2194 29.1535 53.3174 29.1011C53.4176 29.0464 53.494 28.9735 53.5464 28.8823C53.5988 28.7912 53.625 28.6898 53.625 28.5781C53.625 28.4095 53.5965 28.2751 53.5396 28.1748C53.4849 28.0745 53.404 28.0016 53.2969 27.9561C53.1921 27.9105 53.0656 27.8877 52.9175 27.8877H52.3569ZM57.0566 30H55.9526L55.9595 29.0771H57.0566C57.2845 29.0771 57.4771 29.0225 57.6343 28.9131C57.7938 28.8037 57.9146 28.6408 57.9966 28.4243C58.0809 28.2056 58.123 27.9367 58.123 27.6177V27.4023C58.123 27.1631 58.0991 26.9535 58.0513 26.7734C58.0057 26.5911 57.9373 26.4396 57.8462 26.3188C57.755 26.1958 57.6411 26.1035 57.5044 26.042C57.37 25.9805 57.215 25.9497 57.0396 25.9497H55.9321V25.0234H57.0396C57.3768 25.0234 57.6855 25.0815 57.9658 25.1978C58.2484 25.3117 58.4922 25.4757 58.6973 25.6899C58.9046 25.9019 59.0641 26.1536 59.1758 26.4453C59.2897 26.7347 59.3467 27.056 59.3467 27.4092V27.6177C59.3467 27.9686 59.2897 28.2899 59.1758 28.5815C59.0641 28.8732 58.9058 29.125 58.7007 29.3369C58.4956 29.5488 58.2529 29.7129 57.9727 29.8291C57.6947 29.943 57.3893 30 57.0566 30ZM56.6396 25.0234V30H55.4399V25.0234H56.6396Z" fill="white"></path><path d="M52.7998 32.6406C52.7998 32.6074 52.7946 32.5781 52.7842 32.5527C52.7744 32.5267 52.7568 32.5033 52.7314 32.4824C52.7067 32.4616 52.6722 32.4417 52.6279 32.4229C52.5843 32.404 52.529 32.3848 52.4619 32.3652C52.3916 32.3444 52.3281 32.3213 52.2715 32.2959C52.2148 32.2699 52.1663 32.2402 52.126 32.207C52.0856 32.1738 52.0547 32.1357 52.0332 32.0928C52.0117 32.0498 52.001 32.0007 52.001 31.9453C52.001 31.89 52.0124 31.8389 52.0352 31.792C52.0579 31.7451 52.0905 31.7044 52.1328 31.6699C52.1758 31.6348 52.2269 31.6074 52.2861 31.5879C52.3454 31.5684 52.4115 31.5586 52.4844 31.5586C52.5911 31.5586 52.6816 31.5791 52.7559 31.6201C52.8307 31.6605 52.8877 31.7135 52.9268 31.7793C52.9658 31.8444 52.9854 31.9141 52.9854 31.9883H52.7979C52.7979 31.9349 52.7865 31.8877 52.7637 31.8467C52.7409 31.805 52.7064 31.7725 52.6602 31.749C52.6139 31.7249 52.5553 31.7129 52.4844 31.7129C52.4173 31.7129 52.362 31.723 52.3184 31.7432C52.2747 31.7633 52.2422 31.7907 52.2207 31.8252C52.1999 31.8597 52.1895 31.8991 52.1895 31.9434C52.1895 31.9733 52.1956 32.0007 52.208 32.0254C52.221 32.0495 52.2409 32.0719 52.2676 32.0928C52.2949 32.1136 52.3294 32.1328 52.3711 32.1504C52.4134 32.168 52.4639 32.1849 52.5225 32.2012C52.6032 32.224 52.6729 32.2493 52.7314 32.2773C52.79 32.3053 52.8382 32.3369 52.876 32.3721C52.9144 32.4066 52.9427 32.446 52.9609 32.4902C52.9798 32.5339 52.9893 32.5833 52.9893 32.6387C52.9893 32.6966 52.9775 32.749 52.9541 32.7959C52.9307 32.8428 52.8971 32.8828 52.8535 32.916C52.8099 32.9492 52.7575 32.9749 52.6963 32.9932C52.6357 33.0107 52.568 33.0195 52.4932 33.0195C52.4274 33.0195 52.3626 33.0104 52.2988 32.9922C52.2357 32.974 52.1781 32.9466 52.126 32.9102C52.0745 32.8737 52.0332 32.8288 52.002 32.7754C51.9714 32.7214 51.9561 32.6589 51.9561 32.5879H52.1436C52.1436 32.6367 52.153 32.6787 52.1719 32.7139C52.1908 32.7484 52.2165 32.777 52.249 32.7998C52.2822 32.8226 52.3197 32.8395 52.3613 32.8506C52.4036 32.861 52.4476 32.8662 52.4932 32.8662C52.5589 32.8662 52.6146 32.8571 52.6602 32.8389C52.7057 32.8206 52.7402 32.7946 52.7637 32.7607C52.7878 32.7269 52.7998 32.6868 52.7998 32.6406ZM53.6406 33.0195C53.5671 33.0195 53.5003 33.0072 53.4404 32.9824C53.3812 32.957 53.3301 32.9215 53.2871 32.876C53.2448 32.8304 53.2122 32.7764 53.1895 32.7139C53.1667 32.6514 53.1553 32.583 53.1553 32.5088V32.4678C53.1553 32.3818 53.168 32.3053 53.1934 32.2383C53.2188 32.1706 53.2533 32.1133 53.2969 32.0664C53.3405 32.0195 53.39 31.984 53.4453 31.96C53.5007 31.9359 53.5579 31.9238 53.6172 31.9238C53.6927 31.9238 53.7578 31.9368 53.8125 31.9629C53.8678 31.9889 53.9131 32.0254 53.9482 32.0723C53.9834 32.1185 54.0094 32.1732 54.0264 32.2363C54.0433 32.2988 54.0518 32.3672 54.0518 32.4414V32.5225H53.2627V32.375H53.8711V32.3613C53.8685 32.3145 53.8587 32.2689 53.8418 32.2246C53.8255 32.1803 53.7995 32.1439 53.7637 32.1152C53.7279 32.0866 53.679 32.0723 53.6172 32.0723C53.5762 32.0723 53.5384 32.0811 53.5039 32.0986C53.4694 32.1156 53.4398 32.141 53.415 32.1748C53.3903 32.2087 53.3711 32.25 53.3574 32.2988C53.3438 32.3477 53.3369 32.404 53.3369 32.4678V32.5088C53.3369 32.5589 53.3438 32.6061 53.3574 32.6504C53.3717 32.694 53.3923 32.7324 53.4189 32.7656C53.4463 32.7988 53.4792 32.8249 53.5176 32.8438C53.5566 32.8626 53.6009 32.8721 53.6504 32.8721C53.7142 32.8721 53.7682 32.859 53.8125 32.833C53.8568 32.807 53.8955 32.7721 53.9287 32.7285L54.0381 32.8154C54.0153 32.8499 53.9863 32.8828 53.9512 32.9141C53.916 32.9453 53.8727 32.9707 53.8213 32.9902C53.7705 33.0098 53.7103 33.0195 53.6406 33.0195ZM54.6855 32.8711C54.7285 32.8711 54.7682 32.8623 54.8047 32.8447C54.8411 32.8271 54.8711 32.8031 54.8945 32.7725C54.918 32.7412 54.9313 32.7057 54.9346 32.666H55.1064C55.1032 32.7285 55.082 32.7868 55.043 32.8408C55.0046 32.8942 54.9541 32.9375 54.8916 32.9707C54.8291 33.0033 54.7604 33.0195 54.6855 33.0195C54.6061 33.0195 54.5368 33.0055 54.4775 32.9775C54.4189 32.9495 54.3701 32.9111 54.3311 32.8623C54.2926 32.8135 54.2637 32.7575 54.2441 32.6943C54.2253 32.6305 54.2158 32.5632 54.2158 32.4922V32.4512C54.2158 32.3802 54.2253 32.3132 54.2441 32.25C54.2637 32.1862 54.2926 32.1299 54.3311 32.0811C54.3701 32.0322 54.4189 31.9938 54.4775 31.9658C54.5368 31.9378 54.6061 31.9238 54.6855 31.9238C54.7682 31.9238 54.8405 31.9408 54.9023 31.9746C54.9642 32.0078 55.0127 32.0534 55.0479 32.1113C55.0837 32.1686 55.1032 32.2337 55.1064 32.3066H54.9346C54.9313 32.263 54.9189 32.2236 54.8975 32.1885C54.8766 32.1533 54.848 32.1253 54.8115 32.1045C54.7757 32.083 54.7337 32.0723 54.6855 32.0723C54.6302 32.0723 54.5837 32.0833 54.5459 32.1055C54.5088 32.127 54.4792 32.1562 54.457 32.1934C54.4355 32.2298 54.4199 32.2705 54.4102 32.3154C54.401 32.3597 54.3965 32.4049 54.3965 32.4512V32.4922C54.3965 32.5384 54.401 32.584 54.4102 32.6289C54.4193 32.6738 54.4346 32.7145 54.4561 32.751C54.4782 32.7874 54.5078 32.8167 54.5449 32.8389C54.5827 32.8604 54.6296 32.8711 54.6855 32.8711ZM55.9561 32.7559V31.9434H56.1377V33H55.9648L55.9561 32.7559ZM55.9902 32.5332L56.0654 32.5312C56.0654 32.6016 56.0579 32.6667 56.043 32.7266C56.0286 32.7858 56.0052 32.8372 55.9727 32.8809C55.9401 32.9245 55.8975 32.9587 55.8447 32.9834C55.792 33.0075 55.7279 33.0195 55.6523 33.0195C55.6009 33.0195 55.5537 33.012 55.5107 32.9971C55.4684 32.9821 55.432 32.959 55.4014 32.9277C55.3708 32.8965 55.347 32.8558 55.3301 32.8057C55.3138 32.7555 55.3057 32.6953 55.3057 32.625V31.9434H55.4863V32.627C55.4863 32.6745 55.4915 32.7139 55.502 32.7451C55.513 32.7757 55.5277 32.8001 55.5459 32.8184C55.5648 32.8359 55.5856 32.8483 55.6084 32.8555C55.6318 32.8626 55.6559 32.8662 55.6807 32.8662C55.7575 32.8662 55.8184 32.8516 55.8633 32.8223C55.9082 32.7923 55.9404 32.7523 55.96 32.7021C55.9801 32.6514 55.9902 32.5951 55.9902 32.5332ZM56.5938 32.1094V33H56.4131V31.9434H56.5889L56.5938 32.1094ZM56.9238 31.9375L56.9229 32.1055C56.9079 32.1022 56.8936 32.1003 56.8799 32.0996C56.8669 32.0983 56.8519 32.0977 56.835 32.0977C56.7933 32.0977 56.7565 32.1042 56.7246 32.1172C56.6927 32.1302 56.6657 32.1484 56.6436 32.1719C56.6214 32.1953 56.6038 32.2233 56.5908 32.2559C56.5785 32.2878 56.5703 32.3229 56.5664 32.3613L56.5156 32.3906C56.5156 32.3268 56.5218 32.2669 56.5342 32.2109C56.5472 32.1549 56.5671 32.1055 56.5938 32.0625C56.6204 32.0189 56.6543 31.985 56.6953 31.9609C56.737 31.9362 56.7865 31.9238 56.8438 31.9238C56.8568 31.9238 56.8717 31.9255 56.8887 31.9287C56.9056 31.9313 56.9173 31.9342 56.9238 31.9375ZM57.5098 33.0195C57.4362 33.0195 57.3695 33.0072 57.3096 32.9824C57.2503 32.957 57.1992 32.9215 57.1562 32.876C57.1139 32.8304 57.0814 32.7764 57.0586 32.7139C57.0358 32.6514 57.0244 32.583 57.0244 32.5088V32.4678C57.0244 32.3818 57.0371 32.3053 57.0625 32.2383C57.0879 32.1706 57.1224 32.1133 57.166 32.0664C57.2096 32.0195 57.2591 31.984 57.3145 31.96C57.3698 31.9359 57.4271 31.9238 57.4863 31.9238C57.5618 31.9238 57.627 31.9368 57.6816 31.9629C57.737 31.9889 57.7822 32.0254 57.8174 32.0723C57.8525 32.1185 57.8786 32.1732 57.8955 32.2363C57.9124 32.2988 57.9209 32.3672 57.9209 32.4414V32.5225H57.1318V32.375H57.7402V32.3613C57.7376 32.3145 57.7279 32.2689 57.7109 32.2246C57.6947 32.1803 57.6686 32.1439 57.6328 32.1152C57.597 32.0866 57.5482 32.0723 57.4863 32.0723C57.4453 32.0723 57.4076 32.0811 57.373 32.0986C57.3385 32.1156 57.3089 32.141 57.2842 32.1748C57.2594 32.2087 57.2402 32.25 57.2266 32.2988C57.2129 32.3477 57.2061 32.404 57.2061 32.4678V32.5088C57.2061 32.5589 57.2129 32.6061 57.2266 32.6504C57.2409 32.694 57.2614 32.7324 57.2881 32.7656C57.3154 32.7988 57.3483 32.8249 57.3867 32.8438C57.4258 32.8626 57.4701 32.8721 57.5195 32.8721C57.5833 32.8721 57.6374 32.859 57.6816 32.833C57.7259 32.807 57.7646 32.7721 57.7979 32.7285L57.9072 32.8154C57.8844 32.8499 57.8555 32.8828 57.8203 32.9141C57.7852 32.9453 57.7419 32.9707 57.6904 32.9902C57.6396 33.0098 57.5794 33.0195 57.5098 33.0195ZM58.7979 32.7949V31.5H58.9795V33H58.8135L58.7979 32.7949ZM58.0869 32.4834V32.4629C58.0869 32.3822 58.0967 32.3089 58.1162 32.2432C58.1364 32.1768 58.1647 32.1198 58.2012 32.0723C58.2383 32.0247 58.2822 31.9883 58.333 31.9629C58.3844 31.9368 58.4417 31.9238 58.5049 31.9238C58.5713 31.9238 58.6292 31.9355 58.6787 31.959C58.7288 31.9818 58.7712 32.0153 58.8057 32.0596C58.8408 32.1032 58.8685 32.1559 58.8887 32.2178C58.9089 32.2796 58.9229 32.3496 58.9307 32.4277V32.5176C58.9235 32.5951 58.9095 32.6647 58.8887 32.7266C58.8685 32.7884 58.8408 32.8411 58.8057 32.8848C58.7712 32.9284 58.7288 32.9619 58.6787 32.9854C58.6286 33.0081 58.57 33.0195 58.5029 33.0195C58.4411 33.0195 58.3844 33.0062 58.333 32.9795C58.2822 32.9528 58.2383 32.9154 58.2012 32.8672C58.1647 32.819 58.1364 32.7624 58.1162 32.6973C58.0967 32.6315 58.0869 32.5602 58.0869 32.4834ZM58.2686 32.4629V32.4834C58.2686 32.5361 58.2738 32.5856 58.2842 32.6318C58.2952 32.6781 58.3122 32.7188 58.335 32.7539C58.3577 32.7891 58.3867 32.8167 58.4219 32.8369C58.457 32.8564 58.499 32.8662 58.5479 32.8662C58.6077 32.8662 58.6569 32.8535 58.6953 32.8281C58.7344 32.8027 58.7656 32.7692 58.7891 32.7275C58.8125 32.6859 58.8307 32.6406 58.8438 32.5918V32.3564C58.8359 32.3206 58.8245 32.2861 58.8096 32.2529C58.7952 32.2191 58.7764 32.1891 58.7529 32.1631C58.7301 32.1364 58.7018 32.1152 58.668 32.0996C58.6348 32.084 58.5954 32.0762 58.5498 32.0762C58.5003 32.0762 58.4577 32.0866 58.4219 32.1074C58.3867 32.1276 58.3577 32.1556 58.335 32.1914C58.3122 32.2266 58.2952 32.2676 58.2842 32.3145C58.2738 32.3607 58.2686 32.4102 58.2686 32.4629ZM52.2676 34.4424H51.8877V34.2891H52.2676C52.3411 34.2891 52.4007 34.2773 52.4463 34.2539C52.4919 34.2305 52.5251 34.1979 52.5459 34.1562C52.5674 34.1146 52.5781 34.0671 52.5781 34.0137C52.5781 33.9648 52.5674 33.9189 52.5459 33.876C52.5251 33.833 52.4919 33.7985 52.4463 33.7725C52.4007 33.7458 52.3411 33.7324 52.2676 33.7324H51.9316V35H51.7432V33.5781H52.2676C52.375 33.5781 52.4658 33.5967 52.54 33.6338C52.6143 33.6709 52.6706 33.7223 52.709 33.7881C52.7474 33.8532 52.7666 33.9277 52.7666 34.0117C52.7666 34.1029 52.7474 34.1807 52.709 34.2451C52.6706 34.3096 52.6143 34.3587 52.54 34.3926C52.4658 34.4258 52.375 34.4424 52.2676 34.4424ZM53.5889 34.8193V34.2754C53.5889 34.2337 53.5804 34.1976 53.5635 34.167C53.5472 34.1357 53.5225 34.1117 53.4893 34.0947C53.4561 34.0778 53.415 34.0693 53.3662 34.0693C53.3206 34.0693 53.2806 34.0771 53.2461 34.0928C53.2122 34.1084 53.1855 34.1289 53.166 34.1543C53.1471 34.1797 53.1377 34.207 53.1377 34.2363H52.957C52.957 34.1986 52.9668 34.1611 52.9863 34.124C53.0059 34.0869 53.0339 34.0534 53.0703 34.0234C53.1074 33.9928 53.1517 33.9688 53.2031 33.9512C53.2552 33.9329 53.3132 33.9238 53.377 33.9238C53.4538 33.9238 53.5215 33.9368 53.5801 33.9629C53.6393 33.9889 53.6855 34.0283 53.7188 34.0811C53.7526 34.1331 53.7695 34.1986 53.7695 34.2773V34.7695C53.7695 34.8047 53.7725 34.8421 53.7783 34.8818C53.7848 34.9215 53.7943 34.9557 53.8066 34.9844V35H53.6182C53.609 34.9792 53.6019 34.9515 53.5967 34.917C53.5915 34.8818 53.5889 34.8493 53.5889 34.8193ZM53.6201 34.3594L53.6221 34.4863H53.4395C53.388 34.4863 53.3421 34.4906 53.3018 34.499C53.2614 34.5068 53.2275 34.5189 53.2002 34.5352C53.1729 34.5514 53.152 34.5719 53.1377 34.5967C53.1234 34.6208 53.1162 34.6491 53.1162 34.6816C53.1162 34.7148 53.1237 34.7451 53.1387 34.7725C53.1536 34.7998 53.1761 34.8216 53.2061 34.8379C53.2367 34.8535 53.2741 34.8613 53.3184 34.8613C53.3737 34.8613 53.4225 34.8496 53.4648 34.8262C53.5072 34.8027 53.5407 34.7741 53.5654 34.7402C53.5908 34.7064 53.6045 34.6735 53.6064 34.6416L53.6836 34.7285C53.679 34.7559 53.6667 34.7861 53.6465 34.8193C53.6263 34.8525 53.5993 34.8844 53.5654 34.915C53.5322 34.945 53.4925 34.9701 53.4463 34.9902C53.4007 35.0098 53.3493 35.0195 53.292 35.0195C53.2204 35.0195 53.1576 35.0055 53.1035 34.9775C53.0501 34.9495 53.0085 34.9121 52.9785 34.8652C52.9492 34.8177 52.9346 34.7646 52.9346 34.7061C52.9346 34.6494 52.9456 34.5996 52.9678 34.5566C52.9899 34.513 53.0218 34.4769 53.0635 34.4482C53.1051 34.4189 53.1553 34.3968 53.2139 34.3818C53.2725 34.3669 53.3379 34.3594 53.4102 34.3594H53.6201ZM54.335 34.8906L54.6289 33.9434H54.8223L54.3984 35.1631C54.3887 35.1891 54.3757 35.2171 54.3594 35.2471C54.3438 35.2777 54.3236 35.3066 54.2988 35.334C54.2741 35.3613 54.2441 35.3835 54.209 35.4004C54.1745 35.418 54.1331 35.4268 54.085 35.4268C54.0706 35.4268 54.0524 35.4248 54.0303 35.4209C54.0081 35.417 53.9925 35.4137 53.9834 35.4111L53.9824 35.2646C53.9876 35.2653 53.9958 35.266 54.0068 35.2666C54.0186 35.2679 54.0267 35.2686 54.0312 35.2686C54.0723 35.2686 54.1071 35.263 54.1357 35.252C54.1644 35.2415 54.1885 35.2236 54.208 35.1982C54.2282 35.1735 54.2454 35.1393 54.2598 35.0957L54.335 34.8906ZM54.1191 33.9434L54.3936 34.7637L54.4404 34.9541L54.3105 35.0205L53.9219 33.9434H54.1191ZM55.165 34.1533V35H54.9834V33.9434H55.1553L55.165 34.1533ZM55.1279 34.4316L55.0439 34.4287C55.0446 34.3564 55.054 34.2897 55.0723 34.2285C55.0905 34.1667 55.1175 34.113 55.1533 34.0674C55.1891 34.0218 55.2337 33.9867 55.2871 33.9619C55.3405 33.9365 55.4023 33.9238 55.4727 33.9238C55.5221 33.9238 55.5677 33.931 55.6094 33.9453C55.651 33.959 55.6872 33.9808 55.7178 34.0107C55.7484 34.0407 55.7721 34.0791 55.7891 34.126C55.806 34.1729 55.8145 34.2295 55.8145 34.2959V35H55.6338V34.3047C55.6338 34.2493 55.6243 34.2051 55.6055 34.1719C55.5872 34.1387 55.5612 34.1146 55.5273 34.0996C55.4935 34.084 55.4538 34.0762 55.4082 34.0762C55.3548 34.0762 55.3102 34.0856 55.2744 34.1045C55.2386 34.1234 55.21 34.1494 55.1885 34.1826C55.167 34.2158 55.1514 34.2539 55.1416 34.2969C55.1325 34.3392 55.1279 34.3841 55.1279 34.4316ZM55.8125 34.332L55.6914 34.3691C55.6921 34.3112 55.7015 34.2555 55.7197 34.2021C55.7386 34.1488 55.7656 34.1012 55.8008 34.0596C55.8366 34.0179 55.8805 33.985 55.9326 33.9609C55.9847 33.9362 56.0443 33.9238 56.1113 33.9238C56.168 33.9238 56.2181 33.9313 56.2617 33.9463C56.306 33.9613 56.3431 33.9844 56.373 34.0156C56.4036 34.0462 56.4268 34.0856 56.4424 34.1338C56.458 34.182 56.4658 34.2393 56.4658 34.3057V35H56.2842V34.3037C56.2842 34.2445 56.2747 34.1986 56.2559 34.166C56.2376 34.1328 56.2116 34.1097 56.1777 34.0967C56.1445 34.083 56.1048 34.0762 56.0586 34.0762C56.0189 34.0762 55.9837 34.083 55.9531 34.0967C55.9225 34.1104 55.8968 34.1292 55.876 34.1533C55.8551 34.1768 55.8392 34.2038 55.8281 34.2344C55.8177 34.265 55.8125 34.2975 55.8125 34.332ZM57.1777 35.0195C57.1042 35.0195 57.0374 35.0072 56.9775 34.9824C56.9183 34.957 56.8672 34.9215 56.8242 34.876C56.7819 34.8304 56.7493 34.7764 56.7266 34.7139C56.7038 34.6514 56.6924 34.583 56.6924 34.5088V34.4678C56.6924 34.3818 56.7051 34.3053 56.7305 34.2383C56.7559 34.1706 56.7904 34.1133 56.834 34.0664C56.8776 34.0195 56.9271 33.984 56.9824 33.96C57.0378 33.9359 57.0951 33.9238 57.1543 33.9238C57.2298 33.9238 57.2949 33.9368 57.3496 33.9629C57.4049 33.9889 57.4502 34.0254 57.4854 34.0723C57.5205 34.1185 57.5465 34.1732 57.5635 34.2363C57.5804 34.2988 57.5889 34.3672 57.5889 34.4414V34.5225H56.7998V34.375H57.4082V34.3613C57.4056 34.3145 57.3958 34.2689 57.3789 34.2246C57.3626 34.1803 57.3366 34.1439 57.3008 34.1152C57.265 34.0866 57.2161 34.0723 57.1543 34.0723C57.1133 34.0723 57.0755 34.0811 57.041 34.0986C57.0065 34.1156 56.9769 34.141 56.9521 34.1748C56.9274 34.2087 56.9082 34.25 56.8945 34.2988C56.8809 34.3477 56.874 34.404 56.874 34.4678V34.5088C56.874 34.5589 56.8809 34.6061 56.8945 34.6504C56.9089 34.694 56.9294 34.7324 56.9561 34.7656C56.9834 34.7988 57.0163 34.8249 57.0547 34.8438C57.0938 34.8626 57.138 34.8721 57.1875 34.8721C57.2513 34.8721 57.3053 34.859 57.3496 34.833C57.3939 34.807 57.4326 34.7721 57.4658 34.7285L57.5752 34.8154C57.5524 34.8499 57.5234 34.8828 57.4883 34.9141C57.4531 34.9453 57.4098 34.9707 57.3584 34.9902C57.3076 35.0098 57.2474 35.0195 57.1777 35.0195ZM57.9805 34.1689V35H57.7998V33.9434H57.9707L57.9805 34.1689ZM57.9375 34.4316L57.8623 34.4287C57.863 34.3564 57.8737 34.2897 57.8945 34.2285C57.9154 34.1667 57.9447 34.113 57.9824 34.0674C58.0202 34.0218 58.0651 33.9867 58.1172 33.9619C58.1699 33.9365 58.2282 33.9238 58.292 33.9238C58.3441 33.9238 58.391 33.931 58.4326 33.9453C58.4743 33.959 58.5098 33.9811 58.5391 34.0117C58.569 34.0423 58.5918 34.082 58.6074 34.1309C58.623 34.179 58.6309 34.238 58.6309 34.3076V35H58.4492V34.3057C58.4492 34.2503 58.4411 34.2061 58.4248 34.1729C58.4085 34.139 58.3848 34.1146 58.3535 34.0996C58.3223 34.084 58.2839 34.0762 58.2383 34.0762C58.1934 34.0762 58.1523 34.0856 58.1152 34.1045C58.0788 34.1234 58.0472 34.1494 58.0205 34.1826C57.9945 34.2158 57.974 34.2539 57.959 34.2969C57.9447 34.3392 57.9375 34.3841 57.9375 34.4316ZM59.3477 33.9434V34.082H58.7764V33.9434H59.3477ZM58.9697 33.6865H59.1504V34.7383C59.1504 34.7741 59.1559 34.8011 59.167 34.8193C59.1781 34.8376 59.1924 34.8496 59.21 34.8555C59.2275 34.8613 59.2464 34.8643 59.2666 34.8643C59.2816 34.8643 59.2972 34.863 59.3135 34.8604C59.3304 34.8571 59.3431 34.8545 59.3516 34.8525L59.3525 35C59.3382 35.0046 59.3193 35.0088 59.2959 35.0127C59.2731 35.0173 59.2454 35.0195 59.2129 35.0195C59.1686 35.0195 59.1279 35.0107 59.0908 34.9932C59.0537 34.9756 59.0241 34.9463 59.002 34.9053C58.9805 34.8636 58.9697 34.8076 58.9697 34.7373V33.6865Z" fill="white"></path></g></g><defs><filter id="filter0_d_214_257" x="37.0273" y="10.7" width="36.3848" height="40.4199" filterUnits="userSpaceOnUse" color-interpolation-filters="sRGB"><feGaussianBlur stdDeviation="3"></feGaussianBlur></filter><clipPath id="clip0_214_257"><rect width="74" height="52" fill="white"></rect></clipPath></defs></svg>