<svg xmlns="http://www.w3.org/2000/svg" width="80" height="80" viewBox="0 0 80 80" fill="none"><rect width="80" height="80" rx="10" fill="#E6F4F9"></rect><rect x="24" y="11" width="32.5205" height="58" rx="5" fill="white" stroke="#042745" stroke-width="2"></rect><path d="M33.5248 11.2355L33.4436 11H47.0768L46.9956 11.2355C46.4392 12.8488 44.9206 13.9315 43.2141 13.9315H37.3063C35.5998 13.9315 34.0811 12.8488 33.5248 11.2355Z" fill="#D9D9D9" stroke="#042745" stroke-width="2" stroke-linejoin="round"></path><line x1="23" y1="60.7808" x2="57.5205" y2="60.7808" stroke="#042745" stroke-width="2"></line><ellipse cx="40.0959" cy="37.9452" rx="11.0959" ry="11.5068" fill="#009EDB"></ellipse><path d="M40 31.3386C43.7188 31.3386 46.7812 34.4011 46.7812 38.1199C46.7812 41.866 43.7188 44.9011 40 44.9011C36.2539 44.9011 33.2188 41.866 33.2188 38.1199C33.2188 34.4011 36.2539 31.3386 40 31.3386ZM40 34.3464C39.3438 34.3464 38.8516 34.866 38.8516 35.4949C38.8516 36.1511 39.3438 36.6433 40 36.6433C40.6289 36.6433 41.1484 36.1511 41.1484 35.4949C41.1484 34.866 40.6289 34.3464 40 34.3464ZM41.5312 41.2917V40.6355C41.5312 40.4714 41.3672 40.3074 41.2031 40.3074H40.875V37.573C40.875 37.4089 40.7109 37.2449 40.5469 37.2449H38.7969C38.6055 37.2449 38.4688 37.4089 38.4688 37.573V38.2292C38.4688 38.4207 38.6055 38.5574 38.7969 38.5574H39.125V40.3074H38.7969C38.6055 40.3074 38.4688 40.4714 38.4688 40.6355V41.2917C38.4688 41.4832 38.6055 41.6199 38.7969 41.6199H41.2031C41.3672 41.6199 41.5312 41.4832 41.5312 41.2917Z" fill="white"></path><circle cx="47.2305" cy="45.2305" r="5.48046" fill="white" stroke="#102A43" stroke-width="1.5"></circle><path d="M45.4766 45.6199L47.2289 47.3722L52.4858 42.1152" stroke="white" stroke-width="5" stroke-linecap="round" stroke-linejoin="round"></path><path d="M45.4766 45.6199L47.2289 47.3722L52.4858 42.1152" stroke="#102A43" stroke-width="1.5" stroke-linecap="round" stroke-linejoin="round"></path></svg>