<svg xmlns="http://www.w3.org/2000/svg" width="80" height="80" viewBox="0 0 80 80" fill="none"><rect width="80" height="80" rx="10" fill="#E6F4F9"></rect><rect x="35.1152" y="14.1958" width="28.7425" height="50.7015" rx="5" fill="white" stroke="#042745" stroke-width="2"></rect><rect x="38.5078" y="20.2227" width="21.959" height="7.90523" rx="1" fill="#D9E2EC"></rect><rect x="38.5078" y="29.8845" width="21.959" height="7.90523" rx="1" fill="#D9E2EC"></rect><rect x="38.5078" y="39.5466" width="21.959" height="7.90523" rx="1" fill="#D9E2EC"></rect><rect x="38.5078" y="49.2085" width="21.959" height="7.90523" rx="1" fill="#D9E2EC"></rect><circle cx="43.3379" cy="24.1753" r="3.07425" fill="white"></circle><path d="M48.1689 22.4185H58.7092" stroke="white" stroke-linecap="round"></path><path d="M48.1689 25.0537H55.1958" stroke="white" stroke-linecap="round"></path><circle cx="43.3379" cy="33.8374" r="3.07425" fill="white"></circle><path d="M48.1689 32.0806H58.7092" stroke="white" stroke-linecap="round"></path><path d="M48.1689 34.7158H55.1958" stroke="white" stroke-linecap="round"></path><circle cx="43.3379" cy="43.4993" r="3.07425" fill="white"></circle><path d="M48.1689 41.7424H58.7092" stroke="white" stroke-linecap="round"></path><path d="M48.1689 44.3777H55.1958" stroke="white" stroke-linecap="round"></path><circle cx="43.3379" cy="53.1614" r="3.07425" fill="white"></circle><path d="M48.1689 51.4045H58.7092" stroke="white" stroke-linecap="round"></path><path d="M48.1689 54.0398H55.1958" stroke="white" stroke-linecap="round"></path><path d="M32.7979 40.425H24.4535V60.1881C23.7215 62.5303 23.3994 67.1271 27.9669 66.7757C32.5344 66.4244 33.5296 63.9943 33.6759 62.384C33.8223 64.1407 35.0813 67.1271 38.9461 66.7757C43.7771 66.3366 43.7773 61.5056 43.7773 60.6272C46.9394 58.1678 46.8516 53.1612 46.4124 50.9653C47.4372 50.5261 49.4867 48.5937 49.4867 44.3776C49.4867 39.1075 45.0946 36.9117 41.5812 36.9116C37.1894 36.9116 34.5546 38.8147 32.7979 40.425Z" fill="#E6F4F9"></path><path d="M32.7984 44.3777H22.6973C23.4 55.6207 25.6251 58.7242 26.6499 58.8706C31.1881 59.017 40.6158 59.1341 42.0212 58.4314C43.4265 57.7287 43.7779 54.0396 43.7779 52.2829C35.8726 53.1613 33.2376 47.5983 32.7984 44.3777Z" fill="white"></path><line x1="22.9297" y1="44.1213" x2="33.1473" y2="44.1213" stroke="#042745" stroke-width="2"></line><ellipse cx="41.2143" cy="44.5837" rx="5.91548" ry="5.91547" fill="#009EDB"></ellipse><path d="M41.6426 41.3035C41.6426 41.0273 41.4187 40.8035 41.1426 40.8035C40.8664 40.8035 40.6426 41.0273 40.6426 41.3035L41.6426 41.3035ZM40.789 47.8055C40.9843 48.0008 41.3009 48.0008 41.4961 47.8055L44.6781 44.6235C44.8734 44.4283 44.8734 44.1117 44.6781 43.9164C44.4828 43.7212 44.1663 43.7212 43.971 43.9164L41.1426 46.7449L38.3142 43.9164C38.1189 43.7212 37.8023 43.7212 37.607 43.9164C37.4118 44.1117 37.4118 44.4283 37.607 44.6235L40.789 47.8055ZM40.6426 41.3035L40.6426 47.452L41.6426 47.452L41.6426 41.3035L40.6426 41.3035Z" fill="white"></path><path d="M31.0717 62.0613C31.0717 63.1425 30.1952 64.019 29.114 64.019C28.0328 64.019 27.1562 63.1425 27.1562 62.0613C27.1562 60.98 28.0328 60.1035 29.114 60.1035C30.1952 60.1035 31.0717 60.98 31.0717 62.0613Z" stroke="#042745" stroke-width="2"></path><path d="M40.7514 62.0613C40.7514 63.1425 39.8749 64.019 38.7937 64.019C37.7124 64.019 36.8359 63.1425 36.8359 62.0613C36.8359 60.98 37.7124 60.1035 38.7937 60.1035C39.8749 60.1035 40.7514 60.98 40.7514 62.0613Z" stroke="#042745" stroke-width="2"></path><path d="M15.6699 40.5505H17.8626C20.3177 40.5505 22.4096 42.3331 22.7992 44.7571L24.5431 55.6081L24.5903 55.9145C24.8725 57.7492 26.4512 59.1036 28.3075 59.1036V59.1036H40.1036C40.1268 59.1036 40.15 59.1017 40.1729 59.0979V59.0979C42.0551 58.7842 43.491 57.2438 43.6719 55.3441L43.9029 52.9193" stroke="#042745" stroke-width="2" stroke-linecap="round"></path></svg>