<svg xmlns="http://www.w3.org/2000/svg" width="57" height="51" viewBox="0 0 57 51" fill="none"><path d="M44.5 5C44.5 5 33.5 25.5 8 28.5V44.5H44.5V5Z" fill="white"></path><path d="M8.02311 1.16585C7.67164 0.814378 7.10179 0.814378 6.75032 1.16585L1.02276 6.89341C0.671286 7.24489 0.671286 7.81473 1.02276 8.16621C1.37423 8.51768 1.94408 8.51768 2.29555 8.16621L7.38672 3.07504L12.4779 8.16621C12.8294 8.51768 13.3992 8.51768 13.7507 8.16621C14.1022 7.81473 14.1022 7.24489 13.7507 6.89341L8.02311 1.16585ZM7.38672 44.1976H6.48672V45.0976H7.38672V44.1976ZM56.6364 44.834C56.9879 44.4825 56.9879 43.9127 56.6364 43.5612L50.9089 37.8336C50.5574 37.4822 49.9876 37.4822 49.6361 37.8336C49.2846 38.1851 49.2846 38.755 49.6361 39.1064L54.7273 44.1976L49.6361 49.2888C49.2846 49.6402 49.2846 50.2101 49.6361 50.5616C49.9876 50.913 50.5574 50.913 50.9089 50.5616L56.6364 44.834ZM6.48672 1.80225V44.1976H8.28672V1.80225H6.48672ZM7.38672 45.0976H56.0001V43.2976H7.38672V45.0976Z" fill="#042745"></path><path d="M17.1903 25.7453C16.6773 25.9498 16.4271 26.5314 16.6316 27.0445C16.8361 27.5575 17.4177 27.8077 17.9308 27.6032L17.1903 25.7453ZM46.2219 4.35953C46.0733 3.82762 45.5216 3.51692 44.9897 3.66556L36.3218 6.08776C35.7899 6.2364 35.4792 6.78809 35.6278 7.32C35.7765 7.85191 36.3281 8.16261 36.8601 8.01397L44.5649 5.8609L46.7179 13.5657C46.8666 14.0976 47.4183 14.4083 47.9502 14.2597C48.4821 14.1111 48.7928 13.5594 48.6441 13.0275L46.2219 4.35953ZM17.9308 27.6032C27.9352 23.6159 34.9723 18.0171 39.5118 13.408C41.7815 11.1036 43.4281 9.04539 44.5108 7.55714C45.0522 6.8129 45.4529 6.21079 45.7203 5.79117C45.854 5.58134 45.9544 5.41709 46.0224 5.30346C46.0564 5.24664 46.0823 5.20248 46.1002 5.17159C46.1092 5.15614 46.1161 5.14402 46.1211 5.13529C46.1236 5.13092 46.1256 5.12741 46.1271 5.12475C46.1279 5.12342 46.1285 5.12231 46.129 5.12141C46.1293 5.12097 46.1296 5.12046 46.1297 5.12023C46.1299 5.11977 46.1302 5.11937 45.2588 4.62866C44.3875 4.13795 44.3877 4.13766 44.3878 4.13742C44.3878 4.13741 44.3879 4.13722 44.3879 4.13721C44.388 4.13717 44.3879 4.13735 44.3876 4.13775C44.3872 4.13854 44.3862 4.14018 44.3848 4.14267C44.382 4.14764 44.3772 4.15599 44.3704 4.16764C44.3569 4.19093 44.3355 4.22742 44.3062 4.27646C44.2475 4.37455 44.1569 4.52288 44.0336 4.71645C43.7869 5.10362 43.4092 5.6716 42.8935 6.38056C41.8618 7.79871 40.2786 9.77934 38.0869 12.0046C33.7037 16.4549 26.8917 21.8788 17.1903 25.7453L17.9308 27.6032Z" fill="#042745"></path><rect x="17.5605" y="32.8921" width="3.9569" height="6.78326" fill="#009EDB"></rect><rect x="24.9102" y="29.5005" width="3.9569" height="10.1749" fill="#009EDB"></rect><rect x="32.8242" y="24.4131" width="3.9569" height="15.2623" fill="#009EDB"></rect><rect x="40.7363" y="16.4993" width="3.9569" height="23.1761" fill="#009EDB"></rect></svg>