<svg xmlns="http://www.w3.org/2000/svg" width="41" height="40" viewBox="0 0 41 40" fill="none"><path d="M16.1448 14.1569L19.1208 20.1348C19.3175 20.5292 19.6974 20.8044 20.1391 20.8678L26.7951 21.826C27.9041 21.9857 28.3458 23.3363 27.5435 24.1098L22.7275 28.762C22.4092 29.0699 22.2646 29.5124 22.3398 29.9472L23.4758 36.5157C23.6648 37.6105 22.5057 38.4436 21.5143 37.928L15.5623 34.8265C15.1688 34.6206 14.6982 34.6206 14.3048 34.8265L8.35277 37.928C7.36141 38.4436 6.20225 37.6105 6.39127 36.5157L7.52728 29.9472C7.6025 29.5124 7.45784 29.0699 7.13961 28.762L2.32361 24.1098C1.52127 23.3344 1.96487 21.9857 3.07195 21.826L9.72794 20.8678C10.1677 20.8044 10.5476 20.5311 10.7463 20.1348L13.7223 14.1588C14.218 13.1622 15.6491 13.1622 16.1448 14.1569Z" stroke="#009EDB" stroke-width="3" stroke-miterlimit="10" stroke-linecap="round"></path><path d="M19.2729 8.45605H32.5811" stroke="#009EDB" stroke-width="3" stroke-miterlimit="10" stroke-linecap="round"></path><path d="M25.9272 15.094V1.81836" stroke="#009EDB" stroke-width="3" stroke-miterlimit="10" stroke-linecap="round"></path><path d="M29.9775 17.9316H39.1389" stroke="#009EDB" stroke-miterlimit="10" stroke-linecap="round"></path><path d="M34.5581 22.5013V13.3623" stroke="#009EDB" stroke-miterlimit="10" stroke-linecap="round"></path></svg>