<svg xmlns="http://www.w3.org/2000/svg" width="97" height="97" viewBox="0 0 97 97" fill="none"><rect width="97" height="97" rx="10" fill="#E6F4F9"></rect><rect x="24.6124" y="19.2965" width="60.4087" height="44" rx="9" transform="rotate(15 24.6124 19.2965)" fill="white" stroke="#042745" stroke-width="2"></rect><rect x="14.002" y="25" width="58" height="44" rx="9" fill="white" stroke="#042745" stroke-width="2"></rect><circle cx="32.002" cy="46" r="12" fill="#009EDB"></circle><circle cx="32.002" cy="43" r="2" stroke="white" stroke-width="2"></circle><path d="M36.002 52C36.002 49.7909 34.2111 48 32.002 48C29.7928 48 28.002 49.7909 28.002 52" stroke="white" stroke-width="2" stroke-linecap="round"></path><rect x="49.002" y="34" width="18" height="10" fill="#E6F4F9"></rect><line x1="50.002" y1="48" x2="66.002" y2="48" stroke="#042745" stroke-width="2" stroke-linecap="round"></line><line x1="50.002" y1="53" x2="66.002" y2="53" stroke="#042745" stroke-width="2" stroke-linecap="round"></line><line x1="50.002" y1="58" x2="62.002" y2="58" stroke="#042745" stroke-width="2" stroke-linecap="round"></line><circle cx="67.502" cy="27.5" r="9.5" fill="#009EDB"></circle><path d="M63.002 27.5L66.002 30.5L72.502 24" stroke="white" stroke-width="2" stroke-linecap="round" stroke-linejoin="round"></path></svg>