<svg xmlns="http://www.w3.org/2000/svg" width="80" height="80" viewBox="0 0 80 80" fill="none"><rect width="80" height="80" rx="10" fill="#E6F4F9"></rect><path d="M23.266 50.7693C23.266 50.217 22.8182 49.7693 22.266 49.7693H20C17.7909 49.7693 16 47.9784 16 45.7693V30.1429C16 27.9337 17.7909 26.1429 20 26.1429H44.2105C46.4197 26.1429 48.2105 27.9337 48.2105 30.1429V45.7693C48.2105 47.9784 46.4197 49.7693 44.2105 49.7693H32.0296C31.744 49.7693 31.472 49.8914 31.2823 50.1048L25.0133 57.1553C24.4023 57.8424 23.266 57.4103 23.266 56.4908V50.7693Z" fill="white" stroke="#042745" stroke-width="2" stroke-linejoin="round"></path><path d="M37.807 24.3344V23C37.807 20.2386 40.0456 18 42.807 18H60C62.7614 18 65 20.2386 65 23V32.3516C65 35.0568 62.807 37.2499 60.1017 37.2499V37.2499V40.8617C60.1017 41.7101 59.1117 42.173 58.4606 41.6292L53.2181 37.2499H50.2955" stroke="#009EDB" stroke-width="2" stroke-linejoin="round"></path><path d="M23.7715 32.2857H41.3153" stroke="#042745" stroke-width="2" stroke-miterlimit="10" stroke-linecap="round"></path><path d="M23.7715 37.6429H41.3153" stroke="#042745" stroke-width="2" stroke-miterlimit="10" stroke-linecap="round"></path><path d="M23.7715 43H33.4206" stroke="#042745" stroke-width="2" stroke-miterlimit="10" stroke-linecap="round"></path></svg>