<svg xmlns="http://www.w3.org/2000/svg" width="97" height="97" viewBox="0 0 97 97" fill="none"><rect width="97" height="97" rx="10" fill="#E6F4F9"></rect><g clip-path="url(#clip0_671_328)"><path d="M22.6582 63.5V43.1265C22.6582 37.625 27.1208 33.166 32.6269 33.166H62.8651C68.3711 33.166 72.8338 37.625 72.8338 43.1265V59.8933C72.8338 65.3948 68.3711 69.8538 62.8651 69.8538H29" fill="white"></path><path d="M22.6582 63.5V43.1265C22.6582 37.625 27.1208 33.166 32.6269 33.166H62.8651C68.3711 33.166 72.8338 37.625 72.8338 43.1265V59.8933C72.8338 65.3948 68.3711 69.8538 62.8651 69.8538H29" stroke="#042745" stroke-width="2" stroke-miterlimit="10"></path><path d="M28.4736 39.3081L47.9125 52.5887L67.0191 39.3081" stroke="#042745" stroke-width="2" stroke-miterlimit="10" stroke-linecap="round"></path><path d="M40.6019 47.6089L32 56.5" stroke="#042745" stroke-width="2" stroke-miterlimit="10" stroke-linecap="round"></path><path d="M65.1489 58.7748C65.5396 59.1651 66.1728 59.1649 66.5632 58.7742C66.9535 58.3835 66.9533 57.7504 66.5626 57.36L65.1489 58.7748ZM54.6819 48.3163L65.1489 58.7748L66.5626 57.36L56.0955 46.9015L54.6819 48.3163Z" fill="#042745"></path><path d="M41.2439 64.9801C42.348 65.9552 43.0614 67.3645 42.7703 68.8084C41.6006 74.6092 36.1041 79 29.5 79C23.56 73.2708 18.16 68.5833 16 66.5C16 60.8811 20.0039 56.1282 25.5141 54.5538C28.0041 53.8423 30.5371 55.0065 32.4103 56.7944C34.9448 59.2135 38.3916 62.4612 41.2439 64.9801Z" fill="#E6F4F9"></path><path d="M23.5516 67.5756L22.1497 66.1544C20.6168 64.6003 20.6168 62.0776 22.1497 60.5235L23.4891 59.1656C25.0221 57.6115 27.5105 57.6115 29.0435 59.1656L31.8503 62.0111C33.3832 63.5653 33.3832 66.088 31.8503 67.6421L30.5109 69" stroke="#042745" stroke-width="2" stroke-miterlimit="10"></path><path d="M35.4484 66.2949L36.8503 67.5869C38.3832 68.9997 38.3832 71.2931 36.8503 72.7059L35.5109 73.9404C33.9779 75.3532 31.4895 75.3532 29.9565 73.9404L27.1497 71.3535C25.6168 69.9407 25.6168 67.6473 27.1497 66.2344L28.4891 65" stroke="#042745" stroke-width="2" stroke-miterlimit="10"></path></g><circle cx="67" cy="32" r="14" fill="#009EDB"></circle><path d="M73.3789 35.6758C73.543 35.8398 73.625 36.0586 73.625 36.25C73.5977 36.7148 73.2695 37.125 72.7227 37.125H62.25C61.7031 37.125 61.375 36.7148 61.375 36.25C61.3477 36.0586 61.4297 35.8398 61.5938 35.6758C62.1133 35.1016 63.125 34.2539 63.125 31.4375C63.125 29.332 64.6016 27.6367 66.625 27.1992V26.625C66.625 26.1602 67.0078 25.75 67.5 25.75C67.9648 25.75 68.3477 26.1602 68.3477 26.625V27.1992C70.3711 27.6367 71.8477 29.332 71.8477 31.4375C71.8477 34.2539 72.8594 35.1016 73.3789 35.6758ZM63.207 35.8125H71.7656C71.1914 35.0742 70.5625 33.7891 70.5352 31.4648C70.5352 31.4648 70.5625 31.4648 70.5625 31.4375C70.5625 29.7695 69.168 28.375 67.5 28.375C65.8047 28.375 64.4375 29.7695 64.4375 31.4375C64.4375 31.4648 64.4375 31.4648 64.4375 31.4648C64.4102 33.7891 63.7812 35.0742 63.207 35.8125ZM67.5 39.75C66.5156 39.75 65.75 38.9844 65.75 38H69.2227C69.2227 38.9844 68.457 39.75 67.5 39.75Z" fill="white"></path><defs><clipPath id="clip0_671_328"><rect width="57" height="47" fill="white" transform="translate(17 32)"></rect></clipPath></defs></svg>