<svg xmlns="http://www.w3.org/2000/svg" width="80" height="80" viewBox="0 0 80 80" fill="none"><rect width="80" height="80" rx="10" fill="#E6F4F9"></rect><path d="M17.3203 40H36.4661V62.975C30.2217 64.8483 23.5648 64.8483 17.3203 62.975V40Z" fill="white"></path><path d="M36.4661 62.0177V40.9573H17.3203V62.0177" stroke="#042745" stroke-width="2"></path><ellipse cx="26.8932" cy="40.0001" rx="9.5729" ry="3.82916" fill="white" stroke="#042745" stroke-width="2"></ellipse><path d="M36.4661 47.6582C36.4661 49.2443 32.1802 50.5301 26.8932 50.5301C21.6062 50.5301 17.3203 49.2443 17.3203 47.6582" stroke="#042745" stroke-width="2" stroke-linecap="square"></path><path d="M36.4661 54.3594C36.4661 55.9455 32.1802 57.2312 26.8932 57.2312C21.6062 57.2312 17.3203 55.9455 17.3203 54.3594" stroke="#042745" stroke-width="2" stroke-linecap="square"></path><path d="M36.4661 62.0178C36.4661 63.6039 32.1802 64.8897 26.8932 64.8897C21.6062 64.8897 17.3203 63.6039 17.3203 62.0178" stroke="#042745" stroke-width="2" stroke-linecap="square"></path><path d="M38.3799 48.6155H57.5257V63.8258C51.2911 65.7654 44.6144 65.7654 38.3799 63.8258V48.6155Z" fill="white"></path><path d="M57.5257 62.9748V49.5728H38.3799V62.9748" stroke="#042745" stroke-width="2"></path><ellipse cx="47.9528" cy="49.0942" rx="9.5729" ry="3.35052" fill="white" stroke="#042745" stroke-width="2"></ellipse><path d="M57.5257 55.3167C57.5257 56.9027 53.2398 58.1885 47.9528 58.1885C42.6658 58.1885 38.3799 56.9027 38.3799 55.3167" stroke="#042745" stroke-width="2" stroke-linecap="square"></path><path d="M57.5257 62.9749C57.5257 64.5609 53.2398 65.8467 47.9528 65.8467C42.6658 65.8467 38.3799 64.5609 38.3799 62.9749" stroke="#042745" stroke-width="2" stroke-linecap="square"></path><ellipse cx="44.1242" cy="24.6835" rx="11.4875" ry="11.4875" fill="#009EDB"></ellipse><path d="M43.4409 31.396C42.5742 31.3694 41.8009 31.2894 41.1209 31.156C40.4409 31.0094 39.8209 30.8094 39.2609 30.556V27.976C39.8075 28.2427 40.4675 28.4894 41.2409 28.716C42.0142 28.9294 42.7475 29.056 43.4409 29.096V26.076C42.6675 25.7694 42.0075 25.476 41.4609 25.196C40.9275 24.916 40.4942 24.6227 40.1609 24.316C39.8409 23.996 39.6075 23.6494 39.4609 23.276C39.3142 22.8894 39.2409 22.4494 39.2409 21.956C39.2409 21.2894 39.4142 20.716 39.7609 20.236C40.1209 19.7427 40.6142 19.3494 41.2409 19.056C41.8809 18.7627 42.6142 18.5827 43.4409 18.516V17.016H44.7809V18.476C45.5275 18.5027 46.2275 18.5894 46.8809 18.736C47.5475 18.8827 48.1942 19.096 48.8209 19.376L47.9009 21.656C47.3675 21.4294 46.8275 21.256 46.2809 21.136C45.7475 21.016 45.2475 20.936 44.7809 20.896V23.776C45.5009 24.0427 46.1875 24.336 46.8409 24.656C47.4942 24.9627 48.0209 25.356 48.4209 25.836C48.8342 26.316 49.0409 26.9494 49.0409 27.736C49.0409 28.7094 48.6875 29.5227 47.9809 30.176C47.2742 30.8294 46.2075 31.2227 44.7809 31.356V33.356H43.4409V31.396ZM44.7809 29.036C45.2342 28.956 45.5675 28.8227 45.7809 28.636C45.9942 28.436 46.1009 28.1827 46.1009 27.876C46.1009 27.6894 46.0475 27.5294 45.9409 27.396C45.8475 27.2494 45.7009 27.116 45.5009 26.996C45.3142 26.8627 45.0742 26.7294 44.7809 26.596V29.036ZM43.4409 20.936C43.1742 20.976 42.9475 21.0427 42.7609 21.136C42.5742 21.216 42.4275 21.3294 42.3209 21.476C42.2275 21.6094 42.1809 21.7694 42.1809 21.956C42.1809 22.1427 42.2209 22.3094 42.3009 22.456C42.3942 22.5894 42.5342 22.7227 42.7209 22.856C42.9075 22.976 43.1475 23.1027 43.4409 23.236V20.936Z" fill="white"></path><path d="M63.8125 17.0251C63.8125 16.1967 63.1409 15.5251 62.3125 15.5251C61.4841 15.5251 60.8125 16.1967 60.8125 17.0251L63.8125 17.0251ZM61.2518 46.8045C61.8376 47.3903 62.7874 47.3903 63.3732 46.8045L72.9191 37.2586C73.5049 36.6728 73.5049 35.723 72.9191 35.1373C72.3333 34.5515 71.3836 34.5515 70.7978 35.1373L62.3125 43.6225L53.8272 35.1373C53.2414 34.5515 52.2917 34.5515 51.7059 35.1373C51.1201 35.723 51.1201 36.6728 51.7059 37.2586L61.2518 46.8045ZM60.8125 17.0251L60.8125 45.7439L63.8125 45.7439L63.8125 17.0251L60.8125 17.0251Z" fill="#009EDB"></path></svg>