<svg xmlns="http://www.w3.org/2000/svg" width="46" height="40" viewBox="0 0 46 40" fill="none"><g clip-path="url(#clip0_70_1212)"><path d="M41.0525 30.5862L12.5284 30.568L8.40133 2.58594H2.59424" stroke="#009EDB" stroke-width="3" stroke-miterlimit="10" stroke-linecap="round" stroke-linejoin="round"></path><mask id="path-2-inside-1_70_1212" fill="white"><path d="M9.25977 7.90527H40.2309L38.3682 25.0843H11.8163"></path></mask><path d="M40.2309 7.90527L43.2134 8.22865L43.5738 4.90527H40.2309V7.90527ZM38.3682 25.0843V28.0843H41.0606L41.3508 25.4077L38.3682 25.0843ZM9.25977 10.9053H40.2309V4.90527H9.25977V10.9053ZM37.2484 7.58189L35.3857 24.761L41.3508 25.4077L43.2134 8.22865L37.2484 7.58189ZM38.3682 22.0843H11.8163V28.0843H38.3682V22.0843Z" fill="#009EDB" mask="url(#path-2-inside-1_70_1212)"></path><path d="M21.0355 34.849C21.0355 36.3212 19.8382 37.5208 18.3537 37.5208C16.8692 37.5208 15.6719 36.3212 15.6719 34.849C15.6719 33.3768 16.8692 32.1772 18.3537 32.1772C19.8382 32.1772 21.0355 33.3768 21.0355 34.849Z" stroke="#009EDB" stroke-width="3"></path><path d="M37.4159 34.849C37.4159 36.3212 36.2186 37.5208 34.7341 37.5208C33.2495 37.5208 32.0522 36.3212 32.0522 34.849C32.0522 33.3768 33.2495 32.1772 34.7341 32.1772C36.2186 32.1772 37.4159 33.3768 37.4159 34.849Z" stroke="#009EDB" stroke-width="3"></path><ellipse cx="36.8419" cy="8.42105" rx="8.42105" ry="8.42105" fill="#009EDB"></ellipse><path d="M36.1086 13.0909V2.18182H36.8075V13.0909H36.1086ZM38.4609 5.45455C38.4098 5.02273 38.2024 4.6875 37.8387 4.44886C37.4751 4.21023 37.0291 4.09091 36.5007 4.09091C36.1143 4.09091 35.7762 4.15341 35.4865 4.27841C35.1995 4.40341 34.9751 4.57528 34.8132 4.79403C34.6541 5.01278 34.5745 5.26136 34.5745 5.53977C34.5745 5.77273 34.6299 5.97301 34.7407 6.14062C34.8544 6.3054 34.9992 6.44318 35.1754 6.55398C35.3515 6.66193 35.5362 6.75142 35.7294 6.82244C35.9225 6.89062 36.1001 6.94602 36.262 6.98864L37.1484 7.22727C37.3757 7.28693 37.6285 7.36932 37.9069 7.47443C38.1882 7.57955 38.4566 7.72301 38.7123 7.90483C38.9708 8.08381 39.1839 8.31392 39.3515 8.59517C39.5191 8.87642 39.6029 9.22159 39.6029 9.63068C39.6029 10.1023 39.4794 10.5284 39.2322 10.9091C38.9879 11.2898 38.6299 11.5923 38.1583 11.8168C37.6896 12.0412 37.12 12.1534 36.4495 12.1534C35.8245 12.1534 35.2833 12.0526 34.826 11.8509C34.3714 11.6491 34.0134 11.3679 33.7521 11.0071C33.4936 10.6463 33.3473 10.2273 33.3132 9.75H34.4041C34.4325 10.0795 34.5433 10.3523 34.7365 10.5682C34.9325 10.7812 35.1796 10.9403 35.4779 11.0455C35.7791 11.1477 36.1029 11.1989 36.4495 11.1989C36.8529 11.1989 37.2152 11.1335 37.5362 11.0028C37.8572 10.8693 38.1115 10.6847 38.299 10.4489C38.4865 10.2102 38.5802 9.93182 38.5802 9.61364C38.5802 9.32386 38.4992 9.08807 38.3373 8.90625C38.1754 8.72443 37.9623 8.5767 37.6981 8.46307C37.4339 8.34943 37.1484 8.25 36.8416 8.16477L35.7677 7.85795C35.0859 7.66193 34.5461 7.3821 34.1484 7.01847C33.7507 6.65483 33.5518 6.17898 33.5518 5.59091C33.5518 5.10227 33.6839 4.67614 33.9481 4.3125C34.2152 3.94602 34.5731 3.66193 35.022 3.46023C35.4737 3.25568 35.9779 3.15341 36.5348 3.15341C37.0973 3.15341 37.5973 3.25426 38.0348 3.45597C38.4723 3.65483 38.8188 3.92756 39.0745 4.27415C39.3331 4.62074 39.4694 5.0142 39.4836 5.45455H38.4609Z" fill="white"></path></g><defs><clipPath id="clip0_70_1212"><rect width="45.2632" height="40" fill="white"></rect></clipPath></defs></svg>