<svg xmlns="http://www.w3.org/2000/svg" width="97" height="97" viewBox="0 0 97 97" fill="none"><rect width="97" height="97" rx="10" fill="#E6F4F9"></rect><rect x="42" y="26" width="28" height="41.3962" fill="white" stroke="#042745" stroke-width="2" stroke-linejoin="round"></rect><path d="M51.5625 73.6254V32.3611L69.9229 26.4237V67.688L51.5625 73.6254Z" fill="white" stroke="#042745" stroke-width="2" stroke-linejoin="round"></path><path d="M33 53L24 55C24.3557 60.5141 24.147 66.5 25 67.5C26.147 68.9717 33.0238 69 38.5 69C45.3 69 45.5 64 45 61.5C36 63 32.5 56 33 53Z" fill="#CDE4FC"></path><line x1="21.2656" y1="52.3469" x2="32.8983" y2="52.3469" stroke="#042745" stroke-width="2"></line><circle cx="42.0814" cy="52.7347" r="6.73469" fill="#009EDB"></circle><path d="M42.5 49C42.5 48.7239 42.2761 48.5 42 48.5C41.7239 48.5 41.5 48.7239 41.5 49L42.5 49ZM41.6464 56.3536C41.8417 56.5488 42.1583 56.5488 42.3536 56.3536L45.5355 53.1716C45.7308 52.9763 45.7308 52.6597 45.5355 52.4645C45.3403 52.2692 45.0237 52.2692 44.8284 52.4645L42 55.2929L39.1716 52.4645C38.9763 52.2692 38.6597 52.2692 38.4645 52.4645C38.2692 52.6597 38.2692 52.9763 38.4645 53.1716L41.6464 56.3536ZM41.5 49L41.5 56L42.5 56L42.5 49L41.5 49Z" fill="white"></path><circle cx="28.3058" cy="72.6327" r="2.36735" stroke="#042745" stroke-width="2"></circle><circle cx="39.3263" cy="72.6327" r="2.36735" stroke="#042745" stroke-width="2"></circle><path d="M13 48.1428H16.0863C18.5415 48.1428 20.6334 49.9254 21.023 52.3494L23.102 65.2857L23.1557 65.6345C23.4771 67.7233 25.2744 69.2653 27.3878 69.2653V69.2653H40.8175C40.8439 69.2653 40.8702 69.2631 40.8963 69.2587V69.2587C43.0392 68.9016 44.674 67.1478 44.8799 64.9852L45.1429 62.2245" stroke="#042745" stroke-width="2" stroke-linecap="round"></path></svg>