<?xml version="1.0" encoding="UTF-8"?>
<svg id="Layer_2" data-name="Layer 2" xmlns="http://www.w3.org/2000/svg" viewBox="0 0 76.98 45">
  <defs>
    <style>
      .cls-1 {
        fill: #fff;
      }

      .cls-2 {
        fill: #082845;
      }

      .cls-3 {
        fill: #0b9eda;
      }
    </style>
  </defs>
  <g id="Layer_1-2" data-name="Layer 1">
    <g id="Group_298" data-name="Group 298">
      <g id="Group_9" data-name="Group 9">
        <path id="Path_158" data-name="Path 158" class="cls-2" d="M30.9,24.73H2.08c-1.95,.01-2.62,1.71-1.59,3.56l7.53,13.59c1.16,1.87,3.17,3.05,5.38,3.13h28.75c1.95-.01,2.69-1.51,1.67-3.36l-7.53-13.58c-1.14-1.92-3.15-3.17-5.38-3.33Z"/>
        <path id="Path_159" data-name="Path 159" class="cls-3" d="M13.37,0h28.82c1.95,.01,2.62,1.71,1.59,3.56l-7.53,13.59c-1.16,1.87-3.17,3.05-5.38,3.13H2.13c-1.95-.01-2.69-1.51-1.66-3.36L7.99,3.33C9.13,1.41,11.14,.17,13.37,0Z"/>
        <path id="Path_160" data-name="Path 160" class="cls-1" d="M40.87,8.83l-35.9-.05,2.29-4.13H43.19l-2.31,4.18Z"/>
        <path id="Path_161" data-name="Path 161" class="cls-1" d="M18.62,41.39l-2.05-2.36c-.31-.37-.75-.59-1.23-.62l-4.54-.26c-.13,0-.24,.12-.23,.25,0,.06,.02,.11,.06,.15l2.38,2.75c.19,.23,.48,.37,.78,.38l4.66,.11c.13,0,.23-.12,.22-.26,0-.05-.02-.1-.06-.14Z"/>
      </g>
      <g id="Group_10" data-name="Group 10">
        <path id="Path_162" data-name="Path 162" class="cls-3" d="M52.77,0h8.21c2.44-.02,4.72,1.22,6.01,3.29l9.81,16.12c.36,.63,.15,1.43-.48,1.8-.22,.13-.47,.19-.72,.18h-9.58c-2.21,.02-4.26-1.14-5.39-3.04L51.38,2.22c-.4-.73-.13-1.64,.59-2.04,.24-.13,.52-.2,.79-.18Z"/>
        <path id="Path_163" data-name="Path 163" class="cls-2" d="M52.77,45h8.21c2.44,.02,4.72-1.23,6.01-3.3l9.81-16.12c.36-.63,.15-1.43-.48-1.8-.22-.13-.47-.19-.72-.18h-9.57c-2.21-.02-4.26,1.14-5.39,3.04l-9.25,16.13c-.4,.73-.13,1.64,.59,2.04,.24,.13,.52,.2,.79,.18Z"/>
      </g>
    </g>
  </g>
</svg>