<svg xmlns="http://www.w3.org/2000/svg" width="80" height="80" viewBox="0 0 80 80" fill="none"><rect width="80" height="80" rx="8" fill="#E6F4F9"></rect><g clip-path="url(#clip0_160_537)"><path d="M28.2334 30.5864H22.585V50.3546H28.2334V30.5864Z" fill="#009EDB"></path><path d="M57.415 30.5864H51.7666V50.3546H57.415V30.5864Z" fill="#009EDB"></path><path d="M41.8644 24.622C41.855 24.6144 41.8583 24.6168 41.8441 24.6056C41.6854 24.481 40.6137 23.7005 39.1677 24.136C37.6659 24.5884 37.293 26.6433 38.3135 27.4437C38.8996 27.9034 39.7813 28.2812 40.9696 28.7013C43.6292 29.6414 42.646 33.3921 39.9406 33.4101C38.8848 33.4172 38.3912 33.3501 37.4639 32.7434" stroke="#042745" stroke-width="2" stroke-miterlimit="10" stroke-linecap="round" stroke-linejoin="round"></path><path d="M40 22.1147V23.9973" stroke="#042745" stroke-width="2" stroke-miterlimit="10" stroke-linecap="round" stroke-linejoin="round"></path><path d="M40 33.4106V35.2933" stroke="#042745" stroke-width="2" stroke-miterlimit="10" stroke-linecap="round" stroke-linejoin="round"></path><path d="M51.7666 26.8213H58.3559C59.9157 26.8213 61.1799 28.0855 61.1799 29.6452V54.1197" stroke="#042745" stroke-width="2" stroke-miterlimit="10" stroke-linecap="round" stroke-linejoin="round"></path><path d="M18.8201 54.1197V29.6452C18.8201 28.0854 20.0843 26.8213 21.6441 26.8213H28.2334" stroke="#042745" stroke-width="2" stroke-miterlimit="10" stroke-linecap="round" stroke-linejoin="round"></path><path d="M51.7665 50.3545H28.2334" stroke="#042745" stroke-width="2" stroke-miterlimit="10" stroke-linecap="round" stroke-linejoin="round"></path><path d="M16.9375 54.1199V58.8265C16.9375 60.3861 18.2018 61.6504 19.7614 61.6504H60.2385C61.7981 61.6504 63.0624 60.3861 63.0624 58.8265V54.1199H16.9375Z" stroke="#042745" stroke-width="2" stroke-miterlimit="10" stroke-linecap="round" stroke-linejoin="round"></path><path d="M18.8201 50.3545H61.1797" stroke="#042745" stroke-width="2" stroke-miterlimit="10" stroke-linecap="round" stroke-linejoin="round"></path><path d="M46.1186 54.1199H33.8813V57.8852H46.1186V54.1199Z" stroke="#042745" stroke-width="2" stroke-miterlimit="10" stroke-linecap="round" stroke-linejoin="round"></path><path d="M32.9399 39.0586H47.0598" stroke="#042745" stroke-width="2" stroke-miterlimit="10" stroke-linecap="round" stroke-linejoin="round"></path><path d="M32.9399 42.8237H47.0598" stroke="#042745" stroke-width="2" stroke-miterlimit="10" stroke-linecap="round" stroke-linejoin="round"></path><path d="M32.9399 46.5891H47.0598" stroke="#042745" stroke-width="2" stroke-miterlimit="10" stroke-linecap="round" stroke-linejoin="round"></path><path d="M51.7665 18.3494H28.2334V50.3545H51.7665V18.3494Z" stroke="#042745" stroke-width="2" stroke-miterlimit="10" stroke-linecap="round" stroke-linejoin="round"></path></g><defs><clipPath id="clip0_160_537"><rect width="48" height="48" fill="white" transform="translate(16 16)"></rect></clipPath></defs></svg>