<svg xmlns="http://www.w3.org/2000/svg" width="81" height="80" viewBox="0 0 81 80" fill="none"><rect x="0.525879" width="80" height="80" rx="8" fill="#E6F4F9"></rect><g clip-path="url(#clip0_84_853)"><path fill-rule="evenodd" clip-rule="evenodd" d="M19.9009 29.7816H53.6507V21.1562C42.4008 21.1562 31.1508 21.1562 19.9009 21.1562V29.7816Z" fill="#009EDB"></path><path d="M53.6508 42.6935V61.1875C53.6508 62.2187 52.8069 63.0625 51.7758 63.0625H21.7759C20.7446 63.0625 19.9009 62.2189 19.9009 61.1875V21.1562H53.6508V31.303" stroke="#042745" stroke-width="2" stroke-miterlimit="22.9256" stroke-linecap="round" stroke-linejoin="round"></path><path d="M28.3384 25.375C27.1782 25.375 26.229 24.4258 26.229 23.2656V19.0469C26.229 17.8867 27.1782 16.9375 28.3384 16.9375C29.4985 16.9375 30.4478 17.8868 30.4478 19.0469V20.6875" stroke="#042745" stroke-width="2" stroke-miterlimit="22.9256" stroke-linecap="round" stroke-linejoin="round"></path><path d="M36.7759 25.375C35.6157 25.375 34.6665 24.4258 34.6665 23.2656V19.0469C34.6665 17.8867 35.6157 16.9375 36.7759 16.9375C37.936 16.9375 38.8853 17.8868 38.8853 19.0469V20.6875" stroke="#042745" stroke-width="2" stroke-miterlimit="22.9256" stroke-linecap="round" stroke-linejoin="round"></path><path d="M45.2134 25.375C44.0532 25.375 43.104 24.4258 43.104 23.2656V19.0469C43.104 17.8867 44.0532 16.9375 45.2134 16.9375C46.3735 16.9375 47.3228 17.8868 47.3228 19.0469V20.6875" stroke="#042745" stroke-width="2" stroke-miterlimit="22.9256" stroke-linecap="round" stroke-linejoin="round"></path><path d="M24.1196 34.9378H47.274" stroke="#042745" stroke-width="2" stroke-miterlimit="22.9256" stroke-linecap="round" stroke-linejoin="round"></path><path d="M24.1196 40.5627H44.0264" stroke="#042745" stroke-width="2" stroke-miterlimit="22.9256" stroke-linecap="round" stroke-linejoin="round"></path><path d="M24.1196 46.1877H40.7789" stroke="#042745" stroke-width="2" stroke-miterlimit="22.9256" stroke-linecap="round" stroke-linejoin="round"></path><path d="M24.1196 51.8126H38.514" stroke="#042745" stroke-width="2" stroke-miterlimit="22.9256" stroke-linecap="round" stroke-linejoin="round"></path><path d="M41.8516 57.2449L42.2169 51.1598L56.2793 26.8029L61.1507 29.6153L47.0882 53.9722L41.84 57.4375H24.1196" stroke="#042745" stroke-width="2" stroke-miterlimit="22.9256" stroke-linecap="round" stroke-linejoin="round"></path><path d="M53.3169 32.3964L57.7878 34.9776" stroke="#042745" stroke-width="2" stroke-miterlimit="22.9256" stroke-linecap="round" stroke-linejoin="round"></path><path d="M42.6206 54.5242C43.132 54.6612 43.5983 54.9305 43.9727 55.3048" stroke="#042745" stroke-width="2" stroke-miterlimit="22.9256" stroke-linecap="round" stroke-linejoin="round"></path></g><defs><clipPath id="clip0_84_853"><rect width="48" height="48" fill="white" transform="translate(16.5259 16)"></rect></clipPath></defs></svg>