<svg xmlns="http://www.w3.org/2000/svg" width="81" height="80" viewBox="0 0 81 80" fill="none"><rect x="0.525879" width="80" height="80" rx="8" fill="#E6F4F9"></rect><path d="M35.617 45.1785H21.2412V20.2813H24.6521" stroke="#042745" stroke-width="2" stroke-miterlimit="10" stroke-linecap="round" stroke-linejoin="round"></path><path d="M56.383 20.2813H59.8106V45.1785H46.4043" stroke="#042745" stroke-width="2" stroke-miterlimit="10" stroke-linecap="round" stroke-linejoin="round"></path><mask id="mask0_164_982" style="mask-type:luminance" maskUnits="userSpaceOnUse" x="16" y="16" width="49" height="48"><path d="M16.5259 16H64.5259V64H16.5259V16Z" fill="white"></path></mask><g mask="url(#mask0_164_982)"><path d="M43.0188 39.9714H47.4255H56.2387V16.9376H43.6859C41.9407 16.9376 40.5259 18.3582 40.5259 20.1104C40.5259 18.3582 39.1111 16.9376 37.366 16.9376H24.8132V39.9714H36.4468H38.033" stroke="#042745" stroke-width="2" stroke-miterlimit="10" stroke-linecap="round" stroke-linejoin="round"></path><path d="M40.5259 20.1105V36.9061" stroke="#042745" stroke-width="2" stroke-miterlimit="10" stroke-linecap="round" stroke-linejoin="round"></path><path d="M45.6699 22.72H51.6345" stroke="#042745" stroke-width="2" stroke-miterlimit="10" stroke-linecap="round" stroke-linejoin="round"></path><path d="M45.6699 28.0841H51.6345" stroke="#042745" stroke-width="2" stroke-miterlimit="10" stroke-linecap="round" stroke-linejoin="round"></path><path d="M45.6699 33.4481H51.6345" stroke="#042745" stroke-width="2" stroke-miterlimit="10" stroke-linecap="round" stroke-linejoin="round"></path><path d="M29.4175 22.72H35.382" stroke="#042745" stroke-width="2" stroke-miterlimit="10" stroke-linecap="round" stroke-linejoin="round"></path><path d="M29.4175 28.0841H35.382" stroke="#042745" stroke-width="2" stroke-miterlimit="10" stroke-linecap="round" stroke-linejoin="round"></path><path d="M29.4175 33.4481H35.382" stroke="#042745" stroke-width="2" stroke-miterlimit="10" stroke-linecap="round" stroke-linejoin="round"></path><path d="M48.0129 52.3321L51.4737 55.793" stroke="#042745" stroke-width="2" stroke-miterlimit="10" stroke-linecap="round" stroke-linejoin="round"></path><path d="M58.7435 60.1654L55.8465 63.0625L50.1504 57.3665L53.0475 54.4695L58.7435 60.1654Z" stroke="#042745" stroke-width="2" stroke-miterlimit="10" stroke-linecap="round" stroke-linejoin="round"></path><path d="M49.6115 38.1632C53.9654 42.5171 53.9654 49.5764 49.6115 53.9305C45.2575 58.2845 38.1982 58.2845 33.8441 53.9305C29.4901 49.5764 29.4901 42.5171 33.8441 38.1632C38.1982 33.8092 45.2575 33.8092 49.6115 38.1632Z" fill="#009EDB"></path></g></svg>