<svg xmlns="http://www.w3.org/2000/svg" width="80" height="80" viewBox="0 0 80 80" fill="none"><rect width="80" height="80" rx="8" fill="#E6F4F9"></rect><mask id="mask0_160_499" style="mask-type:luminance" maskUnits="userSpaceOnUse" x="16" y="16" width="48" height="48"><path d="M16 16H64V64H16V16Z" fill="white"></path></mask><g mask="url(#mask0_160_499)"><path d="M54.2097 38.1241V56.0382C54.2097 57.6997 52.8622 59.0466 51.1999 59.0466H19.9472C18.285 59.0466 16.9375 57.6997 16.9375 56.0382V34.5712C16.9375 32.9097 18.285 31.5628 19.9472 31.5628H51.1999" stroke="#042745" stroke-width="2" stroke-miterlimit="10" stroke-linecap="round" stroke-linejoin="round"></path><path d="M30.9519 36.074H40.1951" stroke="#042745" stroke-width="2" stroke-miterlimit="10" stroke-linecap="round" stroke-linejoin="round"></path><path d="M32.7034 39.521H38.4364" stroke="#042745" stroke-width="2" stroke-miterlimit="10" stroke-linecap="round" stroke-linejoin="round"></path><path d="M17.8169 33.3208L32.3264 47.2616C33.2175 48.0638 34.3743 48.5078 35.5736 48.5078C36.7729 48.5078 37.9296 48.0638 38.8208 47.2616L46.5257 39.8587" stroke="#042745" stroke-width="2" stroke-miterlimit="10" stroke-linecap="round" stroke-linejoin="round"></path><path d="M39.1274 47.2134L53.3301 57.864" stroke="#042745" stroke-width="2" stroke-miterlimit="10" stroke-linecap="round" stroke-linejoin="round"></path><path d="M17.8169 57.864L32.0751 47.1593" stroke="#042745" stroke-width="2" stroke-miterlimit="10" stroke-linecap="round" stroke-linejoin="round"></path><path d="M62.0832 41.7756H46.3361C45.2775 41.7756 44.4194 40.9175 44.4194 39.8589C44.4194 38.8004 45.2775 37.9422 46.3361 37.9422H62.0832C63.1419 37.9422 64 38.8004 64 39.8589C64 40.9175 63.1419 41.7756 62.0832 41.7756Z" fill="#009EDB"></path><path d="M54.2097 22.8937C58.187 22.8937 61.4111 26.1177 61.4111 30.0948V37.9421H47.0083V31.9648V30.0948C47.0083 26.1177 50.2325 22.8937 54.2097 22.8937Z" fill="#009EDB"></path><path d="M56.1089 21.915C56.1089 22.9639 55.2586 23.8142 54.2096 23.8142C53.1607 23.8142 52.3103 22.9639 52.3103 21.915C52.3103 20.8661 53.1607 20.0158 54.2096 20.0158C55.2586 20.0158 56.1089 20.8661 56.1089 21.915Z" fill="#009EDB"></path><path d="M54.2102 44.6436H54.2092C52.9806 44.6436 51.9846 43.6476 51.9846 42.419V41.7756H56.4347V42.419C56.4347 43.6476 55.4387 44.6436 54.2102 44.6436Z" fill="#009EDB"></path></g></svg>