<svg xmlns="http://www.w3.org/2000/svg" width="80" height="80" viewBox="0 0 80 80" fill="none"><rect width="80" height="80" rx="8" fill="#E6F4F9"></rect><path d="M41.4083 51.292H20.7068V28.7078H41.4083V51.292Z" fill="#009EDB"></path><mask id="mask0_160_438" style="mask-type:luminance" maskUnits="userSpaceOnUse" x="16" y="16" width="48" height="48"><path d="M16 16H64V64H16V16Z" fill="white"></path></mask><g mask="url(#mask0_160_438)"><path d="M33.8814 37.176C33.8814 38.7356 32.6171 40 31.0573 40C29.4977 40 28.2334 38.7356 28.2334 37.176C28.2334 35.6163 29.4977 34.3519 31.0573 34.3519C32.6171 34.3519 33.8814 35.6163 33.8814 37.176Z" stroke="#042745" stroke-width="2" stroke-miterlimit="10" stroke-linecap="round" stroke-linejoin="round"></path><path d="M35.7641 45.6479H26.3508V44.7066C26.3508 42.1072 28.458 40 31.0575 40C33.6569 40 35.7641 42.1072 35.7641 44.7066V45.6479Z" stroke="#042745" stroke-width="2" stroke-miterlimit="10" stroke-linecap="round" stroke-linejoin="round"></path><path d="M60.25 55.0613H19.75C18.1967 55.0613 16.9375 53.802 16.9375 52.2488V27.7512C16.9375 26.198 18.1967 24.9387 19.75 24.9387H60.25C61.8033 24.9387 63.0625 26.198 63.0625 27.7512V52.2488C63.0625 53.802 61.8033 55.0613 60.25 55.0613Z" stroke="#042745" stroke-width="2" stroke-miterlimit="10" stroke-linecap="round" stroke-linejoin="round"></path><path d="M58.3558 36.2349H45.1772V29.6456H58.3558V36.2349Z" stroke="#042745" stroke-width="2" stroke-miterlimit="10" stroke-linecap="round" stroke-linejoin="round"></path><path d="M45.1772 50.3547H58.3558" stroke="#042745" stroke-width="2" stroke-miterlimit="10" stroke-linecap="round" stroke-linejoin="round"></path><path d="M45.1772 45.6479H58.3558" stroke="#042745" stroke-width="2" stroke-miterlimit="10" stroke-linecap="round" stroke-linejoin="round"></path><path d="M45.1772 40.9414H58.3558" stroke="#042745" stroke-width="2" stroke-miterlimit="10" stroke-linecap="round" stroke-linejoin="round"></path></g></svg>