<svg xmlns="http://www.w3.org/2000/svg" width="80" height="80" viewBox="0 0 80 80" fill="none"><rect width="80" height="80" rx="8" fill="#E6F4F9"></rect><mask id="mask0_160_372" style="mask-type:luminance" maskUnits="userSpaceOnUse" x="16" y="16" width="48" height="48"><path d="M16 16H64V64H16V16Z" fill="white"></path></mask><g mask="url(#mask0_160_372)"><path d="M45.6481 29.6454C45.6481 34.0644 42.0658 37.6467 37.6468 37.6467C33.2278 37.6467 29.6455 34.0644 29.6455 29.6454C29.6455 25.2264 33.2278 21.6442 37.6468 21.6442C42.0658 21.6442 45.6481 25.2264 45.6481 29.6454Z" fill="#009EDB"></path><path d="M55.0611 21.6441H53.1784V55.5318C53.1784 57.0915 51.9141 58.3559 50.3545 58.3559H26.8213V60.2385C26.8213 61.7982 28.0857 63.0625 29.6452 63.0625H55.0611C56.6208 63.0625 57.8851 61.7982 57.8851 60.2385V24.4682C57.8851 22.9084 56.6208 21.6441 55.0611 21.6441Z" stroke="#042745" stroke-width="2" stroke-miterlimit="10" stroke-linecap="round" stroke-linejoin="round"></path><path d="M55.0611 21.6441H53.1784V55.5318C53.1784 57.0915 51.9141 58.3559 50.3545 58.3559H26.8213V60.2385C26.8213 61.7982 28.0857 63.0625 29.6452 63.0625H55.0611C56.6208 63.0625 57.8851 61.7982 57.8851 60.2385V24.4682C57.8851 22.9084 56.6208 21.6441 55.0611 21.6441Z" stroke="#042745" stroke-width="2" stroke-miterlimit="10" stroke-linecap="round" stroke-linejoin="round"></path><path d="M33.5518 29.3041L36.2581 32.0105L40.9883 27.2803" stroke="#042745" stroke-width="2" stroke-miterlimit="10" stroke-linecap="round" stroke-linejoin="round"></path><path d="M26.8215 44.2358H39.0587" stroke="#042745" stroke-width="2" stroke-miterlimit="10" stroke-linecap="round" stroke-linejoin="round"></path><path d="M26.8215 48.9426H48.472" stroke="#042745" stroke-width="2" stroke-miterlimit="10" stroke-linecap="round" stroke-linejoin="round"></path><path d="M26.8215 53.6492H48.472" stroke="#042745" stroke-width="2" stroke-miterlimit="10" stroke-linecap="round" stroke-linejoin="round"></path><path d="M50.3546 16.9376H24.9387C23.3792 16.9376 22.1147 18.2019 22.1147 19.7616V55.5319C22.1147 57.0916 23.3792 58.356 24.9387 58.356H50.3546C51.9142 58.356 53.1785 57.0916 53.1785 55.5319V19.7616C53.1785 18.2019 51.9142 16.9376 50.3546 16.9376Z" stroke="#042745" stroke-width="2" stroke-miterlimit="10" stroke-linecap="round" stroke-linejoin="round"></path></g></svg>