<svg xmlns="http://www.w3.org/2000/svg" width="80" height="80" viewBox="0 0 80 80" fill="none"><rect width="80" height="80" rx="8" fill="#E6F4F9"></rect><mask id="mask0_160_562" style="mask-type:luminance" maskUnits="userSpaceOnUse" x="16" y="16" width="48" height="48"><path d="M16 16H64V64H16V16Z" fill="white"></path></mask><g mask="url(#mask0_160_562)"><path d="M20.5795 30.6662H16.9375V58.5377H36.7158C36.7158 59.8835 37.8062 60.9746 39.1513 60.9746H40.8487C42.1938 60.9746 43.2843 59.8835 43.2843 58.5377H63.0625V30.6662H59.3508" stroke="#042745" stroke-width="2" stroke-miterlimit="10" stroke-linecap="round" stroke-linejoin="round"></path><path d="M29.6327 27.5748H20.8235V54.2263H38.1201C39.1583 54.2263 40 55.0685 40 56.1074V40.4995" stroke="#042745" stroke-width="2" stroke-miterlimit="10" stroke-linecap="round" stroke-linejoin="round"></path><path d="M50.396 27.5748H59.1766V54.2263H41.88C40.8417 54.2263 40 55.0685 40 56.1074V40.3518" stroke="#042745" stroke-width="2" stroke-miterlimit="10" stroke-linecap="round" stroke-linejoin="round"></path><path d="M53.29 31.3855C53.29 38.7296 47.3401 44.6831 40.0005 44.6831C32.6609 44.6831 26.7109 38.7296 26.7109 31.3855C26.7109 24.0415 32.6609 18.0879 40.0005 18.0879C47.3401 18.0879 53.29 24.0415 53.29 31.3855Z" fill="#009EDB"></path><path d="M38.0923 30.4557H41.9087V38.47H38.0923V30.4557Z" stroke="#042745" stroke-width="2" stroke-miterlimit="10" stroke-linecap="round" stroke-linejoin="round"></path><path d="M38.0923 23.0663H41.9087V26.887H38.0923V23.0663Z" stroke="#042745" stroke-width="2" stroke-miterlimit="10" stroke-linecap="round" stroke-linejoin="round"></path></g></svg>