<svg xmlns="http://www.w3.org/2000/svg" width="80" height="80" viewBox="0 0 80 80" fill="none"><rect width="80" height="80" rx="8" fill="#E6F4F9"></rect><path d="M57.1429 47.2195H22.8572V64H57.1429V47.2195Z" fill="#009EDB"></path><path d="M62.0408 42.3416V64.0001" stroke="#042745" stroke-width="2" stroke-miterlimit="10" stroke-linecap="round" stroke-linejoin="round"></path><path d="M17.9592 64.0001V42.3416" stroke="#042745" stroke-width="2" stroke-miterlimit="10" stroke-linecap="round" stroke-linejoin="round"></path><path d="M16 64H64" stroke="#042745" stroke-width="2" stroke-miterlimit="10" stroke-linecap="round" stroke-linejoin="round"></path><path d="M16 42.3416H64" stroke="#042745" stroke-width="2" stroke-miterlimit="10" stroke-linecap="round" stroke-linejoin="round"></path><path d="M64 24.7805H47.3469V37.4634H64V24.7805Z" stroke="#042745" stroke-width="2" stroke-miterlimit="10" stroke-linecap="round" stroke-linejoin="round"></path><path d="M53.2244 37.4634V42.3414" stroke="#042745" stroke-width="2" stroke-miterlimit="10" stroke-linecap="round" stroke-linejoin="round"></path><path d="M58.1223 37.4634V42.3414" stroke="#042745" stroke-width="2" stroke-miterlimit="10" stroke-linecap="round" stroke-linejoin="round"></path><path d="M27.7551 55.5122H52.2449" stroke="#042745" stroke-width="2" stroke-miterlimit="10" stroke-linecap="round" stroke-linejoin="round"></path><path d="M27.7551 51.6099H52.2449" stroke="#042745" stroke-width="2" stroke-miterlimit="10" stroke-linecap="round" stroke-linejoin="round"></path><path d="M27.7551 59.4146H52.2449" stroke="#042745" stroke-width="2" stroke-miterlimit="10" stroke-linecap="round" stroke-linejoin="round"></path><path d="M19.4307 42.3414V41.3658C19.4307 36.516 23.3775 32.5853 28.2471 32.5853V28.6829" stroke="#042745" stroke-width="2" stroke-miterlimit="10" stroke-linecap="round" stroke-linejoin="round"></path><path d="M34.1243 28.6829V32.5853C36.5595 32.5853 38.7636 33.5677 40.3584 35.157C41.9541 36.7453 42.9407 38.9404 42.9407 41.3658V42.3414" stroke="#042745" stroke-width="2" stroke-miterlimit="10" stroke-linecap="round" stroke-linejoin="round"></path><path d="M28.2471 32.5854L31.1858 36.4879V42.3415" stroke="#042745" stroke-width="2" stroke-miterlimit="10" stroke-linecap="round" stroke-linejoin="round"></path><path d="M34.1243 32.5854L31.1855 36.4879" stroke="#042745" stroke-width="2" stroke-miterlimit="10" stroke-linecap="round" stroke-linejoin="round"></path><path d="M24.3286 39.4146V42.3414" stroke="#042745" stroke-width="2" stroke-miterlimit="10" stroke-linecap="round" stroke-linejoin="round"></path><path d="M38.0427 39.4146V42.3414" stroke="#042745" stroke-width="2" stroke-miterlimit="10" stroke-linecap="round" stroke-linejoin="round"></path><path d="M36.0836 20.878H27.2673C24.5623 20.878 22.3694 18.694 22.3694 16H31.1858C33.8908 16 36.0836 18.184 36.0836 20.878Z" stroke="#042745" stroke-width="2" stroke-miterlimit="10" stroke-linecap="round" stroke-linejoin="round"></path><path d="M36.0837 20.8781V24.7805C36.0837 26.1269 35.5352 27.3464 34.6487 28.2293C33.7621 29.1122 32.5376 29.6586 31.1858 29.6586C28.4811 29.6586 26.2878 27.4742 26.2878 24.7805V20.7795" stroke="#042745" stroke-width="2" stroke-miterlimit="10" stroke-linecap="round" stroke-linejoin="round"></path></svg>