<svg xmlns="http://www.w3.org/2000/svg" width="81" height="80" viewBox="0 0 81 80" fill="none"><rect x="0.525879" width="80" height="80" rx="8" fill="#E6F4F9"></rect><g clip-path="url(#clip0_164_269)"><path d="M40.5259 58.3565C50.6623 58.3565 58.8794 50.1393 58.8794 40.0029C58.8794 29.8666 50.6623 21.6494 40.5259 21.6494C30.3895 21.6494 22.1724 29.8666 22.1724 40.0029C22.1724 50.1393 30.3895 58.3565 40.5259 58.3565Z" fill="#009EDB"></path><path d="M29.9317 60.4831C40.3768 65.9022 53.4236 62.571 59.918 52.4776C66.8092 41.7676 63.7135 27.499 53.0035 20.6078C42.2935 13.7166 28.025 16.8124 21.1338 27.5224C15.0254 37.0158 16.7634 49.305 24.6968 56.7734L21.94 61.0579L29.9317 60.4831Z" stroke="#042745" stroke-width="2" stroke-miterlimit="10" stroke-linecap="round" stroke-linejoin="round"></path><path d="M39.1141 53.6504C40.1537 53.6504 40.9965 52.8076 40.9965 51.768C40.9965 50.7284 40.1537 49.8856 39.1141 49.8856C38.0745 49.8856 37.2317 50.7284 37.2317 51.768C37.2317 52.8076 38.0745 53.6504 39.1141 53.6504Z" stroke="#042745" stroke-width="2" stroke-miterlimit="10" stroke-linecap="round" stroke-linejoin="round"></path><path d="M37.2317 46.1208V39.5323H40.9966C43.5915 39.5323 45.7026 37.4211 45.7026 34.8262C45.7026 32.2313 43.5916 30.1202 40.9966 30.1202C39.3628 30.1202 37.8692 30.9491 37.001 32.3375L33.8088 30.3416C35.3057 27.9477 37.9651 26.3553 40.9966 26.3553C45.6749 26.3553 49.4674 30.1479 49.4674 34.8262C49.4674 39.5045 45.6749 43.2971 40.9966 43.2971V46.1208H37.2317Z" stroke="#042745" stroke-width="2" stroke-miterlimit="10" stroke-linecap="round" stroke-linejoin="round"></path></g><defs><clipPath id="clip0_164_269"><rect width="48" height="48" fill="white" transform="translate(16.5259 16)"></rect></clipPath></defs></svg>