<svg xmlns="http://www.w3.org/2000/svg" width="72" height="72" viewBox="0 0 72 72" fill="none"><rect width="72" height="72" rx="4" fill="#E6F4F9"></rect><g clip-path="url(#clip0_160_911)"><path d="M36 39.2946C40.9389 39.2946 44.9426 35.2909 44.9426 30.352C44.9426 25.4131 40.9389 21.4094 36 21.4094C31.0611 21.4094 27.0574 25.4131 27.0574 30.352C27.0574 35.2909 31.0611 39.2946 36 39.2946Z" fill="#009EDB"></path><path d="M45.8838 43.0599H26.116V49.6493H45.8838V43.0599Z" fill="#009EDB"></path><path d="M50.5906 56.2386C50.5906 57.7984 49.3264 59.0625 47.7667 59.0625H24.2335C22.6736 59.0625 21.4094 57.7983 21.4094 56.2386V15.7614C21.4094 14.2017 22.6736 12.9375 24.2335 12.9375H47.7666C49.3264 12.9375 50.5905 14.2017 50.5905 15.7614C50.5906 17.4828 50.5906 54.1373 50.5906 56.2386Z" stroke="#042745" stroke-width="2" stroke-miterlimit="10" stroke-linecap="round" stroke-linejoin="round"></path><path d="M42.1187 17.6441H29.8815L27.9988 12.9375H44.0013L42.1187 17.6441Z" stroke="#042745" stroke-width="2" stroke-miterlimit="10" stroke-linecap="round" stroke-linejoin="round"></path><path d="M21.4094 53.4145H50.5906" stroke="#042745" stroke-width="2" stroke-miterlimit="10" stroke-linecap="round" stroke-linejoin="round"></path><path d="M31.9758 31.358L33.9879 33.3702L40.0241 27.3339" stroke="#042745" stroke-width="2" stroke-miterlimit="10" stroke-linecap="round" stroke-linejoin="round"></path></g><defs><clipPath id="clip0_160_911"><rect width="48" height="48" fill="white" transform="translate(12 12)"></rect></clipPath></defs></svg>