<svg xmlns="http://www.w3.org/2000/svg" width="72" height="72" viewBox="0 0 72 72" fill="none"><rect width="72" height="72" rx="4" fill="#E6F4F9"></rect><g clip-path="url(#clip0_160_924)"><path d="M42.6318 39.3378C47.5945 34.3751 47.5945 26.329 42.6318 21.3663C37.6691 16.4036 29.623 16.4036 24.6603 21.3663C19.6976 26.329 19.6976 34.3751 24.6603 39.3378C29.623 44.3005 37.6691 44.3005 42.6318 39.3378Z" fill="#009EDB"></path><path d="M22.6507 43.8565C18.7665 40.6908 16.2746 35.8826 16.2325 30.4907C16.1577 20.8959 23.9422 12.9967 33.5372 12.9379C42.7738 12.8812 50.3569 20.0166 51.0147 29.0724C51.0808 29.9824 51.3817 30.8598 51.8689 31.6312L55.5876 37.5192C56.0743 38.29 55.5206 39.2947 54.609 39.2947H51.061V47.7666C51.061 49.3262 49.7967 50.5905 48.237 50.5905H42.5891V59.0625H24.7039V48.229C24.7039 46.5386 23.9609 44.9244 22.6507 43.8565Z" stroke="#042745" stroke-width="2" stroke-miterlimit="10" stroke-linecap="round" stroke-linejoin="round"></path><path d="M33.646 35.1104V32.501" stroke="#042745" stroke-width="2" stroke-miterlimit="10" stroke-linecap="round" stroke-linejoin="round"></path><path d="M41.4062 27.6514H38.4962C35.8177 27.6514 33.6462 29.8227 33.6462 32.5014" stroke="#042745" stroke-width="2" stroke-miterlimit="10" stroke-linecap="round" stroke-linejoin="round"></path><path d="M39.3486 25.5938L41.4064 27.6514L39.3486 29.7091" stroke="#042745" stroke-width="2" stroke-miterlimit="10" stroke-linecap="round" stroke-linejoin="round"></path><path d="M25.8865 27.6514H28.7965C31.475 27.6514 33.6464 29.8227 33.6464 32.5014" stroke="#042745" stroke-width="2" stroke-miterlimit="10" stroke-linecap="round" stroke-linejoin="round"></path><path d="M27.9441 25.5938L25.8865 27.6514L27.9441 29.7091" stroke="#042745" stroke-width="2" stroke-miterlimit="10" stroke-linecap="round" stroke-linejoin="round"></path></g><defs><clipPath id="clip0_160_924"><rect width="48" height="48" fill="white" transform="translate(12 12)"></rect></clipPath></defs></svg>