<svg xmlns="http://www.w3.org/2000/svg" width="72" height="72" viewBox="0 0 72 72" fill="none"><rect width="72" height="72" rx="4" fill="#E6F4F9"></rect><g clip-path="url(#clip0_160_939)"><path d="M51.0484 16.7776V45.5824H47.679L53.8395 55.2225L60 45.5824H56.6306V16.7776H51.0484Z" fill="#009EDB"></path><mask id="mask0_160_939" style="mask-type:luminance" maskUnits="userSpaceOnUse" x="12" y="12" width="48" height="48"><path d="M12 12H60V60H12V12Z" fill="white"></path></mask><g mask="url(#mask0_160_939)"><path d="M37.7878 26.2448C37.3812 25.6654 36.3588 25.2349 35.0225 25.6374C33.7955 26.007 33.2456 27.9706 34.846 28.7253C35.0972 28.8437 35.7407 29.0964 36.7116 29.4396C38.8846 30.2077 38.9559 33.0617 36.377 33.2869C35.5177 33.362 34.2922 33.1309 33.6401 32.3215" stroke="#042745" stroke-width="2" stroke-miterlimit="10" stroke-linecap="round" stroke-linejoin="round"></path><path d="M35.8777 24.6427V34.0419" stroke="#042745" stroke-width="2" stroke-miterlimit="10" stroke-linecap="round" stroke-linejoin="round"></path><path d="M12.9375 54.2849H28.4483V49.0691H12.9375V54.2849Z" stroke="#042745" stroke-width="2" stroke-miterlimit="10" stroke-linecap="round" stroke-linejoin="round"></path><path d="M12.9375 49.0691H28.4483V43.8534H12.9375V49.0691Z" stroke="#042745" stroke-width="2" stroke-miterlimit="10" stroke-linecap="round" stroke-linejoin="round"></path><path d="M12.9375 43.8535H28.4483V38.6378H12.9375V43.8535Z" stroke="#042745" stroke-width="2" stroke-miterlimit="10" stroke-linecap="round" stroke-linejoin="round"></path><path d="M28.4482 54.2849H43.9591V49.0691H28.4482V54.2849Z" stroke="#042745" stroke-width="2" stroke-miterlimit="10" stroke-linecap="round" stroke-linejoin="round"></path><path d="M28.4482 49.0691H43.9591V43.8534H28.4482V49.0691Z" stroke="#042745" stroke-width="2" stroke-miterlimit="10" stroke-linecap="round" stroke-linejoin="round"></path><path d="M28.0088 29.3423C28.0088 33.7469 31.5794 37.3176 35.984 37.3176C40.3887 37.3176 43.9593 33.7469 43.9593 29.3423C43.9593 24.9376 40.3887 21.367 35.984 21.367C31.5794 21.367 28.0088 24.9376 28.0088 29.3423Z" stroke="#042745" stroke-width="2" stroke-miterlimit="10" stroke-linecap="round" stroke-linejoin="round"></path></g></g><defs><clipPath id="clip0_160_939"><rect width="48" height="48" fill="white" transform="translate(12 12)"></rect></clipPath></defs></svg>