<svg xmlns="http://www.w3.org/2000/svg" width="72" height="72" viewBox="0 0 72 72" fill="none"><rect width="72" height="72" rx="4" fill="#E6F4F9"></rect><mask id="mask0_160_884" style="mask-type:luminance" maskUnits="userSpaceOnUse" x="12" y="12" width="48" height="48"><path d="M12 12H60V60H12V12Z" fill="white"></path></mask><g mask="url(#mask0_160_884)"><path d="M47.7188 37.875C43.0663 37.875 39.2812 34.0899 39.2812 29.4375C39.2812 24.7851 43.0663 21 47.7188 21C52.3712 21 56.1562 24.7851 56.1562 29.4375C56.1562 34.0899 52.3712 37.875 47.7188 37.875Z" fill="#009EDB"></path><path d="M37.4062 37.875H15.8438V28.5H37.4062V37.875Z" fill="#009EDB"></path><path d="M44.6562 29.875L46.5626 31.7812L50.7813 27.5625" stroke="#042745" stroke-width="2" stroke-miterlimit="10" stroke-linecap="round" stroke-linejoin="round"></path><path d="M56.1562 47.25H15.8437C14.2905 47.25 13.0312 45.9908 13.0312 44.4375V20.0625C13.0312 18.5093 14.2905 17.25 15.8437 17.25H56.1562C57.7095 17.25 58.9687 18.5093 58.9687 20.0625V44.4375C58.9687 45.9908 57.7095 47.25 56.1562 47.25Z" stroke="#042745" stroke-width="2" stroke-miterlimit="10" stroke-linecap="round" stroke-linejoin="round"></path><path d="M42.0937 54.75H29.9062L32.7187 47.25H39.2812L42.0937 54.75Z" stroke="#042745" stroke-width="2" stroke-miterlimit="10" stroke-linecap="round" stroke-linejoin="round"></path><path d="M27.0938 54.75H44.9062" stroke="#042745" stroke-width="2" stroke-miterlimit="10" stroke-linecap="round" stroke-linejoin="round"></path><path d="M13.0312 41.625H58.9687" stroke="#042745" stroke-width="2" stroke-miterlimit="10" stroke-linecap="round" stroke-linejoin="round"></path><path d="M16.7812 25.6875H36.4688" stroke="#042745" stroke-width="2" stroke-miterlimit="10" stroke-linecap="round" stroke-linejoin="round"></path><path d="M16.7812 21.9375H30.8438" stroke="#042745" stroke-width="2" stroke-miterlimit="10" stroke-linecap="round" stroke-linejoin="round"></path></g></svg>