<svg xmlns="http://www.w3.org/2000/svg" width="80" height="80" viewBox="0 0 80 80" fill="none"><rect width="80" height="80" rx="8" fill="#E6F4F9"></rect><path d="M45.0013 44.2295L49.6384 52.516H40.3643L45.0013 44.2295Z" fill="#009EDB"></path><rect x="43.1272" y="52.4285" width="3.74841" height="10.8287" fill="#009EDB"></rect><ellipse cx="54.4029" cy="25.7264" rx="9.65705" ry="9.72643" fill="#009EDB"></ellipse><path d="M22.9033 56.5447L37.1851 42.1603C37.3807 41.9634 37.6992 41.9634 37.8948 42.1603L39.053 43.3269C39.2486 43.5239 39.5671 43.5239 39.7627 43.3269L47.1583 35.8782" stroke="#042745" stroke-width="2" stroke-linecap="round"></path><path d="M53.5882 46.0337V64.0001H57.5738V46.0337C57.5738 45.9232 57.6634 45.8337 57.7738 45.8337H60.1775C60.3362 45.8337 60.4317 45.6577 60.3452 45.5247L55.6519 38.3081C55.5719 38.1851 55.3909 38.1873 55.314 38.3123L50.871 45.5288C50.789 45.6621 50.8849 45.8337 51.0413 45.8337H53.3882C53.4986 45.8337 53.5882 45.9232 53.5882 46.0337Z" stroke="#042745" stroke-width="2"></path><path d="M32.3846 59.1688V63.9917H36.4709V59.1688C36.4709 59.0583 36.5605 58.9688 36.6709 58.9688H38.955C39.1127 58.9688 39.2084 58.7947 39.1238 58.6616L34.5781 51.5055C34.499 51.381 34.3169 51.382 34.2392 51.5074L29.8082 58.6635C29.7257 58.7967 29.8215 58.9688 29.9782 58.9688H32.1846C32.2951 58.9688 32.3846 59.0583 32.3846 59.1688Z" stroke="#042745" stroke-width="2"></path><path d="M18.9644 19.9597C19.5167 19.9597 19.9644 19.512 19.9644 18.9597C19.9644 18.4074 19.5167 17.9597 18.9644 17.9597V19.9597ZM16.1189 19.9597H18.9644V17.9597H16.1189V19.9597Z" fill="#042745"></path><path d="M18.9644 27.551C19.5167 27.551 19.9644 27.1033 19.9644 26.551C19.9644 25.9987 19.5167 25.551 18.9644 25.551V27.551ZM16.1189 27.551H18.9644V25.551H16.1189V27.551Z" fill="#042745"></path><path d="M18.9644 35.2083C19.5167 35.2083 19.9644 34.7605 19.9644 34.2083C19.9644 33.656 19.5167 33.2083 18.9644 33.2083V35.2083ZM16.1189 35.2083H18.9644V33.2083H16.1189V35.2083Z" fill="#042745"></path><path d="M18.9644 42.887C19.5167 42.887 19.9644 42.4392 19.9644 41.887C19.9644 41.3347 19.5167 40.887 18.9644 40.887V42.887ZM16.1189 42.887H18.9644V40.887H16.1189V42.887Z" fill="#042745"></path><path d="M18.9644 50.5659C19.5167 50.5659 19.9644 50.1182 19.9644 49.5659C19.9644 49.0136 19.5167 48.5659 18.9644 48.5659V50.5659ZM16.1189 50.5659H18.9644V48.5659H16.1189V50.5659Z" fill="#042745"></path><path d="M18.9644 58.1792C19.5167 58.1792 19.9644 57.7315 19.9644 57.1792C19.9644 56.6269 19.5167 56.1792 18.9644 56.1792V58.1792ZM16.1189 58.1792H18.9644V56.1792H16.1189V58.1792Z" fill="#042745"></path><path d="M20.322 63.9917L20.322 61.1258" stroke="#042745" stroke-width="2" stroke-linecap="round"></path><path d="M25.1155 59.4327C25.1155 58.8804 24.6678 58.4327 24.1155 58.4327C23.5632 58.4327 23.1155 58.8804 23.1155 59.4327H25.1155ZM25.1155 63.9917L25.1155 59.4327H23.1155L23.1155 63.9917H25.1155Z" fill="#042745"></path><path d="M20.9844 23.7444C21.5367 23.7444 21.9844 23.2967 21.9844 22.7444C21.9844 22.1921 21.5367 21.7444 20.9844 21.7444V23.7444ZM16.1189 23.7444H20.9844V21.7444H16.1189V23.7444Z" fill="#042745"></path><path d="M20.9256 31.3796C21.4779 31.3796 21.9256 30.9319 21.9256 30.3796C21.9256 29.8274 21.4779 29.3796 20.9256 29.3796V31.3796ZM16.0601 31.3796H20.9256V29.3796H16.0601V31.3796Z" fill="#042745"></path><path d="M20.9256 39.0366C21.4779 39.0366 21.9256 38.5889 21.9256 38.0366C21.9256 37.4843 21.4779 37.0366 20.9256 37.0366V39.0366ZM16.0601 39.0366H20.9256V37.0366H16.0601V39.0366Z" fill="#042745"></path><path d="M20.9256 46.6936C21.4779 46.6936 21.9256 46.2459 21.9256 45.6936C21.9256 45.1413 21.4779 44.6936 20.9256 44.6936V46.6936ZM16.0601 46.6936H20.9256V44.6936H16.0601V46.6936Z" fill="#042745"></path><path d="M20.9256 54.3726C21.4779 54.3726 21.9256 53.9248 21.9256 53.3726C21.9256 52.8203 21.4779 52.3726 20.9256 52.3726V54.3726ZM16.0601 54.3726H20.9256V52.3726H16.0601V54.3726Z" fill="#042745"></path><path d="M16.0601 16.3293V63.9917H63.49" stroke="#042745" stroke-width="2" stroke-linecap="round"></path><path d="M51.6109 29.3386V21.8886H54.7609C55.2743 21.8886 55.7143 21.9753 56.0809 22.1486C56.4476 22.322 56.7276 22.572 56.9209 22.8986C57.1143 23.2186 57.2109 23.6086 57.2109 24.0686C57.2109 24.3953 57.1209 24.7086 56.9409 25.0086C56.7609 25.302 56.4643 25.5486 56.0509 25.7486V24.9886C56.4443 25.142 56.7476 25.3253 56.9609 25.5386C57.1743 25.752 57.3209 25.9853 57.4009 26.2386C57.4809 26.4853 57.5209 26.7453 57.5209 27.0186C57.5209 27.752 57.2776 28.322 56.7909 28.7286C56.3043 29.1353 55.6276 29.3386 54.7609 29.3386H51.6109ZM53.1609 27.9886H54.9409C55.2543 27.9886 55.5043 27.8986 55.6909 27.7186C55.8776 27.5386 55.9709 27.3053 55.9709 27.0186C55.9709 26.7253 55.8776 26.4886 55.6909 26.3086C55.5043 26.1286 55.2543 26.0386 54.9409 26.0386H53.1609V27.9886ZM53.1609 24.6886H54.8709C55.1109 24.6886 55.3009 24.622 55.4409 24.4886C55.5876 24.3486 55.6609 24.1653 55.6609 23.9386C55.6609 23.712 55.5876 23.532 55.4409 23.3986C55.3009 23.2586 55.1109 23.1886 54.8709 23.1886H53.1609V24.6886Z" fill="#042745"></path></svg>