<svg xmlns="http://www.w3.org/2000/svg" xmlns:xlink="http://www.w3.org/1999/xlink" width="146px" height="42px" viewBox="0 0 146 42"><title>Logo/White and Green</title><desc>Created with Sketch.</desc><g id="Symbols" stroke="none" stroke-width="1" fill="none" fill-rule="evenodd"><g id="Navigation-/-Light" transform="translate(-21.000000, -10.000000)"><g id="Logo/Blue-and-Green" transform="translate(21.000000, 10.000000)"><g transform="translate(0.000000, 0.000000)"><polygon id="Path-Copy" fill="#40CAA1" points="24.6420985 13.3368576 12.3210493 6.15181079 5.67910487e-13 13.3368576 5.67910487e-13 7.1850468 12.3210493 -4.4408921e-13 24.6420985 7.1850468"></polygon><polygon id="Path-Copy" fill="#33AE8A" points="24.6420985 13.3368576 12.3210493 6.15181079 12.3210493 -4.4408921e-13 24.6420985 7.1850468"></polygon><path d="M16.3793389,22.3653786 L16.3793389,12.9615938 L22.2853844,16.4438998 L22.2853844,34.6810867 L16.3793389,34.6810867 L16.3793389,27.957819 L8.12247067,27.957819 L8.12247067,34.6810867 L7.90686751,34.6810867 L2.57231727,34.6810867 L2.3567141,34.6810867 L2.3567141,16.4455137 L8.12247067,12.9565215 L8.12247067,22.3653786 L16.3793389,22.3653786 Z M34.1934312,34.961181 C28.7958567,34.961181 24.5187278,30.7777809 24.5187278,25.4338995 C24.5187278,20.0900181 28.7958567,15.906618 34.1934312,15.906618 C39.5910057,15.906618 43.8681346,20.0900181 43.8681346,25.4338995 C43.8681346,30.7777809 39.5910057,34.961181 34.1934312,34.961181 Z M34.1934312,29.3839505 C36.4480556,29.3839505 38.0827206,27.7682331 38.0827206,25.4338995 C38.0827206,23.0995658 36.4480556,21.4838485 34.1934312,21.4838485 C31.9388068,21.4838485 30.3041418,23.0995658 30.3041418,25.4338995 C30.3041418,27.7682331 31.9388068,29.3839505 34.1934312,29.3839505 Z M51.5495042,21.7646781 C51.5495042,22.1494628 52.0338108,22.4229464 53.2743587,22.7634117 C53.5021425,22.8259264 54.3572806,23.0483999 54.4729866,23.0792539 C54.9857668,23.2159915 55.3957394,23.3353559 55.793278,23.46793 C58.7413749,24.4510836 60.3304048,26.0408486 60.3304048,28.961997 C60.3304048,32.8017623 57.1712468,34.961181 52.6903004,34.961181 C48.9435393,34.961181 46.2174845,33.5074707 44.8216772,30.6420887 L44.7343654,30.4628509 L49.7759402,27.6262959 L49.8602453,27.8698695 C50.3037949,29.151371 51.2411914,29.8073222 52.6903004,29.8073222 C53.8566279,29.8073222 54.402212,29.4927538 54.402212,28.926716 C54.402212,28.5642657 53.9209853,28.2826445 52.7289376,27.932522 C52.4727376,27.8572722 51.4042643,27.5620695 51.5078943,27.591095 C50.9741238,27.4415923 50.5609603,27.3168395 50.1569526,27.1788614 C47.2055812,26.1708991 45.6213114,24.6453074 45.6213114,21.905802 C45.6213114,18.191664 48.6615432,15.906618 52.8330792,15.906618 C55.8838597,15.906618 58.4795629,17.2807119 59.9791156,19.7862871 L60.0933427,19.977147 L55.137058,22.6179257 L55.034793,22.4302063 C54.5115685,21.4697668 53.8303315,20.9899148 52.8330792,20.9899148 C51.9965639,20.9899148 51.5495042,21.2794209 51.5495042,21.7646781 Z M73.6445346,16.4005516 L73.6445346,21.9072202 L69.9679787,21.9072202 L69.9679787,27.9388487 C69.9679787,29.1258461 70.7948638,29.4002256 73.4158885,29.2432169 L73.6445346,29.2295202 L73.6445346,34.4466086 L73.4508181,34.4661465 C66.6475414,35.1523117 64.1825646,33.2817815 64.1825646,27.9388487 L64.1825646,21.9072202 L61.3269872,21.9072202 L61.3269872,16.4005516 L64.1825646,16.4005516 L64.1825646,13.1034071 L69.9679787,11.3879008 L69.9679787,16.4005516 L73.6445346,16.4005516 Z M86.6489417,8.85080859 L86.8515802,8.86287424 L86.8515802,14.3769664 L86.616803,14.3562471 C84.6343267,14.181292 83.6176634,14.7924803 83.5371652,16.4005516 L86.8515802,16.4005516 L86.8515802,21.9072202 L83.5319714,21.9072202 L83.5319714,34.4672473 L77.7465574,34.4672473 L77.7465574,21.9072202 L75.3550113,21.9072202 L75.3550113,16.4005516 L77.7482478,16.4005516 C77.8303335,11.2581135 80.9004086,8.5085254 86.6489417,8.85080859 Z M95.8668984,34.961181 C91.8640982,34.961181 88.976383,32.0442071 88.976383,27.4449151 L88.976383,16.4005516 L94.761797,16.4005516 L94.761797,26.6687336 C94.761797,28.5924276 95.9024779,29.6661983 97.6516343,29.6661983 C99.6183002,29.6661983 100.75564,28.5077162 100.75564,26.2453619 L100.75564,16.4005516 L106.541054,16.4005516 L106.541054,34.4672473 L100.75564,34.4672473 L100.75564,33.1821639 C99.6629957,34.3143615 97.9407719,34.961181 95.8668984,34.961181 Z M109.614935,8.28592737 L115.400349,8.28592737 L115.400349,34.4672473 L109.614935,34.4672473 L109.614935,8.28592737 Z M118.474231,8.28592737 L124.259645,8.28592737 L124.259645,34.4672473 L118.474231,34.4672473 L118.474231,8.28592737 Z M139.476312,16.4005516 L145.651411,16.4005516 L145.550118,16.684516 L139.446345,33.7957217 C137.443905,39.4153187 134.227265,41.7785833 129.059225,41.5231765 L128.854388,41.5130534 L128.854388,36.1578977 L129.069991,36.1578977 C131.447712,36.1578977 132.546941,35.4555206 133.300373,33.447788 L126.105021,16.4005516 L132.469352,16.4005516 L136.263364,26.7384884 L139.476312,16.4005516 Z" id="Combined-Shape" fill="#2D2AA5" fill-rule="nonzero"></path></g></g></g></g></svg>