<svg xmlns="http://www.w3.org/2000/svg" width="111" height="30" viewBox="0 0 111 30" fill="none"><path d="M0.078125 14.3665C0.078125 13.9944 0.251855 13.6432 0.548683 13.4154L11.6273 4.15436C12.065 3.81834 12.6766 3.81834 13.1143 4.15436L24.1929 13.4154C24.4898 13.6432 24.6635 13.9944 24.6635 14.3665V28.3647C24.6635 29.0291 24.1199 29.5678 23.4494 29.5678H1.29222C0.62169 29.5678 0.078125 29.0291 0.078125 28.3647V14.3665Z" fill="#A2DDFE"></path><path d="M3.55908 11.3186C3.55908 10.9465 3.73283 10.5954 4.02964 10.3675L15.1082 1.10651C15.5459 0.770487 16.1576 0.770486 16.5953 1.10651L27.6739 10.3675C27.9707 10.5954 28.1444 10.9465 28.1444 11.3186V25.3168C28.1444 25.9813 27.6008 26.5199 26.9303 26.5199H4.77316C4.10266 26.5199 3.55908 25.9813 3.55908 25.3168V11.3186Z" fill="#167FFC"></path><path fill-rule="evenodd" clip-rule="evenodd" d="M22.8105 12.0849L13.684 21.2052L8.67822 16.3662L10.5923 14.3889L13.6519 17.3466L20.8638 10.1396L22.8105 12.0849Z" fill="white"></path><path d="M46.3798 13.7852H40.4746V7.47559H37.3403V23.3632H40.4746V16.7812H46.3798V23.3632H49.4914V7.47559H46.3798V13.7852Z" fill="white"></path><path d="M62.4383 21.9561C63.5967 20.7986 64.1872 19.3687 64.1872 17.6892C64.1872 16.0096 63.5967 14.6024 62.4383 13.4449C61.28 12.2874 59.8491 11.6973 58.1684 11.6973C56.4877 11.6973 55.0568 12.2874 53.8985 13.4449C52.7402 14.6024 52.1724 16.0096 52.1724 17.6892C52.1724 19.3687 52.7402 20.7986 53.8985 21.9561C55.0568 23.1136 56.4877 23.681 58.1684 23.681C59.8491 23.681 61.28 23.1136 62.4383 21.9561ZM55.9653 19.9361C55.3975 19.346 55.1023 18.597 55.1023 17.6892C55.1023 16.7813 55.3975 16.0323 55.9653 15.4422C56.5558 14.8521 57.2826 14.557 58.1684 14.557C59.0542 14.557 59.781 14.8521 60.3715 15.4422C60.962 16.0323 61.2573 16.7813 61.2573 17.6892C61.2573 18.597 60.962 19.346 60.3715 19.9361C59.781 20.5262 59.0542 20.8213 58.1684 20.8213C57.2826 20.8213 56.5558 20.5262 55.9653 19.9361Z" fill="white"></path><path d="M69.1635 15.2379C69.1635 14.6705 69.7313 14.3074 70.4808 14.3074C71.3211 14.3074 71.9344 14.6932 72.2978 15.4649L74.7961 14.1031C73.9103 12.5597 72.3205 11.6973 70.4808 11.6973C69.2543 11.6973 68.2323 12.015 67.3919 12.6732C66.5743 13.3087 66.1654 14.1939 66.1654 15.306C66.1654 17.6665 68.2777 18.3701 69.9584 18.8013C71.1167 19.0963 72.0252 19.4368 72.0252 20.0496C72.0252 20.7078 71.5028 21.0255 70.4581 21.0255C69.2997 21.0255 68.5729 20.5262 68.2323 19.5503L65.6885 20.9802C66.5288 22.7732 68.1187 23.681 70.4581 23.681C71.7527 23.681 72.8429 23.3633 73.7059 22.7505C74.5917 22.115 75.0232 21.2071 75.0232 20.0496C75.046 17.6211 72.8883 16.8267 71.2303 16.4862C70.072 16.1912 69.1635 15.8507 69.1635 15.2379Z" fill="white"></path><path d="M83.5266 12.0149H80.9601V8.8374L78.0302 9.72257V12.0149H76.0542V14.8293H78.0302V19.5502C78.0302 22.6596 79.5065 23.8171 83.5266 23.3632V20.7077C81.8458 20.7985 80.9601 20.7758 80.9601 19.5502V14.8293H83.5266V12.0149Z" fill="white"></path><path d="M87.5018 10.6532C88.5011 10.6532 89.3188 9.83611 89.3188 8.86016C89.3188 7.88421 88.5011 7.04443 87.5018 7.04443C86.5252 7.04443 85.7075 7.88421 85.7075 8.86016C85.7075 9.83611 86.5252 10.6532 87.5018 10.6532ZM88.9781 23.3633V12.015H86.0482V23.3633H88.9781Z" fill="white"></path><path d="M98.2241 7.15819C94.681 6.95393 92.8867 8.70156 92.8867 11.9018V12.0153H91.2515V14.8296H92.8867V23.3635H95.8166V14.8296H98.2241V12.0153H95.8166V11.9018C95.8166 10.4946 96.6116 9.85908 98.2241 9.97257V7.15819Z" fill="white"></path><path d="M105.345 19.6412L102.392 12.0151H99.1895L103.845 23.0003C103.3 24.5436 102.437 25.2018 100.87 25.1791V27.9027C103.777 28.0616 105.685 26.6317 106.866 23.3634L111 12.0151H107.866L105.345 19.6412Z" fill="white"></path></svg>