<svg xmlns="http://www.w3.org/2000/svg" xmlns:xlink="http://www.w3.org/1999/xlink" id="Layer_1" x="0px" y="0px" viewBox="0 0 5449.3 1381.5" style="enable-background:new 0 0 5449.3 1381.5;" xml:space="preserve"><style type="text/css"> .st0{fill:#39106D;} .st1{fill:#FCB414;}</style><circle class="st0" cx="690.7" cy="690.7" r="690.7"></circle><path class="st1" d="M521,867c31.8-32,109-109.3,148.1-148.4c29.8-29.8,29.8-78.1,0-107.9l0,0c-29.7-29.8-78-29.8-107.8-0.1 c-36.9,36.8-108.8,108.7-131.3,132.3c-29.5,30.9-47.8,68.2-50.2,111.7c-3,54.3,18.8,98.3,59.2,133.1c28.4,24.5,62.1,37.2,99.9,38.8 c0-1,0.1-1.4,0-1.5c-2.3-1.5-4.7-2.8-6.9-4.3c-31.9-22-50-51.2-45.2-91.2C489.9,904.3,503.7,884.5,521,867z"></path><path class="st1" d="M727.1,359c-10.8-3.7-21.9-3.9-33.1-3.9c-64,0-128.1,0-192.1,0C439,355.2,391,401.3,388.3,464 c-2.6,59.8,44.2,112,104.2,115c28.6,1.4,96.4,0.9,96.4,0.9s98.1-97.4,143.8-143.2c6.8-6.9,13-14.3,17.3-23.1 C762,389.4,752.7,367.7,727.1,359z"></path><path class="st1" d="M860.4,514.4c-31.8,32-109.1,109.3-148.1,148.4c-29.8,29.8-29.8,78.1,0,107.9l0,0c29.7,29.8,78,29.8,107.8,0.1 c37-36.7,108.8-108.7,131.3-132.2c29.5-30.9,47.8-68.2,50.2-111.7c3-54.3-18.8-98.3-59.2-133.1c-28.4-24.5-62.1-37.1-99.9-38.8 c0,0.9-0.1,1.4,0,1.5c2.3,1.5,4.6,2.8,6.9,4.3c31.9,22,50,51.2,45.2,91.2C891.6,477.1,877.8,497,860.4,514.4z"></path><path class="st1" d="M654.3,1022.5c10.8,3.7,21.9,3.9,33.1,3.9c64,0,128.1,0,192.1,0c62.9-0.1,110.9-46.2,113.5-108.9 c2.6-59.8-44.1-112.1-104.1-115.1c-28.6-1.4-96.4-0.9-96.4-0.9S694.4,899,648.7,944.7c-6.8,6.9-13,14.3-17.3,23.1 C619.5,992.1,628.7,1013.8,654.3,1022.5z"></path><rect x="1522.6" y="248.7" class="st0" width="82.8" height="884.1"></rect><circle class="st0" cx="1563.9" cy="248.7" r="41.4"></circle><circle class="st0" cx="1563.9" cy="1132.2" r="41.4"></circle><path class="st0" d="M5300.4,141.5h-9.2v41.8c0,5.5-1.2,9.6-3.6,12.2c-2.5,2.6-5.9,4-9.5,3.9c-4.2,0-7.5-1.4-9.8-4.1 s-3.5-6.7-3.5-12v-100c0-5.7,1.3-9.8,3.8-12.3c2.5-2.5,6.7-3.8,12.3-3.8h42.8c5.1,0,10.1,0.2,15.2,0.8c3.9,0.4,7.8,1.5,11.4,3.1 c4.1,1.7,7.7,4.2,10.8,7.3c3.1,3.2,5.6,7,7.1,11.1c1.6,4.3,2.5,8.8,2.4,13.4c0,9.7-2.7,17.4-8.2,23.2c-5.5,5.8-13.8,9.9-24.9,12.3 c5.1,2.8,9.6,6.6,13.4,11c4.2,4.8,8.1,10,11.4,15.5c3,4.7,5.6,9.7,7.8,14.8c1.9,4.4,2.8,7.4,2.8,9.1c0,1.8-0.6,3.6-1.6,5.1 c-1.1,1.7-2.7,3.1-4.5,4c-2,1-4.3,1.5-6.6,1.5c-2.6,0.1-5.2-0.6-7.5-2.1c-2-1.4-3.8-3.2-5.2-5.3c-1.5-2.1-3.4-5.3-5.9-9.4 l-10.5-17.6c-2.9-5.2-6.3-10.1-10.1-14.7c-2.5-3-5.6-5.3-9.1-6.9C5308.3,142,5304.3,141.4,5300.4,141.5z M5315.5,86.9h-24.3v35.7 h23.6c5.4,0.1,10.8-0.4,16-1.6c4.3-1.1,7.6-3,9.9-5.6s3.4-6.2,3.4-10.9c0.2-6.9-4-13.2-10.4-15.7 C5330.6,87.6,5324.5,86.9,5315.5,86.9z"></path><path class="st0" d="M5318.9,263.7c-71.9,0-130.4-58.5-130.4-130.4c-0.1-72,58.2-130.5,130.3-130.6c72-0.1,130.5,58.2,130.6,130.3 c0,0.1,0,0.2,0,0.3C5449.3,205.1,5390.8,263.7,5318.9,263.7z M5318.9,20.1c-62.5,0-113.1,50.6-113.2,113.1 c0,62.5,50.6,113.1,113.1,113.2c62.5,0,113.1-50.6,113.2-113.1c0,0,0,0,0,0C5431.9,70.8,5381.3,20.2,5318.9,20.1z"></path><path class="st0" d="M2287.9,410l-280.3,313.4h299.9c24.3,0,42.6,5.7,54.9,17.1c12.3,11.4,18.5,26.1,18.5,44 c0,17.2-6.1,31.2-18.2,42c-12.1,10.8-30.6,16.2-55.2,16.3h-414.9c-29.2,0-50.9-6.4-65.3-19.1s-21.6-30.1-21.6-52.1 c0-13.1,5-26.3,15.1-39.5s31-37.7,62.8-73.2c33.6-37.4,64.2-71.2,91.7-101.5c27.5-30.3,53-58.6,76.5-84.9 c23.5-26.4,43.1-48.7,58.6-67s27.9-34,37.3-47.1h-227.6c-31.4,0-55.1-2.8-71.2-8.4c-16.1-5.6-24.1-20.4-24.1-44.3 c0-17.6,6.1-31.6,18.2-42c12.2-10.5,29.4-15.7,51.8-15.7h351.5c32.5,0,57.5,4.8,74.9,14.3c17.4,9.5,26.1,26.6,26.1,51.3 c-0.1,8.7-1.8,17.4-5.1,25.5c-2.8,7.7-6.5,14.9-11.2,21.6c-4.1,5.6-9.7,12.4-16.8,20.5C2307.1,389.1,2298.4,398.7,2287.9,410z"></path><path class="st0" d="M2796.1,583.2h-299.4c0.4,34.8,7.4,65.4,21,91.9s31.8,46.5,54.4,60c22.6,13.5,47.6,20.2,74.8,20.2 c18.3,0,35-2.2,50.2-6.5c15.6-4.5,30.4-11.3,44-20.2c13.8-8.8,26.9-18.7,39.2-29.4c12-10.5,27.5-24.7,46.5-42.6 c7.8-6.7,19.1-10.1,33.6-10.1c15.7,0,28.4,4.3,38.1,12.9c9.7,8.6,14.6,20.7,14.6,36.4c0,13.8-5.4,30-16.3,48.5 c-10.8,18.5-27.2,36.2-49,53.3c-21.9,17-49.3,31.1-82.4,42.3c-33.1,11.2-71.1,16.8-114.1,16.8c-98.3,0-174.8-28-229.3-84.1 c-54.6-56.1-81.8-132.1-81.9-228.2c0-45.2,6.7-87.2,20.2-125.9c13.5-38.7,33.1-71.9,58.9-99.5c25.8-27.6,57.6-48.9,95.3-63.6 c37.8-14.8,79.6-22.2,125.6-22.1c59.8,0,111.1,12.6,153.9,37.8c42.8,25.2,74.8,57.8,96.1,97.8c21.3,40,32,80.7,32,122.2 c0,38.5-11,63.4-33.1,74.9S2836.1,583.2,2796.1,583.2z M2496.7,496.3h277.5c-3.7-52.3-17.8-91.5-42.3-117.5s-56.7-39-96.7-39 c-38.1,0-69.4,13.2-93.9,39.5C2516.8,405.7,2501.9,444.7,2496.7,496.3L2496.7,496.3z"></path><path class="st0" d="M3392.2,583.2h-299.4c0.4,34.8,7.4,65.4,21,91.9c13.6,26.5,31.8,46.5,54.4,60c22.6,13.5,47.6,20.2,74.9,20.2 c18.3,0,35-2.2,50.2-6.5c15.6-4.5,30.4-11.3,44-20.2c13.8-8.8,26.9-18.7,39.2-29.4c12-10.5,27.5-24.7,46.5-42.6 c7.9-6.7,19.1-10.1,33.6-10.1c15.7,0,28.4,4.3,38.1,12.9c9.7,8.6,14.6,20.7,14.6,36.4c0,13.8-5.4,30-16.2,48.5 c-10.8,18.5-27.2,36.2-49.1,53.3c-21.9,17-49.3,31.1-82.4,42.3c-33.1,11.2-71.1,16.8-114.1,16.8c-98.3,0-174.7-28-229.3-84.1 c-54.6-56.1-81.9-132.1-81.9-228.2c0-45.2,6.7-87.2,20.2-125.9c13.5-38.7,33.1-71.9,58.9-99.5c25.8-27.6,57.6-48.9,95.3-63.6 c37.7-14.8,79.6-22.2,125.6-22.1c59.8,0,111.1,12.6,153.9,37.8c42.8,25.2,74.9,57.8,96.2,97.8c21.3,40,32,80.7,32,122.2 c0,38.5-11,63.4-33.1,74.9C3463.3,577.5,3432.3,583.2,3392.2,583.2z M3092.9,496.3h277.5c-3.7-52.3-17.9-91.5-42.3-117.5 s-56.7-39-96.7-39c-38.1,0-69.4,13.2-93.9,39.5C3112.9,405.7,3098.1,444.7,3092.9,496.3L3092.9,496.3z"></path><path class="st0" d="M3640.8,329.8l123.9,347.6l133.4-362.7c10.5-29.1,20.7-49.8,30.8-61.9c10.1-12.2,25.4-18.2,46-18.2 c19.4,0,36,6.5,49.6,19.6c13.7,13.1,20.5,28.2,20.4,45.4c0,6.7-1.2,14.6-3.6,23.5c-2.3,8.6-5.1,17-8.4,25.2 c-3.2,7.8-6.8,16.8-10.9,26.9l-146.9,364.4c-4.1,10.5-9.5,23.7-16,39.8s-13.8,29.8-21.9,41.2c-7.7,11.1-17.9,20.2-29.7,26.6 c-11.8,6.4-26.1,9.5-42.9,9.5c-21.7,0-39-4.9-51.9-14.8c-12.9-9.9-22.4-20.7-28.6-32.5c-6.2-11.8-16.5-35-31.1-69.8l-145.7-360.5 c-3.3-9-6.8-17.9-10.4-26.9c-3.6-9-6.6-18.1-9-27.5c-2.4-9.3-3.7-17.4-3.6-24.1c0-10.4,3.2-20.8,9.5-31.1 c6.6-10.5,15.6-19.1,26.4-25.2c11-6.5,23.6-9.9,36.4-9.8c25.4,0,42.9,7.3,52.4,21.9C3618.6,270.9,3629.2,295.4,3640.8,329.8z"></path><path class="st0" d="M4626.6,545.6c0,45.6-7.1,87.7-21.3,126.1c-14.2,38.5-34.8,71.6-61.7,99.2c-26.9,27.7-59,48.9-96.4,63.6 c-37.4,14.8-79.4,22.1-126.1,22.2c-46.4,0-88-7.5-125-22.4c-36.2-14.4-69-36.3-96.1-64.2c-27.1-27.8-47.7-60.7-61.7-98.7 c-14-37.9-21-79.9-21-125.9c0-46.3,7.1-88.8,21.3-127.3c14.2-38.5,34.6-71.4,61.1-98.7c26.5-27.3,58.7-48.3,96.4-63.1 c37.8-14.8,79.4-22.2,125-22.1c46.3,0,88.4,7.5,126.1,22.4s70.1,36.3,97,63.9c26.9,27.7,47.4,60.5,61.4,98.7 C4619.7,457.6,4626.7,499.7,4626.6,545.6z M4473,545.6c0-62.4-13.7-111-41.2-145.8s-64.4-52.1-110.7-52.1c-29.9,0-56.2,7.8-79,23.3 c-22.8,15.5-40.4,38.4-52.7,68.7c-12.3,30.3-18.5,65.6-18.5,106c0,40,6.1,74.9,18.2,104.8s29.5,52.8,52.1,68.7 c22.6,15.9,49.2,23.8,79.9,23.8c46.3,0,83.2-17.5,110.7-52.4S4473,607.3,4473,545.6L4473,545.6z"></path><path class="st0" d="M5058.6,770.5v-19.6c-18.3,23.2-37.6,42.6-57.8,58.3c-19.8,15.5-42.2,27.3-66.1,35 c-23.9,7.7-51.2,11.5-81.9,11.5c-37,0-70.2-7.7-99.5-23c-29.3-15.3-52-36.5-68.1-63.4c-19.1-32.5-28.6-79.2-28.6-140.2V325.9 c0-30.7,6.9-53.6,20.7-68.7c13.8-15.1,32.1-22.7,54.9-22.7c23.2,0,41.9,7.7,56.1,23c14.2,15.3,21.3,38.1,21.3,68.4v245 c0,35.5,3,65.3,9,89.4c6,24.1,16.7,43,32.2,56.6c15.5,13.7,36.5,20.5,63.1,20.5c25.8,0,50.1-7.7,72.9-23 c22.8-15.3,39.4-35.3,49.9-60c8.6-21.7,12.9-69.1,12.9-142.4V325.9c0-30.3,7.1-53.1,21.3-68.4c14.2-15.3,32.7-23,55.5-23 c22.8,0,41.1,7.6,54.9,22.7c13.8,15.1,20.8,38,20.7,68.7v443.5c0,29.2-6.6,51-19.9,65.6c-13.3,14.6-30.4,21.9-51.3,21.9 c-20.9,0-38.2-7.6-51.9-22.7S5058.6,797.7,5058.6,770.5z"></path><path class="st0" d="M1831.4,1162.3c-7,0-10.5-3.6-10.5-10.7v-148.5c0-7.2,3.6-10.7,10.7-10.7h86.6c5.6,0,8.3,2.7,8.3,8.1 c0,5.6-2.8,8.4-8.3,8.3h-77.8v58.7h72.8c5.7,0,8.6,2.7,8.6,8.1c0,5.6-2.9,8.4-8.6,8.4h-72.8v67.5 C1840.4,1158.8,1837.4,1162.3,1831.4,1162.3z"></path><path class="st0" d="M2037.8,1162.3c-6.5,0-9.8-3.4-9.8-10.3v-149.6c0-6.7,3.3-10,10-10h56.6c18.1,0,32,4.2,41.6,12.7 c9.6,8.4,14.4,20.4,14.4,36c0,12.4-3.4,22.6-10.1,30.5s-16.4,13.1-28.8,15.5c7.3,2.5,13.6,8.7,18.9,18.6l22.9,42.7 c1.8,3.3,2.1,6.5,1,9.4s-3.7,4.4-7.6,4.4c-2.4,0.1-4.7-0.5-6.7-1.8c-2-1.5-3.5-3.4-4.5-5.6l-26-48.2c-3.7-6.8-7.9-11.4-12.6-13.7 s-11.1-3.5-18.9-3.5h-30.6v62.5C2047.6,1158.9,2044.4,1162.3,2037.8,1162.3z M2047.6,1074h44.2c26.4,0,39.6-11,39.6-32.9 c0-21.6-13.2-32.5-39.6-32.5h-44.2V1074z"></path><path class="st0" d="M2274.8,1160.7c-7.2,0-10.7-3.6-10.7-10.7v-146.8c0-7.2,3.6-10.7,10.7-10.7h88.8c5.6,0,8.4,2.7,8.4,8.1 c0,5.6-2.8,8.4-8.4,8.3h-80.4v58.2h75.4c5.6,0,8.3,2.7,8.4,8.1c0,5.6-2.8,8.3-8.4,8.3h-75.4v60.6h80.4c5.6,0,8.4,2.7,8.4,8.1 c0,5.6-2.8,8.4-8.4,8.3L2274.8,1160.7z"></path><path class="st0" d="M2490.4,1160.7c-7.1,0-10.7-3.6-10.7-10.7v-146.8c0-7.2,3.6-10.7,10.7-10.7h88.8c5.6,0,8.4,2.7,8.4,8.1 c0,5.6-2.8,8.4-8.4,8.3h-80.4v58.2h75.4c5.6,0,8.4,2.7,8.4,8.1c0,5.6-2.8,8.3-8.4,8.3h-75.4v60.6h80.4c5.6,0,8.4,2.7,8.4,8.1 c0,5.6-2.8,8.4-8.4,8.3L2490.4,1160.7z"></path><path class="st0" d="M2705.9,1160.7c-7.2,0-10.7-3.6-10.7-10.7v-146.8c0-7.2,3.6-10.7,10.7-10.7h46.1c27.2,0,48.2,7.2,63,21.6 c14.8,14.4,22.2,35.2,22.2,62.4c0,27.2-7.4,48.1-22.2,62.5s-35.8,21.7-63,21.7H2705.9z M2714.7,1144h35.8 c43.9,0,65.9-22.5,65.9-67.5c0-44.9-22-67.3-65.9-67.3h-35.8V1144z"></path><path class="st0" d="M3019.3,1162.8c-15.6,0-29.2-3.5-40.7-10.6c-11.6-7.2-20.9-17.6-26.7-30c-6.3-12.9-9.4-28.2-9.4-45.8 s3.1-32.9,9.3-45.8c5.7-12.4,15-22.7,26.6-29.8c11.5-7,25.2-10.5,40.9-10.5c15.9,0,29.6,3.5,41.2,10.5c11.6,7.1,20.9,17.4,26.7,29.7 c6.3,12.8,9.4,28,9.4,45.7c0,17.7-3.2,33-9.6,45.9c-6.4,13-15.3,23-26.9,30.1C3048.7,1159.2,3035,1162.8,3019.3,1162.8z M3019.3,1145.4c18,0,31.9-6,41.8-18.1s14.8-29,14.8-50.8c0-21.8-4.9-38.7-14.8-50.7c-9.9-12-23.8-18-41.8-18 c-17.7,0-31.4,6-41.3,18c-9.9,12-14.8,28.9-14.8,50.7c0,21.6,4.9,38.5,14.8,50.7C2987.8,1139.3,3001.6,1145.4,3019.3,1145.4z"></path><path class="st0" d="M3217.6,1162.3c-6.1,0-9.1-3.2-9.1-9.6v-152.5c0-6.4,3-9.5,9.1-9.5c2.1-0.1,4.3,0.4,6.1,1.5 c1.8,1.4,3.2,3.1,4.2,5.1l61.8,116.5l61.6-116.5c1-2,2.3-3.7,4.1-5.1c1.9-1.1,4-1.7,6.2-1.5c5.9,0,8.8,3.2,8.8,9.5v152.5 c0,6.4-3,9.6-9.1,9.6s-9.1-3.2-9.1-9.6v-123.6l-53.9,101.4c-0.8,1.7-2,3.2-3.5,4.4c-3.2,1.8-7.2,1.8-10.4-0.1 c-1.4-1.2-2.6-2.6-3.4-4.3l-54.7-101.2v123.4C3226.4,1159.2,3223.5,1162.3,3217.6,1162.3z"></path><path class="st0" d="M3677.6,1162.3c-6.5,0-9.8-3.4-9.8-10.3v-142.7h-53.7c-6,0-9.1-2.9-9.1-8.6c0-5.6,3-8.4,9.1-8.4h127.2 c6.1,0,9.1,2.8,9.1,8.4c0,5.7-3,8.6-9.1,8.6h-53.7v142.7C3687.6,1158.9,3684.2,1162.3,3677.6,1162.3z"></path><path class="st0" d="M3906.7,1162.8c-15.6,0-29.2-3.5-40.7-10.6c-11.6-7.2-20.9-17.6-26.7-30c-6.3-12.9-9.4-28.2-9.4-45.8 c0-17.7,3.1-32.9,9.3-45.8c6.2-12.9,15.1-22.8,26.6-29.8s25.2-10.5,40.9-10.5c15.9,0,29.6,3.5,41.2,10.5 c11.6,7.1,20.9,17.4,26.7,29.7c6.3,12.8,9.4,28,9.4,45.7s-3.2,33-9.6,45.9c-6.4,13-15.3,23-26.9,30.1 C3936.1,1159.2,3922.4,1162.8,3906.7,1162.8z M3906.7,1145.4c18,0,31.9-6,41.8-18.1s14.8-29,14.8-50.8c0-21.8-4.9-38.7-14.8-50.7 c-9.9-12-23.8-18-41.8-18c-17.7,0-31.4,6-41.3,18c-9.9,12-14.8,28.9-14.8,50.7c0,21.6,4.9,38.5,14.8,50.7 C3875.3,1139.3,3889,1145.4,3906.7,1145.4z"></path><path class="st0" d="M4310.3,1162.8c-27,0-47.7-7.6-61.8-22.9c-14.2-15.3-21.2-36.4-21.2-63.2c0-17.8,3.2-33.2,9.5-46.1 c6-12.5,15.5-22.8,27.5-29.8c11.9-7,26.3-10.5,43.2-10.5c9.9,0,19.7,1.4,29.1,4.2c9.2,2.7,17.7,7.2,25.1,13.2c2,1.3,3.4,3.4,3.8,5.8 c0.3,2.2-0.1,4.5-1.3,6.5c-1.1,1.9-2.9,3.3-5,3.9c-2.1,0.6-4.4,0.2-6.8-1.4c-6.2-4.9-13.2-8.7-20.8-11.1c-7.9-2.4-16.1-3.6-24.3-3.5 c-19.1,0-33.7,6-43.9,18c-10.2,12-15.3,28.9-15.3,50.7c0,22.3,5.2,39.3,15.8,51.1s26.2,17.7,47,17.7c13.3,0,26.5-2.3,38.9-6.9v-49.9 h-34.1c-5.7,0-8.6-2.6-8.6-7.9c0-5.1,2.9-7.6,8.6-7.6h42.7c5.6,0,8.4,2.8,8.4,8.3v62.3c0,4.9-1.8,8.1-5.2,9.6 c-7.7,3.2-15.8,5.5-24,6.9C4328.4,1161.9,4319.4,1162.8,4310.3,1162.8z"></path><path class="st0" d="M4492.9,1162.3c-6.5,0-9.8-3.4-9.8-10.3v-149.6c0-6.7,3.3-10,10-10h56.6c18.1,0,32,4.2,41.6,12.7 c9.6,8.4,14.4,20.4,14.4,36c0,12.4-3.4,22.6-10.1,30.5s-16.4,13.1-28.8,15.5c7.3,2.5,13.6,8.7,18.9,18.6l22.9,42.7 c1.8,3.3,2.1,6.5,1,9.4s-3.7,4.4-7.6,4.4c-2.4,0.1-4.7-0.5-6.7-1.8c-2-1.5-3.5-3.4-4.5-5.6l-26-48.2c-3.7-6.8-7.9-11.4-12.6-13.7 c-4.8-2.3-11.1-3.5-18.9-3.5h-30.5v62.5C4502.7,1158.9,4499.4,1162.3,4492.9,1162.3z M4502.7,1074h44.1c26.4,0,39.6-11,39.6-32.9 c0-21.6-13.2-32.5-39.6-32.5h-44.1V1074z"></path><path class="st0" d="M4788.6,1162.8c-15.6,0-29.2-3.5-40.7-10.6c-11.6-7.2-20.9-17.6-26.7-30c-6.3-12.9-9.4-28.2-9.4-45.8 s3.1-32.9,9.3-45.8c5.7-12.4,15-22.7,26.6-29.8c11.5-7,25.2-10.5,40.9-10.5c15.9,0,29.6,3.5,41.2,10.5c11.6,7.1,20.9,17.4,26.7,29.7 c6.3,12.8,9.4,28,9.4,45.7s-3.2,33-9.5,45.9c-6.4,13-15.3,23-26.9,30.1C4818,1159.2,4804.4,1162.8,4788.6,1162.8z M4788.6,1145.4 c18,0,31.9-6,41.8-18.1s14.8-29,14.8-50.8c0-21.8-4.9-38.7-14.8-50.7c-9.9-12-23.8-18-41.8-18c-17.7,0-31.4,6-41.3,18 c-9.9,12-14.8,28.9-14.8,50.7c0,21.6,4.9,38.5,14.8,50.7C4757.2,1139.3,4770.9,1145.4,4788.6,1145.4z"></path><path class="st0" d="M5027.5,1162.3c-5.2,0-9-3-11.2-9.1l-52.8-150.6c-1.1-3.5-0.9-6.4,0.7-8.6c1.6-2.2,4.3-3.3,8.1-3.3 c5.1,0,8.6,2.8,10.5,8.4L5028,1132l46.3-132.2c2.1-6,5.6-9.1,10.5-9.1c2.3-0.1,4.5,0.7,6.1,2.3c1.8,2,3.1,4.3,3.9,6.8l45.8,133.4 l46.3-134.1c1.8-5.6,5.2-8.4,10.3-8.4c3.4,0,5.8,1.1,7.3,3.3s1.7,5.1,0.6,8.6l-53,150.6c-0.8,2.6-2.3,4.9-4.2,6.8 c-1.7,1.5-4,2.3-7,2.3c-2.5,0.1-5-0.7-6.9-2.3c-2-1.9-3.5-4.2-4.3-6.8l-45.3-131l-45.8,131c-0.8,2.5-2.2,4.9-4,6.8 C5032.9,1161.6,5030.5,1162.3,5027.5,1162.3z"></path></svg>