<svg xmlns:xlink="http://www.w3.org/1999/xlink" xmlns="http://www.w3.org/2000/svg" width="17" height="17" viewBox="0 0 17 17" fill="none"><path d="M10.0937 11.6875H9.5625C9.28071 11.6875 9.01046 11.5756 8.8112 11.3763C8.61194 11.177 8.5 10.9068 8.5 10.625V7.96875C8.5 7.82785 8.44403 7.69273 8.3444 7.5931C8.24477 7.49347 8.10965 7.4375 7.96875 7.4375H7.4375" stroke="#006BFF" stroke-width="1.0625" stroke-linecap="round" stroke-linejoin="round"></path><path d="M8.23437 4.78125C8.18184 4.78125 8.13048 4.79683 8.0868 4.82602C8.04312 4.8552 8.00907 4.89669 7.98897 4.94522C7.96886 4.99376 7.9636 5.04717 7.97385 5.0987C7.9841 5.15022 8.0094 5.19755 8.04655 5.2347C8.0837 5.27185 8.13103 5.29715 8.18255 5.3074C8.23408 5.31765 8.28749 5.31238 8.33602 5.29228C8.38456 5.27218 8.42605 5.23813 8.45523 5.19445C8.48442 5.15077 8.5 5.09941 8.5 5.04687C8.5 4.97643 8.47201 4.90886 8.4222 4.85905C8.37239 4.80924 8.30482 4.78125 8.23437 4.78125Z" stroke="#006BFF" stroke-width="1.0625" stroke-linecap="round" stroke-linejoin="round"></path><path d="M0.53125 8.5C0.53125 10.6134 1.37081 12.6403 2.86524 14.1348C4.35967 15.6292 6.38656 16.4687 8.5 16.4687C10.6134 16.4687 12.6403 15.6292 14.1348 14.1348C15.6292 12.6403 16.4687 10.6134 16.4687 8.5C16.4687 6.38656 15.6292 4.35967 14.1348 2.86524C12.6403 1.37081 10.6134 0.53125 8.5 0.53125C6.38656 0.53125 4.35967 1.37081 2.86524 2.86524C1.37081 4.35967 0.53125 6.38656 0.53125 8.5V8.5Z" stroke="#006BFF" stroke-width="1.0625" stroke-linecap="round" stroke-linejoin="round"></path></svg>