<svg xmlns="http://www.w3.org/2000/svg" xmlns:xlink="http://www.w3.org/1999/xlink" width="313" height="80.009" viewBox="0 0 313 80.009">
  <defs>
    <filter id="Union_2" x="132" y="0" width="57" height="42.295" filterUnits="userSpaceOnUse">
      <feOffset dy="3" input="SourceAlpha"/>
      <feGaussianBlur stdDeviation="3" result="blur"/>
      <feFlood flood-opacity="0.067"/>
      <feComposite operator="in" in2="blur"/>
      <feComposite in="SourceGraphic"/>
    </filter>
    <filter id="Union_3" x="30" y="0" width="57" height="42.295" filterUnits="userSpaceOnUse">
      <feOffset dy="3" input="SourceAlpha"/>
      <feGaussianBlur stdDeviation="3" result="blur-2"/>
      <feFlood flood-opacity="0.067"/>
      <feComposite operator="in" in2="blur-2"/>
      <feComposite in="SourceGraphic"/>
    </filter>
    <filter id="Union_4" x="234" y="0" width="57" height="42.295" filterUnits="userSpaceOnUse">
      <feOffset dy="3" input="SourceAlpha"/>
      <feGaussianBlur stdDeviation="3" result="blur-3"/>
      <feFlood flood-opacity="0.067"/>
      <feComposite operator="in" in2="blur-3"/>
      <feComposite in="SourceGraphic"/>
    </filter>
  </defs>
  <g id="Group_285" data-name="Group 285" transform="translate(-810 -4175.492)">
    <path id="Path_2116" data-name="Path 2116" d="M6.276-1.452a.392.392,0,0,1,.252.372A.421.421,0,0,1,6.4-.762a.467.467,0,0,1-.336.126A.783.783,0,0,1,5.784-.7L1.116-2.76a.714.714,0,0,1-.324-.258.691.691,0,0,1-.12-.4.663.663,0,0,1,.12-.4.815.815,0,0,1,.324-.264L5.784-6.144a.762.762,0,0,1,.264-.06.488.488,0,0,1,.342.126.426.426,0,0,1,.138.33.392.392,0,0,1-.252.372L1.764-3.42Zm10.788-.876a2.121,2.121,0,0,1-.678,1.6A3.087,3.087,0,0,1,14.592.06V.912a.532.532,0,0,1-.138.384.537.537,0,0,1-.732,0,.532.532,0,0,1-.138-.384V.084A5.555,5.555,0,0,1,12.2-.21a3.438,3.438,0,0,1-1.134-.642.56.56,0,0,1-.228-.48A.587.587,0,0,1,10.95-1.7a.343.343,0,0,1,.282-.15.8.8,0,0,1,.408.156,4.119,4.119,0,0,0,2.328.78,2.274,2.274,0,0,0,1.374-.36,1.194,1.194,0,0,0,.486-1.02.847.847,0,0,0-.258-.642,1.856,1.856,0,0,0-.648-.39,10.436,10.436,0,0,0-1.074-.312,11.65,11.65,0,0,1-1.464-.456,2.436,2.436,0,0,1-.966-.708,1.916,1.916,0,0,1-.4-1.272,2.207,2.207,0,0,1,.7-1.65,3.086,3.086,0,0,1,1.854-.81v-.84a.532.532,0,0,1,.138-.384.483.483,0,0,1,.366-.144.483.483,0,0,1,.366.144.532.532,0,0,1,.138.384v.84a4.023,4.023,0,0,1,1.17.294,3.4,3.4,0,0,1,.99.63.591.591,0,0,1,.24.48.574.574,0,0,1-.12.36.354.354,0,0,1-.288.156.8.8,0,0,1-.408-.156,4.367,4.367,0,0,0-.984-.588,2.9,2.9,0,0,0-1.1-.192,2.089,2.089,0,0,0-1.32.384,1.254,1.254,0,0,0-.492,1.044.974.974,0,0,0,.276.72,1.858,1.858,0,0,0,.684.426,10.217,10.217,0,0,0,1.116.318,10.351,10.351,0,0,1,1.416.438,2.4,2.4,0,0,1,.924.672A1.815,1.815,0,0,1,17.064-2.328ZM26.688-1.02a.62.62,0,0,1,.432.132.479.479,0,0,1,.144.372q0,.516-.576.516H22.68q-.588,0-.588-.516a.469.469,0,0,1,.15-.372.644.644,0,0,1,.438-.132h1.38V-7.008l-1.236.78a.463.463,0,0,1-.24.072.449.449,0,0,1-.354-.18.62.62,0,0,1-.15-.408.489.489,0,0,1,.24-.432l1.848-1.176A1.019,1.019,0,0,1,24.7-8.52a.585.585,0,0,1,.432.168A.616.616,0,0,1,25.3-7.9V-1.02ZM31.536.1a2.576,2.576,0,0,1-2.25-1.1,5.582,5.582,0,0,1-.774-3.216,5.607,5.607,0,0,1,.774-3.228,2.576,2.576,0,0,1,2.25-1.1,2.581,2.581,0,0,1,2.25,1.1,5.577,5.577,0,0,1,.774,3.222,5.607,5.607,0,0,1-.774,3.228A2.576,2.576,0,0,1,31.536.1Zm0-1a1.436,1.436,0,0,0,1.356-.8,5.6,5.6,0,0,0,.432-2.532,5.56,5.56,0,0,0-.432-2.526,1.438,1.438,0,0,0-1.356-.8,1.438,1.438,0,0,0-1.356.8,5.56,5.56,0,0,0-.432,2.526A5.606,5.606,0,0,0,30.18-1.71,1.435,1.435,0,0,0,31.536-.9Zm5-.588a.69.69,0,0,1,.57.264,1.234,1.234,0,0,1,.21.78,2.519,2.519,0,0,1-.684,1.764.436.436,0,0,1-.312.144.37.37,0,0,1-.264-.1.326.326,0,0,1-.108-.246A.406.406,0,0,1,36.06.864a1.627,1.627,0,0,0,.432-.828.753.753,0,0,1-.5-.228.711.711,0,0,1-.2-.516.768.768,0,0,1,.216-.558A.708.708,0,0,1,36.54-1.488ZM41.592.1a2.576,2.576,0,0,1-2.25-1.1,5.582,5.582,0,0,1-.774-3.216,5.607,5.607,0,0,1,.774-3.228,2.576,2.576,0,0,1,2.25-1.1,2.581,2.581,0,0,1,2.25,1.1,5.577,5.577,0,0,1,.774,3.222,5.607,5.607,0,0,1-.774,3.228A2.576,2.576,0,0,1,41.592.1Zm0-1a1.436,1.436,0,0,0,1.356-.8,5.6,5.6,0,0,0,.432-2.532,5.56,5.56,0,0,0-.432-2.526,1.438,1.438,0,0,0-1.356-.8,1.438,1.438,0,0,0-1.356.8A5.56,5.56,0,0,0,39.8-4.236a5.606,5.606,0,0,0,.432,2.526A1.435,1.435,0,0,0,41.592-.9Zm7.2,1a2.576,2.576,0,0,1-2.25-1.1,5.582,5.582,0,0,1-.774-3.216,5.607,5.607,0,0,1,.774-3.228,2.576,2.576,0,0,1,2.25-1.1,2.581,2.581,0,0,1,2.25,1.1,5.577,5.577,0,0,1,.774,3.222,5.607,5.607,0,0,1-.774,3.228A2.576,2.576,0,0,1,48.792.1Zm0-1a1.436,1.436,0,0,0,1.356-.8,5.6,5.6,0,0,0,.432-2.532,5.56,5.56,0,0,0-.432-2.526,1.438,1.438,0,0,0-1.356-.8,1.438,1.438,0,0,0-1.356.8A5.56,5.56,0,0,0,47-4.236a5.606,5.606,0,0,0,.432,2.526A1.435,1.435,0,0,0,48.792-.9Zm7.2,1a2.576,2.576,0,0,1-2.25-1.1,5.582,5.582,0,0,1-.774-3.216,5.607,5.607,0,0,1,.774-3.228,2.576,2.576,0,0,1,2.25-1.1,2.581,2.581,0,0,1,2.25,1.1,5.577,5.577,0,0,1,.774,3.222,5.607,5.607,0,0,1-.774,3.228A2.576,2.576,0,0,1,55.992.1Zm0-1a1.436,1.436,0,0,0,1.356-.8,5.6,5.6,0,0,0,.432-2.532,5.56,5.56,0,0,0-.432-2.526,1.438,1.438,0,0,0-1.356-.8,1.438,1.438,0,0,0-1.356.8A5.56,5.56,0,0,0,54.2-4.236a5.606,5.606,0,0,0,.432,2.526A1.435,1.435,0,0,0,55.992-.9Z" transform="translate(847 4254)" fill="#042745"/>
    <path id="Path_2117" data-name="Path 2117" d="M6.276-1.452a.392.392,0,0,1,.252.372A.421.421,0,0,1,6.4-.762a.467.467,0,0,1-.336.126A.783.783,0,0,1,5.784-.7L1.116-2.76a.714.714,0,0,1-.324-.258.691.691,0,0,1-.12-.4.663.663,0,0,1,.12-.4.815.815,0,0,1,.324-.264L5.784-6.144a.762.762,0,0,1,.264-.06.488.488,0,0,1,.342.126.426.426,0,0,1,.138.33.392.392,0,0,1-.252.372L1.764-3.42Zm10.788-.876a2.121,2.121,0,0,1-.678,1.6A3.087,3.087,0,0,1,14.592.06V.912a.532.532,0,0,1-.138.384.537.537,0,0,1-.732,0,.532.532,0,0,1-.138-.384V.084A5.555,5.555,0,0,1,12.2-.21a3.438,3.438,0,0,1-1.134-.642.56.56,0,0,1-.228-.48A.587.587,0,0,1,10.95-1.7a.343.343,0,0,1,.282-.15.8.8,0,0,1,.408.156,4.119,4.119,0,0,0,2.328.78,2.274,2.274,0,0,0,1.374-.36,1.194,1.194,0,0,0,.486-1.02.847.847,0,0,0-.258-.642,1.856,1.856,0,0,0-.648-.39,10.436,10.436,0,0,0-1.074-.312,11.65,11.65,0,0,1-1.464-.456,2.436,2.436,0,0,1-.966-.708,1.916,1.916,0,0,1-.4-1.272,2.207,2.207,0,0,1,.7-1.65,3.086,3.086,0,0,1,1.854-.81v-.84a.532.532,0,0,1,.138-.384.483.483,0,0,1,.366-.144.483.483,0,0,1,.366.144.532.532,0,0,1,.138.384v.84a4.023,4.023,0,0,1,1.17.294,3.4,3.4,0,0,1,.99.63.591.591,0,0,1,.24.48.574.574,0,0,1-.12.36.354.354,0,0,1-.288.156.8.8,0,0,1-.408-.156,4.367,4.367,0,0,0-.984-.588,2.9,2.9,0,0,0-1.1-.192,2.089,2.089,0,0,0-1.32.384,1.254,1.254,0,0,0-.492,1.044.974.974,0,0,0,.276.72,1.858,1.858,0,0,0,.684.426,10.217,10.217,0,0,0,1.116.318,10.351,10.351,0,0,1,1.416.438,2.4,2.4,0,0,1,.924.672A1.815,1.815,0,0,1,17.064-2.328ZM26.772-1.02a.644.644,0,0,1,.438.132.469.469,0,0,1,.15.372q0,.516-.588.516H22.14a.559.559,0,0,1-.414-.15.512.512,0,0,1-.15-.378.718.718,0,0,1,.216-.5l2.82-3.084a5.055,5.055,0,0,0,.816-1.116,2.214,2.214,0,0,0,.252-1,1.273,1.273,0,0,0-.366-.978,1.463,1.463,0,0,0-1.038-.342,3.3,3.3,0,0,0-2.028.78,2.039,2.039,0,0,1-.222.126.435.435,0,0,1-.186.042.354.354,0,0,1-.288-.156.592.592,0,0,1-.12-.372.57.57,0,0,1,.24-.48,3.885,3.885,0,0,1,1.212-.69,4.144,4.144,0,0,1,1.428-.258,2.793,2.793,0,0,1,1.89.606,2.053,2.053,0,0,1,.7,1.638,3.167,3.167,0,0,1-.318,1.392,6.455,6.455,0,0,1-1.062,1.476L23.256-1.02ZM31.92-5.352a2.835,2.835,0,0,1,1.4.336,2.361,2.361,0,0,1,.942.948,2.87,2.87,0,0,1,.336,1.4,2.735,2.735,0,0,1-.372,1.428,2.563,2.563,0,0,1-1.038.972,3.256,3.256,0,0,1-1.53.348A4.351,4.351,0,0,1,30.2-.168,3.4,3.4,0,0,1,29-.864a.613.613,0,0,1-.24-.48.567.567,0,0,1,.12-.366.359.359,0,0,1,.288-.15.529.529,0,0,1,.2.036,1.084,1.084,0,0,1,.21.12,4.05,4.05,0,0,0,.99.582,2.816,2.816,0,0,0,1.05.2,1.81,1.81,0,0,0,1.308-.45A1.674,1.674,0,0,0,33.4-2.64a1.675,1.675,0,0,0-.474-1.248,1.723,1.723,0,0,0-1.266-.468,2.335,2.335,0,0,0-.924.174,2.367,2.367,0,0,0-.768.546.611.611,0,0,1-.432.168.488.488,0,0,1-.342-.126.426.426,0,0,1-.138-.33V-7.872A.6.6,0,0,1,29.2-8.3a.58.58,0,0,1,.438-.156h4.128a.648.648,0,0,1,.432.132.447.447,0,0,1,.156.36A.461.461,0,0,1,34.2-7.6a.648.648,0,0,1-.432.132H30.276V-4.8A2.476,2.476,0,0,1,31.92-5.352Zm4.62,3.864a.69.69,0,0,1,.57.264,1.234,1.234,0,0,1,.21.78,2.519,2.519,0,0,1-.684,1.764.436.436,0,0,1-.312.144.37.37,0,0,1-.264-.1.326.326,0,0,1-.108-.246A.406.406,0,0,1,36.06.864a1.627,1.627,0,0,0,.432-.828.753.753,0,0,1-.5-.228.711.711,0,0,1-.2-.516.768.768,0,0,1,.216-.558A.708.708,0,0,1,36.54-1.488ZM41.592.1a2.576,2.576,0,0,1-2.25-1.1,5.582,5.582,0,0,1-.774-3.216,5.607,5.607,0,0,1,.774-3.228,2.576,2.576,0,0,1,2.25-1.1,2.581,2.581,0,0,1,2.25,1.1,5.577,5.577,0,0,1,.774,3.222,5.607,5.607,0,0,1-.774,3.228A2.576,2.576,0,0,1,41.592.1Zm0-1a1.436,1.436,0,0,0,1.356-.8,5.6,5.6,0,0,0,.432-2.532,5.56,5.56,0,0,0-.432-2.526,1.438,1.438,0,0,0-1.356-.8,1.438,1.438,0,0,0-1.356.8A5.56,5.56,0,0,0,39.8-4.236a5.606,5.606,0,0,0,.432,2.526A1.435,1.435,0,0,0,41.592-.9Zm7.2,1a2.576,2.576,0,0,1-2.25-1.1,5.582,5.582,0,0,1-.774-3.216,5.607,5.607,0,0,1,.774-3.228,2.576,2.576,0,0,1,2.25-1.1,2.581,2.581,0,0,1,2.25,1.1,5.577,5.577,0,0,1,.774,3.222,5.607,5.607,0,0,1-.774,3.228A2.576,2.576,0,0,1,48.792.1Zm0-1a1.436,1.436,0,0,0,1.356-.8,5.6,5.6,0,0,0,.432-2.532,5.56,5.56,0,0,0-.432-2.526,1.438,1.438,0,0,0-1.356-.8,1.438,1.438,0,0,0-1.356.8A5.56,5.56,0,0,0,47-4.236a5.606,5.606,0,0,0,.432,2.526A1.435,1.435,0,0,0,48.792-.9Zm7.2,1a2.576,2.576,0,0,1-2.25-1.1,5.582,5.582,0,0,1-.774-3.216,5.607,5.607,0,0,1,.774-3.228,2.576,2.576,0,0,1,2.25-1.1,2.581,2.581,0,0,1,2.25,1.1,5.577,5.577,0,0,1,.774,3.222,5.607,5.607,0,0,1-.774,3.228A2.576,2.576,0,0,1,55.992.1Zm0-1a1.436,1.436,0,0,0,1.356-.8,5.6,5.6,0,0,0,.432-2.532,5.56,5.56,0,0,0-.432-2.526,1.438,1.438,0,0,0-1.356-.8,1.438,1.438,0,0,0-1.356.8A5.56,5.56,0,0,0,54.2-4.236a5.606,5.606,0,0,0,.432,2.526A1.435,1.435,0,0,0,55.992-.9Z" transform="translate(951 4254)" fill="#042745"/>
    <path id="Path_2118" data-name="Path 2118" d="M6.276-1.452a.392.392,0,0,1,.252.372A.421.421,0,0,1,6.4-.762a.467.467,0,0,1-.336.126A.783.783,0,0,1,5.784-.7L1.116-2.76a.714.714,0,0,1-.324-.258.691.691,0,0,1-.12-.4.663.663,0,0,1,.12-.4.815.815,0,0,1,.324-.264L5.784-6.144a.762.762,0,0,1,.264-.06.488.488,0,0,1,.342.126.426.426,0,0,1,.138.33.392.392,0,0,1-.252.372L1.764-3.42Zm10.788-.876a2.121,2.121,0,0,1-.678,1.6A3.087,3.087,0,0,1,14.592.06V.912a.532.532,0,0,1-.138.384.537.537,0,0,1-.732,0,.532.532,0,0,1-.138-.384V.084A5.555,5.555,0,0,1,12.2-.21a3.438,3.438,0,0,1-1.134-.642.56.56,0,0,1-.228-.48A.587.587,0,0,1,10.95-1.7a.343.343,0,0,1,.282-.15.8.8,0,0,1,.408.156,4.119,4.119,0,0,0,2.328.78,2.274,2.274,0,0,0,1.374-.36,1.194,1.194,0,0,0,.486-1.02.847.847,0,0,0-.258-.642,1.856,1.856,0,0,0-.648-.39,10.436,10.436,0,0,0-1.074-.312,11.65,11.65,0,0,1-1.464-.456,2.436,2.436,0,0,1-.966-.708,1.916,1.916,0,0,1-.4-1.272,2.207,2.207,0,0,1,.7-1.65,3.086,3.086,0,0,1,1.854-.81v-.84a.532.532,0,0,1,.138-.384.483.483,0,0,1,.366-.144.483.483,0,0,1,.366.144.532.532,0,0,1,.138.384v.84a4.023,4.023,0,0,1,1.17.294,3.4,3.4,0,0,1,.99.63.591.591,0,0,1,.24.48.574.574,0,0,1-.12.36.354.354,0,0,1-.288.156.8.8,0,0,1-.408-.156,4.367,4.367,0,0,0-.984-.588,2.9,2.9,0,0,0-1.1-.192,2.089,2.089,0,0,0-1.32.384,1.254,1.254,0,0,0-.492,1.044.974.974,0,0,0,.276.72,1.858,1.858,0,0,0,.684.426,10.217,10.217,0,0,0,1.116.318,10.351,10.351,0,0,1,1.416.438,2.4,2.4,0,0,1,.924.672A1.815,1.815,0,0,1,17.064-2.328ZM26.688-1.02a.62.62,0,0,1,.432.132.479.479,0,0,1,.144.372q0,.516-.576.516H22.68q-.588,0-.588-.516a.469.469,0,0,1,.15-.372.644.644,0,0,1,.438-.132h1.38V-7.008l-1.236.78a.463.463,0,0,1-.24.072.449.449,0,0,1-.354-.18.62.62,0,0,1-.15-.408.489.489,0,0,1,.24-.432l1.848-1.176A1.019,1.019,0,0,1,24.7-8.52a.585.585,0,0,1,.432.168A.616.616,0,0,1,25.3-7.9V-1.02ZM31.536.1a2.576,2.576,0,0,1-2.25-1.1,5.582,5.582,0,0,1-.774-3.216,5.607,5.607,0,0,1,.774-3.228,2.576,2.576,0,0,1,2.25-1.1,2.581,2.581,0,0,1,2.25,1.1,5.577,5.577,0,0,1,.774,3.222,5.607,5.607,0,0,1-.774,3.228A2.576,2.576,0,0,1,31.536.1Zm0-1a1.436,1.436,0,0,0,1.356-.8,5.6,5.6,0,0,0,.432-2.532,5.56,5.56,0,0,0-.432-2.526,1.438,1.438,0,0,0-1.356-.8,1.438,1.438,0,0,0-1.356.8,5.56,5.56,0,0,0-.432,2.526A5.606,5.606,0,0,0,30.18-1.71,1.435,1.435,0,0,0,31.536-.9Zm7.2,1a2.576,2.576,0,0,1-2.25-1.1,5.582,5.582,0,0,1-.774-3.216,5.607,5.607,0,0,1,.774-3.228,2.576,2.576,0,0,1,2.25-1.1,2.581,2.581,0,0,1,2.25,1.1,5.577,5.577,0,0,1,.774,3.222,5.607,5.607,0,0,1-.774,3.228A2.576,2.576,0,0,1,38.736.1Zm0-1a1.436,1.436,0,0,0,1.356-.8,5.6,5.6,0,0,0,.432-2.532,5.56,5.56,0,0,0-.432-2.526,1.438,1.438,0,0,0-1.356-.8,1.438,1.438,0,0,0-1.356.8,5.56,5.56,0,0,0-.432,2.526A5.606,5.606,0,0,0,37.38-1.71,1.435,1.435,0,0,0,38.736-.9Zm5-.588a.69.69,0,0,1,.57.264,1.234,1.234,0,0,1,.21.78,2.519,2.519,0,0,1-.684,1.764.436.436,0,0,1-.312.144.37.37,0,0,1-.264-.1.326.326,0,0,1-.108-.246A.406.406,0,0,1,43.26.864a1.627,1.627,0,0,0,.432-.828.753.753,0,0,1-.5-.228A.711.711,0,0,1,43-.708a.768.768,0,0,1,.216-.558A.708.708,0,0,1,43.74-1.488ZM48.792.1a2.576,2.576,0,0,1-2.25-1.1,5.582,5.582,0,0,1-.774-3.216,5.607,5.607,0,0,1,.774-3.228,2.576,2.576,0,0,1,2.25-1.1,2.581,2.581,0,0,1,2.25,1.1,5.577,5.577,0,0,1,.774,3.222,5.607,5.607,0,0,1-.774,3.228A2.576,2.576,0,0,1,48.792.1Zm0-1a1.436,1.436,0,0,0,1.356-.8,5.6,5.6,0,0,0,.432-2.532,5.56,5.56,0,0,0-.432-2.526,1.438,1.438,0,0,0-1.356-.8,1.438,1.438,0,0,0-1.356.8A5.56,5.56,0,0,0,47-4.236a5.606,5.606,0,0,0,.432,2.526A1.435,1.435,0,0,0,48.792-.9Zm7.2,1a2.576,2.576,0,0,1-2.25-1.1,5.582,5.582,0,0,1-.774-3.216,5.607,5.607,0,0,1,.774-3.228,2.576,2.576,0,0,1,2.25-1.1,2.581,2.581,0,0,1,2.25,1.1,5.577,5.577,0,0,1,.774,3.222,5.607,5.607,0,0,1-.774,3.228A2.576,2.576,0,0,1,55.992.1Zm0-1a1.436,1.436,0,0,0,1.356-.8,5.6,5.6,0,0,0,.432-2.532,5.56,5.56,0,0,0-.432-2.526,1.438,1.438,0,0,0-1.356-.8,1.438,1.438,0,0,0-1.356.8A5.56,5.56,0,0,0,54.2-4.236a5.606,5.606,0,0,0,.432,2.526A1.435,1.435,0,0,0,55.992-.9Zm7.2,1a2.576,2.576,0,0,1-2.25-1.1,5.582,5.582,0,0,1-.774-3.216,5.607,5.607,0,0,1,.774-3.228,2.576,2.576,0,0,1,2.25-1.1,2.581,2.581,0,0,1,2.25,1.1,5.577,5.577,0,0,1,.774,3.222,5.607,5.607,0,0,1-.774,3.228A2.576,2.576,0,0,1,63.192.1Zm0-1a1.436,1.436,0,0,0,1.356-.8,5.6,5.6,0,0,0,.432-2.532,5.56,5.56,0,0,0-.432-2.526,1.438,1.438,0,0,0-1.356-.8,1.438,1.438,0,0,0-1.356.8A5.56,5.56,0,0,0,61.4-4.236a5.606,5.606,0,0,0,.432,2.526A1.435,1.435,0,0,0,63.192-.9Z" transform="translate(1055 4254)" fill="#042745"/>
    <path id="Path_842" data-name="Path 842" d="M5.967,0H163.828c3.3,0,5.967,11,5.967,11s-2.672,11-5.967,11H5.967C2.672,22,0,11,0,11S2.672,0,5.967,0Z" transform="translate(881.602 4213)" fill="#042745"/>
    <g id="Group_288" data-name="Group 288" transform="translate(-19)">
      <g transform="matrix(1, 0, 0, 1, 829, 4175.49)" filter="url(#Union_2)">
        <path id="Union_2-2" data-name="Union 2" d="M-1976.308,22.255H-1990V4h39V22.255h-13.23l-6.039,6.039Z" transform="translate(2131 2)" fill="#009edb"/>
      </g>
      <path id="Path_2120" data-name="Path 2120" d="M5.952-1.02a.62.62,0,0,1,.432.132.479.479,0,0,1,.144.372Q6.528,0,5.952,0H1.944q-.588,0-.588-.516a.469.469,0,0,1,.15-.372.644.644,0,0,1,.438-.132h1.38V-7.008l-1.236.78a.463.463,0,0,1-.24.072.449.449,0,0,1-.354-.18.62.62,0,0,1-.15-.408.489.489,0,0,1,.24-.432L3.432-8.352A1.019,1.019,0,0,1,3.96-8.52a.585.585,0,0,1,.432.168A.616.616,0,0,1,4.56-7.9V-1.02ZM8.628.06a.753.753,0,0,1-.546-.216A.737.737,0,0,1,7.86-.708a.757.757,0,0,1,.222-.558.742.742,0,0,1,.546-.222.722.722,0,0,1,.54.222.768.768,0,0,1,.216.558.748.748,0,0,1-.216.552A.733.733,0,0,1,8.628.06ZM13.656.1a2.576,2.576,0,0,1-2.25-1.1,5.582,5.582,0,0,1-.774-3.216,5.607,5.607,0,0,1,.774-3.228,2.576,2.576,0,0,1,2.25-1.1,2.581,2.581,0,0,1,2.25,1.1,5.577,5.577,0,0,1,.774,3.222,5.607,5.607,0,0,1-.774,3.228A2.576,2.576,0,0,1,13.656.1Zm0-1a1.436,1.436,0,0,0,1.356-.8,5.6,5.6,0,0,0,.432-2.532,5.56,5.56,0,0,0-.432-2.526,1.438,1.438,0,0,0-1.356-.8,1.438,1.438,0,0,0-1.356.8,5.56,5.56,0,0,0-.432,2.526A5.606,5.606,0,0,0,12.3-1.71,1.435,1.435,0,0,0,13.656-.9Zm7.392.792A.516.516,0,0,1,20.58.2a.447.447,0,0,1-.318-.132.445.445,0,0,1-.138-.336.61.61,0,0,1,.1-.324l4.488-7.764a.54.54,0,0,1,.48-.312.447.447,0,0,1,.318.132.445.445,0,0,1,.138.336.61.61,0,0,1-.1.324ZM19.932-3.4a1.879,1.879,0,0,1-1.524-.66,2.944,2.944,0,0,1-.552-1.932,2.918,2.918,0,0,1,.552-1.926,1.887,1.887,0,0,1,1.524-.654,1.9,1.9,0,0,1,1.536.654,2.918,2.918,0,0,1,.552,1.926,2.94,2.94,0,0,1-.552,1.938A1.9,1.9,0,0,1,19.932-3.4Zm0-.816a.843.843,0,0,0,.78-.426,2.753,2.753,0,0,0,.252-1.35,2.684,2.684,0,0,0-.252-1.332.846.846,0,0,0-.78-.42.835.835,0,0,0-.774.414,2.735,2.735,0,0,0-.246,1.338,2.811,2.811,0,0,0,.246,1.35A.83.83,0,0,0,19.932-4.212Zm5.892,4.3A1.9,1.9,0,0,1,24.288-.57a2.939,2.939,0,0,1-.552-1.938,2.918,2.918,0,0,1,.552-1.926,1.9,1.9,0,0,1,1.536-.654,1.9,1.9,0,0,1,1.53.654,2.9,2.9,0,0,1,.558,1.926A2.944,2.944,0,0,1,27.36-.576,1.893,1.893,0,0,1,25.824.084Zm0-.816a.83.83,0,0,0,.774-.426,2.811,2.811,0,0,0,.246-1.35,2.721,2.721,0,0,0-.252-1.338.833.833,0,0,0-.768-.426.846.846,0,0,0-.78.42,2.716,2.716,0,0,0-.252,1.344,2.753,2.753,0,0,0,.252,1.35A.843.843,0,0,0,25.824-.732Z" transform="translate(975 4195)" fill="#fff"/>
    </g>
    <g id="Group_286" data-name="Group 286" transform="translate(40)">
      <g transform="matrix(1, 0, 0, 1, 770, 4175.49)" filter="url(#Union_3)">
        <path id="Union_3-2" data-name="Union 3" d="M-1976.308,22.255H-1990V4h39V22.255h-13.23l-6.039,6.039Z" transform="translate(2029 2)" fill="#009edb"/>
      </g>
      <path id="Path_2115" data-name="Path 2115" d="M5.952-1.02a.62.62,0,0,1,.432.132.479.479,0,0,1,.144.372Q6.528,0,5.952,0H1.944q-.588,0-.588-.516a.469.469,0,0,1,.15-.372.644.644,0,0,1,.438-.132h1.38V-7.008l-1.236.78a.463.463,0,0,1-.24.072.449.449,0,0,1-.354-.18.62.62,0,0,1-.15-.408.489.489,0,0,1,.24-.432L3.432-8.352A1.019,1.019,0,0,1,3.96-8.52a.585.585,0,0,1,.432.168A.616.616,0,0,1,4.56-7.9V-1.02ZM8.628.06a.753.753,0,0,1-.546-.216A.737.737,0,0,1,7.86-.708a.757.757,0,0,1,.222-.558.742.742,0,0,1,.546-.222.722.722,0,0,1,.54.222.768.768,0,0,1,.216.558.748.748,0,0,1-.216.552A.733.733,0,0,1,8.628.06Zm6.564-4.4a2.113,2.113,0,0,1,1.152.768,2.159,2.159,0,0,1,.408,1.32,2.043,2.043,0,0,1-.81,1.722,3.7,3.7,0,0,1-2.286.618A3.7,3.7,0,0,1,11.37-.534a2.043,2.043,0,0,1-.81-1.722,2.157,2.157,0,0,1,.414-1.332,2.084,2.084,0,0,1,1.158-.756,2.1,2.1,0,0,1-1-.756,2.021,2.021,0,0,1-.366-1.2,1.989,1.989,0,0,1,.768-1.65,3.346,3.346,0,0,1,2.124-.606,3.346,3.346,0,0,1,2.124.606,1.989,1.989,0,0,1,.768,1.65,2.048,2.048,0,0,1-.366,1.206A2.025,2.025,0,0,1,15.192-4.344ZM13.656-7.56a1.968,1.968,0,0,0-1.272.354,1.236,1.236,0,0,0-.432,1.014,1.282,1.282,0,0,0,.432,1.044,1.945,1.945,0,0,0,1.272.36,1.945,1.945,0,0,0,1.272-.36,1.282,1.282,0,0,0,.432-1.044,1.236,1.236,0,0,0-.432-1.014A1.968,1.968,0,0,0,13.656-7.56Zm0,6.648q1.908,0,1.908-1.428T13.656-3.78q-1.908,0-1.908,1.44T13.656-.912Zm7.392.8A.516.516,0,0,1,20.58.2a.447.447,0,0,1-.318-.132.445.445,0,0,1-.138-.336.61.61,0,0,1,.1-.324l4.488-7.764a.54.54,0,0,1,.48-.312.447.447,0,0,1,.318.132.445.445,0,0,1,.138.336.61.61,0,0,1-.1.324ZM19.932-3.4a1.879,1.879,0,0,1-1.524-.66,2.944,2.944,0,0,1-.552-1.932,2.918,2.918,0,0,1,.552-1.926,1.887,1.887,0,0,1,1.524-.654,1.9,1.9,0,0,1,1.536.654,2.918,2.918,0,0,1,.552,1.926,2.94,2.94,0,0,1-.552,1.938A1.9,1.9,0,0,1,19.932-3.4Zm0-.816a.843.843,0,0,0,.78-.426,2.753,2.753,0,0,0,.252-1.35,2.684,2.684,0,0,0-.252-1.332.846.846,0,0,0-.78-.42.835.835,0,0,0-.774.414,2.735,2.735,0,0,0-.246,1.338,2.811,2.811,0,0,0,.246,1.35A.83.83,0,0,0,19.932-4.212Zm5.892,4.3A1.9,1.9,0,0,1,24.288-.57a2.939,2.939,0,0,1-.552-1.938,2.918,2.918,0,0,1,.552-1.926,1.9,1.9,0,0,1,1.536-.654,1.9,1.9,0,0,1,1.53.654,2.9,2.9,0,0,1,.558,1.926A2.944,2.944,0,0,1,27.36-.576,1.893,1.893,0,0,1,25.824.084Zm0-.816a.83.83,0,0,0,.774-.426,2.811,2.811,0,0,0,.246-1.35,2.721,2.721,0,0,0-.252-1.338.833.833,0,0,0-.768-.426.846.846,0,0,0-.78.42,2.716,2.716,0,0,0-.252,1.344,2.753,2.753,0,0,0,.252,1.35A.843.843,0,0,0,25.824-.732Z" transform="translate(814 4195)" fill="#fff"/>
    </g>
    <g id="Group_287" data-name="Group 287" transform="translate(-30 3)">
      <g transform="matrix(1, 0, 0, 1, 840, 4172.49)" filter="url(#Union_4)">
        <path id="Union_4-2" data-name="Union 4" d="M-1976.308,22.255H-1990V4h39V22.255h-13.23l-6.039,6.039Z" transform="translate(2233 2)" fill="#009edb"/>
      </g>
      <path id="Path_2119" data-name="Path 2119" d="M3.6.1a2.576,2.576,0,0,1-2.25-1.1A5.582,5.582,0,0,1,.576-4.224,5.607,5.607,0,0,1,1.35-7.452a2.576,2.576,0,0,1,2.25-1.1,2.581,2.581,0,0,1,2.25,1.1,5.577,5.577,0,0,1,.774,3.222A5.607,5.607,0,0,1,5.85-1.008,2.576,2.576,0,0,1,3.6.1Zm0-1a1.436,1.436,0,0,0,1.356-.8,5.6,5.6,0,0,0,.432-2.532,5.56,5.56,0,0,0-.432-2.526A1.438,1.438,0,0,0,3.6-7.56a1.438,1.438,0,0,0-1.356.8,5.56,5.56,0,0,0-.432,2.526A5.606,5.606,0,0,0,2.244-1.71,1.435,1.435,0,0,0,3.6-.9ZM8.628.06a.753.753,0,0,1-.546-.216A.737.737,0,0,1,7.86-.708a.757.757,0,0,1,.222-.558.742.742,0,0,1,.546-.222.722.722,0,0,1,.54.222.768.768,0,0,1,.216.558.748.748,0,0,1-.216.552A.733.733,0,0,1,8.628.06Zm6.564-4.4a2.113,2.113,0,0,1,1.152.768,2.159,2.159,0,0,1,.408,1.32,2.043,2.043,0,0,1-.81,1.722,3.7,3.7,0,0,1-2.286.618A3.7,3.7,0,0,1,11.37-.534a2.043,2.043,0,0,1-.81-1.722,2.157,2.157,0,0,1,.414-1.332,2.084,2.084,0,0,1,1.158-.756,2.1,2.1,0,0,1-1-.756,2.021,2.021,0,0,1-.366-1.2,1.989,1.989,0,0,1,.768-1.65,3.346,3.346,0,0,1,2.124-.606,3.346,3.346,0,0,1,2.124.606,1.989,1.989,0,0,1,.768,1.65,2.048,2.048,0,0,1-.366,1.206A2.025,2.025,0,0,1,15.192-4.344ZM13.656-7.56a1.968,1.968,0,0,0-1.272.354,1.236,1.236,0,0,0-.432,1.014,1.282,1.282,0,0,0,.432,1.044,1.945,1.945,0,0,0,1.272.36,1.945,1.945,0,0,0,1.272-.36,1.282,1.282,0,0,0,.432-1.044,1.236,1.236,0,0,0-.432-1.014A1.968,1.968,0,0,0,13.656-7.56Zm0,6.648q1.908,0,1.908-1.428T13.656-3.78q-1.908,0-1.908,1.44T13.656-.912Zm7.392.8A.516.516,0,0,1,20.58.2a.447.447,0,0,1-.318-.132.445.445,0,0,1-.138-.336.61.61,0,0,1,.1-.324l4.488-7.764a.54.54,0,0,1,.48-.312.447.447,0,0,1,.318.132.445.445,0,0,1,.138.336.61.61,0,0,1-.1.324ZM19.932-3.4a1.879,1.879,0,0,1-1.524-.66,2.944,2.944,0,0,1-.552-1.932,2.918,2.918,0,0,1,.552-1.926,1.887,1.887,0,0,1,1.524-.654,1.9,1.9,0,0,1,1.536.654,2.918,2.918,0,0,1,.552,1.926,2.94,2.94,0,0,1-.552,1.938A1.9,1.9,0,0,1,19.932-3.4Zm0-.816a.843.843,0,0,0,.78-.426,2.753,2.753,0,0,0,.252-1.35,2.684,2.684,0,0,0-.252-1.332.846.846,0,0,0-.78-.42.835.835,0,0,0-.774.414,2.735,2.735,0,0,0-.246,1.338,2.811,2.811,0,0,0,.246,1.35A.83.83,0,0,0,19.932-4.212Zm5.892,4.3A1.9,1.9,0,0,1,24.288-.57a2.939,2.939,0,0,1-.552-1.938,2.918,2.918,0,0,1,.552-1.926,1.9,1.9,0,0,1,1.536-.654,1.9,1.9,0,0,1,1.53.654,2.9,2.9,0,0,1,.558,1.926A2.944,2.944,0,0,1,27.36-.576,1.893,1.893,0,0,1,25.824.084Zm0-.816a.83.83,0,0,0,.774-.426,2.811,2.811,0,0,0,.246-1.35,2.721,2.721,0,0,0-.252-1.338.833.833,0,0,0-.768-.426.846.846,0,0,0-.78.42,2.716,2.716,0,0,0-.252,1.344,2.753,2.753,0,0,0,.252,1.35A.843.843,0,0,0,25.824-.732Z" transform="translate(1088 4192)" fill="#fff"/>
    </g>
    <path id="Path_928" data-name="Path 928" d="M11,0h96V22H11L0,11Z" transform="translate(810 4213)" fill="#8697a5"/>
    <path id="Path_927" data-name="Path 927" d="M0,0H96l11,11L96,22H0Z" transform="translate(1016 4213)" fill="#026796"/>
    <line id="Line_14" data-name="Line 14" y2="42.309" transform="translate(916.5 4213.191)" fill="none" stroke="#009edb" stroke-width="1"/>
    <path id="Path_2114" data-name="Path 2114" d="M.023-1.2,0,41.309" transform="translate(1015.5 4214.191)" fill="none" stroke="#009edb" stroke-width="1"/>
  </g>
</svg>
