<svg xmlns="http://www.w3.org/2000/svg" width="22.424" height="31.95" viewBox="0 0 22.424 31.95">
  <g id="icon_pin" transform="translate(-4.788)" opacity="0.23">
    <path id="Path_938" data-name="Path 938" d="M15.272,31.458a1.8,1.8,0,0,0,.486.39s.006,0,.008,0a.552.552,0,0,0,.628,0s.006,0,.008,0a1.8,1.8,0,0,0,.486-.39s9.3-10.11,10.23-18.87a11.208,11.208,0,1,0-22.33-1.376,11.048,11.048,0,0,0,.1,1.394C5.842,21.362,15.272,31.458,15.272,31.458ZM16,4a7.212,7.212,0,1,1-7.212,7.212A7.221,7.221,0,0,1,16,4Z" fill="#042745"/>
  </g>
</svg>
