<svg xmlns="http://www.w3.org/2000/svg" width="29.349" height="29.33" viewBox="0 0 29.349 29.33">
  <g id="icon_phone" transform="translate(-1.326 -1.334)" opacity="0.23">
    <path id="Path_937" data-name="Path 937" d="M13.216,8.064c-.382-4.394-4.966-6.55-5.16-6.638a.974.974,0,0,0-.582-.078c-5.292.878-6.088,3.958-6.12,4.086a.991.991,0,0,0,.02.54C7.686,25.558,20.8,29.188,25.116,30.382c.332.092.606.166.814.234a.953.953,0,0,0,.308.048.989.989,0,0,0,.414-.09c.132-.06,3.248-1.528,4.01-6.316a1,1,0,0,0-.1-.612,9.487,9.487,0,0,0-6.218-4.33.977.977,0,0,0-.884.21,13.363,13.363,0,0,1-4.246,2.65c-5.7-2.786-8.88-8.132-9-9.146-.07-.57,1.236-2.572,2.738-4.2A1,1,0,0,0,13.216,8.064Z" fill="#042745"/>
  </g>
</svg>
