<?xml version="1.0" encoding="UTF-8"?> <svg xmlns="http://www.w3.org/2000/svg" xmlns:xlink="http://www.w3.org/1999/xlink" width="1305.205" height="520.908" viewBox="0 0 1305.205 520.908"><defs><filter id="Rectangle_1500" x="509" y="331.449" width="333.558" height="189.459"><feOffset dy="6"></feOffset><feGaussianBlur stdDeviation="6" result="blur"></feGaussianBlur><feFlood flood-opacity="0.078"></feFlood><feComposite operator="in" in2="blur"></feComposite><feComposite in="SourceGraphic"></feComposite></filter><clipPath id="clip-path"><rect width="163.655" height="257" fill="none"></rect></clipPath><clipPath id="clip-path-3"><rect width="3" height="46" fill="none"></rect></clipPath></defs><g id="Group_472" data-name="Group 472" transform="translate(-281.45 -975.322)"><g transform="matrix(1, 0, 0, 1, 281.45, 975.32)" filter="url(#Rectangle_1500)"><rect id="Rectangle_1500-2" data-name="Rectangle 1500" width="297.558" height="153.459" rx="9" transform="translate(527 343.45)" fill="#fff"></rect></g><g id="Component_9_32" data-name="Component 9 – 32" transform="translate(606 1005)" opacity="0.28"><path id="Subtraction_24" data-name="Subtraction 24" d="M2241.654,257H2118a20,20,0,0,1-20-20V20a20,20,0,0,1,20-20h123.655a20,20,0,0,1,20,20V237a20,20,0,0,1-20,20Zm-61.928-34a10,10,0,1,0,10,10A10.011,10.011,0,0,0,2179.726,223ZM2112,30a4.005,4.005,0,0,0-4,4V208a4.005,4.005,0,0,0,4,4h135a4,4,0,0,0,4-4V34a4,4,0,0,0-4-4Zm96.226-14a1.5,1.5,0,1,0,1.5,1.5A1.5,1.5,0,0,0,2208.227,16Zm-54,0a1.5,1.5,0,1,0,0,3h48a1.5,1.5,0,1,0,0-3Zm26-9a2.5,2.5,0,1,0,2.5,2.5A2.5,2.5,0,0,0,2180.227,7Z" transform="translate(-2098)" fill="#042745"></path></g><g id="Component_9_33" data-name="Component 9 – 33" transform="translate(883 1005)" opacity="0.28"><path id="Subtraction_24-2" data-name="Subtraction 24" d="M2241.654,257H2118a20,20,0,0,1-20-20V20a20,20,0,0,1,20-20h123.655a20,20,0,0,1,20,20V237a20,20,0,0,1-20,20Zm-61.928-34a10,10,0,1,0,10,10A10.011,10.011,0,0,0,2179.726,223ZM2112,30a4.005,4.005,0,0,0-4,4V208a4.005,4.005,0,0,0,4,4h135a4,4,0,0,0,4-4V34a4,4,0,0,0-4-4Zm96.226-14a1.5,1.5,0,1,0,1.5,1.5A1.5,1.5,0,0,0,2208.227,16Zm-54,0a1.5,1.5,0,1,0,0,3h48a1.5,1.5,0,1,0,0-3Zm26-9a2.5,2.5,0,1,0,2.5,2.5A2.5,2.5,0,0,0,2180.227,7Z" transform="translate(-2098)" fill="#042745"></path></g><g id="Component_9_34" data-name="Component 9 – 34" transform="translate(1149 1005)" opacity="0.28"><path id="Subtraction_24-3" data-name="Subtraction 24" d="M2241.654,257H2118a20,20,0,0,1-20-20V20a20,20,0,0,1,20-20h123.655a20,20,0,0,1,20,20V237a20,20,0,0,1-20,20Zm-61.928-34a10,10,0,1,0,10,10A10.011,10.011,0,0,0,2179.726,223ZM2112,30a4.005,4.005,0,0,0-4,4V208a4.005,4.005,0,0,0,4,4h135a4,4,0,0,0,4-4V34a4,4,0,0,0-4-4Zm96.226-14a1.5,1.5,0,1,0,1.5,1.5A1.5,1.5,0,0,0,2208.227,16Zm-54,0a1.5,1.5,0,1,0,0,3h48a1.5,1.5,0,1,0,0-3Zm26-9a2.5,2.5,0,1,0,2.5,2.5A2.5,2.5,0,0,0,2180.227,7Z" transform="translate(-2098)" fill="#042745"></path></g><g id="Component_9_35" data-name="Component 9 – 35" transform="translate(1423 1005)" clip-path="url(#clip-path)"><path id="Subtraction_24-4" data-name="Subtraction 24" d="M2241.654,257H2118a20,20,0,0,1-20-20V20a20,20,0,0,1,20-20h123.655a20,20,0,0,1,20,20V237a20,20,0,0,1-20,20Zm-61.928-34a10,10,0,1,0,10,10A10.011,10.011,0,0,0,2179.726,223ZM2112,30a4.005,4.005,0,0,0-4,4V208a4.005,4.005,0,0,0,4,4h135a4,4,0,0,0,4-4V34a4,4,0,0,0-4-4Zm96.226-14a1.5,1.5,0,1,0,1.5,1.5A1.5,1.5,0,0,0,2208.227,16Zm-54,0a1.5,1.5,0,1,0,0,3h48a1.5,1.5,0,1,0,0-3Zm26-9a2.5,2.5,0,1,0,2.5,2.5A2.5,2.5,0,0,0,2180.227,7Z" transform="translate(-2098)" fill="#009edb"></path></g><g id="Hotels.com_logo" transform="translate(281.45 975.322)"><g id="g5994" transform="translate(0 0)"><path id="path3013" d="M91.891,183.468a.017.017,0,0,1-.017-.017v-.116H91.84a.015.015,0,0,1,0-.03h.1a.015.015,0,0,1,0,.03h-.033v.116a.017.017,0,0,1-.017.017m.248,0a.017.017,0,0,1-.017-.017v-.1l-.043.112a.01.01,0,0,1-.009.006.01.01,0,0,1-.009-.006l-.043-.112v.1a.017.017,0,0,1-.017.017.017.017,0,0,1-.017-.017v-.12a.028.028,0,0,1,.054-.01l.032.084.033-.084a.027.027,0,0,1,.026-.018.028.028,0,0,1,.028.028v.12a.017.017,0,0,1-.017.017" transform="translate(-81.851 -182.865)" fill="#ee2841"></path><path id="path3017" d="M67.653,182.9a.275.275,0,0,1,.049-.156.221.221,0,0,0-.159.212v.177l.111.006Z" transform="translate(-66.435 -182.508)" fill="#ee2841"></path><path id="path3021" d="M67.543,186.024a.221.221,0,0,0,.159.212.275.275,0,0,1-.049-.156v-.332h-.111Z" transform="translate(-66.435 -184.418)" fill="#ee2841"></path><path id="path3025" d="M68.109,185.747H68v.332a.221.221,0,0,0,.159.212.275.275,0,0,1-.049-.156Z" transform="translate(-66.724 -184.417)" fill="#ee2841"></path><path id="path3029" d="M68.109,182.744a.276.276,0,0,1,.049-.156A.221.221,0,0,0,68,182.8v.241l.111.006Z" transform="translate(-66.724 -182.412)" fill="#ee2841"></path><path id="path3033" d="M64.644,182.822a.276.276,0,0,0-.136.237v1.053a.276.276,0,0,0,.136.237.329.329,0,0,1-.025-.126v-1.274a.33.33,0,0,1,.025-.126" transform="translate(-64.508 -182.56)" fill="#ee2841"></path><path id="path3037" d="M65.074,182.644a.331.331,0,0,1,.025-.126.276.276,0,0,0-.136.237v1.274a.276.276,0,0,0,.181.259.33.33,0,0,1-.07-.2Z" transform="translate(-64.797 -182.367)" fill="#ee2841"></path><path id="path3041" d="M66.748,182.216a.222.222,0,0,0-.222.222v.36l-.554-.028v-.388a.277.277,0,0,0-.554,0v1.44a.277.277,0,0,0,.554,0v-.443h.554v.443a.222.222,0,0,0,.443,0v-1.385a.222.222,0,0,0-.222-.222" transform="translate(-65.086 -182.106)" fill="#ee2841"></path><path id="path3045" d="M72.976,184.336v-.41h-.6v.41a.081.081,0,0,1-.079.081.083.083,0,0,1-.083-.081V183.4a.082.082,0,0,1,.081-.081.081.081,0,0,1,.081.081v.381h.6V183.4a.081.081,0,0,1,.162,0v.936a.081.081,0,0,1-.162,0" transform="translate(-69.401 -182.876)" fill="#ee2841"></path><path id="path3049" d="M75.057,184.516a.4.4,0,1,1,.4.412.389.389,0,0,1-.4-.412m.639,0a.246.246,0,1,0-.243.282.254.254,0,0,0,.243-.282" transform="translate(-71.205 -183.375)" fill="#ee2841"></path><path id="path3053" d="M78.865,184.1a.375.375,0,0,1,.381.389c0,.044-.031.07-.086.07h-.534a.257.257,0,0,0,.266.243.335.335,0,0,0,.195-.063.052.052,0,0,1,.032-.008.058.058,0,0,1,.032.107.455.455,0,0,1-.274.084.411.411,0,0,1-.013-.822m-.24.354H79.1a.232.232,0,0,0-.238-.234.24.24,0,0,0-.24.234" transform="translate(-73.374 -183.375)" fill="#ee2841"></path><path id="path3057" d="M80.846,184.344v-.952a.073.073,0,0,1,.073-.073.074.074,0,0,1,.073.073v.952a.074.074,0,0,1-.073.073.073.073,0,0,1-.073-.073" transform="translate(-74.881 -182.876)" fill="#ee2841"></path><path id="path3061" d="M81.5,184.788a.062.062,0,0,1,.063-.063.067.067,0,0,1,.036.011.38.38,0,0,0,.221.075c.11,0,.169-.045.169-.112s-.089-.1-.19-.126c-.133-.031-.289-.067-.289-.235,0-.125.107-.232.3-.232a.431.431,0,0,1,.261.081.059.059,0,0,1-.034.109.056.056,0,0,1-.032-.011.325.325,0,0,0-.193-.06c-.1,0-.161.039-.161.1s.084.091.182.113c.136.031.3.068.3.248,0,.135-.11.24-.316.24a.463.463,0,0,1-.285-.088.064.064,0,0,1-.028-.052" transform="translate(-75.298 -183.375)" fill="#ee2841"></path><path id="path3065" d="M83.576,185.8a.1.1,0,0,1,.1.1.1.1,0,0,1-.1.1.1.1,0,0,1-.1-.1.1.1,0,0,1,.1-.1" transform="translate(-76.55 -184.45)" fill="#ee2841"></path><path id="path3069" d="M86.105,184.516a.4.4,0,1,1,.4.412.389.389,0,0,1-.4-.412m.639,0a.246.246,0,1,0-.243.282.254.254,0,0,0,.243-.282" transform="translate(-78.22 -183.375)" fill="#ee2841"></path><path id="path3073" d="M89.671,184.342v.5a.074.074,0,0,1-.075.073.072.072,0,0,1-.071-.073v-.457c0-.091-.041-.135-.136-.135-.079,0-.157.089-.195.146v.446a.073.073,0,0,1-.073.073.074.074,0,0,1-.073-.073v-.457c0-.091-.039-.135-.138-.135-.076,0-.152.095-.191.151v.441a.074.074,0,0,1-.073.073.073.073,0,0,1-.073-.073v-.654a.072.072,0,0,1,.071-.073.074.074,0,0,1,.075.073v.045a.339.339,0,0,1,.253-.13.2.2,0,0,1,.213.146.332.332,0,0,1,.266-.146c.144,0,.22.079.22.237" transform="translate(-79.786 -183.375)" fill="#ee2841"></path><path id="path3077" d="M84.535,184.1a.349.349,0,0,1,.25.091.069.069,0,0,1,.023.049.065.065,0,0,1-.065.066.067.067,0,0,1-.044-.016.218.218,0,0,0-.157-.06.255.255,0,0,0-.253.281.259.259,0,0,0,.253.282.364.364,0,0,0,.293-.2c.01-.017.026-.047.038-.063s.041-.016.055,0a.125.125,0,0,1,.009.122.628.628,0,0,1-.132.174.384.384,0,0,1-.269.1.411.411,0,0,1,0-.822" transform="translate(-76.969 -183.375)" fill="#ee2841"></path><path id="path3081" d="M77.761,184.435c0,.028-.079.089-.136.117a.24.24,0,0,1-.112.023.17.17,0,0,1-.187-.193V183.9h-.075a.064.064,0,1,1,0-.128h.075v-.149a.073.073,0,0,1,.073-.073.074.074,0,0,1,.073.073v.149h.1a.064.064,0,1,1,0,.128h-.1v.449c0,.055.026.1.076.1.089,0,.159-.139.2-.139s.013.093.013.129" transform="translate(-72.558 -183.023)" fill="#ee2841"></path></g></g><text id="New_booking_" data-name="New booking " transform="translate(425 1144)" fill="#042745" font-size="16" font-family="Cabin-SemiBold, Cabin" font-weight="600"><tspan x="-56.552" y="0">NEW BOOKING </tspan></text><path id="Path_2288" data-name="Path 2288" d="M-13.845-5.278h-1l.156-1.17h.845v-1.43a1.867,1.867,0,0,1,.494-1.372,1.885,1.885,0,0,1,1.4-.5,3.792,3.792,0,0,1,1.04.13l-.156,1.2a1.757,1.757,0,0,0-.559-.091q-.78,0-.78.845v1.222h1.534v1.17H-12.4V0h-1.443Zm3.965-1.17h1.313l.078.819a2.892,2.892,0,0,1,.806-.689,1.887,1.887,0,0,1,.949-.26,1.751,1.751,0,0,1,.286.026L-6.565-5.07a1.665,1.665,0,0,0-.494-.065,1.684,1.684,0,0,0-.806.2,1.288,1.288,0,0,0-.533.474V0H-9.88ZM-2.9.13A3.3,3.3,0,0,1-4.641-.318,3.012,3.012,0,0,1-5.779-1.534a3.625,3.625,0,0,1-.4-1.69,3.625,3.625,0,0,1,.4-1.69A3.012,3.012,0,0,1-4.641-6.129,3.3,3.3,0,0,1-2.9-6.578a3.324,3.324,0,0,1,1.755.448A2.967,2.967,0,0,1-.013-4.914a3.674,3.674,0,0,1,.39,1.69,3.674,3.674,0,0,1-.39,1.69A2.967,2.967,0,0,1-1.144-.318,3.324,3.324,0,0,1-2.9.13Zm0-1.222A1.62,1.62,0,0,0-1.58-1.664a2.37,2.37,0,0,0,.475-1.56A2.375,2.375,0,0,0-1.58-4.778,1.612,1.612,0,0,0-2.9-5.356a1.594,1.594,0,0,0-1.313.578A2.4,2.4,0,0,0-4.68-3.224a2.392,2.392,0,0,0,.468,1.56A1.6,1.6,0,0,0-2.9-1.092ZM8.879-6.565a2.332,2.332,0,0,1,1.9.747A3.274,3.274,0,0,1,11.4-3.666V0H9.945V-3.588A2.3,2.3,0,0,0,9.64-4.921a1.159,1.159,0,0,0-1.008-.423,1.27,1.27,0,0,0-1.105.468A2.063,2.063,0,0,0,7.189-3.64V0H5.746V-3.5a2.351,2.351,0,0,0-.331-1.417,1.193,1.193,0,0,0-1.007-.429,1.673,1.673,0,0,0-1.417.65V0H1.534V-6.448H2.743l.091.572a3.012,3.012,0,0,1,1.937-.689A2.088,2.088,0,0,1,6.708-5.538,2.235,2.235,0,0,1,7.6-6.3,2.915,2.915,0,0,1,8.879-6.565Zm-42.133,20.7a1.883,1.883,0,0,1-1.371-.526,1.847,1.847,0,0,1-.54-1.385,1.683,1.683,0,0,1,.6-1.352,3.542,3.542,0,0,1,1.437-.722,7.694,7.694,0,0,1,1.671-.24,1.292,1.292,0,0,0-.3-.943,1.372,1.372,0,0,0-.949-.266,2.845,2.845,0,0,0-.826.123,5.046,5.046,0,0,0-.917.4l-.156-1.183a4.722,4.722,0,0,1,2.3-.6,2.212,2.212,0,0,1,1.742.643,3.175,3.175,0,0,1,.572,2.126v1.6a4.175,4.175,0,0,0,.046.735.5.5,0,0,0,.169.318.706.706,0,0,0,.41.091h.182l-.169,1.183h-.4a1.881,1.881,0,0,1-.969-.208,1.49,1.49,0,0,1-.552-.611,2.384,2.384,0,0,1-.858.6A2.828,2.828,0,0,1-33.254,14.13Zm.52-1.131a1.65,1.65,0,0,0,.683-.162,1.737,1.737,0,0,0,.6-.448v-1.5a3.849,3.849,0,0,0-1.606.351.983.983,0,0,0-.6.91Q-33.657,13-32.734,13Zm7.657-5.564a2.251,2.251,0,0,1,1.885.793,3.446,3.446,0,0,1,.624,2.184V14h-1.443V10.5a2.359,2.359,0,0,0-.331-1.4,1.285,1.285,0,0,0-1.1-.442,1.673,1.673,0,0,0-1.4.637V14H-28.3V7.552h1.287l.052.533A2.981,2.981,0,0,1-25.077,7.435Zm5.759,6.188-2.691-6.071H-20.4l1.781,4.381,1.729-4.381h1.625l-4.017,9.594h-1.5ZM-8.242,7.435a2.681,2.681,0,0,1,1.567.455,2.9,2.9,0,0,1,1,1.215,4,4,0,0,1,.345,1.671,3.951,3.951,0,0,1-.358,1.69A2.943,2.943,0,0,1-6.7,13.682a2.664,2.664,0,0,1-1.541.448,2.737,2.737,0,0,1-1.9-.676L-10.2,14h-1.339V4.25h1.456V8.111A2.791,2.791,0,0,1-8.242,7.435Zm-.195,5.473a1.386,1.386,0,0,0,1.176-.592,2.535,2.535,0,0,0,.436-1.54,2.505,2.505,0,0,0-.436-1.534,1.391,1.391,0,0,0-1.176-.585,1.551,1.551,0,0,0-1.274.559,2.407,2.407,0,0,0-.455,1.56,2.429,2.429,0,0,0,.455,1.573A1.551,1.551,0,0,0-8.437,12.908ZM-1.3,14.13a3.3,3.3,0,0,1-1.742-.448A3.012,3.012,0,0,1-4.18,12.466a3.625,3.625,0,0,1-.4-1.69,3.625,3.625,0,0,1,.4-1.69A3.012,3.012,0,0,1-3.042,7.871,3.3,3.3,0,0,1-1.3,7.422a3.324,3.324,0,0,1,1.755.448A2.967,2.967,0,0,1,1.586,9.086a3.674,3.674,0,0,1,.39,1.69,3.674,3.674,0,0,1-.39,1.69A2.967,2.967,0,0,1,.455,13.682,3.324,3.324,0,0,1-1.3,14.13Zm0-1.222a1.62,1.62,0,0,0,1.319-.572,2.37,2.37,0,0,0,.475-1.56A2.375,2.375,0,0,0,.019,9.222,1.612,1.612,0,0,0-1.3,8.644a1.594,1.594,0,0,0-1.313.578,2.4,2.4,0,0,0-.468,1.554,2.392,2.392,0,0,0,.468,1.56A1.6,1.6,0,0,0-1.3,12.908ZM6.019,14.13a3.3,3.3,0,0,1-1.742-.448A3.012,3.012,0,0,1,3.14,12.466a3.8,3.8,0,0,1,0-3.38A3.012,3.012,0,0,1,4.277,7.871a3.3,3.3,0,0,1,1.742-.448,3.324,3.324,0,0,1,1.755.448A2.967,2.967,0,0,1,8.905,9.086a3.857,3.857,0,0,1,0,3.38,2.967,2.967,0,0,1-1.131,1.216A3.324,3.324,0,0,1,6.019,14.13Zm0-1.222a1.62,1.62,0,0,0,1.319-.572,2.37,2.37,0,0,0,.475-1.56,2.375,2.375,0,0,0-.475-1.554,1.612,1.612,0,0,0-1.319-.578,1.594,1.594,0,0,0-1.313.578,2.4,2.4,0,0,0-.468,1.554,2.392,2.392,0,0,0,.468,1.56A1.6,1.6,0,0,0,6.019,12.908Zm4.42-8.658H11.9v6.032l2.132-2.73H15.7l-2.431,3.055L15.756,14H14.079L11.9,10.984V14H10.439Zm6.149.65h1.456V6.4H16.588Zm0,2.652h1.456V14H16.588ZM22.8,7.435a2.251,2.251,0,0,1,1.885.793,3.446,3.446,0,0,1,.624,2.184V14H23.868V10.5a2.359,2.359,0,0,0-.331-1.4,1.285,1.285,0,0,0-1.1-.442,1.673,1.673,0,0,0-1.4.637V14H19.578V7.552h1.287l.052.533A2.981,2.981,0,0,1,22.8,7.435Zm6.565,9.828a4.238,4.238,0,0,1-2.191-.494,1.533,1.533,0,0,1-.825-1.378,1.693,1.693,0,0,1,1.066-1.521A1,1,0,0,1,26.832,13a.979.979,0,0,1,.689-.923,2.209,2.209,0,0,1-.774-.884,2.749,2.749,0,0,1-.267-1.222,2.681,2.681,0,0,1,.312-1.293,2.3,2.3,0,0,1,.9-.917,2.8,2.8,0,0,1,1.41-.338,2.6,2.6,0,0,1,1.521.442,2.346,2.346,0,0,1,.63-.234,3.57,3.57,0,0,1,.825-.091h.3l-.117.923h-.481a2.392,2.392,0,0,0-.494.052,2.369,2.369,0,0,1,.455,1.456,2.719,2.719,0,0,1-.312,1.3,2.317,2.317,0,0,1-.91.929,2.942,2.942,0,0,1-2.158.241.271.271,0,0,0-.208.26q0,.156.2.26a1.969,1.969,0,0,0,.631.156l1.326.195q2.21.312,2.21,1.859a1.746,1.746,0,0,1-.839,1.541A4.187,4.187,0,0,1,29.367,17.263Zm-.26-5.824a1.2,1.2,0,0,0,.962-.4,1.6,1.6,0,0,0,.338-1.073A1.573,1.573,0,0,0,30.069,8.9a1.373,1.373,0,0,0-1.924.006,1.578,1.578,0,0,0-.338,1.059,1.6,1.6,0,0,0,.338,1.073A1.2,1.2,0,0,0,29.107,11.439Zm.338,4.667q1.742,0,1.742-.845a.6.6,0,0,0-.292-.539,2.542,2.542,0,0,0-.93-.293l-1.56-.247a1.487,1.487,0,0,0-.578.384.822.822,0,0,0-.215.565.779.779,0,0,0,.481.734A3.082,3.082,0,0,0,29.445,16.106Zm-47.8,12.024a4.844,4.844,0,0,1-2.2-.507l.143-1.287a3.653,3.653,0,0,0,2,.65,1.539,1.539,0,0,0,.813-.176.581.581,0,0,0,.279-.526A.661.661,0,0,0-17.6,25.7a4.447,4.447,0,0,0-.936-.429,4.446,4.446,0,0,1-1.436-.741,1.5,1.5,0,0,1-.488-1.209,1.707,1.707,0,0,1,.631-1.365,2.67,2.67,0,0,1,1.774-.533,3.877,3.877,0,0,1,1.911.468l-.143,1.261a4.019,4.019,0,0,0-.845-.481,2.36,2.36,0,0,0-.9-.169,1.248,1.248,0,0,0-.741.189.626.626,0,0,0-.26.539.641.641,0,0,0,.143.429,1.109,1.109,0,0,0,.41.286q.267.117.839.325a4.084,4.084,0,0,1,1.333.747,1.531,1.531,0,0,1,.461,1.189,1.737,1.737,0,0,1-.624,1.4A2.869,2.869,0,0,1-18.356,28.13Zm6.513,0a3.3,3.3,0,0,1-1.742-.448,3.012,3.012,0,0,1-1.137-1.215,3.625,3.625,0,0,1-.4-1.69,3.625,3.625,0,0,1,.4-1.69,3.012,3.012,0,0,1,1.137-1.215,3.3,3.3,0,0,1,1.742-.448,3.324,3.324,0,0,1,1.755.448,2.967,2.967,0,0,1,1.131,1.215,3.674,3.674,0,0,1,.39,1.69,3.674,3.674,0,0,1-.39,1.69,2.967,2.967,0,0,1-1.131,1.215A3.324,3.324,0,0,1-11.843,28.13Zm0-1.222a1.62,1.62,0,0,0,1.319-.572,2.37,2.37,0,0,0,.474-1.56,2.375,2.375,0,0,0-.474-1.554,1.612,1.612,0,0,0-1.319-.578,1.594,1.594,0,0,0-1.313.578,2.4,2.4,0,0,0-.468,1.554,2.392,2.392,0,0,0,.468,1.56A1.6,1.6,0,0,0-11.843,26.908ZM-1.9,21.552V28H-3.237l-.065-.494a2.106,2.106,0,0,1-.7.455,2.244,2.244,0,0,1-.865.169,2.4,2.4,0,0,1-1.976-.78,3.454,3.454,0,0,1-.637-2.236V21.552h1.456V25a2.569,2.569,0,0,0,.319,1.43,1.16,1.16,0,0,0,1.034.468,1.559,1.559,0,0,0,1.313-.611V21.552Zm1.534,0H.949l.078.819a2.892,2.892,0,0,1,.806-.689,1.887,1.887,0,0,1,.949-.26,1.751,1.751,0,0,1,.286.026L2.951,22.93a1.665,1.665,0,0,0-.494-.065,1.684,1.684,0,0,0-.806.2,1.288,1.288,0,0,0-.533.475V28H-.364ZM6.721,28.13a3.575,3.575,0,0,1-1.826-.442,2.909,2.909,0,0,1-1.151-1.2,3.624,3.624,0,0,1-.39-1.69,3.813,3.813,0,0,1,.384-1.729,2.838,2.838,0,0,1,1.15-1.209,3.75,3.75,0,0,1,1.9-.442,3.688,3.688,0,0,1,1.742.4l-.156,1.2a3.417,3.417,0,0,0-1.495-.364,1.96,1.96,0,0,0-1.508.572,2.179,2.179,0,0,0-.533,1.547,2.208,2.208,0,0,0,.533,1.547,1.9,1.9,0,0,0,1.482.585,3.046,3.046,0,0,0,1.534-.416L8.541,27.7a3.107,3.107,0,0,1-.819.312A4.221,4.221,0,0,1,6.721,28.13Zm5.967,0a3.744,3.744,0,0,1-1.9-.455,3,3,0,0,1-1.189-1.228,3.888,3.888,0,0,1-.032-3.38,2.861,2.861,0,0,1,1.092-1.189,3.183,3.183,0,0,1,1.7-.442,2.968,2.968,0,0,1,1.488.358,2.41,2.41,0,0,1,.962.982,3,3,0,0,1,.332,1.43,3.369,3.369,0,0,1-.091.793H10.7a2.064,2.064,0,0,0,.7,1.456,2.252,2.252,0,0,0,1.437.455,3.84,3.84,0,0,0,1.911-.481l.1,1.209A4.757,4.757,0,0,1,12.688,28.13Zm.962-4.121a1.452,1.452,0,0,0-.325-.962,1.213,1.213,0,0,0-.988-.39,1.53,1.53,0,0,0-1.586,1.352ZM18.1,28.13a4.844,4.844,0,0,1-2.2-.507l.143-1.287a3.653,3.653,0,0,0,2,.65,1.539,1.539,0,0,0,.813-.176.581.581,0,0,0,.279-.526.661.661,0,0,0-.286-.585,4.447,4.447,0,0,0-.936-.429,4.446,4.446,0,0,1-1.436-.741,1.5,1.5,0,0,1-.488-1.209,1.707,1.707,0,0,1,.63-1.365,2.67,2.67,0,0,1,1.774-.533,3.877,3.877,0,0,1,1.911.468l-.143,1.261a4.019,4.019,0,0,0-.845-.481,2.36,2.36,0,0,0-.9-.169,1.248,1.248,0,0,0-.741.189.626.626,0,0,0-.26.539.641.641,0,0,0,.143.429,1.109,1.109,0,0,0,.41.286q.267.117.839.325a4.084,4.084,0,0,1,1.333.747,1.531,1.531,0,0,1,.461,1.189,1.737,1.737,0,0,1-.624,1.4A2.869,2.869,0,0,1,18.1,28.13Z" transform="translate(425 1170)" fill="#042745" opacity="0.45"></path><path id="Path_2293" data-name="Path 2293" d="M18.272,12.344h-4.08L13.264,15H11.28L15.264,3.8H17.2L21.184,15H19.2Zm-.64-1.792-1.392-4-1.408,4ZM26.7,15.224a4.365,4.365,0,0,1-3.472-1.336A5.415,5.415,0,0,1,22.064,10.2V3.8h2.048V9.672a7.654,7.654,0,0,0,.208,1.944,2.168,2.168,0,0,0,.776,1.208,2.61,2.61,0,0,0,1.608.432,2.61,2.61,0,0,0,1.608-.432,2.168,2.168,0,0,0,.776-1.208A7.654,7.654,0,0,0,29.3,9.672V3.8h2.048v6.4a5.415,5.415,0,0,1-1.168,3.688A4.365,4.365,0,0,1,26.7,15.224Zm9.152-9.44H32.688V3.8h8.384V5.784H37.9V15H35.856Zm11.328,9.44a5.559,5.559,0,0,1-2.84-.728,5.127,5.127,0,0,1-1.968-2.048A6.321,6.321,0,0,1,41.664,9.4a6.321,6.321,0,0,1,.712-3.048A5.127,5.127,0,0,1,44.344,4.3a5.9,5.9,0,0,1,5.68,0,5.127,5.127,0,0,1,1.968,2.048A6.321,6.321,0,0,1,52.7,9.4a6.321,6.321,0,0,1-.712,3.048A5.127,5.127,0,0,1,50.024,14.5,5.559,5.559,0,0,1,47.184,15.224Zm0-1.984a3.062,3.062,0,0,0,2.5-1.056A4.232,4.232,0,0,0,50.56,9.4a4.232,4.232,0,0,0-.872-2.784,3.5,3.5,0,0,0-5.008,0A4.232,4.232,0,0,0,43.808,9.4a4.232,4.232,0,0,0,.872,2.784A3.062,3.062,0,0,0,47.184,13.24ZM63.664,15,62.7,7.5,59.84,12.648,56.96,7.512,56,15H53.872L55.424,3.8H57.1L59.84,8.9l2.72-5.1h1.68L65.792,15Zm9.872-2.656h-4.08L68.528,15H66.544L70.528,3.8h1.936L76.448,15H74.464Zm-.64-1.792-1.392-4-1.408,4Zm6.16-4.768H75.888V3.8h8.384V5.784H81.1V15H79.056ZM85.744,3.8h2.048V15H85.744Zm9.584,11.424a6.1,6.1,0,0,1-3-.72,5.037,5.037,0,0,1-2.024-2.04,6.3,6.3,0,0,1-.72-3.064,6.1,6.1,0,0,1,.744-3.048A5.221,5.221,0,0,1,92.392,4.3a6.108,6.108,0,0,1,3-.728,6.258,6.258,0,0,1,2.9.656l-.224,1.952a9,9,0,0,0-1.32-.472,5.311,5.311,0,0,0-1.368-.168A3.3,3.3,0,0,0,92.744,6.6a4.111,4.111,0,0,0-.92,2.8,4.158,4.158,0,0,0,.9,2.8,3.234,3.234,0,0,0,2.6,1.056,5.633,5.633,0,0,0,1.384-.16,8.478,8.478,0,0,0,1.352-.48l.224,1.952A6.858,6.858,0,0,1,95.328,15.224ZM21.4,23.8h3.984q3.984,0,3.984,3.616A3.57,3.57,0,0,1,28.36,30.2a4.224,4.224,0,0,1-2.928.912H23.448V35H21.4Zm3.792,5.6a2.256,2.256,0,0,0,1.576-.48,1.91,1.91,0,0,0,.52-1.472,1.867,1.867,0,0,0-.528-1.464,2.368,2.368,0,0,0-1.616-.472h-1.7V29.4ZM36.12,32.344H32.04L31.112,35H29.128l3.984-11.2h1.936L39.032,35H37.048Zm-.64-1.792-1.392-4-1.408,4ZM47.848,23.8l-3.936,6.672V35H41.864V30.472L37.928,23.8h2.24l2.72,4.832,2.72-4.832ZM57.816,35l-.96-7.5-2.864,5.152-2.88-5.136L50.152,35H48.024l1.552-11.2h1.68l2.736,5.1,2.72-5.1h1.68L59.944,35ZM61.8,23.8h7.168v1.984H63.9v2.384h3.936v1.984H63.9v2.864h5.232V35H61.8Zm9.088,0H72.9l4.784,7.232V23.8h2.048V35h-1.68l-5.12-7.68V35H70.888Zm13.488,1.984H81.208V23.8h8.384v1.984H86.424V35H84.376Zm-69.72,29.44a6.1,6.1,0,0,1-3-.72,5.037,5.037,0,0,1-2.024-2.04,6.3,6.3,0,0,1-.72-3.064,6.1,6.1,0,0,1,.744-3.048A5.221,5.221,0,0,1,11.72,44.3a6.108,6.108,0,0,1,3-.728,6.258,6.258,0,0,1,2.9.656l-.224,1.952a9,9,0,0,0-1.32-.472,5.311,5.311,0,0,0-1.368-.168A3.3,3.3,0,0,0,12.072,46.6a4.111,4.111,0,0,0-.92,2.8,4.158,4.158,0,0,0,.9,2.8,3.234,3.234,0,0,0,2.6,1.056,5.633,5.633,0,0,0,1.384-.16,8.478,8.478,0,0,0,1.352-.48l.224,1.952A6.858,6.858,0,0,1,14.656,55.224Zm9.376,0a5.559,5.559,0,0,1-2.84-.728,5.127,5.127,0,0,1-1.968-2.048,6.88,6.88,0,0,1,0-6.1A5.127,5.127,0,0,1,21.192,44.3a5.9,5.9,0,0,1,5.68,0,5.127,5.127,0,0,1,1.968,2.048,6.88,6.88,0,0,1,0,6.1A5.127,5.127,0,0,1,26.872,54.5,5.559,5.559,0,0,1,24.032,55.224Zm0-1.984a3.062,3.062,0,0,0,2.5-1.056,4.88,4.88,0,0,0,0-5.568,3.062,3.062,0,0,0-2.5-1.056,3.062,3.062,0,0,0-2.5,1.056,4.88,4.88,0,0,0,0,5.568A3.062,3.062,0,0,0,24.032,53.24Zm7.312-9.44h2.048v9.376H38V55H31.344Zm8,0h2.048v9.376H46V55H39.344Zm8,0h7.168v1.984H49.44v2.384h3.936v1.984H49.44v2.864h5.232V55H47.344ZM61.36,55.224a6.1,6.1,0,0,1-3-.72,5.037,5.037,0,0,1-2.024-2.04,6.3,6.3,0,0,1-.72-3.064,6.1,6.1,0,0,1,.744-3.048A5.221,5.221,0,0,1,58.424,44.3a6.108,6.108,0,0,1,3-.728,6.258,6.258,0,0,1,2.9.656L64.1,46.184a9,9,0,0,0-1.32-.472,5.311,5.311,0,0,0-1.368-.168A3.3,3.3,0,0,0,58.776,46.6a4.111,4.111,0,0,0-.92,2.8,4.158,4.158,0,0,0,.9,2.8,3.234,3.234,0,0,0,2.6,1.056,5.633,5.633,0,0,0,1.384-.16,8.478,8.478,0,0,0,1.352-.48l.224,1.952A6.858,6.858,0,0,1,61.36,55.224Zm6.848-9.44H65.04V43.8h8.384v1.984H70.256V55H68.208ZM74.9,43.8h2.048V55H74.9Zm9.36,11.424a5.559,5.559,0,0,1-2.84-.728,5.127,5.127,0,0,1-1.968-2.048,6.88,6.88,0,0,1,0-6.1A5.127,5.127,0,0,1,81.416,44.3a5.9,5.9,0,0,1,5.68,0,5.127,5.127,0,0,1,1.968,2.048,6.88,6.88,0,0,1,0,6.1A5.127,5.127,0,0,1,87.1,54.5,5.559,5.559,0,0,1,84.256,55.224Zm0-1.984a3.062,3.062,0,0,0,2.5-1.056,4.88,4.88,0,0,0,0-5.568,3.5,3.5,0,0,0-5.008,0,4.88,4.88,0,0,0,0,5.568A3.062,3.062,0,0,0,84.256,53.24Zm7.312-9.44h2.016l4.784,7.232V43.8h2.048V55h-1.68l-5.12-7.68V55H91.568Z" transform="translate(633 1115)" fill="#042745"></path><path id="Path_2291" data-name="Path 2291" d="M18.888,12.344h-4.08L13.88,15H11.9L15.88,3.8h1.936L21.8,15H19.816Zm-.64-1.792-1.392-4-1.408,4Zm9.072,4.672a4.365,4.365,0,0,1-3.472-1.336A5.415,5.415,0,0,1,22.68,10.2V3.8h2.048V9.672a7.654,7.654,0,0,0,.208,1.944,2.168,2.168,0,0,0,.776,1.208,2.61,2.61,0,0,0,1.608.432,2.61,2.61,0,0,0,1.608-.432,2.168,2.168,0,0,0,.776-1.208,7.654,7.654,0,0,0,.208-1.944V3.8H31.96v6.4a5.415,5.415,0,0,1-1.168,3.688A4.365,4.365,0,0,1,27.32,15.224Zm9.152-9.44H33.3V3.8h8.384V5.784H38.52V15H36.472ZM43.16,3.8h2.048V8.232h5.12V3.8h2.048V15H50.328V10.152h-5.12V15H43.16ZM59.688,15.224a5.559,5.559,0,0,1-2.84-.728,5.127,5.127,0,0,1-1.968-2.048A6.321,6.321,0,0,1,54.168,9.4a6.321,6.321,0,0,1,.712-3.048A5.127,5.127,0,0,1,56.848,4.3a5.9,5.9,0,0,1,5.68,0A5.127,5.127,0,0,1,64.5,6.352,6.321,6.321,0,0,1,65.208,9.4a6.321,6.321,0,0,1-.712,3.048A5.127,5.127,0,0,1,62.528,14.5,5.559,5.559,0,0,1,59.688,15.224Zm0-1.984a3.062,3.062,0,0,0,2.5-1.056A4.232,4.232,0,0,0,63.064,9.4a4.232,4.232,0,0,0-.872-2.784,3.5,3.5,0,0,0-5.008,0A4.232,4.232,0,0,0,56.312,9.4a4.232,4.232,0,0,0,.872,2.784A3.062,3.062,0,0,0,59.688,13.24ZM67,3.8h4.1a4.292,4.292,0,0,1,2.824.856,3.105,3.105,0,0,1,1.032,2.536,3.383,3.383,0,0,1-.5,1.912A3.5,3.5,0,0,1,73.048,10.3L75.576,15H73.288l-2.16-4.16h-2.08V15H67Zm3.552,5.328q2.256,0,2.256-1.824A1.7,1.7,0,0,0,72.3,5.968a2.473,2.473,0,0,0-1.664-.456H69.048V9.128ZM77.016,3.8h2.048V15H77.016Zm6.576,9.376h5.28V15H80.424l5.36-9.376h-4.64V3.8h7.808ZM90.3,3.8h7.168V5.784H92.392V8.168h3.936v1.984H92.392v2.864h5.232V15H90.3Zm-66.16,20h4.192a5.959,5.959,0,0,1,2.856.672,4.791,4.791,0,0,1,1.96,1.936,6.054,6.054,0,0,1,.7,2.992,6.054,6.054,0,0,1-.7,2.992,4.791,4.791,0,0,1-1.96,1.936A5.959,5.959,0,0,1,28.328,35H24.136Zm4.192,9.376a3.007,3.007,0,0,0,2.44-1,4.189,4.189,0,0,0,.84-2.776,4.189,4.189,0,0,0-.84-2.776,3.007,3.007,0,0,0-2.44-1H26.184v7.552Zm12.944-.832h-4.08L36.264,35H34.28l3.984-11.2H40.2L44.184,35H42.2Zm-.64-1.792-1.392-4-1.408,4ZM54.728,35l-.96-7.5L50.9,32.648l-2.88-5.136L47.064,35H44.936l1.552-11.2h1.68L50.9,28.9l2.72-5.1H55.3L56.856,35ZM64.6,32.344H60.52L59.592,35H57.608l3.984-11.2h1.936L67.512,35H65.528Zm-.64-1.792-1.392-4-1.408,4Zm9.632,4.672a6.058,6.058,0,0,1-3.032-.72,4.786,4.786,0,0,1-1.944-2.04,6.7,6.7,0,0,1-.672-3.08,6.1,6.1,0,0,1,.744-3.048A5.154,5.154,0,0,1,70.76,24.3a6.276,6.276,0,0,1,3.04-.72,7.946,7.946,0,0,1,1.68.176,5.726,5.726,0,0,1,1.408.48l-.224,1.952a6.786,6.786,0,0,0-2.864-.64,3.391,3.391,0,0,0-2.7,1.048,4.054,4.054,0,0,0-.912,2.76,4.264,4.264,0,0,0,.9,2.84,3.2,3.2,0,0,0,2.592,1.064,7.624,7.624,0,0,0,1.536-.176v-2H73.672v-1.7h3.584v4.992a5.984,5.984,0,0,1-1.592.608A8.589,8.589,0,0,1,73.592,35.224ZM79.24,23.8h7.168v1.984H81.336v2.384h3.936v1.984H81.336v2.864h5.232V35H79.24Zm-55.488,20h4.192a5.959,5.959,0,0,1,2.856.672,4.791,4.791,0,0,1,1.96,1.936,6.71,6.71,0,0,1,0,5.984,4.791,4.791,0,0,1-1.96,1.936A5.959,5.959,0,0,1,27.944,55H23.752Zm4.192,9.376a3.007,3.007,0,0,0,2.44-1,4.189,4.189,0,0,0,.84-2.776,4.189,4.189,0,0,0-.84-2.776,3.007,3.007,0,0,0-2.44-1H25.8v7.552ZM35.272,43.8H42.44v1.984H37.368v2.384H41.3v1.984H37.368v2.864H42.6V55H35.272Zm9.088,0h3.984q3.984,0,3.984,3.616A3.57,3.57,0,0,1,51.32,50.2a4.224,4.224,0,0,1-2.928.912H46.408V55H44.36Zm3.792,5.6a2.256,2.256,0,0,0,1.576-.48,1.91,1.91,0,0,0,.52-1.472,1.867,1.867,0,0,0-.528-1.464,2.368,2.368,0,0,0-1.616-.472h-1.7V49.4Zm10.592,5.824A5.559,5.559,0,0,1,55.9,54.5a5.127,5.127,0,0,1-1.968-2.048,6.88,6.88,0,0,1,0-6.1A5.127,5.127,0,0,1,55.9,44.3a5.9,5.9,0,0,1,5.68,0,5.127,5.127,0,0,1,1.968,2.048,6.88,6.88,0,0,1,0,6.1A5.127,5.127,0,0,1,61.584,54.5,5.559,5.559,0,0,1,58.744,55.224Zm0-1.984a3.062,3.062,0,0,0,2.5-1.056,4.88,4.88,0,0,0,0-5.568,3.5,3.5,0,0,0-5.008,0,4.88,4.88,0,0,0,0,5.568A3.062,3.062,0,0,0,58.744,53.24ZM69.3,55.224a8.8,8.8,0,0,1-2.024-.256,8.049,8.049,0,0,1-1.688-.56l.24-2.176a8.734,8.734,0,0,0,3.712,1.024,2.329,2.329,0,0,0,1.328-.328,1.1,1.1,0,0,0,.48-.968,1.184,1.184,0,0,0-.264-.792,2.043,2.043,0,0,0-.76-.528q-.5-.216-1.584-.6a9.589,9.589,0,0,1-1.7-.744,3.068,3.068,0,0,1-1.064-1.008,2.761,2.761,0,0,1-.392-1.512,2.872,2.872,0,0,1,1.056-2.32,4.6,4.6,0,0,1,3.024-.88,8.356,8.356,0,0,1,1.848.208,11.445,11.445,0,0,1,1.688.512L73,46.392a12.621,12.621,0,0,0-1.816-.648,6.446,6.446,0,0,0-1.64-.216,2.617,2.617,0,0,0-1.392.3.98.98,0,0,0-.48.88,1.066,1.066,0,0,0,.256.736,1.964,1.964,0,0,0,.7.48q.44.192,1.3.464a7.817,7.817,0,0,1,2.824,1.4,2.757,2.757,0,0,1,.888,2.168,3.243,3.243,0,0,1-.912,2.288Q71.816,55.224,69.3,55.224ZM75.336,43.8h2.048V55H75.336Zm6.688,1.984H78.856V43.8H87.24v1.984H84.072V55H82.024Z" transform="translate(1176 1115)" fill="#042745"></path><path id="Path_2290" data-name="Path 2290" d="M-27.736.224A5.992,5.992,0,0,1-30.7-.5a5.1,5.1,0,0,1-2.024-2.04A6.242,6.242,0,0,1-33.448-5.6,6.134,6.134,0,0,1-32.7-8.664a5.181,5.181,0,0,1,2.056-2.04,6.083,6.083,0,0,1,2.976-.72,6.932,6.932,0,0,1,1.584.176,5.854,5.854,0,0,1,1.344.48l-.192,1.76a6.418,6.418,0,0,0-2.752-.656,3.771,3.771,0,0,0-2.024.52A3.306,3.306,0,0,0-30.984-7.7a4.9,4.9,0,0,0-.432,2.1,4.974,4.974,0,0,0,.424,2.1,3.272,3.272,0,0,0,1.256,1.44,3.729,3.729,0,0,0,2.016.52A6.03,6.03,0,0,0-26.3-1.7a7.64,7.64,0,0,0,1.368-.48l.192,1.744A6.73,6.73,0,0,1-27.736.224Zm9.44,0A5.6,5.6,0,0,1-21.144-.5a5.088,5.088,0,0,1-1.96-2.04A6.356,6.356,0,0,1-23.816-5.6,6.356,6.356,0,0,1-23.1-8.664a5.088,5.088,0,0,1,1.96-2.04,5.6,5.6,0,0,1,2.848-.72,5.6,5.6,0,0,1,2.848.72,5.088,5.088,0,0,1,1.96,2.04A6.356,6.356,0,0,1-12.776-5.6a6.356,6.356,0,0,1-.712,3.064A5.088,5.088,0,0,1-15.448-.5,5.6,5.6,0,0,1-18.3.224Zm0-1.792a3.212,3.212,0,0,0,2.632-1.12,4.439,4.439,0,0,0,.92-2.912,4.439,4.439,0,0,0-.92-2.912A3.212,3.212,0,0,0-18.3-9.632a3.235,3.235,0,0,0-2.64,1.12A4.414,4.414,0,0,0-21.864-5.6a4.414,4.414,0,0,0,.928,2.912A3.235,3.235,0,0,0-18.3-1.568Zm7.36-9.632H-9.08v9.536h4.8V0h-6.656Zm8,0H-1.08v9.536h4.8V0H-2.936Zm8,0H12.1v1.76H6.952v2.72H11v1.76H6.952v3.2h5.312V0h-7.2ZM18.952.224a5.992,5.992,0,0,1-2.96-.72,5.1,5.1,0,0,1-2.024-2.04A6.242,6.242,0,0,1,13.24-5.6a6.134,6.134,0,0,1,.744-3.064A5.181,5.181,0,0,1,16.04-10.7a6.083,6.083,0,0,1,2.976-.72,6.932,6.932,0,0,1,1.584.176,5.854,5.854,0,0,1,1.344.48l-.192,1.76A6.418,6.418,0,0,0,19-9.664a3.771,3.771,0,0,0-2.024.52A3.306,3.306,0,0,0,15.7-7.7a4.9,4.9,0,0,0-.432,2.1A4.974,4.974,0,0,0,15.7-3.5a3.272,3.272,0,0,0,1.256,1.44,3.729,3.729,0,0,0,2.016.52,6.03,6.03,0,0,0,1.416-.16,7.64,7.64,0,0,0,1.368-.48l.192,1.744A6.73,6.73,0,0,1,18.952.224ZM25.9-9.44H22.7V-11.2h8.256v1.76h-3.2V0H25.9Z" transform="translate(965 1130)" fill="#042745"></path><g id="event" transform="translate(401 1018.846)"><g id="Group_258" data-name="Group 258" transform="translate(14.47 56.669)"><g id="Group_257" data-name="Group 257" transform="translate(0 0)"><path id="Path_796" data-name="Path 796" d="M156.978,208.046a2.873,2.873,0,1,0,2.873,2.873A2.876,2.876,0,0,0,156.978,208.046Zm0,4.337a1.464,1.464,0,1,1,1.464-1.464A1.466,1.466,0,0,1,156.978,212.383Z" transform="translate(-154.105 -208.046)" fill="#009edb"></path></g></g><g id="Group_260" data-name="Group 260" transform="translate(21.959 56.669)"><g id="Group_259" data-name="Group 259" transform="translate(0 0)"><path id="Path_797" data-name="Path 797" d="M236.736,208.046a2.873,2.873,0,1,0,2.873,2.873A2.876,2.876,0,0,0,236.736,208.046Zm0,4.337a1.464,1.464,0,1,1,1.464-1.464A1.466,1.466,0,0,1,236.736,212.383Z" transform="translate(-233.863 -208.046)" fill="#009edb"></path></g></g><g id="Group_262" data-name="Group 262" transform="translate(29.448 56.669)"><g id="Group_261" data-name="Group 261" transform="translate(0 0)"><path id="Path_798" data-name="Path 798" d="M316.5,208.046a2.873,2.873,0,1,0,2.873,2.873A2.876,2.876,0,0,0,316.5,208.046Zm0,4.337a1.464,1.464,0,1,1,1.464-1.464A1.466,1.466,0,0,1,316.5,212.383Z" transform="translate(-313.623 -208.046)" fill="#009edb"></path></g></g><g id="Group_264" data-name="Group 264" transform="translate(14.47 63.676)"><g id="Group_263" data-name="Group 263" transform="translate(0 0)"><path id="Path_799" data-name="Path 799" d="M156.978,282.671a2.873,2.873,0,1,0,2.873,2.873A2.876,2.876,0,0,0,156.978,282.671Zm0,4.337a1.464,1.464,0,1,1,1.464-1.464A1.466,1.466,0,0,1,156.978,287.008Z" transform="translate(-154.105 -282.671)" fill="#009edb"></path></g></g><g id="Group_266" data-name="Group 266" transform="translate(29.448 63.676)"><g id="Group_265" data-name="Group 265" transform="translate(0 0)"><path id="Path_800" data-name="Path 800" d="M316.5,282.671a2.873,2.873,0,1,0,2.873,2.873A2.876,2.876,0,0,0,316.5,282.671Zm0,4.337a1.464,1.464,0,1,1,1.464-1.464A1.466,1.466,0,0,1,316.5,287.008Z" transform="translate(-313.623 -282.671)" fill="#009edb"></path></g></g><g id="Group_268" data-name="Group 268" transform="translate(21.959 63.676)"><g id="Group_267" data-name="Group 267" transform="translate(0 0)"><path id="Path_801" data-name="Path 801" d="M236.736,282.671a2.873,2.873,0,1,0,2.873,2.873A2.876,2.876,0,0,0,236.736,282.671Zm0,4.337a1.464,1.464,0,1,1,1.464-1.464A1.466,1.466,0,0,1,236.736,287.008Z" transform="translate(-233.863 -282.671)" fill="#009edb"></path></g></g><g id="Group_270" data-name="Group 270" transform="translate(21.959 70.683)"><g id="Group_269" data-name="Group 269" transform="translate(0 0)"><path id="Path_802" data-name="Path 802" d="M236.737,357.3a2.873,2.873,0,1,0,2.873,2.873A2.876,2.876,0,0,0,236.737,357.3Zm0,4.337a1.464,1.464,0,1,1,1.464-1.464A1.466,1.466,0,0,1,236.737,361.633Z" transform="translate(-233.864 -357.296)" fill="#009edb"></path></g></g><g id="Group_272" data-name="Group 272" transform="translate(14.47 70.683)"><g id="Group_271" data-name="Group 271" transform="translate(0 0)"><path id="Path_803" data-name="Path 803" d="M156.978,357.3a2.873,2.873,0,1,0,2.873,2.873A2.876,2.876,0,0,0,156.978,357.3Zm0,4.337a1.464,1.464,0,1,1,1.464-1.464A1.466,1.466,0,0,1,156.978,361.633Z" transform="translate(-154.105 -357.296)" fill="#009edb"></path></g></g><g id="Group_274" data-name="Group 274" transform="translate(7.616 57.304)"><g id="Group_273" data-name="Group 273" transform="translate(0 0)"><path id="Path_804" data-name="Path 804" d="M84.343,217.048l1.035-1.035a.7.7,0,0,0-1-1l-1.035,1.035-1.035-1.035a.7.7,0,0,0-1,1l1.035,1.035-1.035,1.035a.7.7,0,1,0,1,1l1.035-1.035,1.035,1.035a.7.7,0,0,0,1-1Z" transform="translate(-81.11 -214.811)" fill="#009edb"></path></g></g><g id="Group_276" data-name="Group 276" transform="translate(7.616 64.311)"><g id="Group_275" data-name="Group 275"><path id="Path_805" data-name="Path 805" d="M84.343,291.673l1.035-1.035a.7.7,0,0,0-1-1l-1.035,1.035-1.035-1.035a.7.7,0,0,0-1,1l1.035,1.035-1.035,1.035a.7.7,0,1,0,1,1l1.035-1.035,1.035,1.035a.7.7,0,0,0,1-1Z" transform="translate(-81.11 -289.436)" fill="#009edb"></path></g></g><g id="Group_278" data-name="Group 278" transform="translate(7.616 71.318)"><g id="Group_277" data-name="Group 277" transform="translate(0 0)"><path id="Path_806" data-name="Path 806" d="M85.377,367.332,84.342,366.3l1.035-1.035a.7.7,0,0,0-1-1L83.346,365.3l-1.035-1.035a.7.7,0,0,0-1,1L82.35,366.3l-1.035,1.035a.7.7,0,0,0,1,1l1.035-1.035,1.035,1.035a.7.7,0,0,0,1-1Z" transform="translate(-81.108 -364.059)" fill="#009edb"></path></g></g><g id="Group_280" data-name="Group 280" transform="translate(0 40.982)"><g id="Group_279" data-name="Group 279" transform="translate(0 0)"><path id="Path_807" data-name="Path 807" d="M48.035,76.686,46.114,66.578a.7.7,0,0,0-1.384.263l1.921,10.108a.973.973,0,0,1-1.021,1.1H35.208l6.76-6.76a.713.713,0,0,0,.206-.5v-17.4l1.931,10.164a.7.7,0,1,0,1.384-.263l-3.32-17.47a1.962,1.962,0,0,0-1.957-1.871H34.041V41.686a.7.7,0,1,0-1.408,0v2.264H27.916V41.686a.7.7,0,1,0-1.408,0v2.264H21.791V41.686a.7.7,0,1,0-1.408,0v2.264H15.666V41.686a.7.7,0,1,0-1.408,0v2.264H9.542V41.686a.7.7,0,1,0-1.408,0v2.264H1.961A1.964,1.964,0,0,0,0,45.912V79.4a1.963,1.963,0,0,0,1.961,1.961H19.444a.7.7,0,1,0,0-1.408H1.961a.553.553,0,0,1-.553-.553V53.095H40.766V70.087h-7.9A1.963,1.963,0,0,0,30.9,72.048v7.9H22.73a.7.7,0,0,0,0,1.408H31.6a.708.708,0,0,0,.5-.206l1.7-1.7H45.63A2.378,2.378,0,0,0,48.035,76.686Zm-46.626-25V45.912a.553.553,0,0,1,.553-.553H8.133v3.163a.7.7,0,1,0,1.408,0V45.359h4.716v3.163a.7.7,0,1,0,1.408,0V45.359h4.716v3.163a.7.7,0,1,0,1.408,0V45.359h4.717v3.163a.7.7,0,1,0,1.408,0V45.359h4.716v3.163a.7.7,0,1,0,1.408,0V45.359h6.172a.553.553,0,0,1,.553.553v5.774H1.409Zm30.9,27.271V72.048a.553.553,0,0,1,.553-.553H39.77Z" transform="translate(0 -40.982)" fill="#009edb"></path></g></g></g><g id="payment" transform="translate(667.999 1059.829)"><path id="Path_808" data-name="Path 808" d="M392.827,322.53h1.922a.6.6,0,0,0,0-1.2h-1.922a.6.6,0,0,0,0,1.2Zm0,0" transform="translate(-361.293 -295.987)" fill="#042745"></path><path id="Path_809" data-name="Path 809" d="M39.78,16.958H35.986V10.969A3.012,3.012,0,0,0,32.977,7.96H22.269V2.627A2.63,2.63,0,0,0,19.641,0H6.422A2.63,2.63,0,0,0,3.794,2.627v9.908A4.081,4.081,0,0,0,0,16.6s0,.007,0,.011V36.3a4.088,4.088,0,0,0,4.083,4.083h18.3a.6.6,0,1,0,0-1.2H4.084A2.885,2.885,0,0,1,1.2,36.3V19.5a4.07,4.07,0,0,0,2.882,1.194H26.761a2.355,2.355,0,0,1,2.353,2.353V36.825a2.356,2.356,0,0,1-2.353,2.353H24.39a.6.6,0,1,0,0,1.2h2.371a3.558,3.558,0,0,0,3.554-3.554v-1.9H39.78a.6.6,0,0,0,.6-.6V17.559a.6.6,0,0,0-.6-.6Zm-25.372,0V15.224H34.784v1.734Zm20.376-5.989V11.1H28.993a.6.6,0,0,0,0,1.2h5.791v1.719H14.408V12.3H26.992a.6.6,0,0,0,0-1.2H14.408v-.32a1.624,1.624,0,0,1,1.621-1.622H32.977a1.809,1.809,0,0,1,1.807,1.808ZM5,2.627A1.428,1.428,0,0,1,6.422,1.2H19.641a1.428,1.428,0,0,1,1.427,1.426V7.96H20.58V5.169a1.625,1.625,0,0,0-1.624-1.623H7.106A1.625,1.625,0,0,0,5.483,5.169V7.3a.6.6,0,0,0,1.2,0V5.169a.422.422,0,0,1,.422-.422h11.85a.423.423,0,0,1,.423.422V7.96h-3.35a2.826,2.826,0,0,0-2.823,2.823v6.175H10.64a.6.6,0,0,0-.6.6v1.93H6.684V9.251a.6.6,0,0,0-1.2,0V19.488H5ZM1.2,16.607a2.882,2.882,0,0,1,2.592-2.868v5.735A2.886,2.886,0,0,1,1.2,16.607Zm28.211,4.074h4.194a3.71,3.71,0,0,0,3.051,3.051v4.423A3.709,3.709,0,0,0,33.607,31.2H30.315V23.043a3.538,3.538,0,0,0-.9-2.362Zm9.766,13.045H30.315v-1.32h3.844a.6.6,0,0,0,.6-.6,2.5,2.5,0,0,1,2.5-2.5.6.6,0,0,0,.6-.6V23.179a.6.6,0,0,0-.6-.6,2.5,2.5,0,0,1-2.5-2.5.6.6,0,0,0-.6-.6l-22.919.009V18.159H39.179Zm0,0" transform="translate(0 0)" fill="#042745"></path><path id="Path_810" data-name="Path 810" d="M464.861,247.848a.6.6,0,1,0,.235-.738A.6.6,0,0,0,464.861,247.848Zm0,0" transform="translate(-428.157 -227.539)" fill="#042745"></path><path id="Path_811" data-name="Path 811" d="M465.956,396.038a.6.6,0,1,0-.222.729A.605.605,0,0,0,465.956,396.038Zm0,0" transform="translate(-428.143 -364.464)" fill="#042745"></path><path id="Path_812" data-name="Path 812" d="M274.4,343.9a2.882,2.882,0,1,0-2.882,2.882A2.886,2.886,0,0,0,274.4,343.9Zm-4.563,0a1.681,1.681,0,1,1,1.681,1.681A1.683,1.683,0,0,1,269.841,343.9Zm0,0" transform="translate(-247.453 -314.125)" fill="#042745"></path></g><g id="card" transform="translate(946 1063.479)"><path id="Path_813" data-name="Path 813" d="M33.67,0H3.185A3.189,3.189,0,0,0,0,3.186v18.37a3.189,3.189,0,0,0,3.185,3.186H33.67a3.189,3.189,0,0,0,3.186-3.186V3.186A3.189,3.189,0,0,0,33.67,0Zm2.091,21.555a2.093,2.093,0,0,1-2.091,2.091H3.185a2.093,2.093,0,0,1-2.091-2.091V3.186A2.093,2.093,0,0,1,3.185,1.095H33.67a2.093,2.093,0,0,1,2.091,2.091Zm0,0" transform="translate(0)" fill="#042745"></path><path id="Path_814" data-name="Path 814" d="M56.844,60.832h-12.7a.547.547,0,0,0-.547.547v1.313a.547.547,0,0,0,1.095,0v-.766H56.3V75.282h-11.6v-10.4a.547.547,0,1,0-1.095,0V75.829a.548.548,0,0,0,.547.547h12.7a.548.548,0,0,0,.547-.547V61.379a.547.547,0,0,0-.547-.547Zm0,0" transform="translate(-40.459 -56.453)" fill="#042745"></path><path id="Path_815" data-name="Path 815" d="M278.89,78.465H265.169a.547.547,0,1,0,0,1.095H278.89a.547.547,0,0,0,0-1.095Zm0,0" transform="translate(-245.573 -72.817)" fill="#042745"></path><path id="Path_816" data-name="Path 816" d="M416.261,133.625H413.2a.547.547,0,0,0,0,1.095h3.065a.547.547,0,0,0,0-1.095Zm0,0" transform="translate(-382.944 -124.006)" fill="#042745"></path><path id="Path_817" data-name="Path 817" d="M265.169,134.72h8.466a.547.547,0,1,0,0-1.095h-8.466a.547.547,0,1,0,0,1.095Zm0,0" transform="translate(-245.573 -124.006)" fill="#042745"></path><path id="Path_818" data-name="Path 818" d="M278.89,188.785H265.169a.547.547,0,1,0,0,1.095H278.89a.547.547,0,0,0,0-1.095Zm0,0" transform="translate(-245.573 -175.195)" fill="#042745"></path><path id="Path_819" data-name="Path 819" d="M272.613,243.945h-7.444a.547.547,0,1,0,0,1.095h7.444a.547.547,0,0,0,0-1.095Zm0,0" transform="translate(-245.573 -226.385)" fill="#042745"></path><path id="Path_820" data-name="Path 820" d="M86.18,110.771a.547.547,0,0,0,1.095,0,2.737,2.737,0,1,1,5.474,0,.547.547,0,0,0,1.095,0,3.833,3.833,0,0,0-1.86-3.284,3.832,3.832,0,1,0-3.942,0,3.833,3.833,0,0,0-1.861,3.284Zm1.095-6.569a2.737,2.737,0,1,1,2.737,2.737A2.74,2.74,0,0,1,87.275,104.2Zm0,0" transform="translate(-79.976 -93.146)" fill="#042745"></path></g><g id="act" transform="translate(1152 1051.33)"><path id="Path_821" data-name="Path 821" d="M91.141,0H71.58a.64.64,0,0,0-.082.01h0a.641.641,0,0,0-.085.023L71.4.041a.646.646,0,0,0-.076.033l0,0a.651.651,0,0,0-.073.046l-.015.012a.662.662,0,0,0-.066.057h0l-6.97,6.97h0a.659.659,0,0,0-.057.066l-.012.016a.655.655,0,0,0-.046.073l0,.005a.658.658,0,0,0-.033.075l-.006.015a.643.643,0,0,0-.023.084v0a.675.675,0,0,0-.01.08c0,.008,0,.015,0,.023s0,.014,0,.022V38.293a2.05,2.05,0,0,0,2.048,2.048H91.141a2.05,2.05,0,0,0,2.048-2.048V2.048A2.05,2.05,0,0,0,91.141,0ZM70.97,2.231v4a.741.741,0,0,1-.741.741h-4ZM91.881,38.293a.741.741,0,0,1-.741.741H66.048a.741.741,0,0,1-.741-.741V8.277H70.23A2.05,2.05,0,0,0,72.277,6.23V1.307H91.141a.741.741,0,0,1,.741.741Z" fill="#042745"></path><path id="Path_822" data-name="Path 822" d="M128.653,201.307h16.729a.653.653,0,0,0,0-1.307H128.653a.653.653,0,0,0,0,1.307Z" transform="translate(-58.424 -182.574)" fill="#042745"></path><path id="Path_823" data-name="Path 823" d="M128.653,241.307h16.729a.653.653,0,1,0,0-1.307H128.653a.653.653,0,0,0,0,1.307Z" transform="translate(-58.424 -219.089)" fill="#042745"></path><path id="Path_824" data-name="Path 824" d="M128.653,281.307h8.364a.653.653,0,0,0,0-1.307h-8.364a.653.653,0,0,0,0,1.307Z" transform="translate(-58.424 -255.604)" fill="#042745"></path><path id="Path_825" data-name="Path 825" d="M137.671,320.653a.653.653,0,0,0-.653-.653h-8.364a.653.653,0,0,0,0,1.307h8.364A.653.653,0,0,0,137.671,320.653Z" transform="translate(-58.424 -292.119)" fill="#042745"></path><path id="Path_826" data-name="Path 826" d="M257.307,55.1a.653.653,0,1,0-1.307,0c0,1.274,1.181,2.3,2.788,2.525v.089a.653.653,0,1,0,1.307,0v-.089c1.607-.222,2.788-1.251,2.788-2.525s-1.181-2.3-2.788-2.525v-2.5c.787.164,1.481.61,1.481,1.194a.653.653,0,0,0,1.307,0c0-1.274-1.181-2.3-2.788-2.525v-.089a.653.653,0,1,0-1.307,0v.089c-1.607.222-2.788,1.251-2.788,2.525s1.181,2.3,2.788,2.525v2.5C258,56.131,257.307,55.686,257.307,55.1Zm4.269,0c0,.585-.694,1.03-1.481,1.194V53.907C260.882,54.071,261.576,54.516,261.576,55.1Zm-4.269-3.834c0-.585.694-1.03,1.481-1.194v2.389C258,52.3,257.307,51.852,257.307,51.267Z" transform="translate(-175.271 -43.818)" fill="#042745"></path><path id="Path_827" data-name="Path 827" d="M214.577,319.6a.653.653,0,0,0-.89.248l-1.344,2.378-.184-.142a.654.654,0,0,0-.985.228l-.679,1.374-.218-.25a1.35,1.35,0,0,0-2.293.445l-.75,2.158-1.784-2.253a.653.653,0,0,0-.942-.087l-1.894,1.652a.653.653,0,1,0,.859.985l1.378-1.2,1.7,2.152a1,1,0,0,0,1.732-.293l.932-2.682a.038.038,0,0,1,.033-.029.038.038,0,0,1,.041.014l.862.989a.653.653,0,0,0,1.078-.14l.76-1.539.149.115a.653.653,0,0,0,.968-.2l1.714-3.034A.654.654,0,0,0,214.577,319.6Z" transform="translate(-126.333 -291.678)" fill="#042745"></path></g><g id="social-media" transform="translate(1480.062 1054.439)"><path id="Path_828" data-name="Path 828" d="M11.292,18.9l-2.187-.007a.1.1,0,0,1-.1-.1V7.9a.683.683,0,0,0-.377-.611l-2.48-1.24,2.48-1.24A.683.683,0,0,0,9,4.2V1.466a.1.1,0,0,1,.1-.1h30.2a.1.1,0,0,1,.1.1V16.85a.683.683,0,1,0,1.366,0V1.466A1.468,1.468,0,0,0,39.309,0H9.105A1.468,1.468,0,0,0,7.639,1.466V3.775L4.315,5.437a.683.683,0,0,0,0,1.221L7.639,8.321v10.47A1.468,1.468,0,0,0,9.1,20.257l2.185.007a.683.683,0,0,0,0-1.366Z" fill="#009edb"></path><path id="Path_829" data-name="Path 829" d="M139.831,77.959a3.5,3.5,0,0,0-3.495-3.495h-8.548a20.773,20.773,0,0,0,2.329-9.838,3.495,3.495,0,1,0-6.989,0,9.849,9.849,0,0,1-9.838,9.838h-5.415a.683.683,0,0,0-.683.683V97.641a.683.683,0,0,0,.683.683h5.415a.683.683,0,0,0,.683-.683V75.809a11.217,11.217,0,0,0,10.521-11.182,2.129,2.129,0,1,1,4.258,0,18.78,18.78,0,0,1-2.736,10.148.683.683,0,0,0,.572,1.056h9.749a2.129,2.129,0,0,1,0,4.258h-3.455a.683.683,0,1,0,0,1.366h2.3a2.129,2.129,0,0,1,0,4.258h-2.3a.683.683,0,1,0,0,1.366h1.152a2.129,2.129,0,1,1,0,4.258h-1.152a.683.683,0,1,0,0,1.366,2.129,2.129,0,1,1,0,4.258h-16.86a.683.683,0,0,0,0,1.366h16.86a3.493,3.493,0,0,0,2.527-5.906,3.492,3.492,0,0,0,1.152-5.623,3.492,3.492,0,0,0,1.152-5.623A3.5,3.5,0,0,0,139.831,77.959Zm-27.224,19h-4.05V75.83h4.05Z" transform="translate(-93.853 -55.566)" fill="#009edb"></path><path id="Path_830" data-name="Path 830" d="M353.231,255.287V238.256a.683.683,0,0,0-1.366,0v17.031a.683.683,0,0,0,1.366,0Z" transform="translate(-316.251 -215.944)" fill="#009edb"></path></g><path id="Path_831" data-name="Path 831" d="M2410,2241.357v111.285h346.036" transform="translate(-1992.273 -962)" fill="none" stroke="#009edb" stroke-width="3" stroke-dasharray="3"></path><path id="Path_832" data-name="Path 832" d="M2876.018,2241.357v111.285H2506.864" transform="translate(-1371.273 -962)" fill="none" stroke="#009edb" stroke-width="3" stroke-dasharray="3"></path><path id="Path_833" data-name="Path 833" d="M12.439,0l3.6,16.037L0,12.439Z" transform="translate(752.886 1391) rotate(-45)" fill="#009edb"></path><g id="Component_10_26" data-name="Component 10 – 26" transform="translate(804.727 1128)" opacity="0.28"><path id="Path_876" data-name="Path 876" d="M2820,2352.643h36.018" transform="translate(-2820 -2341.66)" fill="none" stroke="#042745" stroke-width="3" stroke-dasharray="3"></path><path id="Path_877" data-name="Path 877" d="M12.439,0l3.6,16.037L0,12.439Z" transform="translate(18.16 11.34) rotate(-45)" fill="#042745"></path></g><g id="Component_10_27" data-name="Component 10 – 27" transform="translate(1081.727 1128)" opacity="0.28"><path id="Path_876-2" data-name="Path 876" d="M2820,2352.643h36.018" transform="translate(-2820 -2341.66)" fill="none" stroke="#042745" stroke-width="3" stroke-dasharray="3"></path><path id="Path_877-2" data-name="Path 877" d="M12.439,0l3.6,16.037L0,12.439Z" transform="translate(18.16 11.34) rotate(-45)" fill="#042745"></path></g><g id="Component_10_28" data-name="Component 10 – 28" transform="translate(1347.727 1128)" opacity="0.28"><path id="Path_876-3" data-name="Path 876" d="M2820,2352.643h36.018" transform="translate(-2820 -2341.66)" fill="none" stroke="#042745" stroke-width="3" stroke-dasharray="3"></path><path id="Path_877-3" data-name="Path 877" d="M12.439,0l3.6,16.037L0,12.439Z" transform="translate(18.16 11.34) rotate(-45)" fill="#042745"></path></g><path id="Path_834" data-name="Path 834" d="M12.439,0l3.6,16.037L0,12.439Z" transform="translate(1505.227 1298.34) rotate(-135)" fill="#009edb"></path><g id="Component_9_36" data-name="Component 9 – 36" transform="translate(342 1008)" clip-path="url(#clip-path)"><path id="Subtraction_24-5" data-name="Subtraction 24" d="M2241.654,257H2118a20,20,0,0,1-20-20V20a20,20,0,0,1,20-20h123.655a20,20,0,0,1,20,20V237a20,20,0,0,1-20,20Zm-61.928-34a10,10,0,1,0,10,10A10.011,10.011,0,0,0,2179.726,223ZM2112,30a4.005,4.005,0,0,0-4,4V208a4.005,4.005,0,0,0,4,4h135a4,4,0,0,0,4-4V34a4,4,0,0,0-4-4Zm96.226-14a1.5,1.5,0,1,0,1.5,1.5A1.5,1.5,0,0,0,2208.227,16Zm-54,0a1.5,1.5,0,1,0,0,3h48a1.5,1.5,0,1,0,0-3Zm26-9a2.5,2.5,0,1,0,2.5,2.5A2.5,2.5,0,0,0,2180.227,7Z" transform="translate(-2098)" fill="#009edb"></path></g><g id="Component_10_29" data-name="Component 10 – 29" transform="translate(536.727 1128)" opacity="0.28"><path id="Path_876-4" data-name="Path 876" d="M2820,2352.643h36.018" transform="translate(-2820 -2341.66)" fill="none" stroke="#042745" stroke-width="3" stroke-dasharray="3"></path><path id="Path_877-4" data-name="Path 877" d="M12.439,0l3.6,16.037L0,12.439Z" transform="translate(18.16 11.34) rotate(-45)" fill="#042745"></path></g><g id="Group_451" data-name="Group 451"><g id="Group_11" data-name="Group 11" transform="translate(908.45 1345.634)"><g id="Group_9" data-name="Group 9" transform="translate(0 0.001)"><path id="Path_158" data-name="Path 158" d="M-130.873,1036.715H-167.31c-2.461.016-3.311,2.162-2.014,4.5l9.52,17.176a8.348,8.348,0,0,0,6.8,3.953l36.355,0c2.461-.016,3.4-1.9,2.1-4.245l-9.521-17.176A8.642,8.642,0,0,0-130.873,1036.715Z" transform="translate(169.937 -1005.456)" fill="#042745"></path><path id="Path_159" data-name="Path 159" d="M-153.045,950.911h36.437c2.461.016,3.311,2.162,2.013,4.5l-9.52,17.176a8.348,8.348,0,0,1-6.8,3.954l-36.355,0c-2.46-.016-3.4-1.9-2.1-4.245l9.52-17.176A8.644,8.644,0,0,1-153.045,950.911Z" transform="translate(169.952 -950.911)" fill="#009edb"></path><path id="Path_160" data-name="Path 160" d="M-107.305,972.3l-45.385-.058,2.9-5.224h45.418Z" transform="translate(158.979 -961.15)" fill="#fff"></path><path id="Path_161" data-name="Path 161" d="M-123.079,1087.406l-2.587-2.989a2.221,2.221,0,0,0-1.554-.783l-5.734-.324a.3.3,0,0,0-.216.506l3.011,3.479a1.342,1.342,0,0,0,.983.475l5.889.141A.3.3,0,0,0-123.079,1087.406Z" transform="translate(146.618 -1035.077)" fill="#fff"></path></g><g id="Group_10" data-name="Group 10" transform="translate(64.718)"><path id="Path_162" data-name="Path 162" d="M9.693,950.907H20.076a8.872,8.872,0,0,1,7.6,4.165l12.4,20.379a1.664,1.664,0,0,1-1.514,2.495H26.455a7.832,7.832,0,0,1-6.814-3.845l-11.7-20.389A1.9,1.9,0,0,1,9.693,950.907Z" transform="translate(-7.694 -950.907)" fill="#009edb"></path><path id="Path_163" data-name="Path 163" d="M9.693,1059.892H20.076a8.872,8.872,0,0,0,7.6-4.166l12.4-20.38a1.664,1.664,0,0,0-1.514-2.495H26.455a7.832,7.832,0,0,0-6.814,3.845l-11.7,20.39A1.9,1.9,0,0,0,9.693,1059.892Z" transform="translate(-7.694 -1002.999)" fill="#042745"></path></g></g><path id="Path_2106" data-name="Path 2106" d="M8.448.264A6.811,6.811,0,0,0,14.7-3.344l-2.684-1.3A3.978,3.978,0,0,1,8.448-2.508,4.548,4.548,0,0,1,3.96-7.326a4.548,4.548,0,0,1,4.488-4.818,4.019,4.019,0,0,1,3.564,2.134L14.7-11.33a6.771,6.771,0,0,0-6.248-3.586,7.428,7.428,0,0,0-7.7,7.59A7.428,7.428,0,0,0,8.448.264ZM26.62,0h3.146V-14.674H26.62V-8.91H19.69v-5.764H16.566V0H19.69V-6.16h6.93Zm16.3,0h3.41L40.678-14.674H36.762L31.086,0h3.432l.924-2.53H42Zm-4.2-11.968,2.42,6.732H36.278ZM55.99,0h3.586l-3.3-5.588a4.211,4.211,0,0,0,3.212-4.356,4.57,4.57,0,0,0-4.928-4.73H47.7V0H50.82V-5.258h2.288ZM56.3-9.966a2.025,2.025,0,0,1-2.2,2.024H50.82V-11.99H54.1A2.025,2.025,0,0,1,56.3-9.966Zm4.84,2.64A7.472,7.472,0,0,0,68.948.286,8.145,8.145,0,0,0,75.2-2.486V-8.1h-7v2.684h3.916V-3.63a4.957,4.957,0,0,1-3.168,1.122,4.57,4.57,0,0,1-4.6-4.818,4.57,4.57,0,0,1,4.6-4.818A4.164,4.164,0,0,1,72.424-10.3l2.6-1.408a6.874,6.874,0,0,0-6.072-3.212C64.658-14.916,61.138-11.968,61.138-7.326ZM77.682,0H88.066V-2.706h-7.26v-3.41h7.106V-8.8H80.806v-3.19h7.26v-2.684H77.682Zm28.732,0h3.41L104.17-14.674h-3.916L94.578,0H98.01l.924-2.53h6.556Zm-4.2-11.968,2.42,6.732H99.77Zm8.25,6.116c0,3.608,2.09,6.116,6.578,6.116,4.444,0,6.534-2.486,6.534-6.138v-8.8h-3.168v8.712a3.123,3.123,0,0,1-3.366,3.454,3.135,3.135,0,0,1-3.41-3.454v-8.712h-3.168ZM129.866,0h3.146V-11.924h4.268v-2.75h-11.7v2.75h4.29Zm8.184-7.326a7.367,7.367,0,0,0,7.656,7.59,7.373,7.373,0,0,0,7.678-7.59,7.373,7.373,0,0,0-7.678-7.59A7.367,7.367,0,0,0,138.05-7.326Zm12.122,0c0,2.728-1.76,4.818-4.466,4.818s-4.444-2.09-4.444-4.818c0-2.75,1.738-4.818,4.444-4.818S150.172-10.076,150.172-7.326ZM168.344,0h3.146V-14.674h-4.4l-3.564,9.152-3.564-9.152h-4.378V0h3.124V-10.56L162.844,0h1.364l4.136-10.56Zm16.324,0h3.41l-5.654-14.674h-3.916L172.832,0h3.432l.924-2.53h6.556Zm-4.2-11.968,2.42,6.732h-4.862ZM191.422,0h3.146V-11.924h4.268v-2.75h-11.7v2.75h4.29Zm9.416,0h3.124V-14.674h-3.124Zm5.324-7.326a7.367,7.367,0,0,0,7.656,7.59,7.373,7.373,0,0,0,7.678-7.59,7.373,7.373,0,0,0-7.678-7.59A7.367,7.367,0,0,0,206.162-7.326Zm12.122,0c0,2.728-1.76,4.818-4.466,4.818s-4.444-2.09-4.444-4.818c0-2.75,1.738-4.818,4.444-4.818S218.284-10.076,218.284-7.326ZM233.816,0h3.014V-14.674h-3.124v9.5l-6.8-9.5H223.7V0h3.124V-9.856Z" transform="translate(838.45 1441)" fill="#042745"></path></g><path id="Path_2289" data-name="Path 2289" d="M.78-7H1.94V0H.78ZM3.5-7H6.11a3.746,3.746,0,0,1,1.8.42A3,3,0,0,1,9.13-5.37,3.784,3.784,0,0,1,9.57-3.5a3.784,3.784,0,0,1-.44,1.87A3,3,0,0,1,7.9-.42,3.746,3.746,0,0,1,6.11,0H3.5ZM6.11-1.04a2.026,2.026,0,0,0,1.63-.655A2.689,2.689,0,0,0,8.3-3.5a2.689,2.689,0,0,0-.56-1.8A2.026,2.026,0,0,0,6.11-5.96H4.66v4.92ZM14.83.24a2.786,2.786,0,0,1-1.265-.26,1.85,1.85,0,0,1-.775-.69,1.8,1.8,0,0,1-.26-.95,1.92,1.92,0,0,1,.32-1.09,3.753,3.753,0,0,1,.92-.92,2.755,2.755,0,0,1-.75-1.7,1.514,1.514,0,0,1,.26-.885,1.688,1.688,0,0,1,.69-.575,2.178,2.178,0,0,1,.93-.2,1.788,1.788,0,0,1,1.235.39,1.317,1.317,0,0,1,.435,1.03,1.4,1.4,0,0,1-.2.745,2.477,2.477,0,0,1-.51.595q-.3.26-.805.61l1.58,1.73a5.323,5.323,0,0,0,.21-1.59h1.05a5.043,5.043,0,0,1-.55,2.39L18.33,0H17.08l-.36-.38a2.8,2.8,0,0,1-.845.465A3.236,3.236,0,0,1,14.83.24Zm-.25-4.47a4.084,4.084,0,0,0,.76-.64.956.956,0,0,0,.24-.64.6.6,0,0,0-.185-.48.762.762,0,0,0-.515-.16.785.785,0,0,0-.565.215.8.8,0,0,0-.225.605A1.808,1.808,0,0,0,14.58-4.23Zm.36,3.61a1.679,1.679,0,0,0,1.21-.43l-1.85-2a1.7,1.7,0,0,0-.63,1.3,1.142,1.142,0,0,0,.3.805A1.266,1.266,0,0,0,14.94-.62Zm9.65.76a3.745,3.745,0,0,1-1.85-.45,3.19,3.19,0,0,1-1.265-1.275A3.9,3.9,0,0,1,21.02-3.5a3.834,3.834,0,0,1,.465-1.915A3.238,3.238,0,0,1,22.77-6.69a3.8,3.8,0,0,1,1.86-.45,4.332,4.332,0,0,1,.99.11,3.659,3.659,0,0,1,.84.3l-.12,1.1a4.011,4.011,0,0,0-1.72-.41,2.357,2.357,0,0,0-1.265.325,2.066,2.066,0,0,0-.8.9A3.06,3.06,0,0,0,22.29-3.5a3.109,3.109,0,0,0,.265,1.315,2.045,2.045,0,0,0,.785.9A2.331,2.331,0,0,0,24.6-.96a3.769,3.769,0,0,0,.885-.1,4.775,4.775,0,0,0,.855-.3l.12,1.09A4.206,4.206,0,0,1,24.59.14Zm2.75-5.1h1.01l.06.63a2.224,2.224,0,0,1,.62-.53,1.451,1.451,0,0,1,.73-.2,1.347,1.347,0,0,1,.22.02L29.89-3.9a1.281,1.281,0,0,0-.38-.05,1.3,1.3,0,0,0-.62.155.99.99,0,0,0-.41.365V0H27.34ZM32.88.1a2.88,2.88,0,0,1-1.465-.35,2.31,2.31,0,0,1-.915-.945,2.824,2.824,0,0,1-.31-1.325A2.831,2.831,0,0,1,30.475-3.8a2.2,2.2,0,0,1,.84-.915,2.448,2.448,0,0,1,1.305-.34,2.283,2.283,0,0,1,1.145.275,1.854,1.854,0,0,1,.74.755,2.309,2.309,0,0,1,.255,1.1,2.592,2.592,0,0,1-.07.61H31.35a1.587,1.587,0,0,0,.535,1.12,1.732,1.732,0,0,0,1.1.35,2.954,2.954,0,0,0,1.47-.37l.08.93A3.659,3.659,0,0,1,32.88.1Zm.74-3.17a1.117,1.117,0,0,0-.25-.74.933.933,0,0,0-.76-.3,1.177,1.177,0,0,0-1.22,1.04ZM40.11-7.5V0H39.08l-.05-.42A2.014,2.014,0,0,1,37.62.1a2.138,2.138,0,0,1-1.21-.345,2.265,2.265,0,0,1-.8-.93,2.961,2.961,0,0,1-.28-1.3A3.016,3.016,0,0,1,35.6-3.76a2.271,2.271,0,0,1,.79-.94,2.127,2.127,0,0,1,1.225-.35,2.033,2.033,0,0,1,1.37.48V-7.5ZM37.79-.84a1.135,1.135,0,0,0,.935-.43,1.87,1.87,0,0,0,.345-1.2,1.877,1.877,0,0,0-.35-1.2,1.129,1.129,0,0,0-.93-.44,1.145,1.145,0,0,0-.96.455,1.89,1.89,0,0,0-.35,1.185A1.873,1.873,0,0,0,36.83-1.3,1.145,1.145,0,0,0,37.79-.84ZM41.28-7H42.4v1.15H41.28Zm0,2.04H42.4V0H41.28ZM45.23.1a1.261,1.261,0,0,1-.985-.37,1.28,1.28,0,0,1-.335-.89v-2.9h-.75l.1-.9h.65V-6.1l1.12-.12v1.26H46.2v.9H45.03v2.38a2.427,2.427,0,0,0,.05.6A.3.3,0,0,0,45.3-.86a2.368,2.368,0,0,0,.6.05h.3l-.1.91Zm7.35.04a3.745,3.745,0,0,1-1.85-.45,3.19,3.19,0,0,1-1.265-1.275A3.9,3.9,0,0,1,49.01-3.5a3.834,3.834,0,0,1,.465-1.915A3.238,3.238,0,0,1,50.76-6.69a3.8,3.8,0,0,1,1.86-.45,4.332,4.332,0,0,1,.99.11,3.659,3.659,0,0,1,.84.3l-.12,1.1a4.011,4.011,0,0,0-1.72-.41,2.357,2.357,0,0,0-1.265.325,2.066,2.066,0,0,0-.795.9A3.06,3.06,0,0,0,50.28-3.5a3.109,3.109,0,0,0,.265,1.315,2.045,2.045,0,0,0,.785.9,2.331,2.331,0,0,0,1.26.325,3.769,3.769,0,0,0,.885-.1,4.775,4.775,0,0,0,.855-.3l.12,1.09A4.206,4.206,0,0,1,52.58.14ZM56.46.1A1.448,1.448,0,0,1,55.4-.305,1.421,1.421,0,0,1,54.99-1.37a1.3,1.3,0,0,1,.46-1.04,2.725,2.725,0,0,1,1.1-.555A5.918,5.918,0,0,1,57.84-3.15a.994.994,0,0,0-.23-.725,1.056,1.056,0,0,0-.73-.2,2.189,2.189,0,0,0-.635.1,3.882,3.882,0,0,0-.7.3l-.12-.91a3.633,3.633,0,0,1,1.77-.46,1.7,1.7,0,0,1,1.34.495,2.442,2.442,0,0,1,.44,1.635v1.23a3.212,3.212,0,0,0,.035.565.384.384,0,0,0,.13.245.543.543,0,0,0,.315.07h.14L59.46.1h-.31A1.447,1.447,0,0,1,58.4-.06a1.146,1.146,0,0,1-.425-.47,1.834,1.834,0,0,1-.66.46A2.176,2.176,0,0,1,56.46.1Zm.4-.87A1.269,1.269,0,0,0,57.385-.9a1.336,1.336,0,0,0,.465-.345V-2.39a2.961,2.961,0,0,0-1.235.27.756.756,0,0,0-.465.7Q56.15-.77,56.86-.77Zm3.41-4.19h1.01l.06.63a2.224,2.224,0,0,1,.62-.53,1.451,1.451,0,0,1,.73-.2,1.347,1.347,0,0,1,.22.02L62.82-3.9a1.281,1.281,0,0,0-.38-.05,1.3,1.3,0,0,0-.62.155.99.99,0,0,0-.41.365V0H60.27ZM67.9-7.5V0H66.87l-.05-.42A2.014,2.014,0,0,1,65.41.1,2.138,2.138,0,0,1,64.2-.245a2.265,2.265,0,0,1-.8-.93,2.961,2.961,0,0,1-.28-1.3A3.016,3.016,0,0,1,63.4-3.76a2.271,2.271,0,0,1,.79-.94,2.127,2.127,0,0,1,1.225-.35,2.033,2.033,0,0,1,1.37.48V-7.5ZM65.58-.84a1.135,1.135,0,0,0,.935-.43,1.87,1.87,0,0,0,.345-1.2,1.877,1.877,0,0,0-.35-1.2,1.129,1.129,0,0,0-.93-.44,1.145,1.145,0,0,0-.96.455,1.89,1.89,0,0,0-.35,1.185A1.873,1.873,0,0,0,64.62-1.3,1.145,1.145,0,0,0,65.58-.84Zm7.95.98a5.688,5.688,0,0,1-1.26-.15,4.978,4.978,0,0,1-1.05-.34l.14-1.23a5.544,5.544,0,0,0,2.35.62,1.647,1.647,0,0,0,.92-.22.74.74,0,0,0,.33-.66.831.831,0,0,0-.175-.55,1.429,1.429,0,0,0-.515-.365,10.514,10.514,0,0,0-1.01-.375,5.813,5.813,0,0,1-1.08-.455,1.982,1.982,0,0,1-.685-.63,1.712,1.712,0,0,1-.255-.965A1.751,1.751,0,0,1,71.9-6.6a2.876,2.876,0,0,1,1.875-.54,5.379,5.379,0,0,1,1.18.13,5.5,5.5,0,0,1,1.03.33l-.12,1.2a6.522,6.522,0,0,0-1.115-.43A3.966,3.966,0,0,0,73.7-6.05a1.765,1.765,0,0,0-.93.2.685.685,0,0,0-.33.625.74.74,0,0,0,.165.5,1.25,1.25,0,0,0,.46.325q.295.13.855.31a4.9,4.9,0,0,1,1.765.865A1.708,1.708,0,0,1,76.25-1.87a1.881,1.881,0,0,1-.62,1.43A3.043,3.043,0,0,1,73.53.14ZM79.43.1a2.75,2.75,0,0,1-1.4-.34,2.238,2.238,0,0,1-.885-.92,2.787,2.787,0,0,1-.3-1.3,2.933,2.933,0,0,1,.295-1.33,2.183,2.183,0,0,1,.885-.93,2.885,2.885,0,0,1,1.46-.34,2.837,2.837,0,0,1,1.34.31l-.12.92a2.628,2.628,0,0,0-1.15-.28,1.508,1.508,0,0,0-1.16.44,1.676,1.676,0,0,0-.41,1.19,1.7,1.7,0,0,0,.41,1.19,1.464,1.464,0,0,0,1.14.45,2.343,2.343,0,0,0,1.18-.32l.12.93a2.39,2.39,0,0,1-.63.24A3.247,3.247,0,0,1,79.43.1Zm3.35,0a1.448,1.448,0,0,1-1.055-.405A1.421,1.421,0,0,1,81.31-1.37a1.3,1.3,0,0,1,.46-1.04,2.725,2.725,0,0,1,1.105-.555A5.918,5.918,0,0,1,84.16-3.15a.994.994,0,0,0-.23-.725,1.056,1.056,0,0,0-.73-.2,2.188,2.188,0,0,0-.635.1,3.882,3.882,0,0,0-.705.3l-.12-.91a3.633,3.633,0,0,1,1.77-.46,1.7,1.7,0,0,1,1.34.495,2.442,2.442,0,0,1,.44,1.635v1.23a3.211,3.211,0,0,0,.035.565.384.384,0,0,0,.13.245.543.543,0,0,0,.315.07h.14L85.78.1h-.31a1.447,1.447,0,0,1-.745-.16A1.146,1.146,0,0,1,84.3-.53a1.834,1.834,0,0,1-.66.46A2.176,2.176,0,0,1,82.78.1Zm.4-.87A1.269,1.269,0,0,0,83.7-.9a1.336,1.336,0,0,0,.465-.345V-2.39a2.961,2.961,0,0,0-1.235.27.756.756,0,0,0-.465.7Q82.47-.77,83.18-.77Zm5.89-4.28a1.732,1.732,0,0,1,1.45.61A2.65,2.65,0,0,1,91-2.76V0H89.89V-2.69a1.815,1.815,0,0,0-.255-1.08.988.988,0,0,0-.845-.34,1.287,1.287,0,0,0-1.08.49V0H86.59V-4.96h.99l.04.41A2.293,2.293,0,0,1,89.07-5.05ZM.78,7h4.4V8.1H1.96V9.8H4.49v1.1H1.96v2H5.28V14H.78ZM11.81,8.95a1.794,1.794,0,0,1,1.46.575,2.519,2.519,0,0,1,.48,1.655V14H12.63V11.24a1.769,1.769,0,0,0-.235-1.025.891.891,0,0,0-.775-.325.977.977,0,0,0-.85.36,1.587,1.587,0,0,0-.26.95V14H9.4V11.31a1.808,1.808,0,0,0-.255-1.09.918.918,0,0,0-.775-.33,1.287,1.287,0,0,0-1.09.5V14H6.16V9.04h.93l.07.44a2.317,2.317,0,0,1,1.49-.53,1.606,1.606,0,0,1,1.49.79,1.719,1.719,0,0,1,.685-.585A2.242,2.242,0,0,1,11.81,8.95Zm4.17,5.15a1.448,1.448,0,0,1-1.055-.405,1.421,1.421,0,0,1-.415-1.065,1.3,1.3,0,0,1,.46-1.04,2.725,2.725,0,0,1,1.105-.555,5.918,5.918,0,0,1,1.285-.185.994.994,0,0,0-.23-.725,1.056,1.056,0,0,0-.73-.2,2.188,2.188,0,0,0-.635.1,3.882,3.882,0,0,0-.7.3l-.12-.91a3.633,3.633,0,0,1,1.77-.46,1.7,1.7,0,0,1,1.34.495,2.442,2.442,0,0,1,.44,1.635v1.23a3.212,3.212,0,0,0,.035.565.384.384,0,0,0,.13.245.543.543,0,0,0,.315.07h.14l-.13.91h-.31a1.447,1.447,0,0,1-.745-.16,1.146,1.146,0,0,1-.425-.47,1.834,1.834,0,0,1-.66.46A2.176,2.176,0,0,1,15.98,14.1Zm.4-.87a1.269,1.269,0,0,0,.525-.125,1.336,1.336,0,0,0,.465-.345V11.61a2.961,2.961,0,0,0-1.235.27.756.756,0,0,0-.465.7Q15.67,13.23,16.38,13.23ZM19.79,7h1.12V8.15H19.79Zm0,2.04h1.12V14H19.79Zm3.57,5.06a1.211,1.211,0,0,1-.955-.355,1.313,1.313,0,0,1-.315-.9V6.5H23.2v5.82a2.442,2.442,0,0,0,.05.6.311.311,0,0,0,.18.225,1.357,1.357,0,0,0,.44.05l-.11.91Zm5.55.14a2.786,2.786,0,0,1-1.265-.26,1.85,1.85,0,0,1-.775-.69,1.8,1.8,0,0,1-.26-.95,1.92,1.92,0,0,1,.32-1.09,3.753,3.753,0,0,1,.92-.92,2.755,2.755,0,0,1-.75-1.7,1.514,1.514,0,0,1,.26-.885,1.688,1.688,0,0,1,.69-.575,2.178,2.178,0,0,1,.93-.2,1.788,1.788,0,0,1,1.235.39,1.317,1.317,0,0,1,.435,1.03,1.4,1.4,0,0,1-.205.745,2.477,2.477,0,0,1-.51.595q-.3.26-.805.61l1.58,1.73a5.323,5.323,0,0,0,.21-1.59h1.05a5.043,5.043,0,0,1-.55,2.39L32.41,14H31.16l-.36-.38a2.8,2.8,0,0,1-.845.465A3.236,3.236,0,0,1,28.91,14.24Zm-.25-4.47a4.084,4.084,0,0,0,.76-.64.956.956,0,0,0,.24-.64.6.6,0,0,0-.185-.48.762.762,0,0,0-.515-.16.785.785,0,0,0-.565.215.8.8,0,0,0-.225.605A1.808,1.808,0,0,0,28.66,9.77Zm.36,3.61a1.679,1.679,0,0,0,1.21-.43l-1.85-2a1.7,1.7,0,0,0-.63,1.3,1.142,1.142,0,0,0,.3.805A1.266,1.266,0,0,0,29.02,13.38ZM35.52,7h2.43q2.44,0,2.44,2.26a2.218,2.218,0,0,1-.63,1.73,2.592,2.592,0,0,1-1.8.57H36.7V14H35.52Zm2.3,3.57a1.507,1.507,0,0,0,1.045-.315,1.258,1.258,0,0,0,.345-.975,1.256,1.256,0,0,0-.345-.98A1.557,1.557,0,0,0,37.8,7.99H36.7v2.58ZM43.6,8.95a1.677,1.677,0,0,1,1.415.615,2.675,2.675,0,0,1,.475,1.675V14H44.37V11.34a1.915,1.915,0,0,0-.25-1.1.915.915,0,0,0-.8-.35,1.308,1.308,0,0,0-1.07.51V14H41.13V6.5h1.12V9.42a2.411,2.411,0,0,1,.62-.35A2.07,2.07,0,0,1,43.6,8.95Zm5.24,5.15a2.538,2.538,0,0,1-1.34-.345,2.317,2.317,0,0,1-.875-.935,2.923,2.923,0,0,1,0-2.6,2.317,2.317,0,0,1,.875-.935,2.794,2.794,0,0,1,2.69,0,2.283,2.283,0,0,1,.87.935,2.967,2.967,0,0,1,0,2.6,2.283,2.283,0,0,1-.87.935A2.557,2.557,0,0,1,48.84,14.1Zm0-.94a1.246,1.246,0,0,0,1.015-.44,1.823,1.823,0,0,0,.365-1.2,1.827,1.827,0,0,0-.365-1.2A1.24,1.24,0,0,0,48.84,9.88a1.226,1.226,0,0,0-1.01.445,1.844,1.844,0,0,0-.36,1.2,1.84,1.84,0,0,0,.36,1.2A1.232,1.232,0,0,0,48.84,13.16Zm5.89-4.21a1.732,1.732,0,0,1,1.45.61,2.65,2.65,0,0,1,.48,1.68V14H55.55V11.31a1.815,1.815,0,0,0-.255-1.08.988.988,0,0,0-.845-.34,1.287,1.287,0,0,0-1.08.49V14H52.25V9.04h.99l.04.41A2.293,2.293,0,0,1,54.73,8.95Zm5.46,5.15a2.88,2.88,0,0,1-1.465-.35,2.31,2.31,0,0,1-.915-.945,2.99,2.99,0,0,1-.025-2.6,2.2,2.2,0,0,1,.84-.915,2.448,2.448,0,0,1,1.305-.34,2.283,2.283,0,0,1,1.145.275,1.854,1.854,0,0,1,.74.755,2.309,2.309,0,0,1,.255,1.1,2.592,2.592,0,0,1-.07.61H58.66a1.587,1.587,0,0,0,.535,1.12,1.732,1.732,0,0,0,1.1.35,2.954,2.954,0,0,0,1.47-.37l.08.93A3.659,3.659,0,0,1,60.19,14.1Zm.74-3.17a1.117,1.117,0,0,0-.25-.74.933.933,0,0,0-.76-.3,1.177,1.177,0,0,0-1.22,1.04ZM65.38,7h1.18l3.15,4.78V7h1.17v7h-.96L66.54,8.93V14H65.38ZM76.37,9.04V14H75.34l-.05-.38a1.62,1.62,0,0,1-.535.35,1.726,1.726,0,0,1-.665.13,1.848,1.848,0,0,1-1.52-.6,2.657,2.657,0,0,1-.49-1.72V9.04H73.2v2.65a1.976,1.976,0,0,0,.245,1.1.892.892,0,0,0,.795.36,1.2,1.2,0,0,0,1.01-.47V9.04Zm6.83-.09a1.794,1.794,0,0,1,1.46.575,2.519,2.519,0,0,1,.48,1.655V14H84.02V11.24a1.769,1.769,0,0,0-.235-1.025.891.891,0,0,0-.775-.325.977.977,0,0,0-.85.36,1.587,1.587,0,0,0-.26.95V14H80.79V11.31a1.808,1.808,0,0,0-.255-1.09.918.918,0,0,0-.775-.33,1.287,1.287,0,0,0-1.09.5V14H77.55V9.04h.93l.07.44a2.317,2.317,0,0,1,1.49-.53,1.606,1.606,0,0,1,1.49.79,1.719,1.719,0,0,1,.685-.585A2.242,2.242,0,0,1,83.2,8.95Zm5.6,0A2.062,2.062,0,0,1,90,9.3a2.234,2.234,0,0,1,.77.935,3.078,3.078,0,0,1,.265,1.285,3.039,3.039,0,0,1-.275,1.3,2.264,2.264,0,0,1-.78.935A2.049,2.049,0,0,1,88.8,14.1a2.105,2.105,0,0,1-1.46-.52l-.05.42H86.26V6.5h1.12V9.47A2.147,2.147,0,0,1,88.8,8.95Zm-.15,4.21a1.066,1.066,0,0,0,.9-.455,1.95,1.95,0,0,0,.335-1.185,1.927,1.927,0,0,0-.335-1.18,1.07,1.07,0,0,0-.9-.45,1.193,1.193,0,0,0-.98.43,1.851,1.851,0,0,0-.35,1.2,1.869,1.869,0,0,0,.35,1.21A1.193,1.193,0,0,0,88.65,13.16Zm5.66.94a2.88,2.88,0,0,1-1.465-.35,2.31,2.31,0,0,1-.915-.945,2.991,2.991,0,0,1-.025-2.6,2.2,2.2,0,0,1,.84-.915,2.448,2.448,0,0,1,1.305-.34,2.283,2.283,0,0,1,1.145.275,1.854,1.854,0,0,1,.74.755,2.309,2.309,0,0,1,.255,1.1,2.592,2.592,0,0,1-.07.61H92.78a1.587,1.587,0,0,0,.535,1.12,1.732,1.732,0,0,0,1.1.35,2.954,2.954,0,0,0,1.47-.37l.08.93A3.659,3.659,0,0,1,94.31,14.1Zm.74-3.17a1.117,1.117,0,0,0-.25-.74.933.933,0,0,0-.76-.3,1.177,1.177,0,0,0-1.22,1.04Zm2.01-1.89h1.01l.06.63a2.224,2.224,0,0,1,.62-.53,1.451,1.451,0,0,1,.73-.2,1.347,1.347,0,0,1,.22.02l-.09,1.14a1.281,1.281,0,0,0-.38-.05,1.3,1.3,0,0,0-.62.155.99.99,0,0,0-.41.365V14H97.06ZM.78,21H3.39a3.746,3.746,0,0,1,1.795.42A3,3,0,0,1,6.41,22.63a4.194,4.194,0,0,1,0,3.74,3,3,0,0,1-1.225,1.21A3.746,3.746,0,0,1,3.39,28H.78Zm2.61,5.96a2.026,2.026,0,0,0,1.63-.655A2.689,2.689,0,0,0,5.58,24.5a2.689,2.689,0,0,0-.56-1.805,2.026,2.026,0,0,0-1.63-.655H1.94v4.92ZM7.74,21H8.86v1.15H7.74Zm0,2.04H8.86V28H7.74Zm4.28,7.47a3.26,3.26,0,0,1-1.685-.38A1.179,1.179,0,0,1,9.7,29.07a1.3,1.3,0,0,1,.82-1.17.766.766,0,0,1-.45-.67.753.753,0,0,1,.53-.71,1.7,1.7,0,0,1-.595-.68,2.115,2.115,0,0,1-.2-.94,2.062,2.062,0,0,1,.24-1,1.767,1.767,0,0,1,.695-.7,2.152,2.152,0,0,1,1.085-.26,2,2,0,0,1,1.17.34,1.8,1.8,0,0,1,.485-.18,2.746,2.746,0,0,1,.635-.07h.23l-.09.71h-.37a1.84,1.84,0,0,0-.38.04,1.823,1.823,0,0,1,.35,1.12,2.091,2.091,0,0,1-.24,1,1.782,1.782,0,0,1-.7.715,2.263,2.263,0,0,1-1.66.185.209.209,0,0,0-.16.2q0,.12.155.2a1.514,1.514,0,0,0,.485.12l1.02.15q1.7.24,1.7,1.43a1.343,1.343,0,0,1-.645,1.185A3.22,3.22,0,0,1,12.02,30.51Zm-.2-4.48a.919.919,0,0,0,.74-.305,1.23,1.23,0,0,0,.26-.825,1.21,1.21,0,0,0-.26-.82,1.056,1.056,0,0,0-1.48,0,1.214,1.214,0,0,0-.26.815,1.23,1.23,0,0,0,.26.825A.919.919,0,0,0,11.82,26.03Zm.26,3.59q1.34,0,1.34-.65a.465.465,0,0,0-.225-.415,1.955,1.955,0,0,0-.715-.225l-1.2-.19a1.144,1.144,0,0,0-.445.3.632.632,0,0,0-.165.435.6.6,0,0,0,.37.565A2.371,2.371,0,0,0,12.08,29.62ZM15.04,21h1.12v1.15H15.04Zm0,2.04h1.12V28H15.04Zm3.95,5.06A1.261,1.261,0,0,1,18,27.73a1.28,1.28,0,0,1-.335-.89v-2.9h-.75l.1-.9h.65V21.9l1.12-.12v1.26h1.17v.9H18.79v2.38a2.427,2.427,0,0,0,.05.6.3.3,0,0,0,.215.215,2.368,2.368,0,0,0,.595.05h.3l-.1.91Zm2.86,0a1.448,1.448,0,0,1-1.055-.405,1.421,1.421,0,0,1-.415-1.065,1.3,1.3,0,0,1,.46-1.04,2.725,2.725,0,0,1,1.1-.555,5.919,5.919,0,0,1,1.285-.185.994.994,0,0,0-.23-.725,1.056,1.056,0,0,0-.73-.2,2.188,2.188,0,0,0-.635.095,3.882,3.882,0,0,0-.7.305l-.12-.91a3.633,3.633,0,0,1,1.77-.46,1.7,1.7,0,0,1,1.34.495,2.442,2.442,0,0,1,.44,1.635v1.23a3.212,3.212,0,0,0,.035.565.384.384,0,0,0,.13.245.543.543,0,0,0,.315.07h.14l-.13.91h-.31a1.447,1.447,0,0,1-.745-.16,1.146,1.146,0,0,1-.425-.47,1.834,1.834,0,0,1-.66.46A2.176,2.176,0,0,1,21.85,28.1Zm.4-.87a1.269,1.269,0,0,0,.525-.125,1.336,1.336,0,0,0,.465-.345V25.61A2.961,2.961,0,0,0,22,25.88a.756.756,0,0,0-.465.7Q21.54,27.23,22.25,27.23Zm4.68.87a1.211,1.211,0,0,1-.955-.355,1.313,1.313,0,0,1-.315-.905V20.5h1.11v5.82a2.442,2.442,0,0,0,.05.6.311.311,0,0,0,.18.225,1.356,1.356,0,0,0,.44.05l-.11.91Zm5.72.04a5.688,5.688,0,0,1-1.26-.15,4.978,4.978,0,0,1-1.05-.34l.14-1.23a5.544,5.544,0,0,0,2.35.62,1.647,1.647,0,0,0,.92-.22.74.74,0,0,0,.33-.66.831.831,0,0,0-.175-.55,1.429,1.429,0,0,0-.515-.365,10.513,10.513,0,0,0-1.01-.375,5.813,5.813,0,0,1-1.08-.455,1.982,1.982,0,0,1-.685-.63,1.712,1.712,0,0,1-.255-.965,1.751,1.751,0,0,1,.655-1.42,2.876,2.876,0,0,1,1.875-.54,5.379,5.379,0,0,1,1.18.13,5.5,5.5,0,0,1,1.03.33l-.12,1.2a6.522,6.522,0,0,0-1.115-.43,3.967,3.967,0,0,0-1.045-.14,1.765,1.765,0,0,0-.93.2.685.685,0,0,0-.33.625.74.74,0,0,0,.165.5,1.25,1.25,0,0,0,.46.325q.3.13.855.31a4.9,4.9,0,0,1,1.765.865,1.708,1.708,0,0,1,.565,1.355,1.881,1.881,0,0,1-.62,1.43A3.043,3.043,0,0,1,32.65,28.14ZM36.19,21h1.12v1.15H36.19Zm0,2.04h1.12V28H36.19Zm4.28,7.47a3.26,3.26,0,0,1-1.685-.38,1.179,1.179,0,0,1-.635-1.06,1.3,1.3,0,0,1,.82-1.17.766.766,0,0,1-.45-.67.753.753,0,0,1,.53-.71,1.7,1.7,0,0,1-.6-.68,2.115,2.115,0,0,1-.205-.94,2.062,2.062,0,0,1,.24-1,1.767,1.767,0,0,1,.695-.7,2.152,2.152,0,0,1,1.085-.26,2,2,0,0,1,1.17.34,1.8,1.8,0,0,1,.485-.18,2.746,2.746,0,0,1,.635-.07h.23l-.09.71h-.37a1.84,1.84,0,0,0-.38.04,1.823,1.823,0,0,1,.35,1.12,2.091,2.091,0,0,1-.24,1,1.782,1.782,0,0,1-.7.715,2.263,2.263,0,0,1-1.66.185.209.209,0,0,0-.16.2q0,.12.155.2a1.515,1.515,0,0,0,.485.12l1.02.15q1.7.24,1.7,1.43a1.343,1.343,0,0,1-.645,1.185A3.22,3.22,0,0,1,40.47,30.51Zm-.2-4.48a.919.919,0,0,0,.74-.305,1.23,1.23,0,0,0,.26-.825,1.21,1.21,0,0,0-.26-.82,1.056,1.056,0,0,0-1.48,0,1.214,1.214,0,0,0-.26.815,1.23,1.23,0,0,0,.26.825A.919.919,0,0,0,40.27,26.03Zm.26,3.59q1.34,0,1.34-.65a.465.465,0,0,0-.225-.415,1.955,1.955,0,0,0-.715-.225l-1.2-.19a1.144,1.144,0,0,0-.445.3.632.632,0,0,0-.165.435.6.6,0,0,0,.37.565A2.371,2.371,0,0,0,40.53,29.62Zm5.44-6.67a1.732,1.732,0,0,1,1.45.61,2.65,2.65,0,0,1,.48,1.68V28H46.79V25.31a1.815,1.815,0,0,0-.255-1.08.988.988,0,0,0-.845-.34,1.287,1.287,0,0,0-1.08.49V28H43.49V23.04h.99l.04.41A2.293,2.293,0,0,1,45.97,22.95Zm4.17,5.15a1.448,1.448,0,0,1-1.055-.405,1.421,1.421,0,0,1-.415-1.065,1.3,1.3,0,0,1,.46-1.04,2.725,2.725,0,0,1,1.1-.555,5.919,5.919,0,0,1,1.285-.185.994.994,0,0,0-.23-.725,1.056,1.056,0,0,0-.73-.2,2.188,2.188,0,0,0-.635.095,3.882,3.882,0,0,0-.7.305l-.12-.91a3.633,3.633,0,0,1,1.77-.46,1.7,1.7,0,0,1,1.34.495,2.442,2.442,0,0,1,.44,1.635v1.23a3.212,3.212,0,0,0,.035.565.384.384,0,0,0,.13.245.543.543,0,0,0,.315.07h.14l-.13.91h-.31a1.447,1.447,0,0,1-.745-.16,1.146,1.146,0,0,1-.425-.47,1.834,1.834,0,0,1-.66.46A2.176,2.176,0,0,1,50.14,28.1Zm.4-.87a1.269,1.269,0,0,0,.525-.125,1.336,1.336,0,0,0,.465-.345V25.61a2.961,2.961,0,0,0-1.235.27.756.756,0,0,0-.465.7Q49.83,27.23,50.54,27.23Zm4.97.87a1.261,1.261,0,0,1-.985-.37,1.28,1.28,0,0,1-.335-.89v-2.9h-.75l.1-.9h.65V21.9l1.12-.12v1.26h1.17v.9H55.31v2.38a2.427,2.427,0,0,0,.05.6.3.3,0,0,0,.215.215,2.368,2.368,0,0,0,.6.05h.3l-.1.91Zm6-5.06V28H60.48l-.05-.38a1.62,1.62,0,0,1-.535.35,1.726,1.726,0,0,1-.665.13,1.848,1.848,0,0,1-1.52-.6,2.657,2.657,0,0,1-.49-1.72V23.04h1.12v2.65a1.976,1.976,0,0,0,.245,1.1.892.892,0,0,0,.8.36,1.2,1.2,0,0,0,1.01-.47V23.04Zm1.18,0H63.7l.06.63a2.224,2.224,0,0,1,.62-.53,1.451,1.451,0,0,1,.73-.2,1.347,1.347,0,0,1,.22.02l-.09,1.14a1.281,1.281,0,0,0-.38-.05,1.3,1.3,0,0,0-.62.155.99.99,0,0,0-.41.365V28H62.69Zm5.54,5.06a2.88,2.88,0,0,1-1.465-.35,2.31,2.31,0,0,1-.915-.945,2.991,2.991,0,0,1-.025-2.6,2.2,2.2,0,0,1,.84-.915,2.448,2.448,0,0,1,1.305-.34,2.283,2.283,0,0,1,1.145.275,1.854,1.854,0,0,1,.74.755,2.309,2.309,0,0,1,.255,1.1,2.592,2.592,0,0,1-.07.61H66.7a1.587,1.587,0,0,0,.535,1.12,1.732,1.732,0,0,0,1.1.35,2.954,2.954,0,0,0,1.47-.37l.08.93A3.659,3.659,0,0,1,68.23,28.1Zm.74-3.17a1.117,1.117,0,0,0-.25-.74.933.933,0,0,0-.76-.3,1.177,1.177,0,0,0-1.22,1.04ZM4.41,40.26H1.81L1.2,42H.04l2.5-7H3.68l2.49,7H5.02Zm-.37-1.03-.93-2.66-.94,2.66ZM8.99,42.1a2.75,2.75,0,0,1-1.4-.34,2.238,2.238,0,0,1-.885-.92,2.787,2.787,0,0,1-.3-1.3,2.933,2.933,0,0,1,.295-1.33,2.183,2.183,0,0,1,.885-.93,2.885,2.885,0,0,1,1.46-.34,2.837,2.837,0,0,1,1.34.31l-.12.92a2.628,2.628,0,0,0-1.15-.28,1.508,1.508,0,0,0-1.16.44,1.676,1.676,0,0,0-.41,1.19,1.7,1.7,0,0,0,.41,1.19,1.464,1.464,0,0,0,1.14.45,2.343,2.343,0,0,0,1.18-.32l.12.93a2.39,2.39,0,0,1-.63.24A3.247,3.247,0,0,1,8.99,42.1Zm4.5,0a2.75,2.75,0,0,1-1.405-.34,2.238,2.238,0,0,1-.885-.92,2.787,2.787,0,0,1-.3-1.3,2.933,2.933,0,0,1,.3-1.33,2.183,2.183,0,0,1,.885-.93,2.885,2.885,0,0,1,1.46-.34,2.837,2.837,0,0,1,1.34.31l-.12.92a2.628,2.628,0,0,0-1.15-.28,1.508,1.508,0,0,0-1.16.44,1.676,1.676,0,0,0-.41,1.19,1.7,1.7,0,0,0,.41,1.19,1.464,1.464,0,0,0,1.14.45,2.343,2.343,0,0,0,1.18-.32l.12.93a2.39,2.39,0,0,1-.63.24A3.247,3.247,0,0,1,13.49,42.1Zm4.59,0a2.88,2.88,0,0,1-1.465-.35,2.31,2.31,0,0,1-.915-.945,2.99,2.99,0,0,1-.025-2.6,2.2,2.2,0,0,1,.84-.915,2.448,2.448,0,0,1,1.305-.34,2.283,2.283,0,0,1,1.145.275,1.854,1.854,0,0,1,.74.755,2.309,2.309,0,0,1,.255,1.1,2.592,2.592,0,0,1-.07.61H16.55a1.587,1.587,0,0,0,.535,1.12,1.732,1.732,0,0,0,1.1.35,2.954,2.954,0,0,0,1.47-.37l.08.93A3.659,3.659,0,0,1,18.08,42.1Zm.74-3.17a1.117,1.117,0,0,0-.25-.74.933.933,0,0,0-.76-.3,1.177,1.177,0,0,0-1.22,1.04Zm4.58-1.98a2.065,2.065,0,0,1,1.19.34,2.144,2.144,0,0,1,.76.925,3.179,3.179,0,0,1,.26,1.305,3.268,3.268,0,0,1-.255,1.31,2.106,2.106,0,0,1-.755.93,2.083,2.083,0,0,1-1.2.34,2.52,2.52,0,0,1-.825-.12,1.763,1.763,0,0,1-.625-.38v2.82H20.83V37.04h.89l.12.53a2.379,2.379,0,0,1,.695-.46A2.188,2.188,0,0,1,23.4,36.95Zm-.19,4.21a1.085,1.085,0,0,0,.92-.44,2.329,2.329,0,0,0,0-2.39,1.085,1.085,0,0,0-.92-.44,1.179,1.179,0,0,0-.975.43,2.277,2.277,0,0,0,0,2.41A1.179,1.179,0,0,0,23.21,41.16Zm4.88.94a1.261,1.261,0,0,1-.985-.37,1.28,1.28,0,0,1-.335-.89v-2.9h-.75l.1-.9h.65V35.9l1.12-.12v1.26h1.17v.9H27.89v2.38a2.426,2.426,0,0,0,.05.6.3.3,0,0,0,.215.215,2.368,2.368,0,0,0,.595.05h.3l-.1.91Zm5.57-6h-2V35h5.16v1.1h-2V42H33.66Zm5.54,6a2.88,2.88,0,0,1-1.465-.35,2.31,2.31,0,0,1-.915-.945,2.99,2.99,0,0,1-.025-2.6,2.2,2.2,0,0,1,.84-.915,2.448,2.448,0,0,1,1.305-.34,2.283,2.283,0,0,1,1.145.275,1.854,1.854,0,0,1,.74.755,2.309,2.309,0,0,1,.255,1.1,2.592,2.592,0,0,1-.07.61H37.67a1.587,1.587,0,0,0,.535,1.12,1.732,1.732,0,0,0,1.1.35,2.954,2.954,0,0,0,1.47-.37l.08.93A3.659,3.659,0,0,1,39.2,42.1Zm.74-3.17a1.117,1.117,0,0,0-.25-.74.933.933,0,0,0-.76-.3,1.177,1.177,0,0,0-1.22,1.04Zm2.01-1.89h1.01l.06.63a2.224,2.224,0,0,1,.62-.53,1.451,1.451,0,0,1,.73-.2,1.347,1.347,0,0,1,.22.02L44.5,38.1a1.281,1.281,0,0,0-.38-.05,1.3,1.3,0,0,0-.62.155.99.99,0,0,0-.41.365V42H41.95Zm8.9-.09a1.794,1.794,0,0,1,1.46.575,2.519,2.519,0,0,1,.48,1.655V42H51.67V39.24a1.769,1.769,0,0,0-.235-1.025.891.891,0,0,0-.775-.325.977.977,0,0,0-.85.36,1.587,1.587,0,0,0-.26.95V42H48.44V39.31a1.808,1.808,0,0,0-.255-1.09.918.918,0,0,0-.775-.33,1.287,1.287,0,0,0-1.09.5V42H45.2V37.04h.93l.07.44a2.317,2.317,0,0,1,1.49-.53,1.606,1.606,0,0,1,1.49.79,1.719,1.719,0,0,1,.685-.585A2.242,2.242,0,0,1,50.85,36.95Zm4.48,5.15a3.726,3.726,0,0,1-1.69-.39l.11-.99a2.81,2.81,0,0,0,1.54.5,1.184,1.184,0,0,0,.625-.135.447.447,0,0,0,.215-.4.508.508,0,0,0-.22-.45,3.421,3.421,0,0,0-.72-.33,3.42,3.42,0,0,1-1.1-.57,1.155,1.155,0,0,1-.375-.93,1.313,1.313,0,0,1,.485-1.05,2.054,2.054,0,0,1,1.365-.41,2.983,2.983,0,0,1,1.47.36l-.11.97a3.091,3.091,0,0,0-.65-.37,1.816,1.816,0,0,0-.69-.13.96.96,0,0,0-.57.145.482.482,0,0,0-.2.415.493.493,0,0,0,.11.33.853.853,0,0,0,.315.22q.205.09.645.25a3.142,3.142,0,0,1,1.025.575,1.178,1.178,0,0,1,.355.915,1.336,1.336,0,0,1-.48,1.075A2.207,2.207,0,0,1,55.33,42.1Zm7.08.14a2.786,2.786,0,0,1-1.265-.26,1.85,1.85,0,0,1-.775-.69,1.8,1.8,0,0,1-.26-.95,1.92,1.92,0,0,1,.32-1.09,3.753,3.753,0,0,1,.92-.92,2.755,2.755,0,0,1-.75-1.7,1.514,1.514,0,0,1,.26-.885,1.688,1.688,0,0,1,.69-.575,2.178,2.178,0,0,1,.93-.2,1.788,1.788,0,0,1,1.235.39,1.317,1.317,0,0,1,.435,1.03,1.4,1.4,0,0,1-.205.745,2.477,2.477,0,0,1-.51.595q-.305.26-.805.61l1.58,1.73a5.323,5.323,0,0,0,.21-1.59h1.05a5.043,5.043,0,0,1-.55,2.39L65.91,42H64.66l-.36-.38a2.8,2.8,0,0,1-.845.465A3.236,3.236,0,0,1,62.41,42.24Zm-.25-4.47a4.084,4.084,0,0,0,.76-.64.956.956,0,0,0,.24-.64.6.6,0,0,0-.185-.48.762.762,0,0,0-.515-.16.785.785,0,0,0-.565.215.8.8,0,0,0-.225.6A1.808,1.808,0,0,0,62.16,37.77Zm.36,3.61a1.679,1.679,0,0,0,1.21-.43l-1.85-2a1.7,1.7,0,0,0-.63,1.3,1.142,1.142,0,0,0,.3.805A1.266,1.266,0,0,0,62.52,41.38Zm9.65.76a3.745,3.745,0,0,1-1.85-.45,3.189,3.189,0,0,1-1.265-1.275A3.9,3.9,0,0,1,68.6,38.5a3.834,3.834,0,0,1,.465-1.915A3.238,3.238,0,0,1,70.35,35.31a3.8,3.8,0,0,1,1.86-.45,4.332,4.332,0,0,1,.99.11,3.659,3.659,0,0,1,.84.3l-.12,1.1a4.011,4.011,0,0,0-1.72-.41,2.357,2.357,0,0,0-1.265.325,2.066,2.066,0,0,0-.795.9,3.06,3.06,0,0,0-.27,1.315,3.109,3.109,0,0,0,.265,1.315,2.045,2.045,0,0,0,.785.9,2.331,2.331,0,0,0,1.26.325,3.769,3.769,0,0,0,.885-.1,4.775,4.775,0,0,0,.855-.3l.12,1.09A4.206,4.206,0,0,1,72.17,42.14Zm4.89-.04a2.538,2.538,0,0,1-1.34-.345,2.317,2.317,0,0,1-.875-.935,2.923,2.923,0,0,1,0-2.6,2.317,2.317,0,0,1,.875-.935,2.794,2.794,0,0,1,2.69,0,2.283,2.283,0,0,1,.87.935,2.967,2.967,0,0,1,0,2.6,2.283,2.283,0,0,1-.87.935A2.557,2.557,0,0,1,77.06,42.1Zm0-.94a1.246,1.246,0,0,0,1.015-.44,2.147,2.147,0,0,0,0-2.4,1.24,1.24,0,0,0-1.015-.445,1.226,1.226,0,0,0-1.01.445,2.172,2.172,0,0,0,0,2.4A1.232,1.232,0,0,0,77.06,41.16Zm5.89-4.21a1.732,1.732,0,0,1,1.45.61,2.65,2.65,0,0,1,.48,1.68V42H83.77V39.31a1.815,1.815,0,0,0-.255-1.08.988.988,0,0,0-.845-.34,1.287,1.287,0,0,0-1.08.49V42H80.47V37.04h.99l.04.41A2.293,2.293,0,0,1,82.95,36.95ZM90.5,34.5V42H89.47l-.05-.42a2.014,2.014,0,0,1-1.41.52,2.138,2.138,0,0,1-1.21-.345,2.265,2.265,0,0,1-.8-.93,2.961,2.961,0,0,1-.28-1.3A3.016,3.016,0,0,1,86,38.24a2.271,2.271,0,0,1,.79-.94,2.127,2.127,0,0,1,1.225-.35,2.033,2.033,0,0,1,1.37.48V34.5Zm-2.32,6.66a1.135,1.135,0,0,0,.935-.43,2.246,2.246,0,0,0,0-2.4,1.129,1.129,0,0,0-.93-.44,1.145,1.145,0,0,0-.96.455,2.164,2.164,0,0,0,0,2.36A1.145,1.145,0,0,0,88.18,41.16ZM91.67,35h1.12v1.15H91.67Zm0,2.04h1.12V42H91.67Zm3.95,5.06a1.261,1.261,0,0,1-.985-.37,1.28,1.28,0,0,1-.335-.89v-2.9h-.75l.1-.9h.65V35.9l1.12-.12v1.26h1.17v.9H95.42v2.38a2.427,2.427,0,0,0,.05.6.3.3,0,0,0,.215.215,2.368,2.368,0,0,0,.6.05h.3l-.1.91ZM97.38,35H98.5v1.15H97.38Zm0,2.04H98.5V42H97.38Zm4.52,5.06a2.538,2.538,0,0,1-1.34-.345,2.317,2.317,0,0,1-.875-.935,2.923,2.923,0,0,1,0-2.6,2.317,2.317,0,0,1,.875-.935,2.794,2.794,0,0,1,2.69,0,2.283,2.283,0,0,1,.87.935,2.967,2.967,0,0,1,0,2.6,2.283,2.283,0,0,1-.87.935A2.557,2.557,0,0,1,101.9,42.1Zm0-.94a1.246,1.246,0,0,0,1.015-.44,2.147,2.147,0,0,0,0-2.4,1.24,1.24,0,0,0-1.015-.445,1.226,1.226,0,0,0-1.01.445,2.172,2.172,0,0,0,0,2.4A1.232,1.232,0,0,0,101.9,41.16Zm5.89-4.21a1.732,1.732,0,0,1,1.45.61,2.65,2.65,0,0,1,.48,1.68V42h-1.11V39.31a1.815,1.815,0,0,0-.255-1.08.988.988,0,0,0-.845-.34,1.287,1.287,0,0,0-1.08.49V42h-1.12V37.04h.99l.04.41A2.293,2.293,0,0,1,107.79,36.95Zm4.48,5.15a3.726,3.726,0,0,1-1.69-.39l.11-.99a2.81,2.81,0,0,0,1.54.5,1.184,1.184,0,0,0,.625-.135.447.447,0,0,0,.215-.4.508.508,0,0,0-.22-.45,3.421,3.421,0,0,0-.72-.33,3.42,3.42,0,0,1-1.105-.57,1.155,1.155,0,0,1-.375-.93,1.313,1.313,0,0,1,.485-1.05,2.054,2.054,0,0,1,1.365-.41,2.982,2.982,0,0,1,1.47.36l-.11.97a3.091,3.091,0,0,0-.65-.37,1.816,1.816,0,0,0-.69-.13.96.96,0,0,0-.57.145.482.482,0,0,0-.2.415.493.493,0,0,0,.11.33.853.853,0,0,0,.315.22q.2.09.645.25a3.142,3.142,0,0,1,1.025.575,1.178,1.178,0,0,1,.355.915,1.336,1.336,0,0,1-.48,1.075A2.207,2.207,0,0,1,112.27,42.1Z" transform="translate(911 1150)" fill="#042745" opacity="0.45"></path><g id="Repeat_Grid_8" data-name="Repeat Grid 8" transform="translate(906.45 1145)" clip-path="url(#clip-path-3)"><g transform="translate(542 -1251)"><circle id="Ellipse_116" data-name="Ellipse 116" cx="1.5" cy="1.5" r="1.5" transform="translate(-542 1251)" fill="#009edb"></circle></g><g transform="translate(542 -1237)"><circle id="Ellipse_116-2" data-name="Ellipse 116" cx="1.5" cy="1.5" r="1.5" transform="translate(-542 1251)" fill="#009edb"></circle></g><g transform="translate(542 -1223)"><circle id="Ellipse_116-3" data-name="Ellipse 116" cx="1.5" cy="1.5" r="1.5" transform="translate(-542 1251)" fill="#009edb"></circle></g><g transform="translate(542 -1209)"><circle id="Ellipse_116-4" data-name="Ellipse 116" cx="1.5" cy="1.5" r="1.5" transform="translate(-542 1251)" fill="#009edb"></circle></g></g><path id="Path_2294" data-name="Path 2294" d="M-33.216.224a5.992,5.992,0,0,1-2.96-.72A5.1,5.1,0,0,1-38.2-2.536,6.242,6.242,0,0,1-38.928-5.6a6.134,6.134,0,0,1,.744-3.064,5.181,5.181,0,0,1,2.056-2.04,6.083,6.083,0,0,1,2.976-.72,6.932,6.932,0,0,1,1.584.176,5.854,5.854,0,0,1,1.344.48l-.192,1.76a6.418,6.418,0,0,0-2.752-.656,3.771,3.771,0,0,0-2.024.52A3.306,3.306,0,0,0-36.464-7.7,4.9,4.9,0,0,0-36.9-5.6a4.974,4.974,0,0,0,.424,2.1,3.272,3.272,0,0,0,1.256,1.44,3.729,3.729,0,0,0,2.016.52,6.03,6.03,0,0,0,1.416-.16,7.64,7.64,0,0,0,1.368-.48l.192,1.744A6.73,6.73,0,0,1-33.216.224Zm9.44,0A5.6,5.6,0,0,1-26.624-.5a5.088,5.088,0,0,1-1.96-2.04A6.356,6.356,0,0,1-29.3-5.6a6.356,6.356,0,0,1,.712-3.064,5.088,5.088,0,0,1,1.96-2.04,5.6,5.6,0,0,1,2.848-.72,5.6,5.6,0,0,1,2.848.72,5.088,5.088,0,0,1,1.96,2.04A6.356,6.356,0,0,1-18.256-5.6a6.356,6.356,0,0,1-.712,3.064A5.088,5.088,0,0,1-20.928-.5,5.6,5.6,0,0,1-23.776.224Zm0-1.792a3.212,3.212,0,0,0,2.632-1.12,4.439,4.439,0,0,0,.92-2.912,4.439,4.439,0,0,0-.92-2.912,3.212,3.212,0,0,0-2.632-1.12,3.235,3.235,0,0,0-2.64,1.12A4.414,4.414,0,0,0-27.344-5.6a4.414,4.414,0,0,0,.928,2.912A3.235,3.235,0,0,0-23.776-1.568ZM-7.216,0l-.992-7.84-2.928,5.376L-14.1-7.856-15.1,0H-17.04L-15.5-11.2h1.552l2.8,5.264,2.8-5.264h1.536L-5.28,0Zm3.824-11.2H.5q3.9,0,3.9,3.616A3.548,3.548,0,0,1,3.392-4.816,4.147,4.147,0,0,1,.512-3.9H-1.5V0H-3.392ZM.288-5.488a2.411,2.411,0,0,0,1.672-.5,2.013,2.013,0,0,0,.552-1.56A2.009,2.009,0,0,0,1.96-9.12a2.491,2.491,0,0,0-1.7-.5H-1.5v4.128ZM6-11.2H7.856v9.536h4.8V0H6Zm8,0h7.04v1.76H15.888v2.72h4.048v1.76H15.888v3.2H21.2V0H14ZM25.2-9.44H22V-11.2h8.256v1.76h-3.2V0H25.2Zm6.544-1.76h7.04v1.76H33.632v2.72H37.68v1.76H33.632v3.2h5.312V0h-7.2Z" transform="translate(1503 1144)" fill="#042745"></path></g></svg> 