<?xml version="1.0" encoding="UTF-8"?> <svg xmlns="http://www.w3.org/2000/svg" width="76" height="76" viewBox="0 0 76 76"><g id="_120payments" data-name="120payments" transform="translate(-416 -4501)"><g id="Ellipse_58" data-name="Ellipse 58" transform="translate(416 4501)" fill="none" stroke="#009edb" stroke-width="2"><circle cx="38" cy="38" r="38" stroke="none"></circle><circle cx="38" cy="38" r="37" fill="none"></circle></g><g id="icon_ul" transform="translate(429.305 4518.049)"><path id="Path_930" data-name="Path 930" d="M16.072,23.246H43.666a1.725,1.725,0,1,0,0-3.449H16.072a1.725,1.725,0,1,0,0,3.449Zm0-13.8H43.666a1.725,1.725,0,1,0,0-3.449H16.072a1.725,1.725,0,1,0,0,3.449Zm0,27.594H43.666a1.725,1.725,0,1,0,0-3.449H16.072a1.725,1.725,0,1,0,0,3.449ZM4,7.725A1.725,1.725,0,1,0,5.725,6,1.725,1.725,0,0,0,4,7.725Zm0,13.8A1.725,1.725,0,1,0,5.725,19.8,1.725,1.725,0,0,0,4,21.521Zm0,13.8a1.725,1.725,0,1,0,1.725-1.725A1.725,1.725,0,0,0,4,35.318Z" transform="translate(0 0)" fill="#009edb"></path></g></g></svg> 