<?xml version="1.0" encoding="UTF-8"?> <svg xmlns="http://www.w3.org/2000/svg" id="control-3" width="89.054" height="80.149" viewBox="0 0 89.054 80.149"><path id="Path_897" data-name="Path 897" d="M5.937,235.947H77.18a5.937,5.937,0,0,0,5.937-5.937v-4.453a1.484,1.484,0,0,0-1.484-1.484H78.664V201.81H75.7v22.263H72.727V203.294H69.759v20.779H50.639a4.147,4.147,0,0,0-3.728,2.305,1.2,1.2,0,0,1-1.075.663H37.281a1.2,1.2,0,0,1-1.075-.663,4.147,4.147,0,0,0-3.728-2.305H13.358V181.03h28.2v-2.968H11.874a1.484,1.484,0,0,0-1.484,1.484v44.527H7.421V179.546a4.453,4.453,0,0,1,4.453-4.453H41.559v-2.968H11.874a7.431,7.431,0,0,0-7.421,7.421v44.527H1.484A1.484,1.484,0,0,0,0,225.557v4.453A5.937,5.937,0,0,0,5.937,235.947Zm-2.968-8.905H32.478a1.2,1.2,0,0,1,1.075.663,4.147,4.147,0,0,0,3.728,2.305h8.555a4.147,4.147,0,0,0,3.728-2.305,1.2,1.2,0,0,1,1.075-.663H80.149v2.968a2.968,2.968,0,0,1-2.968,2.968H5.937a2.968,2.968,0,0,1-2.968-2.968Zm0,0" transform="translate(0 -155.798)" fill="#009edb"></path><path id="Path_898" data-name="Path 898" d="M171.875,297.125h2.968v2.968h-2.968Zm0,0" transform="translate(-155.548 -268.925)" fill="#009edb"></path><path id="Path_899" data-name="Path 899" d="M234.375,297.125h2.968v2.968h-2.968Zm0,0" transform="translate(-212.112 -268.925)" fill="#009edb"></path><path id="Path_900" data-name="Path 900" d="M296.875,297.125h2.968v2.968h-2.968Zm0,0" transform="translate(-268.675 -268.925)" fill="#009edb"></path><path id="Path_901" data-name="Path 901" d="M200.075,362.593v-2.969H173.359a1.484,1.484,0,0,0-1.484,1.484v8.905a1.484,1.484,0,0,0,1.484,1.484h35.622V368.53H174.843v-5.937Zm0,0" transform="translate(-155.548 -325.488)" fill="#009edb"></path><path id="Path_902" data-name="Path 902" d="M171.875,656.5h10.39v2.969h-10.39Zm0,0" transform="translate(-155.548 -594.162)" fill="#009edb"></path><path id="Path_903" data-name="Path 903" d="M312.5,656.5h10.39v2.969H312.5Zm0,0" transform="translate(-282.815 -594.162)" fill="#009edb"></path><path id="Path_904" data-name="Path 904" d="M453.125,656.5h10.39v2.969h-10.39Zm0,0" transform="translate(-410.082 -594.162)" fill="#009edb"></path><path id="Path_905" data-name="Path 905" d="M593.75,656.5h10.39v2.969H593.75Zm0,0" transform="translate(-537.349 -594.162)" fill="#009edb"></path><path id="Path_906" data-name="Path 906" d="M322.89,517.359a1.484,1.484,0,0,0-1.484-1.484h-7.421a1.484,1.484,0,0,0-1.484,1.484v7.421a1.484,1.484,0,0,0,1.484,1.484h7.421a1.484,1.484,0,0,0,1.484-1.484Zm-2.968,5.937h-4.453v-4.453h4.453Zm0,0" transform="translate(-282.815 -466.895)" fill="#009edb"></path><path id="Path_907" data-name="Path 907" d="M182.265,517.359a1.484,1.484,0,0,0-1.484-1.484h-7.421a1.484,1.484,0,0,0-1.484,1.484v7.421a1.484,1.484,0,0,0,1.484,1.484h7.421a1.484,1.484,0,0,0,1.484-1.484ZM179.3,523.3h-4.453v-4.453H179.3Zm0,0" transform="translate(-155.548 -466.895)" fill="#009edb"></path><path id="Path_908" data-name="Path 908" d="M602.655,526.265a1.484,1.484,0,0,0,1.484-1.484v-7.421a1.484,1.484,0,0,0-1.484-1.484h-7.421a1.484,1.484,0,0,0-1.484,1.484v7.421a1.484,1.484,0,0,0,1.484,1.484Zm-5.937-7.421h4.453V523.3h-4.453Zm0,0" transform="translate(-537.349 -466.895)" fill="#009edb"></path><path id="Path_909" data-name="Path 909" d="M463.515,517.359a1.484,1.484,0,0,0-1.484-1.484h-7.421a1.484,1.484,0,0,0-1.484,1.484v7.421a1.484,1.484,0,0,0,1.484,1.484h7.421a1.484,1.484,0,0,0,1.484-1.484Zm-2.968,5.937h-4.453v-4.453h4.453Zm0,0" transform="translate(-410.082 -466.895)" fill="#009edb"></path><path id="Path_910" data-name="Path 910" d="M491.013.25a22.263,22.263,0,1,0,22.263,22.263A22.263,22.263,0,0,0,491.013.25Zm0,41.559a19.3,19.3,0,1,1,19.3-19.3A19.295,19.295,0,0,1,491.013,41.809Zm0,0" transform="translate(-424.223 -0.25)" fill="#009edb"></path><path id="Path_911" data-name="Path 911" d="M575.857,66.255a10.352,10.352,0,0,1,1.959.208l-2.194,1.38,1.582,2.513,5.009-3.154a1.484,1.484,0,0,0,.408-2.13l-3.648-5.009-2.4,1.747,1.188,1.622a13.355,13.355,0,0,0-12.844,20.883l2.43-1.706a10.39,10.39,0,0,1,8.509-16.353Zm0,0" transform="translate(-509.067 -54.381)" fill="#009edb"></path><path id="Path_912" data-name="Path 912" d="M643.818,153.784a10.336,10.336,0,0,1-10.467,16.145l2.193-1.382-1.582-2.51-5.009,3.154a1.485,1.485,0,0,0-.409,2.13l3.648,5.009,2.4-1.749L633.4,172.96a13.358,13.358,0,0,0,12.838-20.882Zm0,0" transform="translate(-568.581 -137.656)" fill="#009edb"></path></svg> 