<?xml version="1.0" encoding="UTF-8"?> <svg xmlns="http://www.w3.org/2000/svg" width="209" height="59" viewBox="0 0 209 59"><g id="homeaway" transform="translate(-1179 -825)"><rect id="Rectangle_1503" data-name="Rectangle 1503" width="209" height="59" transform="translate(1179 825)" fill="#b8bbc1" opacity="0"></rect><g id="homeaway-2" data-name="homeaway" transform="translate(1206.026 832.159)"><g id="logo" transform="translate(0 8)"><path id="H_3_" d="M2.846,1V9.914H13.5V1H16.39V22.306H13.5V12.313H2.846v9.994H0V1Z" transform="translate(0 -0.181)" fill="#0067db"></path><path id="o_3_" d="M38.57,15.064c0,5.8-4.087,8.325-7.934,8.325C26.324,23.39,23,20.278,23,15.325,23,10.088,26.493,7,30.9,7,35.479,7.008,38.57,10.27,38.57,15.064Zm-12.631.158c0,3.444,2.007,6.027,4.842,6.027,2.762,0,4.842-2.559,4.842-6.09,0-2.662-1.349-6.027-4.77-6.027C27.417,9.141,25.939,12.253,25.939,15.222Z" transform="translate(-4.152 -1.264)" fill="#0067db"></path><path id="m_3_" d="M45.124,12.475c0-1.571-.031-2.858-.124-4.115h2.452l.124,2.444h.093a5.33,5.33,0,0,1,4.843-2.8,4.555,4.555,0,0,1,4.362,3.042h.07a6.475,6.475,0,0,1,1.723-1.985A5.348,5.348,0,0,1,62.066,8c2.033,0,5.06,1.318,5.06,6.6v8.957H64.379v-8.6c0-2.919-1.087-4.674-3.345-4.674A3.6,3.6,0,0,0,57.728,12.8a4.611,4.611,0,0,0-.217,1.387V23.57h-2.74V14.459c0-2.421-1.079-4.184-3.221-4.184a3.833,3.833,0,0,0-3.469,2.758,3.677,3.677,0,0,0-.217,1.349v9.18h-2.74V12.475Z" transform="translate(-8.123 -1.444)" fill="#0067db"></path><path id="e_3_" d="M77.729,15.717c.07,3.855,2.541,5.443,5.418,5.443a10.411,10.411,0,0,0,4.373-.813L88,22.391a12.864,12.864,0,0,1-5.247,1C77.9,23.39,75,20.192,75,15.454S77.806,7,82.406,7c5.153,0,6.525,4.5,6.525,7.378a12.777,12.777,0,0,1-.094,1.324H77.729Zm8.4-2.028c.039-1.812-.741-4.63-3.976-4.63-2.908,0-4.171,2.655-4.4,4.63Z" transform="translate(-13.539 -1.264)" fill="#0067db"></path><path id="A_3_" d="M99.345,15.164,97,22.126H94L101.654,0h3.508l7.686,22.126H109.74l-2.4-6.962Zm7.383-2.237-2.205-6.365c-.5-1.444-.831-2.763-1.167-4.042h-.072c-.335,1.311-.7,2.661-1.134,4l-2.205,6.4Z" transform="translate(-16.969)" fill="#0067db"></path><path id="w_3_" d="M118.958,8l2.083,7.916c.453,1.746.883,3.339,1.178,4.962h.1c.359-1.585.874-3.246,1.4-4.962L126.294,8h2.419l2.443,7.793c.586,1.869,1.046,3.508,1.4,5.085h.093a45.856,45.856,0,0,1,1.21-5.062L136.1,8h2.841l-5.081,15.57h-2.622l-2.412-7.431a50.869,50.869,0,0,1-1.4-5.116h-.07a45.562,45.562,0,0,1-1.444,5.154l-2.544,7.393h-2.606L116,8Z" transform="translate(-20.94 -1.444)" fill="#0067db"></path><path id="a_3_2" data-name="a_3_" d="M158.041,19.279a23.332,23.332,0,0,0,.252,3.755h-2.544l-.229-1.974h-.091a5.751,5.751,0,0,1-4.714,2.33A4.421,4.421,0,0,1,146,18.884c0-3.786,3.313-5.853,9.268-5.83v-.325c0-1.293-.35-3.623-3.5-3.623a7.524,7.524,0,0,0-4.014,1.169l-.633-1.881A9.434,9.434,0,0,1,152.192,7c4.714,0,5.864,3.267,5.864,6.41l-.016,5.868Zm-2.711-4.25c-3.054-.07-6.527.488-6.527,3.53a2.507,2.507,0,0,0,2.643,2.725,3.827,3.827,0,0,0,3.725-2.624,3.17,3.17,0,0,0,.16-.914V15.028Z" transform="translate(-26.356 -1.264)" fill="#0067db"></path><path id="y_3_" d="M165.1,8.008l3.436,9.147c.356,1.025.752,2.233,1.008,3.166h.07c.288-.925.613-2.111,1.009-3.228L173.734,8h3.017L172.47,19.029c-1.8,4.65-3.226,7.426-5.39,9.269a7.914,7.914,0,0,1-3.506,1.828l-.706-2.363a7.786,7.786,0,0,0,2.5-1.377,8.677,8.677,0,0,0,2.4-3.136,2.218,2.218,0,0,0,.233-.673,2.336,2.336,0,0,0-.2-.727L162,8.008Z" transform="translate(-29.244 -1.444)" fill="#0067db"></path><g id="_xAE__3_" transform="translate(150.104 5.417)"><path id="Shape" d="M4.644,2.782A2.2,2.2,0,0,1,2.415,4.97,2.211,2.211,0,0,1,.17,2.782,2.189,2.189,0,0,1,2.424.61,2.176,2.176,0,0,1,4.644,2.782Zm-3.909,0a1.689,1.689,0,0,0,1.7,1.737A1.649,1.649,0,0,0,4.087,2.806a1.692,1.692,0,0,0-1.68-1.745A1.675,1.675,0,0,0,.735,2.782ZM2.079,3.9H1.571V1.733a4.98,4.98,0,0,1,.836-.074,1.162,1.162,0,0,1,.738.172.55.55,0,0,1,.221.467.573.573,0,0,1-.443.516v.033c.213.074.311.238.385.524a2.137,2.137,0,0,0,.164.524H2.948a1.721,1.721,0,0,1-.172-.524c-.041-.221-.172-.336-.459-.336H2.071l.008.869Zm.008-1.213h.246c.27,0,.5-.09.5-.311,0-.2-.139-.336-.467-.336a.7.7,0,0,0-.27.033l-.008.615Z" transform="translate(-0.17 -0.61)" fill="#0067db"></path></g></g></g></g></svg> 