<?xml version="1.0" encoding="UTF-8"?> <svg xmlns="http://www.w3.org/2000/svg" id="integration-2" width="77.52" height="72.352" viewBox="0 0 77.52 72.352"><path id="Path_913" data-name="Path 913" d="M5.168,62.266H7.752V59.682H5.168A2.584,2.584,0,0,1,2.584,57.1V5.418A2.584,2.584,0,0,1,5.168,2.834H62.016A2.584,2.584,0,0,1,64.6,5.418V8h2.584V5.418A5.168,5.168,0,0,0,62.016.25H5.168A5.168,5.168,0,0,0,0,5.418V57.1A5.168,5.168,0,0,0,5.168,62.266Zm0,0" transform="translate(0 -0.25)" fill="#009edb"></path><path id="Path_914" data-name="Path 914" d="M62.5,62.75h2.584v2.584H62.5Zm0,0" transform="translate(-57.332 -57.582)" fill="#009edb"></path><path id="Path_915" data-name="Path 915" d="M125,62.75h2.584v2.584H125Zm0,0" transform="translate(-114.664 -57.582)" fill="#009edb"></path><path id="Path_916" data-name="Path 916" d="M187.5,62.75h2.584v2.584H187.5Zm0,0" transform="translate(-171.996 -57.582)" fill="#009edb"></path><path id="Path_917" data-name="Path 917" d="M125,182.1a5.168,5.168,0,0,0,5.168,5.168h56.848a5.168,5.168,0,0,0,5.168-5.168v-51.68a5.168,5.168,0,0,0-5.168-5.168H130.168A5.168,5.168,0,0,0,125,130.418Zm2.584-51.68a2.584,2.584,0,0,1,2.584-2.584h56.848a2.584,2.584,0,0,1,2.584,2.584V182.1a2.584,2.584,0,0,1-2.584,2.584H130.168a2.584,2.584,0,0,1-2.584-2.584Zm0,0" transform="translate(-114.664 -114.914)" fill="#009edb"></path><path id="Path_918" data-name="Path 918" d="M187.5,187.75h2.584v2.584H187.5Zm0,0" transform="translate(-171.996 -172.246)" fill="#009edb"></path><path id="Path_919" data-name="Path 919" d="M250,187.75h2.584v2.584H250Zm0,0" transform="translate(-229.328 -172.246)" fill="#009edb"></path><path id="Path_920" data-name="Path 920" d="M312.5,187.75h2.584v2.584H312.5Zm0,0" transform="translate(-286.66 -172.246)" fill="#009edb"></path><path id="Path_921" data-name="Path 921" d="M187.5,250.25h56.848v2.584H187.5Zm0,0" transform="translate(-171.996 -229.578)" fill="#009edb"></path><path id="Path_922" data-name="Path 922" d="M187.5,328.375h10.336v2.584H187.5Zm0,0" transform="translate(-171.996 -301.243)" fill="#009edb"></path><path id="Path_923" data-name="Path 923" d="M187.5,390.875h7.752v2.584H187.5Zm0,0" transform="translate(-171.996 -358.575)" fill="#009edb"></path><path id="Path_924" data-name="Path 924" d="M430.919,453.375a9.044,9.044,0,1,0,9.044,9.044A9.043,9.043,0,0,0,430.919,453.375Zm0,15.5a6.46,6.46,0,1,1,6.46-6.46A6.46,6.46,0,0,1,430.919,468.879Zm0,0" transform="translate(-386.991 -415.907)" fill="#009edb"></path><path id="Path_925" data-name="Path 925" d="M322.594,329.546a1.292,1.292,0,0,0-1.292-1.292h-3.415a16.43,16.43,0,0,0-1.022-2.468l2.415-2.413a1.293,1.293,0,0,0,0-1.827l-5.482-5.482a1.293,1.293,0,0,0-1.827,0l-2.413,2.414a16.712,16.712,0,0,0-2.468-1.021v-3.415a1.292,1.292,0,0,0-1.292-1.292h-7.752a1.292,1.292,0,0,0-1.292,1.292v3.415a16.711,16.711,0,0,0-2.468,1.021l-2.413-2.414a1.293,1.293,0,0,0-1.827,0l-5.482,5.482a1.293,1.293,0,0,0,0,1.827l2.413,2.413c-.108.212-.212.424-.31.638a16.716,16.716,0,0,0-.711,1.829h-3.415a1.292,1.292,0,0,0-1.292,1.292V337.3a1.292,1.292,0,0,0,1.292,1.292h3.415a16.43,16.43,0,0,0,1.022,2.468l-2.415,2.413a1.293,1.293,0,0,0,0,1.827l5.482,5.482a1.293,1.293,0,0,0,1.827,0l2.413-2.413a16.717,16.717,0,0,0,2.468,1.021V352.8a1.292,1.292,0,0,0,1.292,1.292H305.8a1.292,1.292,0,0,0,1.292-1.292v-3.415a16.718,16.718,0,0,0,2.468-1.021l2.413,2.413a1.293,1.293,0,0,0,1.827,0l5.482-5.482a1.293,1.293,0,0,0,0-1.827l-2.415-2.413a16.43,16.43,0,0,0,1.022-2.468H321.3a1.292,1.292,0,0,0,1.292-1.292Zm-2.584,6.46h-3.093a1.292,1.292,0,0,0-1.251.969,14.127,14.127,0,0,1-1.512,3.654,1.293,1.293,0,0,0,.2,1.57l2.184,2.186-3.654,3.655-2.186-2.186a1.292,1.292,0,0,0-1.57-.2,14.115,14.115,0,0,1-3.653,1.512,1.292,1.292,0,0,0-.969,1.251v3.093h-5.168v-3.093a1.292,1.292,0,0,0-.969-1.251,14.116,14.116,0,0,1-3.653-1.512,1.292,1.292,0,0,0-1.57.2l-2.186,2.186-3.654-3.655,2.184-2.186a1.292,1.292,0,0,0,.2-1.57,14.123,14.123,0,0,1-1.512-3.654,1.292,1.292,0,0,0-1.251-.969h-3.093v-5.168h3.093a1.292,1.292,0,0,0,1.251-.969,14.03,14.03,0,0,1,.84-2.368,14.273,14.273,0,0,1,.672-1.292,1.293,1.293,0,0,0-.2-1.569l-2.184-2.186,3.654-3.655,2.186,2.187a1.292,1.292,0,0,0,1.57.2,14.132,14.132,0,0,1,3.653-1.512,1.292,1.292,0,0,0,.969-1.25v-3.088h5.168v3.093a1.292,1.292,0,0,0,.969,1.251,14.111,14.111,0,0,1,3.653,1.512,1.292,1.292,0,0,0,1.57-.2l2.186-2.186,3.654,3.655-2.184,2.186a1.293,1.293,0,0,0-.2,1.57,14.128,14.128,0,0,1,1.512,3.654,1.292,1.292,0,0,0,1.251.969h3.093Zm0,0" transform="translate(-257.994 -286.91)" fill="#009edb"></path><path id="Path_926" data-name="Path 926" d="M781.25,781.5H789v2.584H781.25Zm0,0" transform="translate(-716.65 -716.9)" fill="#009edb"></path></svg> 