<?xml version="1.0" encoding="UTF-8"?> <svg xmlns="http://www.w3.org/2000/svg" width="76" height="76" viewBox="0 0 76 76"><g id="refund" transform="translate(-974.5 -7670)"><g id="Ellipse_63" data-name="Ellipse 63" transform="translate(974.5 7670)" fill="none" stroke="#009edb" stroke-width="2"><circle cx="38" cy="38" r="38" stroke="none"></circle><circle cx="38" cy="38" r="37" fill="none"></circle></g><path id="calendar-times" d="M32.951,5.272H29V.989A.991.991,0,0,0,28.009,0H27.35a.991.991,0,0,0-.989.989V5.272H10.544V.989A.991.991,0,0,0,9.556,0H8.9a.991.991,0,0,0-.989.989V5.272H3.954A3.955,3.955,0,0,0,0,9.226v29a3.955,3.955,0,0,0,3.954,3.954h29a3.955,3.955,0,0,0,3.954-3.954v-29A3.955,3.955,0,0,0,32.951,5.272Zm-29,2.636h29A1.322,1.322,0,0,1,34.27,9.226v3.954H2.636V9.226A1.322,1.322,0,0,1,3.954,7.908Zm29,31.633h-29a1.322,1.322,0,0,1-1.318-1.318V15.817H34.27V38.224A1.322,1.322,0,0,1,32.951,39.542Zm-8.674-7.9a.989.989,0,0,1,0,1.4l-.47.47a.989.989,0,0,1-1.4,0l-3.954-3.971L14.49,33.5a.989.989,0,0,1-1.4,0l-.47-.47a.989.989,0,0,1,0-1.4l3.962-3.962L12.62,23.709a.989.989,0,0,1,0-1.4l.47-.47a.989.989,0,0,1,1.4,0L18.453,25.8l3.962-3.962a.989.989,0,0,1,1.4,0l.47.47a.989.989,0,0,1,0,1.4l-3.971,3.971Z" transform="translate(994.547 7686.911)" fill="#009edb"></path></g></svg> 