<?xml version="1.0" encoding="UTF-8"?> <svg xmlns="http://www.w3.org/2000/svg" width="76" height="76" viewBox="0 0 76 76"><g id="security" transform="translate(-975.5 -5151)"><g id="Ellipse_59" data-name="Ellipse 59" transform="translate(975.5 5151)" fill="none" stroke="#009edb" stroke-width="2"><circle cx="38" cy="38" r="38" stroke="none"></circle><circle cx="38" cy="38" r="37" fill="none"></circle></g><g id="icon_lock_alt" transform="translate(991.931 5165)"><path id="Path_931" data-name="Path 931" d="M21.311,0A13.666,13.666,0,0,0,7.517,13.534v2.46H4.759A2.714,2.714,0,0,0,2,18.66V39.985A2.714,2.714,0,0,0,4.759,42.65h33.1a2.714,2.714,0,0,0,2.759-2.666V18.66a2.714,2.714,0,0,0-2.759-2.666H35.1v-2.46A13.666,13.666,0,0,0,21.311,0ZM10.276,13.534a11.036,11.036,0,0,1,22.07,0v2.46H10.276ZM37.863,39.985H4.759V18.66h33.1ZM26.828,29.322a5.521,5.521,0,1,0-5.517,5.331A5.425,5.425,0,0,0,26.828,29.322Zm-5.517,2.666a2.667,2.667,0,1,1,2.759-2.666A2.718,2.718,0,0,1,21.311,31.988Z" fill="#009edb"></path></g></g></svg> 