<?xml version="1.0" encoding="UTF-8"?> <svg xmlns="http://www.w3.org/2000/svg" xmlns:xlink="http://www.w3.org/1999/xlink" width="209" height="59" viewBox="0 0 209 59"><defs><clipPath id="clip-path"><path id="Path_949" data-name="Path 949" d="M736.875-36.215h168V-7.708h-168Z" transform="translate(-736.875 36.215)"></path></clipPath><clipPath id="clip-path-2"><path id="Path_948" data-name="Path 948" d="M736.875-7.708h168V-36.215h-168Z" transform="translate(-736.875 36.215)"></path></clipPath><clipPath id="clip-path-4"><path id="Path_953" data-name="Path 953" d="M736.875-35.82H904.839V-7.912H736.875Z" transform="translate(-736.875 35.82)"></path></clipPath></defs><g id="booking_com_partner" transform="translate(-317 -825)"><rect id="Rectangle_1503" data-name="Rectangle 1503" width="209" height="59" transform="translate(317 825)" fill="#b8bbc1" opacity="0"></rect><g id="Group_306" data-name="Group 306" transform="translate(335.432 830.387)"><text id="Preferred_IT_Partner" data-name="Preferred IT Partner" transform="translate(79.891 41.283)" fill="#b8bbc1" font-size="12" font-family="Cabin-Regular, Cabin" letter-spacing="0.03em"><tspan x="-67.398" y="0">Preferred IT Partner</tspan></text><g id="bookingcom" transform="translate(-1.682 0.758)"><g id="Group_325" data-name="Group 325" transform="translate(0.25 -0.145)" clip-path="url(#clip-path)"><g id="Group_324" data-name="Group 324" clip-path="url(#clip-path-2)"><path id="Path_945" data-name="Path 945" d="M783.2-33.263a2.553,2.553,0,0,1,2.553-2.553,2.553,2.553,0,0,1,2.553,2.553,2.555,2.555,0,0,1-2.553,2.458,2.555,2.555,0,0,1-2.553-2.458" transform="translate(-717.317 36.383)" fill="#273b7d"></path><path id="Path_946" data-name="Path 946" d="M811.519-21.289a2.554,2.554,0,0,1,2.547-2.562,2.56,2.56,0,0,1,2.56,2.56,2.56,2.56,0,0,1-2.56,2.56,2.556,2.556,0,0,1-2.547-2.56" transform="translate(-705.359 41.435)" fill="#499fdd"></path><path id="Path_947" data-name="Path 947" d="M756.122-17.541c-2.2,0-3.726-1.746-3.726-4.242s1.529-4.238,3.728-4.238,3.755,1.744,3.755,4.238C759.878-19.248,758.367-17.541,756.122-17.541Zm0-12.208a7.735,7.735,0,0,0-8.027,7.966,7.735,7.735,0,0,0,8.027,7.966,7.749,7.749,0,0,0,8.059-7.964,7.75,7.75,0,0,0-8.057-7.968m36.951,8.366a3.8,3.8,0,0,0-.608-.859l-.142-.148.149-.142a6.392,6.392,0,0,0,.642-.8l4.107-6.1h-4.985l-3.084,4.773a1.2,1.2,0,0,1-1.054.384h-.7V-33.3c0-1.8-1.125-2.05-2.34-2.05h-2.08l.005,21.3H787.4v-6.389h.414c.5,0,.844.059,1,.332l2.436,4.6a2.449,2.449,0,0,0,2.635,1.46h3.383l-2.521-4.167-1.671-3.164m21.435-8.4a6.007,6.007,0,0,0-4.484,1.844l-.267.27-.1-.368a2.033,2.033,0,0,0-2.228-1.4h-1.979l.012,15.383h4.386v-7.09a5.7,5.7,0,0,1,.274-1.844,3.6,3.6,0,0,1,3.55-2.7c1.369,0,1.9.724,1.9,2.59v6.7a2.035,2.035,0,0,0,2.333,2.338H820L820-23.842c0-3.886-1.9-5.941-5.486-5.941m-13.886.348h-2.078l.014,11.9v3.488h2.217l.078,0,1.035,0h1.028v-.005h.007l.009-13.04a2.039,2.039,0,0,0-2.308-2.336m-27.28,11.892c-2.2,0-3.728-1.746-3.728-4.242s1.531-4.238,3.73-4.238,3.755,1.744,3.755,4.238c0,2.535-1.511,4.242-3.755,4.242Zm0-12.208a7.737,7.737,0,0,0-8.032,7.966,7.737,7.737,0,0,0,8.034,7.966,7.753,7.753,0,0,0,8.059-7.964,7.755,7.755,0,0,0-8.059-7.968" transform="translate(-732.138 36.58)" fill="#273b7d"></path></g></g><g id="Group_328" data-name="Group 328" transform="translate(0.25 -0.145)" clip-path="url(#clip-path)"><g id="Group_327" data-name="Group 327" transform="translate(0 0.562)" clip-path="url(#clip-path-4)"><g id="Group_326" data-name="Group 326" transform="translate(0 -0.562)" clip-path="url(#clip-path-2)"><path id="Path_950" data-name="Path 950" d="M834.328-19.2c-2.2,0-3.73-1.746-3.73-4.242s1.532-4.238,3.73-4.238,3.756,1.744,3.756,4.238C838.084-20.911,836.573-19.2,834.328-19.2Zm0-12.208a7.736,7.736,0,0,0-8.03,7.966,7.735,7.735,0,0,0,8.03,7.966,7.752,7.752,0,0,0,8.059-7.964,7.755,7.755,0,0,0-8.059-7.968" transform="translate(-699.119 38.243)" fill="#499fdd"></path><path id="Path_951" data-name="Path 951" d="M807.445-19.861c-2.4,0-3.252-2.091-3.252-4.052,0-.864.219-3.678,3.022-3.678,1.392,0,3.246.4,3.246,3.822C810.462-20.539,808.821-19.861,807.445-19.861Zm5.294-11.257a1.9,1.9,0,0,0-1.794.939l-.121.235-.2-.178a5.974,5.974,0,0,0-4.037-1.339c-4.1,0-6.862,3.081-6.862,7.662s2.857,7.78,6.944,7.78a5.4,5.4,0,0,0,3.374-.988l.338-.254v.427c0,2.055-1.328,3.189-3.737,3.189a8.853,8.853,0,0,1-2.951-.544,1.3,1.3,0,0,0-1.851.885l-.348.86L801-11.186l.3.162a11.992,11.992,0,0,0,5.364,1.307c3.733,0,8.1-1.911,8.1-7.291l.016-14.11h-2.039" transform="translate(-710.339 38.222)" fill="#273b7d"></path></g></g></g><g id="Group_330" data-name="Group 330" transform="translate(0.25 -0.145)" clip-path="url(#clip-path)"><g id="Group_329" data-name="Group 329" clip-path="url(#clip-path-2)"><path id="Path_955" data-name="Path 955" d="M744.528-17.72l-3.57,0V-21.99c0-.914.354-1.387,1.134-1.5h2.436a2.671,2.671,0,0,1,2.862,2.868,2.657,2.657,0,0,1-2.862,2.9Zm-3.57-11.513v-1.124c0-.983.416-1.451,1.328-1.511h1.828a2.3,2.3,0,0,1,2.5,2.507,2.378,2.378,0,0,1-2.448,2.59h-3.213Zm8.128,4.26-.645-.363.564-.482a5.152,5.152,0,0,0,1.753-4.018c0-3.349-2.6-5.511-6.615-5.511h-5.109a2.24,2.24,0,0,0-2.158,2.212v19h7.358c4.468,0,7.351-2.432,7.351-6.2a5.175,5.175,0,0,0-2.5-4.644" transform="translate(-736.875 36.582)" fill="#273b7d"></path><path id="Path_956" data-name="Path 956" d="M866.487-31.4a6.045,6.045,0,0,0-4.708,2.281l-.316.4-.249-.45A4.37,4.37,0,0,0,857.06-31.4a5.566,5.566,0,0,0-4.041,1.813l-.416.45-.16-.592a1.957,1.957,0,0,0-2.139-1.321H848.46l-.018,15.324h4.187v-6.764a7.57,7.57,0,0,1,.222-1.792c.4-1.636,1.5-3.394,3.346-3.218,1.138.11,1.7.99,1.7,2.69v9.084h4.217v-6.764a6.139,6.139,0,0,1,.236-1.851c.338-1.561,1.486-3.161,3.268-3.161,1.291,0,1.767.729,1.767,2.692v6.844c0,1.547.69,2.24,2.238,2.24h1.97l0-9.783c0-3.909-1.721-5.892-5.106-5.892m-38.1,10.354a6.465,6.465,0,0,1-4.187,1.915,4.1,4.1,0,0,1-4.345-4.286,4.052,4.052,0,0,1,4.117-4.343c.786,0,1.682.281,1.822.756l.02.08a1.539,1.539,0,0,0,1.493,1.132l2.293,0V-27.8c0-2.645-3.365-3.605-5.629-3.605-4.843,0-8.356,3.371-8.356,8.014s3.474,8.007,8.267,8.007a8.692,8.692,0,0,0,6.439-2.759l.121-.149L828.622-21.3l-.24.254" transform="translate(-703.63 38.247)" fill="#499fdd"></path></g></g></g></g></g></svg> 