<svg xmlns="http://www.w3.org/2000/svg" width="289.679" height="331.046" viewBox="0 0 289.679 331.046"><g id="fingerprint" transform="translate(-1.5)"><g id="Group_476" data-name="Group 476" transform="translate(19.013 0)"><path id="Path_2300" data-name="Path 2300" d="M247.063,66.43a10.238,10.238,0,0,1-6.966-2.7A162.089,162.089,0,0,0,20.09,63.74a10.35,10.35,0,0,1-13.945-15.3,182.793,182.793,0,0,1,247.9,0,10.339,10.339,0,0,1-6.98,17.987Z" transform="translate(-2.769 0)" fill="#042745"></path></g><g id="Group_477" data-name="Group 477" transform="translate(1.5 40.484)"><path id="Path_2301" data-name="Path 2301" d="M280.824,96.483a10.308,10.308,0,0,1-8.593-4.579c-28.718-42.76-75.782-68.292-125.894-68.292S49.161,49.143,20.443,91.9A10.348,10.348,0,1,1,3.256,80.372C35.823,31.888,89.314,2.935,146.337,2.935S256.851,31.888,289.418,80.386a10.325,10.325,0,0,1-8.593,16.1Z" transform="translate(-1.5 -2.935)" fill="#042745"></path></g><g id="Group_478" data-name="Group 478" transform="translate(51.037 121.439)"><path id="Path_2302" data-name="Path 2302" d="M67.714,218.411a10.329,10.329,0,0,1-7.352-3.062C58.1,213.073,5.091,158.961,5.091,106.863c0-54.071,42.746-98.059,95.3-98.059s95.3,43.988,95.3,98.059a10.345,10.345,0,1,1-20.69,0c0-42.664-33.463-77.368-74.609-77.368S25.781,64.2,25.781,106.863c0,43.684,48.788,93.424,49.284,93.92a10.345,10.345,0,0,1-7.352,17.628Z" transform="translate(-5.091 -8.804)" fill="#042745"></path></g><g id="Group_479" data-name="Group 479" transform="translate(11.822 80.955)"><path id="Path_2303" data-name="Path 2303" d="M169.44,255.96c-24.884,0-82.568-47.34-88.155-100.059-1.972-18.635,3.959-37.7,15.849-50.995a52.761,52.761,0,0,1,39.339-18.056h.29A55.076,55.076,0,0,1,175.8,103.072a57.835,57.835,0,0,1,17.063,41.353v6.745c0,16.621,12.938,30.139,28.856,30.139s28.87-13.518,28.87-30.139v-2.359c0-64.416-46.664-118-106.238-121.977A110.769,110.769,0,0,0,60.5,56.947,120.844,120.844,0,0,0,49.05,219.5a10.35,10.35,0,0,1-16.18,12.911A141.544,141.544,0,0,1,46.346,41.829,131.246,131.246,0,0,1,145.7,6.172c70.4,4.7,125.563,67.354,125.563,142.626v2.359c0,28.029-22.235,50.829-49.56,50.829s-49.547-22.8-49.547-50.829v-6.745a37.319,37.319,0,0,0-10.952-26.677,34.463,34.463,0,0,0-24.442-10.207h-.193A32,32,0,0,0,112.541,118.7c-8.069,9.007-12.069,22.111-10.7,35.022,4.566,43.008,53.988,81.561,67.589,81.561a10.338,10.338,0,0,1,.014,20.677Z" transform="translate(-2.248 -5.869)" fill="#042745"></path></g><g id="Group_480" data-name="Group 480" transform="translate(135.178 202.407)"><path id="Path_2304" data-name="Path 2304" d="M93.415,123.078c-37.022,0-82.224-45.243-82.224-98.059a10.345,10.345,0,0,1,20.69,0c0,40.939,34.415,77.368,61.533,77.368a10.345,10.345,0,0,1,0,20.69Z" transform="translate(-11.191 -14.674)" fill="#042745"></path></g></g></svg>