<svg xmlns="http://www.w3.org/2000/svg" width="266" height="196" viewBox="0 0 266 196" fill="none"><g clip-path="url(#clip0)"><path d="M158.533 27.3357C169.713 27.3357 172.971 25.2119 172.183 22.1589C171.395 19.1058 152.569 4 140.365 4C134.506 4 123.76 13.6768 124.417 16.4643C125.074 19.2519 139.38 27.3357 158.533 27.3357Z" fill="#394B63"></path><path d="M140.365 4C145.173 4 151.019 6.3495 156.379 9.38925C154.842 12.96 147.814 15.6679 139.38 15.6679C134.072 15.6679 129.33 14.5927 126.151 12.9201C129.343 9.0574 136.122 4 140.365 4Z" fill="#4C6B8E"></path><path d="M132.627 147.983H158.862L163.066 190.42H128.424L132.627 147.983Z" fill="#E2C7A8"></path><path d="M129.777 176.708L132.627 147.983H158.862L161.988 179.602L129.777 176.708Z" fill="#CCAE8F"></path><path d="M80.2241 44.2999H211.265C221.065 44.2999 229 52.3307 229 62.2199V150.479C229 160.381 221.065 168.399 211.265 168.399H80.2241C70.424 168.399 62.4893 160.381 62.4893 150.479V62.2199C62.4893 52.3307 70.424 44.2999 80.2241 44.2999Z" fill="#F7E4C9"></path><path d="M75.4554 44.2999H159.059L227.752 162.704C225.965 166.089 222.432 168.399 218.372 168.399H147.459L75.4554 44.2999Z" fill="#FFF0DE"></path><path d="M217.19 168.399H91.8109L81.5115 116.564H201.439L217.19 168.399Z" fill="#E2C7A8"></path><path d="M73.117 44.2999H218.372C224.244 44.2999 229 49.1184 229 55.0386V146.39H62.4893V55.0386C62.4893 49.1184 67.2448 44.2999 73.117 44.2999Z" fill="#4C4341"></path><path d="M70.621 53.5917H220.868V146.404H70.621V53.5917Z" fill="#74D7E2"></path><path d="M210.503 146.39H87.4363L86.3197 140.736L201.439 116.564L210.503 146.39Z" fill="#58C1C6"></path><path d="M202.358 146.39H87.9355C81.3802 129.811 95.4761 93.1882 104.987 83.5512C114.446 73.9806 140.234 60.2951 146.71 60.7464C158.258 61.5429 183.126 77.193 185.819 79.569C190.023 83.2857 206.037 112.183 202.358 146.39Z" fill="#394B63"></path><path d="M147.643 83.153C135.412 83.153 125.061 78.2018 121.671 71.4055C131.826 65.3791 142.809 60.481 146.736 60.7465C153.463 61.211 164.721 66.7198 173.47 71.7108C169.91 78.3478 159.703 83.153 147.643 83.153Z" fill="#314356"></path><path d="M87.5808 123.612C88.4741 126.015 90.3396 127.024 91.7715 128.497C97.289 134.218 106.459 120.931 114.787 95.2855C114.196 114.772 131.971 126.307 145.094 126.307C159.072 126.307 170.094 108.599 175.992 95.0864C176.321 110.644 187.986 128.67 194.424 127.316C197.708 126.625 200.046 122.962 201.202 117.612C202.792 126.373 203.462 136.156 202.358 146.404H87.9355C85.6497 140.59 85.8862 132.32 87.5808 123.612Z" fill="#314356"></path><path d="M109.336 111.161C87.2524 120.838 81.6035 137.218 82.9566 148.169C82.9566 148.169 119.99 159.306 131.117 136.355L109.336 111.161Z" fill="#1F2C38"></path><path d="M160.294 64.9543C149.889 70.3569 140.247 70.6489 131.34 65.9101L133.284 46.7689L157.102 47.3662L160.294 64.9543Z" fill="#ED7656"></path><path d="M157.482 25.0791C159.322 37.716 155.065 49.052 154.041 56.897C153.673 59.6845 130.591 60.096 130.184 53.5785C130.013 50.8971 131.8 18.389 135.281 17.3669C138.762 16.3448 156.221 16.3581 157.482 25.0791Z" fill="#FFBB83"></path><path d="M136.647 33.9595C134.848 33.9595 133.087 34.132 131.406 34.4373C132.26 25.9951 133.573 17.8714 135.281 17.3669C138.762 16.3448 156.221 16.3448 157.482 25.0659C158.428 31.5834 157.758 37.7426 156.747 43.2646C152.714 37.7027 145.226 33.9595 136.647 33.9595Z" fill="#FF9D66"></path><path d="M163.972 66.6667L159.414 60.1226C159.414 60.1226 148.431 67.2374 142.533 67.2374C136.634 67.2374 131.734 62.0738 131.734 62.0738L128.029 67.556L133.994 78.2283L142.139 70.8214L148.628 78.5734L163.972 66.6667Z" fill="#394B63"></path><path d="M141.153 80.7637L145.502 74.8434L142.139 70.8214L137.081 75.4142L141.153 80.7637Z" fill="#1F2C38"></path><path d="M143.321 145.992H133.862L139.498 78.6L142.585 78.8124L143.321 145.992Z" fill="#1F2C38"></path><path d="M123.826 188.031H167.65V192.013H123.826V188.031Z" fill="#F7E4C9"></path><path d="M87.9486 146.39C80.8678 131.404 100.442 113.975 111.661 110.59C122.88 107.206 158.113 108.201 158.113 108.201L164.406 117.148C164.406 117.148 124.785 147.014 115.983 147.97C109.06 148.74 89.2623 149.191 87.9486 146.39Z" fill="#FFBB83"></path><path d="M128.713 123.413C141.771 120.387 153.279 116.497 161.253 112.701L164.393 117.161C164.393 117.161 124.771 147.028 115.97 147.983C109.06 148.74 89.2492 149.178 87.9355 146.39C85.0585 140.298 86.5824 133.807 90.1556 128.006C99.1019 128.563 113.198 127.01 128.713 123.413Z" fill="#FF9D66"></path><path d="M114.853 109.86C114.853 109.847 114.866 109.847 114.853 109.86C114.906 109.847 115.812 109.688 117.297 109.475C122.17 108.798 128.424 108.44 134.572 108.254C138.894 108.374 142.979 108.958 145.672 110.418C150.1 112.807 149.232 121.634 147.406 129.506C137.659 136.355 126.085 144.041 119.517 146.895C131.524 129.678 114.853 109.86 114.853 109.86Z" fill="#ED7656"></path><path d="M180.709 113.643L154.238 107.816C166.836 99.4668 176.807 103.967 180.709 113.643Z" fill="#FF9D66"></path><path d="M179.828 111.759C201.846 121.542 207.771 138.346 206.693 149.882C206.693 149.882 168.767 163.102 157.272 138.32L179.828 111.759Z" fill="#1F2C38"></path><path d="M201.176 147.386C208.007 140.483 189.563 114.573 178.344 111.188C167.125 107.803 137.304 104.829 137.304 104.829L122.84 112.382C122.84 112.382 161.424 147.134 169.884 149.735C180.919 153.12 199.021 149.576 201.176 147.386Z" fill="#FFBB83"></path><path d="M163.066 126.041C175.099 128.046 186.226 127.063 193.609 123.931C200.467 132.692 205.209 143.337 201.189 147.399C199.021 149.59 180.919 153.134 169.897 149.749C161.437 147.147 122.853 112.396 122.853 112.396C122.853 112.396 146.999 123.36 163.066 126.041Z" fill="#FF9D66"></path><path d="M145.738 160.846C137.039 160.846 129.987 160.489 129.987 160.049C129.987 159.61 137.039 159.253 145.738 159.253C154.437 159.253 161.489 159.61 161.489 160.049C161.489 160.489 154.437 160.846 145.738 160.846Z" fill="#CCAB8B"></path><path d="M141.311 105.268L129.816 114.294C129.199 114.785 128.424 114.984 127.648 114.878C123.208 114.227 116.85 109.9 110.124 111.135C110.111 111.135 120.673 93.6926 141.311 105.268Z" fill="#FFBB83"></path><path d="M158.231 53.5918L155.932 47.3264L154.041 28.8623L161.91 27.2561L158.231 53.5918Z" fill="#773525"></path><path d="M153.949 28.0658C153.949 28.464 151.781 42.5876 151.781 42.5876L156.996 44.2734L159.755 34.9285L153.949 28.0658Z" fill="#773525"></path><path d="M161.45 29.9905L163.289 24.1633C153.344 14.2343 139.787 11.5529 133.205 18.5749L132.22 23.6588C142.375 22.6633 152.123 24.7473 161.45 29.9905Z" fill="#778D9E"></path><path d="M154.251 17.5395C154.724 18.2032 154.986 18.9067 154.986 19.6501C154.986 21.8801 152.661 23.8447 149.154 24.9729C143.636 23.5261 137.987 23.088 132.207 23.6588L133.192 18.5749C137.935 13.5175 146.25 13.4776 154.251 17.5395Z" fill="#9DB0C1"></path><path d="M161.45 29.9905C160.176 31.9816 140.917 30.4286 136.266 29.4197C131.616 28.4109 126.952 25.9287 132.154 23.0084C138.526 19.4244 162.054 27.9065 161.45 29.9905Z" fill="#301F25"></path><path d="M138.132 22.8624C145.725 23.7252 151.663 26.4995 151.374 29.0348C151.295 29.7251 150.756 30.3224 149.889 30.8135C144.398 30.5348 138.565 29.9109 136.266 29.4198C131.616 28.4109 126.952 25.9287 132.154 23.0084C132.43 22.8491 132.759 22.7297 133.113 22.6102C134.677 22.5836 136.371 22.65 138.132 22.8624Z" fill="#442D35"></path><path d="M73.117 44.2999H99.7588C99.7588 52.2245 99.7588 61.6358 99.7588 68.3657C99.7588 84.9981 68.5322 106.409 68.5322 106.409C68.5322 106.409 66.0494 104.71 62.5024 101.896V55.0386C62.4892 49.1184 67.2448 44.2999 73.117 44.2999Z" fill="#B7A997"></path><path d="M31 28.1322H93.453C93.453 28.1322 93.453 51.3352 93.453 64.0782C93.453 79.2903 62.2265 98.8695 62.2265 98.8695C62.2265 98.8695 31 79.2903 31 64.0782C31 50.3396 31 28.1322 31 28.1322Z" fill="#FFD255"></path><path d="M62.4893 28.1322H93.453C93.453 28.1322 93.453 51.3352 93.453 64.0782C93.453 78.4805 65.4713 96.7854 62.4893 98.6969V28.1322Z" fill="#FFC34A"></path><g opacity="0.56"><path opacity="0.56" d="M33.9033 45.4946C33.9033 38.7514 33.9033 33.4285 33.9033 33.4285H38.7377C38.7377 34.5833 38.7377 39.4151 38.7377 45.4946H33.9033Z" fill="#FFE8C2"></path><path opacity="0.56" d="M38.7377 53.1935C38.7377 58.2642 38.7377 60.8924 38.7377 65.2596C38.7377 72.4807 49.0896 83.3255 55.0143 89.8298C47.2504 84.1883 33.9164 73.1576 33.9164 63.9986C33.9164 60.7597 33.9164 56.9766 33.9164 53.1935H38.7377V53.1935Z" fill="#FFE8C2"></path></g><path d="M185.451 92.7634C187.33 91.9006 190.877 93.0023 192.768 94.3165C192.768 94.3165 196.223 100.197 193.254 102.931C190.338 100.98 187.684 97.7942 185.451 92.7634Z" fill="#FFB048"></path><path d="M139.761 19.1855C139.761 18.1634 140.352 17.3271 141.074 17.3271C141.797 17.3271 142.388 18.1634 142.388 19.1855C142.388 20.2076 141.797 21.0438 141.074 21.0438C140.339 21.0438 139.761 20.2076 139.761 19.1855Z" fill="#FFE3C7"></path><path d="M48.1832 52.9015H75.2189V62.1004C75.2189 69.64 69.1628 75.7594 61.701 75.7594C54.2393 75.7594 48.1832 69.64 48.1832 62.1004V52.9015Z" fill="#FFE8C2"></path><path d="M61.701 39.6275C67.6783 39.6275 72.5259 43.8752 72.5259 49.1184V59.7111H67.4813V50.4989C67.4813 47.6981 64.8933 45.4282 61.701 45.4282C58.5088 45.4282 55.9208 47.6981 55.9208 50.4989V59.7111H50.8762V49.1317C50.8762 43.8884 55.7237 39.6275 61.701 39.6275Z" fill="#FFE8C2"></path><path d="M61.701 64.0119C60.3085 64.0119 59.1787 62.8703 59.1787 61.4633V61.45C59.1787 60.0429 60.3085 58.9014 61.701 58.9014C63.0936 58.9014 64.2233 60.0429 64.2233 61.45V61.4633C64.2233 62.8703 63.0936 64.0119 61.701 64.0119Z" fill="#FFD255"></path><path d="M62.8439 68.525H60.545V62.8968C60.545 62.2597 61.0573 61.742 61.6879 61.742C62.3185 61.742 62.8308 62.2597 62.8308 62.8968V68.525H62.8439Z" fill="#FFD255"></path><path d="M160.872 37.4107L149.193 33.7736L149.075 34.8223L159.978 38.2071L160.872 37.4107Z" fill="#442D35"></path><path d="M129.199 31.5834L138.355 32.579C138.355 32.579 136.634 40.4903 131.038 39.8797C127.688 39.5213 129.199 31.5834 129.199 31.5834Z" fill="#442D35"></path><path d="M149.377 33.7869L138.841 32.6321C138.841 32.6321 138.973 40.7425 145.41 41.4593C149.272 41.8841 149.377 33.7869 149.377 33.7869Z" fill="#442D35"></path><path d="M136.411 45.8397C135.859 45.561 136.936 40.2381 138.513 34.6896L138.25 33.2958C136.332 39.5877 134.834 46.4238 135.478 46.7556C136.109 47.0742 140.68 46.4769 140.68 46.4769L140.536 45.6937C139.143 45.853 136.844 46.0654 136.411 45.8397Z" fill="#ED7656"></path><path d="M139.331 33.7435L137.516 33.5448L137.628 32.5022L139.443 32.7009L139.331 33.7435Z" fill="#442D35"></path><path d="M137.055 49.5432L146.789 48.2689C146.789 48.2689 148.352 53.5254 141.836 53.4855C135.754 53.459 137.055 49.5432 137.055 49.5432Z" fill="#442D35"></path><path d="M137.541 49.6627L146.119 48.5344C146.119 48.5344 147.498 53.167 141.758 53.1404C136.398 53.1139 137.541 49.6627 137.541 49.6627Z" fill="#FFE3C7"></path><path d="M146.264 51.4015L146.224 50.2069L142.874 50.5653L146.237 49.2113L146.579 48.7733L146.697 50.0476L146.264 51.4015Z" fill="#442D35"></path><path d="M155.275 43.3309C155.919 40.2514 157.863 37.3178 159.624 36.7736C161.384 36.2293 162.291 38.2735 161.66 41.3531C161.016 44.4327 159.072 47.3662 157.312 47.9105C155.538 48.4547 154.632 46.4105 155.275 43.3309Z" fill="#FFBB83"></path><path d="M155.959 43.6628C156.379 41.6451 157.653 39.7204 158.809 39.362C159.965 39.0036 160.557 40.3443 160.149 42.3619C159.729 44.3796 158.455 46.3043 157.299 46.6627C156.143 47.0344 155.538 45.6937 155.959 43.6628Z" fill="#ED7656"></path><path d="M155.987 47.1585C155.287 46.8746 155.208 45.4145 155.81 43.8973C156.412 42.38 157.468 41.3801 158.169 41.664C158.869 41.9478 158.948 43.4079 158.346 44.9252C157.744 46.4425 156.688 47.4424 155.987 47.1585Z" fill="#FFBB83"></path></g><defs><clipPath id="clip0"><rect width="198" height="188" fill="white" transform="matrix(-1 0 0 1 229 4)"></rect></clipPath></defs></svg>