<svg width="209" height="59" viewBox="0 0 209 59" fill="none" xmlns="http://www.w3.org/2000/svg">
<g clip-path="url(#clip0)">
<path d="M100.175 49.1306L98.4596 53.5178H97.5413L95.8196 49.1306H96.91L98.0005 52.0831L99.0909 49.1306H100.175ZM100.672 53.5178V49.1306H103.44V49.9978H101.737V50.8715H103.191V51.7068H101.737V52.6506H103.491V53.5178H100.672ZM105.353 49.9723V51.1329H105.838C106.201 51.1329 106.463 50.8842 106.463 50.5526C106.463 50.2083 106.201 49.9723 105.838 49.9723H105.353ZM104.314 53.5178V49.1306H105.978C106.883 49.1306 107.527 49.7173 107.527 50.5526C107.527 51.1202 107.228 51.5793 106.724 51.8216L107.7 53.5178H106.565L105.71 51.9683H105.353V53.5178H104.314ZM108.395 53.5178V49.1306H109.46V53.5178H108.395ZM110.505 53.5178V49.1306H113.273V49.9978H111.57V51.0373H113.024V51.9045H111.57V53.5178H110.505ZM113.994 53.5178V49.1306H115.058V53.5178H113.994ZM116.104 53.5178V49.1306H118.872V49.9978H117.169V50.8715H118.623V51.7068H117.169V52.6506H118.923V53.5178H116.104ZM119.745 53.5178V49.1306H121.486C122.755 49.1306 123.654 50.0425 123.654 51.3242C123.654 52.606 122.755 53.5178 121.486 53.5178H119.745ZM120.81 49.9978V52.6506H121.435C122.105 52.6506 122.57 52.1086 122.57 51.3242C122.57 50.5399 122.105 49.9978 121.435 49.9978H120.81ZM126.02 53.5178V49.1306H127.71C128.628 49.1306 129.279 49.73 129.279 50.5781C129.279 51.4262 128.628 52.0129 127.71 52.0129H127.06V53.5178H126.02ZM127.06 49.9723V51.1775H127.57C127.946 51.1775 128.22 50.9289 128.22 50.5781C128.22 50.2146 127.946 49.9723 127.57 49.9723H127.06ZM129.049 53.5178L130.771 49.1306H131.689L133.405 53.5178H132.372L132.034 52.6123H130.42L130.089 53.5178H129.049ZM131.23 50.4123L130.714 51.8216H131.74L131.23 50.4123ZM134.941 49.9723V51.1329H135.426C135.79 51.1329 136.051 50.8842 136.051 50.5526C136.051 50.2083 135.79 49.9723 135.426 49.9723H134.941ZM133.902 53.5178V49.1306H135.566C136.472 49.1306 137.116 49.7173 137.116 50.5526C137.116 51.1202 136.816 51.5793 136.312 51.8216L137.288 53.5178H136.153L135.298 51.9683H134.941V53.5178H133.902ZM138.774 53.5178V49.9978H137.505V49.1306H141.095V49.9978H139.832V53.5178H138.774ZM141.771 53.5178V49.1306H142.689L144.666 51.8344V49.1306H145.654V53.5178H144.736L142.766 50.8141V53.5178H141.771ZM146.7 53.5178V49.1306H149.468V49.9978H147.765V50.8715H149.219V51.7068H147.765V52.6506H149.519V53.5178H146.7ZM151.381 49.9723V51.1329H151.865C152.229 51.1329 152.49 50.8842 152.49 50.5526C152.49 50.2083 152.229 49.9723 151.865 49.9723H151.381ZM150.341 53.5178V49.1306H152.006C152.911 49.1306 153.555 49.7173 153.555 50.5526C153.555 51.1202 153.256 51.5793 152.752 51.8216L153.728 53.5178H152.592L151.738 51.9683H151.381V53.5178H150.341ZM81.932 48.5941L91.2074 46.5613V53.8063L81.932 55.8367V48.5941ZM85.4353 52.7956C85.6365 52.9865 85.9581 52.9855 86.158 52.7933L88.7376 50.3152C88.9389 50.1195 88.9389 49.8023 88.7376 49.6066C88.5362 49.4109 88.2098 49.4109 88.0085 49.6066L85.7978 51.7225L85.1309 51.1138C84.9296 50.9181 84.6032 50.9181 84.4019 51.1138C84.2005 51.3095 84.2005 51.6267 84.4019 51.8224L85.4353 52.7956ZM77.274 51.9079H74.3174C74.3847 52.6324 74.9034 52.8456 75.4919 52.8456C76.0918 52.8456 76.564 52.7167 76.9759 52.5038V53.7492C76.5652 53.9816 76.0237 54.1498 75.3015 54.1498C73.8305 54.1498 72.7996 53.207 72.7996 51.3428C72.7996 49.7686 73.6739 48.5182 75.111 48.5182C76.5456 48.5182 77.2943 49.7681 77.2943 51.3511C77.2943 51.5005 77.2809 51.8244 77.274 51.9079ZM75.1012 49.7786C74.7236 49.7786 74.304 50.0703 74.304 50.7668H75.8654C75.8654 50.0711 75.4723 49.7786 75.1012 49.7786ZM70.4043 54.1498C69.8758 54.1498 69.5528 53.9215 69.3358 53.7588L69.3326 55.5078L67.8225 55.8367L67.8217 48.6213H69.1519L69.2302 49.0032C69.4394 48.8033 69.8215 48.5182 70.4136 48.5182C71.4743 48.5182 72.4734 49.496 72.4734 51.2956C72.4734 53.26 71.4849 54.1498 70.4043 54.1498ZM70.0527 49.8875C69.7057 49.8875 69.4888 50.0173 69.3314 50.1938L69.3403 52.4909C69.4867 52.6532 69.6984 52.7843 70.0527 52.7843C70.611 52.7843 70.9854 52.162 70.9854 51.3298C70.9854 50.521 70.6053 49.8875 70.0527 49.8875ZM65.6885 48.6213H67.2047V54.0392H65.6885V48.6213ZM65.6885 46.8914L67.2047 46.5613V47.8204L65.6885 48.1501V46.8914ZM64.1222 50.3662V54.0392H62.6125V48.6213H63.9183L64.0133 49.0783C64.3665 48.413 65.0728 48.5478 65.2738 48.6217V50.0423C65.0817 49.9789 64.479 49.8863 64.1222 50.3662ZM60.9345 52.1382C60.9345 53.0493 61.8875 52.7659 62.0812 52.6866V53.9449C61.8797 54.058 61.5148 54.1498 61.0209 54.1498C60.1246 54.1498 59.4521 53.4741 59.4521 52.5589L59.4587 47.5997L60.9332 47.2791L60.9345 48.6213H62.0816V49.9393H60.9345V52.1382ZM59.1018 52.402C59.1018 53.5146 58.2365 54.1498 56.9805 54.1498C56.4597 54.1498 55.8905 54.0463 55.3289 53.7988V52.3231C55.8358 52.6052 56.4818 52.8168 56.9821 52.8168C57.319 52.8168 57.5616 52.7242 57.5616 52.4387C57.5616 51.7008 55.2653 51.9788 55.2653 50.2673C55.2653 49.173 56.0821 48.5182 57.3071 48.5182C57.8075 48.5182 58.3079 48.5971 58.8082 48.8012V50.2569C58.3486 50.0031 57.7655 49.8591 57.3059 49.8591C56.9895 49.8591 56.7929 49.9526 56.7929 50.1943C56.7929 50.8895 59.1018 50.559 59.1018 52.402Z" fill="#32364E"/>
</g>
<path d="M156.796 27.7293H142.894C143.21 31.1359 145.649 32.1387 148.416 32.1387C151.237 32.1387 153.457 31.5323 155.394 30.5315V36.3872C153.463 37.4803 150.917 38.2711 147.521 38.2711C140.604 38.2711 135.757 33.8381 135.757 25.0722C135.757 17.6702 139.868 11.7909 146.625 11.7909C153.371 11.7909 156.891 17.6682 156.891 25.1115C156.891 25.814 156.828 27.3368 156.796 27.7293ZM146.579 17.7173C144.804 17.7173 142.831 19.089 142.831 22.3641H150.173C150.173 19.0929 148.324 17.7173 146.579 17.7173ZM124.494 38.2711C122.009 38.2711 120.49 37.1977 119.47 36.4324L119.455 44.6567L112.354 46.203L112.35 12.2756H118.605L118.973 14.0712C119.957 13.1312 121.754 11.7909 124.538 11.7909C129.525 11.7909 134.223 16.3887 134.223 24.8505C134.223 34.0873 129.575 38.2711 124.494 38.2711ZM122.841 18.2294C121.209 18.2294 120.189 18.8397 119.449 19.6698L119.491 30.4707C120.179 31.2341 121.174 31.8502 122.841 31.8502C125.466 31.8502 127.226 28.9243 127.226 25.0114C127.226 21.2083 125.439 18.2294 122.841 18.2294ZM102.32 12.2756H109.449V37.7511H102.32V12.2756ZM102.32 4.14159L109.449 2.58936V8.50982L102.32 10.0601V4.14159ZM94.9548 20.4803V37.7511H87.8563V12.2756H93.9961L94.4429 14.4244C96.1034 11.2964 99.4245 11.9302 100.37 12.2776V18.9575C99.4667 18.6592 96.6326 18.2235 94.9548 20.4803ZM79.9659 28.8125C79.9659 33.0963 84.447 31.7639 85.3578 31.391V37.3076C84.4106 37.8394 82.6945 38.2711 80.3724 38.2711C76.1578 38.2711 72.9958 35.094 72.9958 30.7906L73.0265 7.47173L79.9601 5.96463L79.9659 12.2756H85.3598V18.4728H79.9659V28.8125ZM71.3487 30.0527C71.3487 35.2844 67.2798 38.2711 61.374 38.2711C58.9253 38.2711 56.2485 37.7844 53.6082 36.6208V29.6818C55.9916 31.0084 59.0289 32.0033 61.3816 32.0033C62.9655 32.0033 64.1064 31.5677 64.1064 30.2254C64.1064 26.7559 53.309 28.0629 53.309 20.0152C53.309 14.8699 57.1498 11.7909 62.9099 11.7909C65.2626 11.7909 67.6154 12.1618 69.9681 13.1214V19.9661C67.8071 18.773 65.0651 18.096 62.9041 18.096C61.4162 18.096 60.4919 18.5356 60.4919 19.6718C60.4919 22.9411 71.3487 21.3869 71.3487 30.0527Z" fill="#555ABF"/>
<defs>
<clipPath id="clip0">
<rect width="98.6088" height="9.39132" fill="white" transform="translate(55.1956 46.5032)"/>
</clipPath>
</defs>
</svg>
