<?xml version="1.0" encoding="UTF-8"?> <!-- Generator: Adobe Illustrator 17.0.0, SVG Export Plug-In . SVG Version: 6.00 Build 0) --> <svg xmlns="http://www.w3.org/2000/svg" xmlns:xlink="http://www.w3.org/1999/xlink" id="Layer_1" x="0px" y="0px" width="1244.655px" height="491.229px" viewBox="0 0 1244.655 491.229" xml:space="preserve"> <filter width="333.558" height="189.459" id="Path_2113" x="448.45" y="301.771"> <feOffset dy="6"></feOffset> <feGaussianBlur stdDeviation="6" result="blur"></feGaussianBlur> <feFlood flood-opacity="0.078"></feFlood> <feComposite operator="in" in2="blur"></feComposite> <feComposite operator="over" in="SourceGraphic"></feComposite> </filter> <g id="charge-automation-process" transform="translate(-342 -1005)"> <g transform="matrix(1, 0, 0, 1, 342, 1005)" filter="url(#Path_2113)"> <path id="Path_2113-2_1_" fill="#FFFFFF" d="M475.45,313.77h279.558c4.971,0,9,4.029,9,9v135.459c0,4.971-4.029,9-9,9H475.45 c-4.971,0-9-4.029-9-9V322.77C466.45,317.799,470.479,313.77,475.45,313.77z"></path> </g> <g> <defs> <rect id="SVGID_1_" x="606" y="1005" width="163.655" height="257"></rect> </defs> <clipPath id="SVGID_2_"> <use xlink:href="#SVGID_1_" overflow="visible"></use> </clipPath> <g id="Component_9_17" transform="translate(606 1005)" opacity="0.28" clip-path="url(#SVGID_2_)"> <path id="Subtraction_24" fill="#042745" d="M143.654,257H20c-11.046,0-20-8.954-20-20V20C0,8.954,8.954,0,20,0h123.655 c11.046,0,20,8.954,20,20v217C163.655,248.046,154.701,257,143.654,257L143.654,257z M81.726,223c-5.523,0-10,4.477-10,10 s4.477,10,10,10s10-4.477,10-10C91.72,227.48,87.246,223.006,81.726,223z M14,30c-2.208,0.003-3.997,1.792-4,4v174 c0.003,2.208,1.792,3.997,4,4h135c2.209,0,4-1.791,4-4V34c0-2.209-1.791-4-4-4H14z M110.226,16c-0.828,0-1.5,0.672-1.5,1.5 s0.672,1.5,1.5,1.5s1.5-0.672,1.5-1.5C111.726,16.672,111.055,16.001,110.226,16L110.226,16z M56.226,16 c-0.828,0-1.5,0.672-1.5,1.5s0.672,1.5,1.5,1.5h48c0.828,0,1.5-0.672,1.5-1.5s-0.672-1.5-1.5-1.5H56.226z M82.226,7 c-1.381,0-2.5,1.119-2.5,2.5s1.119,2.5,2.5,2.5s2.5-1.119,2.5-2.5C84.726,8.12,83.607,7.001,82.226,7L82.226,7z"></path> </g> </g> <g> <defs> <rect id="SVGID_3_" x="883" y="1005" width="163.655" height="257"></rect> </defs> <clipPath id="SVGID_4_"> <use xlink:href="#SVGID_3_" overflow="visible"></use> </clipPath> <g id="Component_9_18" transform="translate(883 1005)" opacity="0.28" clip-path="url(#SVGID_4_)"> <path id="Subtraction_24-2" fill="#042745" d="M143.654,257H20c-11.046,0-20-8.954-20-20V20C0,8.954,8.954,0,20,0h123.655 c11.046,0,20,8.954,20,20v217C163.655,248.046,154.701,257,143.654,257L143.654,257z M81.726,223c-5.523,0-10,4.477-10,10 s4.477,10,10,10s10-4.477,10-10C91.72,227.48,87.246,223.006,81.726,223z M14,30c-2.208,0.003-3.997,1.792-4,4v174 c0.003,2.208,1.792,3.997,4,4h135c2.209,0,4-1.791,4-4V34c0-2.209-1.791-4-4-4H14z M110.226,16c-0.828,0-1.5,0.672-1.5,1.5 s0.672,1.5,1.5,1.5s1.5-0.672,1.5-1.5C111.726,16.672,111.055,16.001,110.226,16L110.226,16z M56.226,16 c-0.828,0-1.5,0.672-1.5,1.5s0.672,1.5,1.5,1.5h48c0.828,0,1.5-0.672,1.5-1.5s-0.672-1.5-1.5-1.5H56.226z M82.226,7 c-1.381,0-2.5,1.119-2.5,2.5s1.119,2.5,2.5,2.5s2.5-1.119,2.5-2.5C84.726,8.12,83.607,7.001,82.226,7L82.226,7z"></path> </g> </g> <g> <defs> <rect id="SVGID_5_" x="1149" y="1005" width="163.655" height="257"></rect> </defs> <clipPath id="SVGID_6_"> <use xlink:href="#SVGID_5_" overflow="visible"></use> </clipPath> <g id="Component_9_19" transform="translate(1149 1005)" opacity="0.28" clip-path="url(#SVGID_6_)"> <path id="Subtraction_24-3" fill="#042745" d="M143.654,257H20c-11.046,0-20-8.954-20-20V20C0,8.954,8.954,0,20,0h123.655 c11.046,0,20,8.954,20,20v217C163.655,248.046,154.701,257,143.654,257L143.654,257z M81.726,223c-5.523,0-10,4.477-10,10 s4.477,10,10,10s10-4.477,10-10C91.72,227.48,87.246,223.006,81.726,223z M14,30c-2.208,0.003-3.997,1.792-4,4v174 c0.003,2.208,1.792,3.997,4,4h135c2.209,0,4-1.791,4-4V34c0-2.209-1.791-4-4-4H14z M110.226,16c-0.828,0-1.5,0.672-1.5,1.5 s0.672,1.5,1.5,1.5s1.5-0.672,1.5-1.5C111.726,16.672,111.055,16.001,110.226,16L110.226,16z M56.226,16 c-0.828,0-1.5,0.672-1.5,1.5s0.672,1.5,1.5,1.5h48c0.828,0,1.5-0.672,1.5-1.5s-0.672-1.5-1.5-1.5H56.226z M82.226,7 c-1.381,0-2.5,1.119-2.5,2.5s1.119,2.5,2.5,2.5s2.5-1.119,2.5-2.5C84.726,8.12,83.607,7.001,82.226,7L82.226,7z"></path> </g> </g> <g> <defs> <rect id="SVGID_7_" x="1423" y="1005" width="163.655" height="257"></rect> </defs> <clipPath id="SVGID_8_"> <use xlink:href="#SVGID_7_" overflow="visible"></use> </clipPath> <g id="Component_9_20" transform="translate(1423 1005)" clip-path="url(#SVGID_8_)"> <path id="Subtraction_24-4" fill="#009EDB" d="M143.654,257H20c-11.046,0-20-8.954-20-20V20C0,8.954,8.954,0,20,0h123.655 c11.046,0,20,8.954,20,20v217C163.655,248.046,154.701,257,143.654,257L143.654,257z M81.726,223c-5.523,0-10,4.477-10,10 s4.477,10,10,10s10-4.477,10-10C91.72,227.48,87.246,223.006,81.726,223z M14,30c-2.208,0.003-3.997,1.792-4,4v174 c0.003,2.208,1.792,3.997,4,4h135c2.209,0,4-1.791,4-4V34c0-2.209-1.791-4-4-4H14z M110.226,16c-0.828,0-1.5,0.672-1.5,1.5 s0.672,1.5,1.5,1.5s1.5-0.672,1.5-1.5C111.726,16.672,111.055,16.001,110.226,16L110.226,16z M56.226,16 c-0.828,0-1.5,0.672-1.5,1.5s0.672,1.5,1.5,1.5h48c0.828,0,1.5-0.672,1.5-1.5s-0.672-1.5-1.5-1.5H56.226z M82.226,7 c-1.381,0-2.5,1.119-2.5,2.5s1.119,2.5,2.5,2.5s2.5-1.119,2.5-2.5C84.726,8.12,83.607,7.001,82.226,7L82.226,7z"></path> </g> </g> <path id="Path_2107" fill="#042745" d="M369.7,1132.8h1.888l5.04,7.648v-7.648h1.872v11.2h-1.54l-5.408-8.112V1144H369.7V1132.8z M381,1132.8h7.04v1.76h-5.16v2.72h4.048v1.76h-4.048v3.2h5.312v1.76h-7.2L381,1132.8z M388.888,1132.8h1.936l2.276,8.416 l2.576-8.336h1.488l2.64,8.208l2.24-8.288h1.936l-3.244,11.2h-1.744l-2.576-8.032l-2.56,8.032h-1.824L388.888,1132.8z M414.9,1137.888c1.345,0.304,2.258,1.554,2.14,2.928c0.045,0.885-0.31,1.743-0.968,2.336c-0.748,0.6-1.691,0.902-2.648,0.848 h-4.512v-11.2h3.968c0.856-0.061,1.706,0.183,2.4,0.688c0.57,0.516,0.873,1.265,0.82,2.032c0.013,0.489-0.09,0.974-0.3,1.416 C415.599,1137.334,415.286,1137.665,414.9,1137.888z M410.768,1137.3h1.856c0.428,0.03,0.854-0.085,1.208-0.328 c0.299-0.283,0.45-0.69,0.408-1.1c0.042-0.41-0.109-0.817-0.408-1.1c-0.354-0.243-0.78-0.358-1.208-0.328h-1.856V1137.3z M413.184,1142.34c1.267,0,1.9-0.56,1.9-1.68c0.048-0.488-0.137-0.97-0.5-1.3c-0.41-0.283-0.903-0.421-1.4-0.392h-2.416v3.376 L413.184,1142.34z M423.616,1144.224c-0.997,0.016-1.98-0.233-2.848-0.724c-0.833-0.481-1.513-1.188-1.96-2.04 c-0.488-0.945-0.732-1.997-0.708-3.06c-0.023-1.065,0.222-2.119,0.712-3.064c0.447-0.852,1.127-1.559,1.96-2.04 c0.868-0.489,1.852-0.738,2.848-0.72c0.996-0.018,1.98,0.231,2.848,0.72c0.833,0.481,1.513,1.188,1.96,2.04 c0.489,0.946,0.732,1.999,0.708,3.064c0.023,1.065-0.222,2.118-0.712,3.064c-0.448,0.85-1.128,1.556-1.96,2.036 C425.596,1143.991,424.613,1144.24,423.616,1144.224z M423.616,1142.432c1.004,0.059,1.978-0.355,2.632-1.12 c0.641-0.831,0.967-1.863,0.92-2.912c0.047-1.049-0.279-2.081-0.92-2.912c-0.654-0.765-1.628-1.18-2.632-1.12 c-1.006-0.058-1.983,0.356-2.64,1.12c-0.646,0.829-0.975,1.862-0.928,2.912c-0.047,1.05,0.282,2.083,0.928,2.912 C421.633,1142.076,422.61,1142.49,423.616,1142.432z M435.84,1144.224c-0.997,0.016-1.98-0.233-2.848-0.724 c-0.833-0.481-1.513-1.188-1.96-2.04c-0.49-0.944-0.734-1.996-0.712-3.06c-0.023-1.065,0.222-2.119,0.712-3.064 c0.447-0.852,1.127-1.559,1.96-2.04c0.868-0.489,1.852-0.738,2.848-0.72c0.996-0.018,1.98,0.231,2.848,0.72 c0.833,0.481,1.513,1.188,1.96,2.04c0.49,0.945,0.735,1.999,0.712,3.064c0.023,1.065-0.222,2.118-0.712,3.064 c-0.448,0.85-1.128,1.556-1.96,2.036C437.82,1143.991,436.837,1144.24,435.84,1144.224z M435.84,1142.432 c1.004,0.059,1.978-0.355,2.632-1.12c0.641-0.831,0.967-1.863,0.92-2.912c0.047-1.049-0.279-2.081-0.92-2.912 c-0.654-0.765-1.628-1.18-2.632-1.12c-1.006-0.058-1.983,0.356-2.64,1.12c-0.646,0.829-0.975,1.862-0.928,2.912 c-0.047,1.05,0.282,2.083,0.928,2.912C433.857,1142.076,434.834,1142.49,435.84,1142.432z M443.2,1132.8h1.856v11.2H443.2V1132.8z M445.216,1138.08l4.144-5.28h2.192l-4.192,5.264l4.208,5.936h-2.208L445.216,1138.08z M452.88,1132.8h1.856v11.2h-1.856V1132.8z M457.232,1132.8h1.888l5.04,7.648v-7.648h1.872v11.2H464.5l-5.412-8.112V1144h-1.856V1132.8z M473.456,1144.224 c-1.032,0.022-2.051-0.228-2.956-0.724c-0.84-0.472-1.522-1.182-1.96-2.04c-0.476-0.956-0.712-2.013-0.688-3.08 c-0.02-1.063,0.238-2.112,0.748-3.044c0.481-0.865,1.2-1.573,2.072-2.04c0.931-0.491,1.971-0.739,3.024-0.72 c0.565-0.001,1.128,0.058,1.68,0.176c0.493,0.1,0.971,0.261,1.424,0.48l-0.192,1.712c-0.916-0.396-1.902-0.603-2.9-0.608 c-1.071-0.076-2.119,0.332-2.856,1.112c-0.673,0.82-1.018,1.86-0.968,2.92c-0.054,1.077,0.291,2.136,0.968,2.976 c0.719,0.778,1.751,1.19,2.808,1.12c0.556,0,1.11-0.07,1.648-0.208v-2.288H473.7v-1.584h3.472v4.992 c-0.512,0.274-1.058,0.478-1.624,0.608C474.863,1144.149,474.16,1144.229,473.456,1144.224z"></path> <path id="Path_2109" fill="#042745" d="M651.272,1127.344h-4.08l-0.928,2.656h-1.984l3.984-11.2h1.936l3.984,11.2H652.2 L651.272,1127.344z M650.632,1125.552l-1.392-4l-1.408,4H650.632z M659.7,1130.224c-1.299,0.095-2.572-0.395-3.472-1.336 c-0.829-1.044-1.243-2.357-1.164-3.688v-6.4h2.048v5.872c-0.014,0.654,0.056,1.308,0.208,1.944 c0.114,0.479,0.388,0.905,0.776,1.208c0.474,0.316,1.039,0.467,1.608,0.432c0.569,0.035,1.134-0.116,1.608-0.432 c0.388-0.303,0.662-0.729,0.776-1.208c0.154-0.636,0.225-1.29,0.212-1.944v-5.872h2.048v6.4c0.078,1.331-0.338,2.644-1.168,3.688 C662.278,1129.831,661.001,1130.321,659.7,1130.224z M668.852,1120.784h-3.164v-1.984h8.384v1.984H670.9V1130h-2.044 L668.852,1120.784z M680.18,1130.224c-0.995,0.016-1.976-0.236-2.84-0.728c-0.836-0.484-1.518-1.194-1.968-2.048 c-0.488-0.941-0.731-1.989-0.708-3.048c-0.022-1.06,0.223-2.108,0.712-3.048c0.449-0.856,1.132-1.567,1.968-2.052 c1.769-0.971,3.911-0.971,5.68,0c0.836,0.484,1.518,1.194,1.968,2.048c0.488,0.942,0.732,1.991,0.708,3.052 c0.022,1.06-0.223,2.108-0.712,3.048c-0.448,0.855-1.129,1.567-1.964,2.052c-0.865,0.491-1.846,0.741-2.84,0.724H680.18z M680.18,1128.24c0.952,0.057,1.877-0.334,2.5-1.056c0.614-0.794,0.926-1.781,0.88-2.784c0.049-1.002-0.261-1.989-0.872-2.784 c-1.351-1.383-3.566-1.409-4.949-0.059c-0.02,0.019-0.039,0.039-0.059,0.059c-0.611,0.795-0.92,1.782-0.872,2.784 c-0.048,1.002,0.261,1.989,0.872,2.784c0.624,0.723,1.55,1.114,2.504,1.056H680.18z M696.664,1130l-0.964-7.5l-2.86,5.148 l-2.88-5.136L689,1130h-2.128l1.552-11.2h1.676l2.74,5.1l2.72-5.1h1.68l1.552,11.2H696.664z M706.536,1127.344h-4.08l-0.928,2.656 h-1.984l3.984-11.2h1.936l3.984,11.2h-1.984L706.536,1127.344z M705.896,1125.552l-1.392-4l-1.408,4H705.896z M712.056,1120.784 h-3.168v-1.984h8.384v1.984H714.1V1130h-2.044V1120.784z M718.744,1118.8h2.048v11.2h-2.048V1118.8z M728.328,1130.224 c-1.045,0.021-2.078-0.227-3-0.72c-0.858-0.469-1.562-1.178-2.024-2.04c-0.495-0.944-0.743-1.998-0.72-3.064 c-0.022-1.063,0.234-2.114,0.744-3.048c0.48-0.866,1.195-1.578,2.064-2.052c0.921-0.496,1.954-0.746,3-0.728 c1.005-0.017,2,0.208,2.9,0.656l-0.224,1.952c-0.427-0.191-0.868-0.349-1.32-0.472c-0.447-0.115-0.907-0.172-1.368-0.168 c-0.994-0.062-1.962,0.327-2.636,1.06c-0.642,0.788-0.97,1.785-0.92,2.8c-0.051,1.012,0.269,2.007,0.9,2.8 c0.661,0.729,1.618,1.118,2.6,1.056c0.466,0.004,0.931-0.05,1.384-0.16c0.463-0.121,0.916-0.282,1.352-0.48l0.224,1.952 C730.36,1130.004,729.35,1130.228,728.328,1130.224z M654.4,1138.8h3.984c2.656,0,3.984,1.205,3.984,3.616 c0.083,1.03-0.285,2.046-1.008,2.784c-0.827,0.66-1.872,0.986-2.928,0.912h-1.984V1150H654.4V1138.8z M658.192,1144.4 c0.567,0.044,1.13-0.127,1.576-0.48c0.375-0.394,0.564-0.93,0.52-1.472c0.045-0.542-0.147-1.076-0.528-1.464 c-0.463-0.35-1.038-0.518-1.616-0.472h-1.7v3.888H658.192z M669.12,1147.344h-4.08l-0.928,2.656h-1.984l3.984-11.2h1.936 l3.984,11.2h-1.984L669.12,1147.344z M668.48,1145.552l-1.392-4l-1.408,4H668.48z M680.848,1138.8l-3.936,6.672V1150h-2.048v-4.528 l-3.936-6.672h2.24l2.72,4.832l2.72-4.832H680.848z M690.816,1150l-0.96-7.5l-2.864,5.152l-2.88-5.136l-0.96,7.484h-2.128 l1.552-11.2h1.68l2.736,5.1l2.72-5.1h1.68l1.552,11.2H690.816z M694.8,1138.8h7.168v1.984H696.9v2.384h3.936v1.984H696.9v2.864 h5.232V1150H694.8V1138.8z M703.888,1138.8h2.012l4.784,7.232v-7.232h2.048v11.2h-1.68l-5.12-7.68v7.68h-2.044V1138.8z M717.376,1140.784h-3.168v-1.984h8.384v1.984h-3.168V1150h-2.048V1140.784z M647.656,1170.224c-1.045,0.021-2.078-0.227-3-0.72 c-0.858-0.469-1.562-1.178-2.024-2.04c-0.495-0.944-0.743-1.998-0.72-3.064c-0.022-1.063,0.234-2.114,0.744-3.048 c0.48-0.866,1.195-1.578,2.064-2.052c0.921-0.496,1.954-0.746,3-0.728c1.005-0.017,2,0.208,2.9,0.656l-0.224,1.952 c-0.427-0.192-0.868-0.349-1.32-0.472c-0.447-0.115-0.907-0.172-1.368-0.168c-0.994-0.062-1.962,0.327-2.636,1.06 c-0.642,0.788-0.97,1.785-0.92,2.8c-0.051,1.012,0.269,2.007,0.9,2.8c0.661,0.729,1.618,1.118,2.6,1.056 c0.466,0.004,0.931-0.05,1.384-0.16c0.463-0.121,0.916-0.282,1.352-0.48l0.224,1.952 C649.688,1170.004,648.678,1170.228,647.656,1170.224z M657.032,1170.224c-0.995,0.016-1.976-0.236-2.84-0.728 c-0.836-0.484-1.518-1.194-1.968-2.048c-0.951-1.922-0.951-4.178,0-6.1c0.45-0.854,1.132-1.564,1.968-2.048 c1.769-0.971,3.911-0.971,5.68,0c0.836,0.484,1.518,1.194,1.968,2.048c0.951,1.922,0.951,4.178,0,6.1 c-0.449,0.856-1.132,1.567-1.968,2.052C659.007,1169.991,658.026,1170.241,657.032,1170.224z M657.032,1168.24 c0.952,0.057,1.877-0.334,2.5-1.056c1.163-1.674,1.163-3.894,0-5.568c-0.623-0.722-1.548-1.113-2.5-1.056 c-0.952-0.057-1.877,0.334-2.5,1.056c-1.163,1.674-1.163,3.894,0,5.568C655.155,1167.906,656.08,1168.297,657.032,1168.24z M664.344,1158.8h2.048v9.376H671V1170h-6.656V1158.8z M672.344,1158.8h2.048v9.376H679V1170h-6.656V1158.8z M680.344,1158.8h7.168 v1.984h-5.072v2.384h3.936v1.984h-3.936v2.864h5.232V1170h-7.328V1158.8z M694.36,1170.224c-1.045,0.021-2.078-0.227-3-0.72 c-0.858-0.469-1.562-1.178-2.024-2.04c-0.495-0.944-0.743-1.998-0.72-3.064c-0.022-1.063,0.234-2.114,0.744-3.048 c0.48-0.866,1.195-1.578,2.064-2.052c0.921-0.496,1.954-0.746,3-0.728c1.005-0.017,2,0.208,2.9,0.656l-0.224,1.956 c-0.427-0.191-0.868-0.349-1.32-0.472c-0.447-0.115-0.907-0.172-1.368-0.168c-0.993-0.063-1.961,0.325-2.636,1.056 c-0.642,0.788-0.97,1.785-0.92,2.8c-0.051,1.012,0.269,2.007,0.9,2.8c0.661,0.729,1.618,1.118,2.6,1.056 c0.466,0.004,0.931-0.05,1.384-0.16c0.463-0.121,0.916-0.282,1.352-0.48l0.224,1.952 C696.392,1170.004,695.382,1170.228,694.36,1170.224z M701.208,1160.784h-3.168v-1.984h8.384v1.984h-3.168V1170h-2.048V1160.784z M707.9,1158.8h2.048v11.2H707.9V1158.8z M717.26,1170.224c-0.995,0.016-1.976-0.236-2.84-0.728 c-0.836-0.484-1.518-1.194-1.968-2.048c-0.951-1.922-0.951-4.178,0-6.1c0.449-0.854,1.13-1.564,1.964-2.048 c1.769-0.971,3.911-0.971,5.68,0c0.836,0.484,1.518,1.194,1.968,2.048c0.951,1.922,0.951,4.178,0,6.1 c-0.448,0.855-1.129,1.567-1.964,2.052c-0.866,0.492-1.848,0.742-2.844,0.724H717.26z M717.26,1168.24 c0.952,0.057,1.877-0.334,2.5-1.056c1.163-1.674,1.163-3.894,0-5.568c-1.351-1.383-3.566-1.409-4.949-0.059 c-0.02,0.019-0.039,0.039-0.059,0.059c-1.163,1.674-1.163,3.894,0,5.568c0.624,0.723,1.55,1.114,2.504,1.056H717.26z M724.572,1158.8h2.016l4.784,7.232v-7.232h2.048v11.2h-1.68l-5.12-7.68v7.68h-2.052L724.572,1158.8z"></path> <path id="Path_2111" fill="#042745" d="M1194.888,1127.344h-4.08l-0.928,2.656h-1.98l3.98-11.2h1.936l3.984,11.2h-1.984 L1194.888,1127.344z M1194.248,1125.552l-1.392-4l-1.408,4H1194.248z M1203.32,1130.224c-1.299,0.095-2.572-0.395-3.472-1.336 c-0.83-1.044-1.246-2.357-1.168-3.688v-6.4h2.048v5.872c-0.014,0.654,0.056,1.308,0.208,1.944c0.114,0.479,0.388,0.905,0.776,1.208 c0.474,0.316,1.039,0.467,1.608,0.432c0.569,0.035,1.134-0.116,1.608-0.432c0.388-0.303,0.662-0.729,0.776-1.208 c0.152-0.636,0.222-1.29,0.208-1.944v-5.872h2.048v6.4c0.078,1.331-0.338,2.644-1.168,3.688 C1205.892,1129.829,1204.619,1130.319,1203.32,1130.224z M1212.472,1120.784h-3.172v-1.984h8.384v1.984h-3.164V1130h-2.048 V1120.784z M1219.16,1118.8h2.048v4.432h5.12v-4.432h2.048v11.2h-2.048v-4.848h-5.12V1130h-2.048V1118.8z M1235.688,1130.224 c-0.995,0.016-1.975-0.236-2.84-0.728c-0.836-0.484-1.518-1.194-1.968-2.048c-0.489-0.94-0.734-1.988-0.712-3.048 c-0.022-1.06,0.223-2.108,0.712-3.048c0.449-0.856,1.132-1.567,1.968-2.052c1.769-0.971,3.911-0.971,5.68,0 c0.838,0.484,1.521,1.196,1.972,2.052c0.488,0.941,0.731,1.989,0.708,3.048c0.022,1.06-0.223,2.108-0.712,3.048 c-0.449,0.856-1.132,1.567-1.968,2.052C1237.663,1129.991,1236.682,1130.241,1235.688,1130.224z M1235.688,1128.24 c0.952,0.057,1.877-0.334,2.5-1.056c0.613-0.795,0.923-1.781,0.876-2.784c0.049-1.002-0.26-1.989-0.872-2.784 c-1.351-1.383-3.567-1.409-4.949-0.059c-0.02,0.019-0.039,0.039-0.059,0.059c-0.611,0.795-0.92,1.782-0.872,2.784 c-0.048,1.002,0.26,1.989,0.872,2.784C1233.808,1127.907,1234.734,1128.298,1235.688,1128.24z M1243,1118.8h4.1 c1.013-0.057,2.013,0.246,2.824,0.856c0.718,0.64,1.099,1.576,1.032,2.536c0.027,0.673-0.147,1.339-0.5,1.912 c-0.354,0.518-0.84,0.931-1.408,1.196l2.528,4.7h-2.288l-2.16-4.16h-2.08v4.16H1243V1118.8z M1246.552,1124.128 c1.504,0,2.256-0.608,2.256-1.824c0.035-0.498-0.151-0.987-0.508-1.336c-0.482-0.347-1.073-0.509-1.664-0.456h-1.588v3.616 H1246.552z M1253.016,1118.8h2.048v11.2h-2.048V1118.8z M1259.592,1128.176h5.28V1130h-8.448l5.36-9.376h-4.64v-1.824h7.808 L1259.592,1128.176z M1266.3,1118.8h7.168v1.984h-5.076v2.384h3.936v1.984h-3.936v2.864h5.232V1130h-7.324V1118.8z M1200.14,1138.8 h4.192c0.993-0.018,1.975,0.213,2.856,0.672c0.829,0.439,1.51,1.113,1.96,1.936c0.487,0.921,0.728,1.951,0.7,2.992 c0.028,1.041-0.213,2.071-0.7,2.992c-0.45,0.823-1.131,1.496-1.96,1.936c-0.882,0.459-1.865,0.69-2.86,0.672h-4.192L1200.14,1138.8 z M1204.332,1148.176c0.924,0.06,1.824-0.309,2.44-1c0.602-0.796,0.9-1.78,0.84-2.776c0.059-0.996-0.238-1.98-0.84-2.776 c-0.616-0.691-1.516-1.06-2.44-1h-2.148v7.552H1204.332z M1217.276,1147.344h-4.08l-0.932,2.656h-1.984l3.984-11.2h1.936 l3.984,11.2h-1.984L1217.276,1147.344z M1216.636,1145.552l-1.392-4l-1.408,4H1216.636z M1230.728,1150l-0.96-7.5l-2.868,5.148 l-2.88-5.136l-0.956,7.488h-2.128l1.552-11.2h1.68l2.732,5.1l2.72-5.1h1.68l1.556,11.2H1230.728z M1240.6,1147.344h-4.08 l-0.928,2.656h-1.984l3.984-11.2h1.936l3.984,11.2h-1.984L1240.6,1147.344z M1239.96,1145.552l-1.392-4l-1.408,4H1239.96z M1249.592,1150.224c-1.056,0.029-2.101-0.22-3.032-0.72c-0.838-0.469-1.516-1.18-1.944-2.04c-0.466-0.959-0.696-2.015-0.672-3.08 c-0.022-1.063,0.234-2.114,0.744-3.048c0.481-0.863,1.2-1.57,2.072-2.036c0.936-0.492,1.982-0.74,3.04-0.72 c0.565-0.001,1.128,0.058,1.68,0.176c0.488,0.098,0.962,0.26,1.408,0.48l-0.224,1.952c-0.897-0.42-1.874-0.638-2.864-0.64 c-1.011-0.072-2.002,0.313-2.7,1.048c-0.635,0.776-0.96,1.759-0.912,2.76c-0.051,1.024,0.268,2.032,0.9,2.84 c0.655,0.734,1.61,1.126,2.592,1.064c0.517-0.006,1.031-0.065,1.536-0.176v-2h-1.544v-1.7h3.584v4.992 c-0.499,0.278-1.035,0.482-1.592,0.608C1250.986,1150.148,1250.29,1150.229,1249.592,1150.224z M1255.24,1138.8h7.168v1.984h-5.072 v2.384h3.936v1.984h-3.936v2.864h5.232V1150h-7.328V1138.8z M1199.752,1158.8h4.192c0.993-0.018,1.975,0.213,2.856,0.672 c0.829,0.439,1.51,1.113,1.96,1.936c0.939,1.884,0.939,4.1,0,5.984c-0.45,0.823-1.131,1.496-1.96,1.936 c-0.881,0.458-1.863,0.69-2.856,0.672h-4.192V1158.8z M1203.944,1168.176c0.924,0.06,1.824-0.309,2.44-1 c0.602-0.796,0.899-1.78,0.84-2.776c0.059-0.996-0.238-1.98-0.84-2.776c-0.616-0.691-1.516-1.06-2.44-1h-2.144v7.552H1203.944z M1211.272,1158.8h7.168v1.984h-5.072v2.384h3.932v1.984h-3.932v2.864h5.232V1170h-7.328V1158.8z M1220.36,1158.8h3.984 c2.656,0,3.984,1.205,3.984,3.616c0.083,1.03-0.285,2.046-1.008,2.784c-0.827,0.66-1.872,0.986-2.928,0.912h-1.984V1170h-2.048 V1158.8z M1224.152,1164.4c0.567,0.044,1.13-0.127,1.576-0.48c0.375-0.394,0.564-0.93,0.52-1.472 c0.045-0.542-0.147-1.076-0.528-1.464c-0.463-0.35-1.038-0.518-1.616-0.472h-1.7v3.888H1224.152z M1234.744,1170.224 c-0.996,0.018-1.978-0.232-2.844-0.724c-0.836-0.484-1.518-1.194-1.968-2.048c-0.951-1.922-0.951-4.178,0-6.1 c0.449-0.856,1.132-1.567,1.968-2.052c1.769-0.971,3.911-0.971,5.68,0c0.836,0.484,1.518,1.194,1.968,2.048 c0.951,1.922,0.951,4.178,0,6.1c-0.448,0.855-1.129,1.567-1.964,2.052C1236.719,1169.991,1235.738,1170.241,1234.744,1170.224z M1234.744,1168.24c0.952,0.057,1.877-0.334,2.5-1.056c1.163-1.674,1.163-3.894,0-5.568c-1.351-1.383-3.567-1.409-4.949-0.059 c-0.02,0.019-0.039,0.039-0.059,0.059c-1.163,1.674-1.163,3.894,0,5.568C1232.861,1167.909,1233.789,1168.299,1234.744,1168.24z M1245.3,1170.224c-0.682-0.007-1.362-0.093-2.024-0.256c-0.582-0.124-1.148-0.312-1.688-0.56l0.24-2.176 c1.146,0.613,2.414,0.963,3.712,1.024c0.465,0.026,0.928-0.088,1.328-0.328c0.318-0.216,0.5-0.583,0.48-0.968 c0.011-0.287-0.083-0.569-0.264-0.792c-0.21-0.232-0.47-0.412-0.76-0.528c-0.333-0.144-0.861-0.344-1.584-0.6 c-0.589-0.193-1.159-0.442-1.7-0.744c-0.431-0.245-0.796-0.591-1.064-1.008c-0.273-0.456-0.41-0.981-0.392-1.512 c-0.029-0.896,0.361-1.754,1.056-2.32c0.873-0.64,1.944-0.952,3.024-0.88c0.622,0,1.242,0.07,1.848,0.208 c0.575,0.127,1.139,0.298,1.688,0.512l-0.2,2.096c-0.588-0.262-1.195-0.479-1.816-0.648c-0.535-0.142-1.086-0.215-1.64-0.216 c-0.483-0.031-0.965,0.073-1.392,0.3c-0.309,0.183-0.493,0.521-0.48,0.88c-0.011,0.269,0.081,0.532,0.256,0.736 c0.196,0.209,0.434,0.373,0.7,0.48c0.293,0.128,0.727,0.283,1.3,0.464c1.027,0.27,1.988,0.746,2.824,1.4 c0.604,0.555,0.929,1.349,0.888,2.168c0.009,0.853-0.319,1.675-0.912,2.288C1248.12,1169.897,1246.977,1170.224,1245.3,1170.224z M1251.336,1158.8h2.048v11.2h-2.048V1158.8z M1258.024,1160.784h-3.168v-1.984h8.384v1.984h-3.168V1170h-2.048V1160.784z"></path> <g id="event" transform="translate(401 1018.846)"> <g id="Group_258" transform="translate(14.47 56.669)"> <g id="Group_257" transform="translate(0 0)"> <path id="Path_796" fill="#009EDB" d="M2.873,0C1.286,0,0,1.286,0,2.873s1.286,2.873,2.873,2.873S5.746,4.46,5.746,2.873 C5.744,1.287,4.459,0.002,2.873,0z M2.873,4.337c-0.809,0-1.464-0.655-1.464-1.464c0-0.809,0.655-1.464,1.464-1.464 c0.809,0,1.464,0.655,1.464,1.464C4.336,3.681,3.681,4.336,2.873,4.337L2.873,4.337z"></path> </g> </g> <g id="Group_260" transform="translate(21.959 56.669)"> <g id="Group_259" transform="translate(0 0)"> <path id="Path_797" fill="#009EDB" d="M2.873,0C1.286,0,0,1.286,0,2.873s1.286,2.873,2.873,2.873S5.746,4.46,5.746,2.873 C5.744,1.287,4.459,0.002,2.873,0z M2.873,4.337c-0.809,0-1.464-0.655-1.464-1.464c0-0.809,0.655-1.464,1.464-1.464 c0.809,0,1.464,0.655,1.464,1.464C4.336,3.681,3.681,4.336,2.873,4.337L2.873,4.337z"></path> </g> </g> <g id="Group_262" transform="translate(29.448 56.669)"> <g id="Group_261" transform="translate(0 0)"> <path id="Path_798" fill="#009EDB" d="M2.877,0C1.29,0,0.004,1.286,0.004,2.873S1.29,5.746,2.877,5.746 c1.587,0,2.873-1.286,2.873-2.873v0C5.748,1.287,4.463,0.002,2.877,0z M2.877,4.337c-0.809,0-1.464-0.655-1.464-1.464 s0.655-1.464,1.464-1.464c0.809,0,1.464,0.655,1.464,1.464l0,0C4.34,3.681,3.685,4.336,2.877,4.337L2.877,4.337z"></path> </g> </g> <g id="Group_264" transform="translate(14.47 63.676)"> <g id="Group_263" transform="translate(0 0)"> <path id="Path_799" fill="#009EDB" d="M2.873,0C1.286,0,0,1.286,0,2.873C0,4.46,1.286,5.746,2.873,5.746S5.746,4.46,5.746,2.873 l0,0C5.744,1.287,4.459,0.002,2.873,0z M2.873,4.337c-0.809,0-1.464-0.655-1.464-1.464c0-0.809,0.655-1.464,1.464-1.464 c0.809,0,1.464,0.655,1.464,1.464l0,0C4.336,3.681,3.681,4.336,2.873,4.337z"></path> </g> </g> <g id="Group_266" transform="translate(29.448 63.676)"> <g id="Group_265" transform="translate(0 0)"> <path id="Path_800" fill="#009EDB" d="M2.877,0C1.29,0,0.004,1.286,0.004,2.873S1.29,5.746,2.877,5.746 c1.587,0,2.873-1.286,2.873-2.873v0C5.748,1.287,4.463,0.002,2.877,0z M2.877,4.337c-0.809,0-1.464-0.655-1.464-1.464 s0.655-1.464,1.464-1.464c0.809,0,1.464,0.655,1.464,1.464c0,0,0,0,0,0C4.34,3.681,3.685,4.336,2.877,4.337z"></path> </g> </g> <g id="Group_268" transform="translate(21.959 63.676)"> <g id="Group_267" transform="translate(0 0)"> <path id="Path_801" fill="#009EDB" d="M2.873,0C1.286,0,0,1.286,0,2.873C0,4.46,1.286,5.746,2.873,5.746S5.746,4.46,5.746,2.873 l0,0C5.744,1.287,4.459,0.002,2.873,0z M2.873,4.337c-0.809,0-1.464-0.655-1.464-1.464c0-0.809,0.655-1.464,1.464-1.464 c0.809,0,1.464,0.655,1.464,1.464l0,0C4.336,3.681,3.681,4.336,2.873,4.337z"></path> </g> </g> <g id="Group_270" transform="translate(21.959 70.683)"> <g id="Group_269" transform="translate(0 0)"> <path id="Path_802" fill="#009EDB" d="M2.873,0.004C1.286,0.004,0,1.29,0,2.877C0,4.464,1.286,5.75,2.873,5.75 s2.873-1.286,2.873-2.873l0,0C5.744,1.291,4.459,0.006,2.873,0.004z M2.873,4.341c-0.809,0-1.464-0.655-1.464-1.464 c0-0.809,0.655-1.464,1.464-1.464c0.809,0,1.464,0.655,1.464,1.464l0,0C4.334,3.684,3.68,4.336,2.873,4.337V4.341z"></path> </g> </g> <g id="Group_272" transform="translate(14.47 70.683)"> <g id="Group_271" transform="translate(0 0)"> <path id="Path_803" fill="#009EDB" d="M2.873,0.004C1.286,0.004,0,1.29,0,2.877C0,4.464,1.286,5.75,2.873,5.75 s2.873-1.286,2.873-2.873l0,0C5.744,1.291,4.459,0.006,2.873,0.004z M2.873,4.341c-0.809,0-1.464-0.655-1.464-1.464 c0-0.809,0.655-1.464,1.464-1.464c0.809,0,1.464,0.655,1.464,1.464l0,0C4.334,3.684,3.68,4.336,2.873,4.337V4.341z"></path> </g> </g> <g id="Group_274" transform="translate(7.616 57.304)"> <g id="Group_273" transform="translate(0 0)"> <path id="Path_804" fill="#009EDB" d="M3.233,2.237l1.035-1.035c0.276-0.276,0.276-0.724,0-1s-0.724-0.276-1,0l0,0L2.233,1.237 L1.198,0.202c-0.276-0.276-0.724-0.276-1,0s-0.276,0.724,0,1l0,0l1.035,1.035L0.198,3.272c-0.276,0.276-0.276,0.724,0,1 s0.724,0.276,1,0l1.035-1.035l1.035,1.035c0.276,0.276,0.724,0.276,1,0s0.276-0.724,0-1L3.233,2.237z"></path> </g> </g> <g id="Group_276" transform="translate(7.616 64.311)"> <g id="Group_275"> <path id="Path_805" fill="#009EDB" d="M3.233,2.237l1.035-1.035c0.276-0.276,0.276-0.724,0-1s-0.724-0.276-1,0L2.233,1.237 L1.198,0.202c-0.276-0.276-0.724-0.276-1,0s-0.276,0.724,0,1l1.035,1.035L0.198,3.272c-0.276,0.276-0.276,0.724,0,1 s0.724,0.276,1,0l1.035-1.035l1.035,1.035c0.276,0.276,0.724,0.276,1,0s0.276-0.724,0-1L3.233,2.237z"></path> </g> </g> <g id="Group_278" transform="translate(7.616 71.318)"> <g id="Group_277" transform="translate(0 0)"> <path id="Path_806" fill="#009EDB" d="M4.269,3.273L3.234,2.241l1.035-1.035c0.276-0.276,0.276-0.724,0-1s-0.724-0.276-1,0 L2.238,1.241L1.203,0.206c-0.276-0.276-0.724-0.276-1,0s-0.276,0.724,0,1l1.039,1.035L0.207,3.276c-0.276,0.276-0.276,0.724,0,1 s0.724,0.276,1,0l1.035-1.035l1.035,1.035c0.276,0.276,0.724,0.276,1,0s0.276-0.724,0-1L4.269,3.273z"></path> </g> </g> <g id="Group_280" transform="translate(0 40.982)"> <g id="Group_279" transform="translate(0 0)"> <path id="Path_807" fill="#009EDB" d="M48.035,35.704l-1.921-10.108c-0.073-0.382-0.441-0.633-0.823-0.561 c-0.382,0.073-0.633,0.441-0.561,0.824l1.921,10.108c0.071,0.533-0.303,1.022-0.836,1.093c-0.061,0.008-0.123,0.01-0.185,0.007 H35.208l6.76-6.76c0.132-0.133,0.206-0.313,0.206-0.5v-17.4l1.931,10.164c0.073,0.382,0.441,0.633,0.823,0.561 c0.382-0.073,0.633-0.441,0.561-0.824l-3.32-17.47c-0.049-1.046-0.91-1.869-1.957-1.871h-6.171V0.704 C34.041,0.315,33.726,0,33.337,0c-0.389,0-0.704,0.315-0.704,0.704v2.264h-4.717V0.704C27.916,0.315,27.601,0,27.212,0 s-0.704,0.315-0.704,0.704v2.264h-4.717V0.704C21.791,0.315,21.476,0,21.087,0s-0.704,0.315-0.704,0.704v2.264h-4.717V0.704 C15.666,0.315,15.351,0,14.962,0c-0.389,0-0.704,0.315-0.704,0.704v2.264H9.542V0.704C9.542,0.315,9.227,0,8.838,0 C8.449,0,8.134,0.315,8.134,0.704v2.264H1.961C0.878,2.97,0.001,3.847,0,4.93v33.488c0.001,1.083,0.878,1.96,1.961,1.961h17.483 c0.389,0,0.704-0.315,0.704-0.704c0-0.389-0.315-0.704-0.704-0.704H1.961c-0.305,0-0.553-0.248-0.553-0.553l0,0V12.113h39.358 v16.992h-7.9c-1.084-0.002-1.964,0.876-1.966,1.96c0,0,0,0.001,0,0.001v7.9h-8.17c-0.389,0-0.704,0.315-0.704,0.704 c0,0.389,0.315,0.704,0.704,0.704h8.87c0.187,0,0.367-0.074,0.5-0.206l1.7-1.7h11.83c1.313,0.032,2.404-1.006,2.436-2.319 C48.07,36,48.059,35.851,48.035,35.704z M1.409,10.704V4.93c0-0.305,0.248-0.553,0.553-0.553h0h6.171V7.54 c0,0.389,0.315,0.704,0.704,0.704c0.389,0,0.704-0.315,0.704-0.704V4.377h4.716V7.54c0,0.389,0.315,0.704,0.704,0.704 c0.389,0,0.704-0.315,0.704-0.704V4.377h4.716V7.54c0,0.389,0.315,0.704,0.704,0.704s0.704-0.315,0.704-0.704l0,0V4.377h4.717 V7.54c0,0.389,0.315,0.704,0.704,0.704s0.704-0.315,0.704-0.704l0,0V4.377h4.716V7.54c0,0.389,0.315,0.704,0.704,0.704 c0.389,0,0.704-0.315,0.704-0.704l0,0V4.377h6.172c0.305,0,0.553,0.248,0.553,0.553v0v5.774L1.409,10.704z M32.309,37.975 v-6.909c0-0.305,0.248-0.553,0.553-0.553h0h6.908L32.309,37.975z"></path> </g> </g> </g> <g id="payment" transform="translate(667.999 1059.829)"> <path id="Path_808" fill="#042745" d="M31.534,26.543h1.922c0.331,0,0.6-0.269,0.6-0.6s-0.269-0.6-0.6-0.6h-1.922 c-0.331,0-0.6,0.269-0.6,0.6S31.203,26.543,31.534,26.543z"></path> <path id="Path_809" fill="#042745" d="M39.78,16.958h-3.794v-5.989c-0.002-1.661-1.348-3.007-3.009-3.009H22.269V2.627 C22.267,1.176,21.092,0.001,19.641,0H6.422C4.971,0.001,3.796,1.176,3.794,2.627v9.908C1.659,12.686,0.003,14.46,0,16.6 c0,0,0,0.007,0,0.011V36.3c0.003,2.254,1.829,4.08,4.083,4.083h18.3c0.331,0,0.6-0.269,0.6-0.6c0-0.331-0.269-0.6-0.6-0.6H4.084 C2.492,39.182,1.201,37.892,1.2,36.3V19.5c0.764,0.765,1.801,1.195,2.882,1.194h22.679c1.299,0.001,2.352,1.054,2.353,2.353 v13.778c-0.002,1.299-1.054,2.351-2.353,2.353H24.39c-0.331,0-0.6,0.269-0.6,0.6c0,0.331,0.269,0.6,0.6,0.6h2.371 c1.962-0.002,3.552-1.592,3.554-3.554v-1.9h9.465c0.331,0,0.6-0.269,0.6-0.6V17.559C40.38,17.228,40.111,16.959,39.78,16.958 L39.78,16.958z M14.408,16.958v-1.734h20.376v1.734H14.408z M34.784,10.969V11.1h-5.791c-0.331,0-0.6,0.269-0.6,0.6 c0,0.331,0.269,0.599,0.6,0.6h5.791v1.719H14.408V12.3h12.584c0.331,0,0.6-0.269,0.6-0.6c0-0.331-0.269-0.599-0.6-0.6H14.408 v-0.32c0.001-0.895,0.726-1.62,1.621-1.622h16.948c0.998,0.001,1.806,0.81,1.807,1.808L34.784,10.969z M5,2.627 C5.001,1.841,5.636,1.203,6.422,1.2h13.219c0.787,0.001,1.426,0.639,1.427,1.426V7.96H20.58V5.169 c-0.001-0.896-0.728-1.622-1.624-1.623H7.106C6.21,3.547,5.484,4.273,5.483,5.169V7.3c0,0.331,0.269,0.6,0.6,0.6 c0.331,0,0.599-0.269,0.6-0.6V5.169c0-0.233,0.189-0.422,0.422-0.422h11.85c0.233,0,0.422,0.189,0.423,0.422V7.96h-3.35 c-1.558,0.002-2.821,1.265-2.823,2.823v6.175H10.64c-0.331,0-0.6,0.269-0.6,0.6l0,0v1.93H6.684V9.251c0-0.331-0.269-0.6-0.6-0.6 c-0.331,0-0.599,0.269-0.6,0.6v10.237H5V2.627z M1.2,16.607c0-1.48,1.12-2.719,2.592-2.868v5.735 C2.321,19.323,1.202,18.086,1.2,16.607z M29.411,20.681h4.194c0.26,1.565,1.486,2.791,3.051,3.051v4.423 c-1.562,0.26-2.787,1.483-3.049,3.045h-3.292v-8.157c0.001-0.871-0.319-1.712-0.9-2.362H29.411z M39.177,33.726h-8.862v-1.32 h3.844c0.331,0,0.6-0.269,0.6-0.6c0-1.381,1.119-2.5,2.5-2.5c0.331,0,0.6-0.269,0.6-0.6v-5.527c0-0.331-0.269-0.6-0.6-0.6 c-1.381,0-2.5-1.119-2.5-2.5c0-0.331-0.269-0.6-0.6-0.6L11.24,19.488v-1.329h27.939L39.177,33.726z"></path> <path id="Path_810" fill="#042745" d="M36.704,20.309c0.127,0.306,0.478,0.451,0.784,0.324c0.306-0.127,0.451-0.478,0.324-0.784 c-0.127-0.306-0.478-0.451-0.784-0.324c-0.031,0.013-0.061,0.028-0.089,0.046C36.691,19.727,36.592,20.039,36.704,20.309z"></path> <path id="Path_811" fill="#042745" d="M37.813,31.574c-0.127-0.306-0.478-0.452-0.784-0.325c-0.306,0.127-0.452,0.478-0.325,0.784 s0.478,0.452,0.784,0.325c0.036-0.015,0.07-0.033,0.103-0.055C37.828,32.143,37.921,31.839,37.813,31.574z"></path> <path id="Path_812" fill="#042745" d="M26.947,29.775c0-1.592-1.29-2.882-2.882-2.882s-2.882,1.29-2.882,2.882 c0,1.592,1.29,2.882,2.882,2.882h0C25.656,32.655,26.945,31.366,26.947,29.775z M22.384,29.775c0-0.928,0.753-1.681,1.681-1.681 s1.681,0.753,1.681,1.681c0,0.928-0.753,1.681-1.681,1.681l0,0c-0.926-0.003-1.676-0.755-1.677-1.681H22.384z"></path> </g> <g id="card" transform="translate(946 1063.479)"> <path id="Path_813" fill="#042745" d="M33.67-15.012H3.185C1.426-15.01,0.002-13.585,0-11.826v18.37 C0.002,8.303,1.426,9.728,3.185,9.73H33.67c1.759-0.002,3.184-1.427,3.186-3.186v-18.37C36.854-13.585,35.429-15.01,33.67-15.012z M35.761,6.543c-0.001,1.154-0.937,2.09-2.091,2.091H3.185c-1.154-0.001-2.09-0.937-2.091-2.091v-18.369 c0.001-1.154,0.937-2.09,2.091-2.091H33.67c1.154,0.001,2.09,0.937,2.091,2.091V6.543z"></path> <path id="Path_814" fill="#042745" d="M16.385-10.633h-12.7c-0.302,0-0.547,0.245-0.547,0.547l0,0v1.313 c0,0.302,0.245,0.548,0.548,0.548s0.548-0.245,0.548-0.548v-0.766h11.608V3.817h-11.6v-10.4c0-0.302-0.245-0.548-0.548-0.548 S3.146-6.885,3.146-6.583l0,0V4.364C3.147,4.666,3.391,4.91,3.693,4.911h12.7c0.302-0.001,0.546-0.245,0.547-0.547v-14.45 c0-0.302-0.245-0.547-0.547-0.547l0,0H16.385z"></path> <path id="Path_815" fill="#042745" d="M33.317-9.364H19.596c-0.302,0-0.547,0.245-0.547,0.548s0.245,0.548,0.547,0.548h13.721 c0.302,0,0.547-0.245,0.547-0.548S33.619-9.364,33.317-9.364z"></path> <path id="Path_816" fill="#042745" d="M33.317-5.393h-3.061c-0.302,0-0.548,0.245-0.548,0.548s0.245,0.548,0.548,0.548l0,0h3.065 c0.302,0,0.547-0.245,0.547-0.548s-0.245-0.548-0.547-0.548H33.317z"></path> <path id="Path_817" fill="#042745" d="M19.596-4.298h8.466c0.302,0,0.547-0.245,0.547-0.548s-0.245-0.548-0.547-0.548h-8.466 c-0.302,0-0.547,0.245-0.547,0.548S19.294-4.298,19.596-4.298z"></path> <path id="Path_818" fill="#042745" d="M33.317-1.422H19.596c-0.302,0-0.547,0.245-0.547,0.548s0.245,0.548,0.547,0.548h13.721 c0.302,0,0.547-0.245,0.547-0.548S33.619-1.422,33.317-1.422z"></path> <path id="Path_819" fill="#042745" d="M27.04,2.548h-7.444c-0.302,0-0.547,0.245-0.547,0.548s0.245,0.548,0.547,0.548h7.444 c0.302,0,0.548-0.245,0.548-0.548S27.342,2.548,27.04,2.548z"></path> <path id="Path_820" fill="#042745" d="M6.204,2.613c0,0.302,0.245,0.548,0.548,0.548s0.548-0.245,0.548-0.548 c-0.001-1.512,1.224-2.738,2.735-2.739c1.512-0.001,2.738,1.224,2.739,2.735c0,0.001,0,0.002,0,0.003 c0,0.302,0.245,0.548,0.548,0.548s0.548-0.245,0.548-0.548c-0.001-1.345-0.707-2.592-1.86-3.284 c1.815-1.089,2.404-3.442,1.315-5.257S9.881-8.332,8.066-7.243S5.662-3.801,6.751-1.986c0.324,0.54,0.775,0.991,1.315,1.315 C6.912,0.021,6.206,1.268,6.204,2.613L6.204,2.613z M7.299-3.956c0-1.512,1.225-2.737,2.737-2.737s2.737,1.225,2.737,2.737 s-1.225,2.737-2.737,2.737l0,0C8.524-1.221,7.3-2.446,7.299-3.958V-3.956z"></path> </g> <g id="act" transform="translate(1152 1051.33)"> <path id="Path_821" fill="#042745" d="M91.141,0H71.58c-0.028,0.002-0.055,0.005-0.082,0.01l0,0 c-0.029,0.006-0.057,0.013-0.085,0.023L71.4,0.041c-0.026,0.009-0.051,0.02-0.076,0.033l0,0c-0.025,0.014-0.05,0.029-0.073,0.046 l-0.015,0.012c-0.023,0.018-0.045,0.037-0.066,0.057l0,0l-6.97,6.97l0,0c-0.02,0.021-0.039,0.043-0.057,0.066l-0.012,0.016 c-0.017,0.023-0.032,0.048-0.046,0.073v0.005c-0.013,0.024-0.024,0.049-0.033,0.075l-0.006,0.015 c-0.01,0.027-0.017,0.056-0.023,0.084l0,0c-0.005,0.026-0.008,0.053-0.01,0.08c0,0.008,0,0.015,0,0.023s0,0.014,0,0.022v30.675 c0.001,1.131,0.917,2.047,2.048,2.048h25.08c1.131-0.001,2.047-0.917,2.048-2.048V2.048C93.188,0.917,92.272,0.001,91.141,0z M70.97,2.231v4c0,0.409-0.332,0.741-0.741,0.741h-4L70.97,2.231z M91.881,38.293c0,0.409-0.332,0.741-0.741,0.741H66.048 c-0.409,0-0.741-0.332-0.741-0.741V8.277h4.923c1.13-0.002,2.045-0.917,2.047-2.047V1.307h18.864c0.409,0,0.741,0.332,0.741,0.741 L91.881,38.293z"></path> <path id="Path_822" fill="#042745" d="M70.229,18.733h16.729c0.361,0,0.654-0.293,0.654-0.654s-0.293-0.654-0.654-0.654H70.229 c-0.361,0-0.654,0.293-0.654,0.654S69.868,18.733,70.229,18.733z"></path> <path id="Path_823" fill="#042745" d="M70.229,22.218h16.729c0.361,0,0.654-0.293,0.654-0.654s-0.293-0.654-0.654-0.654H70.229 c-0.361,0-0.654,0.293-0.654,0.654S69.868,22.218,70.229,22.218z"></path> <path id="Path_824" fill="#042745" d="M70.229,25.703h8.364c0.361,0,0.654-0.293,0.654-0.654s-0.293-0.654-0.654-0.654h-8.364 c-0.361,0-0.654,0.293-0.654,0.654S69.868,25.703,70.229,25.703z"></path> <path id="Path_825" fill="#042745" d="M79.247,28.534c0-0.361-0.292-0.653-0.653-0.653h0H70.23c-0.361,0-0.654,0.293-0.654,0.654 s0.293,0.654,0.654,0.654h8.364c0.361,0,0.653-0.292,0.653-0.653C79.247,28.535,79.247,28.534,79.247,28.534z"></path> <path id="Path_826" fill="#042745" d="M82.036,11.282c0-0.361-0.293-0.654-0.654-0.654s-0.654,0.293-0.654,0.654l0,0 c0,1.274,1.181,2.3,2.788,2.525v0.089c0,0.361,0.293,0.654,0.654,0.654s0.654-0.293,0.654-0.654v-0.089 c1.607-0.222,2.788-1.251,2.788-2.525s-1.181-2.3-2.788-2.525v-2.5c0.787,0.164,1.481,0.61,1.481,1.194 c0,0.361,0.293,0.654,0.654,0.654s0.654-0.293,0.654-0.654c0-1.274-1.181-2.3-2.788-2.525V4.837c0-0.361-0.293-0.654-0.654-0.654 s-0.654,0.293-0.654,0.654v0.089c-1.607,0.222-2.788,1.251-2.788,2.525s1.181,2.3,2.788,2.525v2.5 C82.729,12.313,82.036,11.868,82.036,11.282z M86.305,11.282c0,0.585-0.694,1.03-1.481,1.194v-2.387 C85.611,10.253,86.305,10.698,86.305,11.282L86.305,11.282z M82.036,7.448c0-0.585,0.694-1.03,1.481-1.194v2.389 C82.729,8.482,82.036,8.034,82.036,7.448L82.036,7.448z"></path> <path id="Path_827" fill="#042745" d="M88.244,27.922c-0.314-0.177-0.712-0.067-0.89,0.247c0,0,0,0,0,0.001l-1.344,2.378 l-0.184-0.142c-0.286-0.22-0.697-0.167-0.917,0.119c-0.026,0.034-0.049,0.07-0.068,0.109l-0.679,1.374l-0.218-0.25 c-0.49-0.562-1.343-0.62-1.905-0.13c-0.177,0.155-0.311,0.353-0.388,0.575l-0.75,2.158l-1.784-2.253 C78.893,31.825,78.483,31.777,78.2,32c-0.008,0.007-0.017,0.014-0.025,0.021l-1.894,1.652c-0.272,0.237-0.3,0.65-0.063,0.922 c0.237,0.272,0.65,0.3,0.922,0.063l1.378-1.2l1.7,2.152c0.341,0.434,0.97,0.51,1.404,0.168c0.151-0.119,0.265-0.279,0.328-0.461 l0.932-2.682c0.004-0.016,0.017-0.027,0.033-0.029c0.015-0.004,0.032,0.001,0.041,0.014l0.862,0.989 c0.237,0.272,0.649,0.3,0.921,0.063c0.065-0.057,0.118-0.126,0.157-0.203l0.76-1.539l0.149,0.115 c0.286,0.22,0.696,0.166,0.916-0.12c0.019-0.025,0.037-0.052,0.052-0.08l1.714-3.034C88.664,28.498,88.555,28.101,88.244,27.922z"></path> </g> <g id="social-media" transform="translate(1480.062 1054.439)"> <path id="Path_828" fill="#009EDB" d="M11.292,18.9l-2.187-0.007c-0.055,0-0.1-0.045-0.1-0.1l0,0V7.9 c0-0.259-0.146-0.495-0.377-0.611l-2.48-1.24l2.48-1.24C8.857,4.692,9,4.457,9,4.2V1.466c0-0.055,0.045-0.1,0.1-0.1l0,0h30.2 c0.055,0,0.1,0.045,0.1,0.1V16.85c0,0.377,0.306,0.683,0.683,0.683c0.377,0,0.683-0.306,0.683-0.683V1.466 C40.765,0.66,40.115,0.006,39.309,0H9.105C8.296,0.001,7.64,0.657,7.639,1.466v2.309L4.315,5.437 c-0.337,0.169-0.473,0.58-0.304,0.917c0.066,0.132,0.173,0.238,0.304,0.304l3.324,1.663v10.47 c0.001,0.807,0.654,1.462,1.461,1.466l2.185,0.007c0.377,0,0.683-0.307,0.682-0.684c0-0.377-0.306-0.682-0.682-0.682L11.292,18.9z "></path> <path id="Path_829" fill="#009EDB" d="M45.978,22.393c-0.003-1.929-1.566-3.492-3.495-3.495h-8.548 c1.575-3.037,2.375-6.417,2.329-9.838c0.033-1.93-1.505-3.521-3.435-3.554c-1.93-0.033-3.521,1.505-3.554,3.435 c-0.001,0.039-0.001,0.079,0,0.118c-0.006,5.431-4.407,9.832-9.838,9.838h-5.415c-0.377,0-0.683,0.306-0.683,0.683v22.494 c0,0.377,0.306,0.683,0.683,0.683h5.415c0.377,0,0.683-0.306,0.683-0.683V20.243c5.908-0.367,10.514-5.262,10.521-11.182 c-0.002-1.176,0.95-2.13,2.126-2.132c1.176-0.002,2.13,0.95,2.132,2.126c0,0.002,0,0.004,0,0.006 c0.072,3.574-0.877,7.095-2.736,10.148c-0.206,0.316-0.117,0.739,0.199,0.945c0.111,0.072,0.24,0.111,0.373,0.111h9.749 c1.176,0,2.129,0.953,2.129,2.129c0,1.176-0.953,2.129-2.129,2.129h-3.455c-0.377-0.001-0.684,0.304-0.684,0.682 c-0.001,0.377,0.304,0.684,0.682,0.684c0.001,0,0.002,0,0.002,0h2.301c1.176,0,2.129,0.953,2.129,2.129 c0,1.176-0.953,2.129-2.129,2.129h-2.3c-0.377-0.001-0.684,0.304-0.684,0.682c-0.001,0.377,0.304,0.684,0.682,0.684 c0.001,0,0.002,0,0.002,0h1.153c1.176,0,2.129,0.953,2.129,2.129c0,1.176-0.953,2.129-2.129,2.129h-1.152 c-0.377-0.001-0.684,0.304-0.684,0.682c-0.001,0.377,0.304,0.684,0.682,0.684c0.001,0,0.002,0,0.002,0 c1.177,0,2.13,0.953,2.13,2.129c0,1.176-0.953,2.129-2.129,2.129h-16.86c-0.377,0.001-0.682,0.307-0.682,0.684 c0.001,0.376,0.305,0.681,0.682,0.682h16.86c1.929,0.001,3.494-1.562,3.494-3.492c0-0.899-0.346-1.764-0.967-2.414 c1.773-0.758,2.596-2.81,1.838-4.584c-0.165-0.385-0.397-0.737-0.686-1.039c1.773-0.758,2.596-2.81,1.838-4.584 c-0.165-0.385-0.397-0.737-0.686-1.039C45.145,25.057,45.978,23.792,45.978,22.393z M18.754,41.393h-4.05V20.264h4.05V41.393z"></path> <path id="Path_830" fill="#009EDB" d="M36.98,39.343V22.312c-0.001-0.377-0.307-0.682-0.684-0.682 c-0.376,0.001-0.681,0.305-0.682,0.682v17.031c0.001,0.377,0.307,0.682,0.684,0.682C36.674,40.024,36.979,39.719,36.98,39.343z"></path> </g> <path id="Path_831" fill="none" stroke="#009EDB" stroke-width="3" stroke-dasharray="3" d="M417.727,1279.357v111.285h346.036"></path> <path id="Path_832" fill="none" stroke="#009EDB" stroke-width="3" stroke-dasharray="3" d="M1504.745,1279.357v111.285h-369.154"></path> <path id="Path_833" fill="#009EDB" d="M761.682,1382.204l13.885,8.794l-13.885,8.797V1382.204z"></path> <g> <defs> <rect id="SVGID_9_" x="804.727" y="1128" width="40.84" height="22.68"></rect> </defs> <clipPath id="SVGID_10_"> <use xlink:href="#SVGID_9_" overflow="visible"></use> </clipPath> <g id="Component_10_14" transform="translate(804.727 1128)" opacity="0.28" clip-path="url(#SVGID_10_)"> <path id="Path_876" fill="none" stroke="#042745" stroke-width="3" stroke-dasharray="3" d="M0,10.983h36.018"></path> <path id="Path_877" fill="#042745" d="M26.956,2.544l13.885,8.794l-13.885,8.797V2.544z"></path> </g> </g> <g> <defs> <rect id="SVGID_11_" x="1081.727" y="1128" width="40.84" height="22.68"></rect> </defs> <clipPath id="SVGID_12_"> <use xlink:href="#SVGID_11_" overflow="visible"></use> </clipPath> <g id="Component_10_15" transform="translate(1081.727 1128)" opacity="0.28" clip-path="url(#SVGID_12_)"> <path id="Path_876-2" fill="none" stroke="#042745" stroke-width="3" stroke-dasharray="3" d="M0,10.983h36.018"></path> <path id="Path_877-2" fill="#042745" d="M26.956,2.544l13.885,8.794l-13.885,8.797V2.544z"></path> </g> </g> <g> <defs> <rect id="SVGID_13_" x="1347.727" y="1128" width="40.84" height="22.68"></rect> </defs> <clipPath id="SVGID_14_"> <use xlink:href="#SVGID_13_" overflow="visible"></use> </clipPath> <g id="Component_10_16" transform="translate(1347.727 1128)" opacity="0.28" clip-path="url(#SVGID_14_)"> <path id="Path_876-3" fill="none" stroke="#042745" stroke-width="3" stroke-dasharray="3" d="M0,10.983h36.018"></path> <path id="Path_877-3" fill="#042745" d="M26.956,2.544l13.885,8.794l-13.885,8.797V2.544z"></path> </g> </g> <path id="Path_834" fill="#009EDB" d="M1496.431,1289.544l8.794-13.885l8.797,13.885H1496.431z"></path> <g> <defs> <rect id="SVGID_15_" x="342" y="1008" width="163.655" height="257"></rect> </defs> <clipPath id="SVGID_16_"> <use xlink:href="#SVGID_15_" overflow="visible"></use> </clipPath> <g id="Component_9_21" transform="translate(342 1008)" clip-path="url(#SVGID_16_)"> <path id="Subtraction_24-5" fill="#009EDB" d="M143.654,257H20c-11.046,0-20-8.954-20-20V20C0,8.954,8.954,0,20,0h123.655 c11.046,0,20,8.954,20,20v217C163.655,248.046,154.701,257,143.654,257L143.654,257z M81.726,223c-5.523,0-10,4.477-10,10 s4.477,10,10,10s10-4.477,10-10C91.72,227.48,87.246,223.006,81.726,223z M14,30c-2.208,0.003-3.997,1.792-4,4v174 c0.003,2.208,1.792,3.997,4,4h135c2.209,0,4-1.791,4-4V34c0-2.209-1.791-4-4-4H14z M110.226,16c-0.828,0-1.5,0.672-1.5,1.5 s0.672,1.5,1.5,1.5s1.5-0.672,1.5-1.5C111.726,16.672,111.055,16.001,110.226,16L110.226,16z M56.226,16 c-0.828,0-1.5,0.672-1.5,1.5s0.672,1.5,1.5,1.5h48c0.828,0,1.5-0.672,1.5-1.5s-0.672-1.5-1.5-1.5H56.226z M82.226,7 c-1.381,0-2.5,1.119-2.5,2.5s1.119,2.5,2.5,2.5s2.5-1.119,2.5-2.5C84.726,8.12,83.607,7.001,82.226,7L82.226,7z"></path> </g> </g> <g> <defs> <rect id="SVGID_17_" x="536.727" y="1128" width="40.84" height="22.68"></rect> </defs> <clipPath id="SVGID_18_"> <use xlink:href="#SVGID_17_" overflow="visible"></use> </clipPath> <g id="Component_10_17" transform="translate(536.727 1128)" opacity="0.28" clip-path="url(#SVGID_18_)"> <path id="Path_876-4" fill="none" stroke="#042745" stroke-width="3" stroke-dasharray="3" d="M0,10.983h36.018"></path> <path id="Path_877-4" fill="#042745" d="M26.956,2.544l13.885,8.794l-13.885,8.797V2.544z"></path> </g> </g> <g id="Group_451"> <g id="Group_11" transform="translate(908.45 1345.634)"> <g id="Group_9" transform="translate(0 0.001)"> <path id="Path_158" fill="#042745" d="M39.064,31.259H2.627c-2.461,0.016-3.311,2.162-2.014,4.5l9.52,17.176 c1.465,2.37,4.016,3.853,6.8,3.953h36.355c2.461-0.016,3.4-1.9,2.1-4.245l-9.521-17.176 C44.424,33.036,41.883,31.465,39.064,31.259z"></path> <path id="Path_159" fill="#009EDB" d="M16.907,0h36.437c2.461,0.016,3.311,2.162,2.013,4.5l-9.52,17.176 c-1.465,2.37-4.016,3.853-6.8,3.954H2.682c-2.46-0.016-3.4-1.9-2.1-4.245l9.52-17.176C11.545,1.777,14.087,0.206,16.907,0z"></path> <path id="Path_160" fill="#FFFFFF" d="M51.674,11.15L6.289,11.092l2.9-5.224h45.418L51.674,11.15z"></path> <path id="Path_161" fill="#FFFFFF" d="M23.539,52.329l-2.587-2.989c-0.39-0.462-0.951-0.744-1.554-0.783l-5.734-0.324 c-0.166,0.001-0.299,0.136-0.298,0.302c0.001,0.076,0.03,0.149,0.082,0.204l3.011,3.479c0.246,0.291,0.603,0.463,0.983,0.475 l5.889,0.141c0.166-0.006,0.295-0.145,0.289-0.311C23.617,52.451,23.589,52.382,23.539,52.329z"></path> </g> <g id="Group_10" transform="translate(64.718)"> <path id="Path_162" fill="#009EDB" d="M1.999,0h10.383c3.085-0.028,5.963,1.55,7.6,4.165l12.4,20.379 c0.46,0.796,0.188,1.813-0.608,2.273c-0.275,0.159-0.589,0.236-0.906,0.222H18.761c-2.795,0.026-5.391-1.439-6.814-3.845 L0.247,2.805C-0.254,1.883,0.088,0.729,1.01,0.229C1.313,0.064,1.655-0.015,1.999,0z"></path> <path id="Path_163" fill="#042745" d="M1.999,56.893h10.383c3.085,0.027,5.963-1.55,7.6-4.166l12.4-20.38 c0.46-0.796,0.188-1.813-0.608-2.273c-0.275-0.159-0.589-0.236-0.906-0.222H18.761c-2.795-0.026-5.391,1.439-6.814,3.845 l-11.7,20.39c-0.501,0.922-0.161,2.076,0.761,2.577C1.312,56.829,1.654,56.908,1.999,56.893z"></path> </g> </g> <path id="Path_2106" fill="#042745" d="M846.898,1441.264c2.602,0.091,5.029-1.309,6.252-3.608l-2.684-1.3 c-0.693,1.327-2.072,2.152-3.568,2.136c-2.512-0.029-4.524-2.088-4.496-4.6c0.001-0.073,0.003-0.146,0.008-0.218 c-0.149-2.507,1.762-4.661,4.27-4.81c0.073-0.004,0.146-0.007,0.218-0.008c1.492-0.005,2.864,0.816,3.564,2.134l2.688-1.32 c-1.221-2.296-3.65-3.69-6.248-3.586c-4.1-0.151-7.546,3.05-7.697,7.149c-0.005,0.147-0.006,0.294-0.003,0.441 c-0.092,4.101,3.158,7.501,7.259,7.593C846.607,1441.27,846.753,1441.269,846.898,1441.264z M865.07,1441h3.146v-14.674h-3.146 v5.764h-6.93v-5.764h-3.124V1441h3.124v-6.16h6.93V1441z M881.37,1441h3.41l-5.652-14.674h-3.916L869.536,1441h3.432l0.924-2.53 h6.558L881.37,1441z M877.17,1429.032l2.42,6.732h-4.862L877.17,1429.032z M894.44,1441h3.586l-3.3-5.588 c1.986-0.481,3.34-2.317,3.212-4.356c0.096-2.522-1.87-4.645-4.392-4.741c-0.179-0.007-0.357-0.003-0.536,0.011h-6.86V1441h3.12 v-5.258h2.288L894.44,1441z M894.75,1431.034c0.004,1.118-0.9,2.028-2.018,2.031c-0.061,0-0.121-0.002-0.182-0.008h-3.28v-4.048 h3.28c1.114-0.097,2.096,0.728,2.192,1.842C894.748,1430.913,894.75,1430.973,894.75,1431.034z M899.59,1433.674 c-0.082,4.126,3.197,7.537,7.323,7.618c0.162,0.003,0.323,0.001,0.485-0.006c2.39,0.038,4.676-0.975,6.252-2.772v-5.614h-7v2.684 h3.916v1.786c-0.893,0.731-2.014,1.128-3.168,1.122c-2.524,0.02-4.586-2.009-4.607-4.533c-0.001-0.095,0.001-0.19,0.007-0.285 c-0.137-2.52,1.795-4.674,4.315-4.811c0.095-0.005,0.19-0.007,0.285-0.007c1.394-0.006,2.699,0.686,3.476,1.844l2.6-1.408 c-1.306-2.078-3.62-3.302-6.072-3.212c-4.294,0.004-7.814,2.952-7.814,7.594H899.59z M916.132,1441h10.384v-2.706h-7.26v-3.41 h7.106v-2.684h-7.106v-3.19h7.26v-2.684h-10.384V1441z M944.864,1441h3.41l-5.654-14.674h-3.916L933.028,1441h3.432l0.924-2.53 h6.556L944.864,1441z M940.664,1429.032l2.42,6.732h-4.864L940.664,1429.032z M948.914,1435.148c0,3.608,2.09,6.116,6.578,6.116 c4.444,0,6.534-2.486,6.534-6.138v-8.8h-3.168v8.712c0.189,1.714-1.048,3.257-2.762,3.446c-0.201,0.022-0.403,0.025-0.604,0.008 c-1.724,0.162-3.252-1.105-3.414-2.828c-0.02-0.208-0.018-0.418,0.004-0.625v-8.712h-3.168V1435.148z M968.316,1441h3.146v-11.924 h4.268v-2.75h-11.7v2.75h4.29L968.316,1441z M976.5,1433.674c-0.126,4.067,3.068,7.466,7.135,7.592 c0.174,0.005,0.348,0.005,0.521-0.002c4.068,0.17,7.505-2.99,7.675-7.058c0.007-0.177,0.008-0.355,0.003-0.532 c0.123-4.07-3.076-7.47-7.146-7.593c-0.177-0.005-0.355-0.004-0.532,0.003c-4.065-0.162-7.492,3.003-7.654,7.069 C976.495,1433.326,976.495,1433.5,976.5,1433.674z M988.622,1433.674c0,2.728-1.76,4.818-4.466,4.818s-4.444-2.09-4.444-4.818 c0-2.75,1.738-4.818,4.444-4.818S988.622,1430.924,988.622,1433.674z M1006.794,1441h3.146v-14.674h-4.4l-3.564,9.152 l-3.564-9.152h-4.378V1441h3.124v-10.56l4.136,10.56h1.364l4.136-10.56V1441z M1023.118,1441h3.41l-5.654-14.674h-3.916 l-5.676,14.674h3.432l0.924-2.53h6.556L1023.118,1441z M1018.918,1429.032l2.42,6.732h-4.862L1018.918,1429.032z M1029.872,1441 h3.146v-11.924h4.268v-2.75h-11.7v2.75h4.29L1029.872,1441z M1039.288,1441h3.124v-14.674h-3.124V1441z M1044.612,1433.674 c-0.126,4.067,3.068,7.466,7.135,7.592c0.174,0.005,0.348,0.005,0.521-0.002c4.068,0.17,7.505-2.99,7.675-7.058 c0.007-0.177,0.008-0.355,0.003-0.532c0.123-4.07-3.076-7.47-7.146-7.593c-0.177-0.005-0.355-0.004-0.532,0.003 c-4.066-0.162-7.492,3.003-7.654,7.069C1044.607,1433.326,1044.607,1433.5,1044.612,1433.674z M1056.734,1433.674 c0,2.728-1.76,4.818-4.466,4.818c-2.706,0-4.444-2.09-4.444-4.818c0-2.75,1.738-4.818,4.444-4.818 C1054.974,1428.856,1056.734,1430.924,1056.734,1433.674z M1072.266,1441h3.014v-14.674h-3.124v9.5l-6.8-9.5h-3.206V1441h3.124 v-9.856L1072.266,1441z"></path> </g> <path id="Path_2121" fill="#042745" d="M1475.376,1143.224c-1.032,0.019-2.052-0.229-2.96-0.72c-0.856-0.472-1.559-1.18-2.024-2.04 c-0.5-0.942-0.751-1.997-0.728-3.064c-0.023-1.069,0.233-2.125,0.744-3.064c0.478-0.862,1.191-1.569,2.056-2.04 c0.914-0.49,1.939-0.738,2.976-0.72c0.533-0.002,1.065,0.057,1.584,0.176c0.466,0.105,0.917,0.266,1.344,0.48l-0.192,1.76 c-0.857-0.421-1.797-0.645-2.752-0.656c-0.71-0.021-1.412,0.159-2.024,0.52c-0.558,0.345-1.001,0.847-1.272,1.444 c-0.296,0.66-0.442,1.377-0.428,2.1c-0.013,0.722,0.132,1.439,0.424,2.1c0.266,0.594,0.703,1.096,1.256,1.44 c0.609,0.361,1.308,0.542,2.016,0.52c0.477,0.003,0.952-0.051,1.416-0.16c0.47-0.116,0.928-0.277,1.368-0.48l0.192,1.744 C1477.438,1143.012,1476.412,1143.238,1475.376,1143.224z M1480.128,1131.8h1.856v4.5h5.328v-4.5h1.856v11.2h-1.856v-4.96h-5.328 v4.96h-1.856V1131.8z M1491.664,1131.8h7.036v1.76h-5.152v2.72h4.052v1.76h-4.048v3.2h5.312v1.76h-7.2V1131.8z M1505.552,1143.224 c-1.033,0.018-2.052-0.232-2.96-0.724c-0.856-0.472-1.559-1.18-2.024-2.04c-0.5-0.941-0.75-1.995-0.728-3.06 c-0.023-1.069,0.233-2.125,0.744-3.064c0.478-0.86,1.191-1.566,2.056-2.036c0.914-0.49,1.939-0.738,2.976-0.72 c0.533-0.002,1.065,0.057,1.584,0.176c0.466,0.105,0.917,0.266,1.344,0.48l-0.192,1.76c-0.857-0.422-1.797-0.647-2.752-0.66 c-0.71-0.021-1.412,0.159-2.024,0.52c-0.559,0.344-1.004,0.847-1.276,1.444c-0.297,0.659-0.445,1.377-0.432,2.1 c-0.01,0.723,0.137,1.44,0.432,2.1c0.266,0.594,0.703,1.096,1.256,1.44c0.609,0.361,1.308,0.542,2.016,0.52 c0.475,0.003,0.949-0.051,1.412-0.16c0.47-0.116,0.928-0.277,1.368-0.48l0.192,1.748 C1507.61,1143.014,1506.587,1143.238,1505.552,1143.224z M1510.3,1131.8h1.86v11.2h-1.86V1131.8z M1512.32,1137.08l4.144-5.28 h2.192l-4.192,5.264l4.208,5.936h-2.208L1512.32,1137.08z M1519.42,1137.288h4.96v1.472h-4.96V1137.288z M1526.512,1131.8h1.856 v11.2h-1.856V1131.8z M1530.864,1131.8h1.888l5.04,7.648v-7.648h1.872v11.2h-1.536l-5.408-8.112V1143h-1.856V1131.8z"></path> <text transform="matrix(1 0 0 1 411.4985 1170.2045)"><tspan x="0" y="0" opacity="0.45" fill="#042745" font-family="'Arial-BoldMT'" font-size="12">from </tspan><tspan x="-44.007" y="14.4" opacity="0.45" fill="#042745" font-family="'Arial-BoldMT'" font-size="12">Any Booking Source</tspan></text> <text transform="matrix(1 0 0 1 900.4994 1098.0203)"><tspan x="0" y="0" fill="#042745" font-family="'Arial-BoldMT'" font-size="15">Collect Guest</tspan><tspan x="45.417" y="18" fill="#042745" font-family="'Arial-BoldMT'" font-size="15">Info</tspan></text> <rect x="913.578" y="1132.115" fill="none" width="118.75" height="70.25"></rect> <text transform="matrix(1 0 0 1 913.5775 1138.5583)"><tspan x="0" y="0" font-family="'Arial-BoldMT'" font-size="9">Guest ID/Passport</tspan><tspan x="0" y="15" font-family="'Arial-BoldMT'" font-size="9">Email, phone &amp; Arrival time</tspan><tspan x="0" y="30" font-family="'Arial-BoldMT'" font-size="9">Digital Signature</tspan><tspan x="0" y="45" font-family="'Arial-BoldMT'" font-size="9">Add-ons (Room upgrade, </tspan><tspan x="0" y="60" font-family="'Arial-BoldMT'" font-size="9">Early Checkin...)</tspan></text> <g> <circle fill="#009EDB" cx="905.044" cy="1135.352" r="3.553"></circle> <g> <g> <path fill="#FFFFFF" d="M906.995,1134.269c-0.154-0.154-0.405-0.154-0.559,0l-1.698,1.698l-0.907-0.907 c-0.154-0.154-0.405-0.154-0.559,0c-0.154,0.154-0.154,0.405,0,0.559l1.187,1.187c0.077,0.077,0.178,0.116,0.28,0.116 s0.202-0.039,0.28-0.116l1.978-1.978C907.15,1134.674,907.15,1134.424,906.995,1134.269z"></path> </g> </g> <g> <g> <path d="M905.133,1130.163c-2.854,0-5.177,2.322-5.177,5.177s2.322,5.177,5.177,5.177s5.177-2.322,5.177-5.177 S907.988,1130.163,905.133,1130.163z M905.133,1139.481c-2.284,0-4.141-1.858-4.141-4.141s1.858-4.141,4.141-4.141 c2.283,0,4.141,1.858,4.141,4.141S907.417,1139.481,905.133,1139.481z"></path> </g> </g> </g> <g> <circle fill="#009EDB" cx="905.044" cy="1150.364" r="3.553"></circle> <g> <g> <path fill="#FFFFFF" d="M906.995,1149.281c-0.154-0.154-0.405-0.154-0.559,0l-1.698,1.698l-0.907-0.907 c-0.154-0.154-0.405-0.154-0.559,0c-0.154,0.155-0.154,0.405,0,0.559l1.187,1.187c0.077,0.077,0.178,0.116,0.28,0.116 s0.202-0.039,0.28-0.116l1.978-1.978C907.15,1149.686,907.15,1149.436,906.995,1149.281z"></path> </g> </g> <g> <g> <path d="M905.133,1145.175c-2.854,0-5.177,2.322-5.177,5.176s2.322,5.177,5.177,5.177s5.177-2.322,5.177-5.177 S907.988,1145.175,905.133,1145.175z M905.133,1154.493c-2.284,0-4.141-1.858-4.141-4.141c0-2.283,1.858-4.141,4.141-4.141 c2.283,0,4.141,1.858,4.141,4.141C909.274,1152.635,907.417,1154.493,905.133,1154.493z"></path> </g> </g> </g> <g> <circle fill="#009EDB" cx="905.044" cy="1165.376" r="3.553"></circle> <g> <g> <path fill="#FFFFFF" d="M906.995,1164.293c-0.154-0.154-0.405-0.154-0.559,0l-1.698,1.698l-0.907-0.907 c-0.154-0.154-0.405-0.154-0.559,0c-0.154,0.154-0.154,0.405,0,0.559l1.187,1.187c0.077,0.077,0.178,0.116,0.28,0.116 s0.202-0.039,0.28-0.116l1.978-1.978C907.15,1164.698,907.15,1164.448,906.995,1164.293z"></path> </g> </g> <g> <g> <path d="M905.133,1160.187c-2.854,0-5.177,2.322-5.177,5.177s2.322,5.177,5.177,5.177s5.177-2.322,5.177-5.177 S907.988,1160.187,905.133,1160.187z M905.133,1169.505c-2.284,0-4.141-1.858-4.141-4.141c0-2.283,1.858-4.141,4.141-4.141 c2.283,0,4.141,1.858,4.141,4.141C909.274,1167.647,907.417,1169.505,905.133,1169.505z"></path> </g> </g> </g> <g> <circle fill="#009EDB" cx="905.044" cy="1180.388" r="3.553"></circle> <g> <g> <path fill="#FFFFFF" d="M906.995,1179.305c-0.154-0.154-0.405-0.154-0.559,0l-1.698,1.698l-0.907-0.907 c-0.154-0.154-0.405-0.154-0.559,0c-0.154,0.154-0.154,0.405,0,0.559l1.187,1.187c0.077,0.077,0.178,0.116,0.28,0.116 s0.202-0.039,0.28-0.116l1.978-1.978C907.15,1179.71,907.15,1179.46,906.995,1179.305z"></path> </g> </g> <g> <g> <path d="M905.133,1175.199c-2.854,0-5.177,2.322-5.177,5.177s2.322,5.177,5.177,5.177s5.177-2.322,5.177-5.177 S907.988,1175.199,905.133,1175.199z M905.133,1184.517c-2.284,0-4.141-1.858-4.141-4.141s1.858-4.141,4.141-4.141 c2.283,0,4.141,1.858,4.141,4.141S907.417,1184.517,905.133,1184.517z"></path> </g> </g> </g> </g> </svg> 