<?xml version="1.0" encoding="UTF-8"?> <svg xmlns="http://www.w3.org/2000/svg" width="120" height="100" viewBox="0 0 120 100"><g id="fe-11" transform="translate(1399 -2168)"><rect id="Rectangle_1598" data-name="Rectangle 1598" width="120" height="100" transform="translate(-1399 2168)" fill="#fff" opacity="0"></rect><g id="laptop" transform="translate(-1389.248 2183.018)"><path id="Path_2275" data-name="Path 2275" d="M69.61,126.158H65.682a1.994,1.994,0,0,0-1.992,1.992v31.779h3.928V128.15A1.994,1.994,0,0,1,69.61,126.158Z" transform="translate(-36.549 -107.032)" fill="#ebeef3"></path><path id="Path_2276" data-name="Path 2276" d="M189.405,386.435a2.373,2.373,0,0,0-2.371-2.37h-3.928a2.373,2.373,0,0,1,2.371,2.37.538.538,0,0,0,.537.538h3.928A.538.538,0,0,1,189.405,386.435Z" transform="translate(-140.329 -331.168)" fill="#ebeef3"></path><path id="Path_2277" data-name="Path 2277" d="M39.565,400.362a2.3,2.3,0,0,1,2.3-2.3H37.938a2.3,2.3,0,0,0,0,4.6h3.928A2.3,2.3,0,0,1,39.565,400.362Z" transform="translate(-12.17 -343.331)" fill="#ebeef3"></path><path id="Path_2278" data-name="Path 2278" d="M117.493,150.638H88.446a.917.917,0,0,0-.917.917v26.064a.917.917,0,0,0,.917.917h42.13a.917.917,0,0,0,.917-.917V169.4h-1.833V176.7h-40.3V152.471h28.131Z" transform="translate(-57.267 -128.306)" fill="#042745"></path><path id="Path_2279" data-name="Path 2279" d="M79.049,147.853v-11.9H77.216v11.808H60.357a2.373,2.373,0,0,0-2.37,2.37.538.538,0,0,1-.538.538H45.817a.538.538,0,0,1-.537-.538,2.373,2.373,0,0,0-2.371-2.37H27.272V115.983a1.994,1.994,0,0,1,1.992-1.992H57.476v-1.833H29.263a3.829,3.829,0,0,0-3.825,3.825v31.793a4.133,4.133,0,0,0,.33,8.254H78.186a4.134,4.134,0,0,0,.863-8.176Zm.764,5.668a2.286,2.286,0,0,1-1.628.675H25.768a2.3,2.3,0,0,1,0-4.6h17.14a.538.538,0,0,1,.538.537,2.373,2.373,0,0,0,2.37,2.371H57.449a2.374,2.374,0,0,0,2.371-2.371.538.538,0,0,1,.537-.537H78.186a2.3,2.3,0,0,1,1.628,3.927Z" transform="translate(0 -94.865)" fill="#042745"></path><path id="Path_2280" data-name="Path 2280" d="M121.092,203.456h4.4a.917.917,0,1,0,0-1.833h-4.4a.917.917,0,1,0,0,1.833Z" transform="translate(-85.638 -172.615)" fill="#042745"></path><path id="Path_2281" data-name="Path 2281" d="M185.121,203.456a.917.917,0,1,0,0-1.833h-2.828a.917.917,0,1,0,0,1.833Z" transform="translate(-138.825 -172.615)" fill="#042745"></path><path id="Path_2282" data-name="Path 2282" d="M244.493,202.54a.917.917,0,0,0-.917-.917h-4.885a.917.917,0,1,0,0,1.833h4.885A.917.917,0,0,0,244.493,202.54Z" transform="translate(-187.839 -172.615)" fill="#042745"></path><path id="Path_2283" data-name="Path 2283" d="M121.092,259.456h7.542a.917.917,0,1,0,0-1.833h-7.542a.917.917,0,1,0,0,1.833Z" transform="translate(-85.638 -221.282)" fill="#042745"></path><path id="Path_2284" data-name="Path 2284" d="M211.189,258.54a.917.917,0,0,0-.917-.917h-3.981a.917.917,0,1,0,0,1.833h3.981a.917.917,0,0,0,.917-.917Z" transform="translate(-159.682 -221.282)" fill="#042745"></path><path id="Path_2285" data-name="Path 2285" d="M121.092,315.456h11.051a.917.917,0,1,0,0-1.833H121.092a.917.917,0,0,0,0,1.833Z" transform="translate(-85.638 -269.95)" fill="#042745"></path><path id="Path_2286" data-name="Path 2286" d="M233.092,315.456h4.4a.917.917,0,1,0,0-1.833h-4.4a.917.917,0,0,0,0,1.833Z" transform="translate(-182.973 -269.95)" fill="#042745"></path><path id="Path_2287" data-name="Path 2287" d="M292.844,35.764a5.332,5.332,0,0,0-3.534-3.643L283.7,30.3V28.072a8.816,8.816,0,0,0,3.971-5.794l.29-1a3.052,3.052,0,0,0,1.848-3.566,2.494,2.494,0,0,0-1.4-1.694V12.4a9.4,9.4,0,1,0-18.8,0v3.621a2.5,2.5,0,0,0-1.4,1.7,3.053,3.053,0,0,0,1.848,3.565l.29,1a8.816,8.816,0,0,0,3.971,5.794V30.3l-5.611,1.82a5.332,5.332,0,0,0-3.534,3.643c-.018.067-.036.135-.051.2a5.04,5.04,0,0,0-.126,1.16v4.258a.917.917,0,0,0,.917.917H292.1a.917.917,0,0,0,.917-.917V37.126a5.037,5.037,0,0,0-.125-1.159Q292.871,35.864,292.844,35.764ZM279.011,4.833a7.573,7.573,0,0,1,7.564,7.565v3.4a19.083,19.083,0,0,1-8.859-2.527,15.437,15.437,0,0,0,7.452-2.808.917.917,0,0,0-1.116-1.455c-4.1,3.144-10.359,2.551-10.421,2.545a.917.917,0,0,0-1.011.912v1.24a2.085,2.085,0,0,1-1.176,1.872V12.4a7.573,7.573,0,0,1,7.565-7.565Zm-6.868,17.062a.884.884,0,0,0-.021-.086l-.419-1.444a.917.917,0,0,0-.741-.726,1.218,1.218,0,0,1-.969-1.487.669.669,0,0,1,.428-.48.893.893,0,0,0,.449-.058,3.922,3.922,0,0,0,3.586-3.9v-.271c.128,0,.266.005.414.006,5.054,4.422,12.291,4.216,12.654,4.2a.676.676,0,0,1,.5.5,1.218,1.218,0,0,1-.969,1.487.926.926,0,0,0-.729.685l-.432,1.485q-.013.043-.021.086a6.987,6.987,0,0,1-13.733,0Zm6.866,7.529a8.793,8.793,0,0,0,2.855-.477V30.4a7.091,7.091,0,0,1-5.711,0V28.947a8.794,8.794,0,0,0,2.856.477Zm12.178,11.044H266.832V37.126a3.24,3.24,0,0,1,.078-.744c.01-.044.021-.088.034-.132a3.5,3.5,0,0,1,2.332-2.384l5.875-1.905a8.934,8.934,0,0,0,7.718,0l5.875,1.905a3.5,3.5,0,0,1,2.332,2.385c.012.044.023.087.034.133a3.242,3.242,0,0,1,.077.743Z" transform="translate(-211.498 0)" fill="#009edb"></path></g></g></svg> 