<?xml version="1.0" encoding="UTF-8"?> <svg xmlns="http://www.w3.org/2000/svg" width="120" height="100" viewBox="0 0 120 100"><g id="fe-1" transform="translate(1729 -1838)"><rect id="Rectangle_1598" data-name="Rectangle 1598" width="120" height="100" transform="translate(-1729 1838)" fill="#fff" opacity="0"></rect><g id="online-payment" transform="translate(-1705.486 1861.265)"><path id="Path_2184" data-name="Path 2184" d="M18.923,37.148H15.63A3.634,3.634,0,0,0,12,40.778V68.726h3.294V40.778A3.634,3.634,0,0,1,18.923,37.148Zm0,0" transform="translate(-10.024 -31.031)" fill="#ebeef3"></path><path id="Path_2185" data-name="Path 2185" d="M15.294,242.3v-1.42H12v1.42a3.634,3.634,0,0,0,3.63,3.63h3.294A3.634,3.634,0,0,1,15.294,242.3Zm0,0" transform="translate(-10.024 -201.213)" fill="#ebeef3"></path><g id="Group_465" data-name="Group 465" transform="translate(35.899 -0.001)"><path id="Path_2186" data-name="Path 2186" d="M248.1,85.817V59.074a2.968,2.968,0,0,0-2.964-2.964h-22.74v1.976h22.74a.989.989,0,0,1,.988.988v4.194h-1.706a.988.988,0,0,0,0,1.976h1.706V85.817a.989.989,0,0,1-.988.988h-22.74v1.976h22.74A2.968,2.968,0,0,0,248.1,85.817Zm0,0" transform="translate(-221.668 -46.869)" fill="#009edb"></path><path id="Path_2187" data-name="Path 2187" d="M257.6,163.525a5.248,5.248,0,0,0,7.383,4.8,5.252,5.252,0,1,0,0-9.6,5.248,5.248,0,0,0-7.383,4.8Zm1.976,0a3.279,3.279,0,0,1,3.275-3.276c.053,0,.1.006.157.008a5.234,5.234,0,0,0,0,6.534c-.053,0-.1.008-.157.008A3.278,3.278,0,0,1,259.578,163.525Zm6.55,0a3.265,3.265,0,0,1-1.143,2.481,3.263,3.263,0,0,1,0-4.963A3.27,3.27,0,0,1,266.127,163.525Zm4.263,0a3.278,3.278,0,0,1-3.275,3.274c-.053,0-.1-.005-.156-.008a5.235,5.235,0,0,0,0-6.534c.052,0,.1-.008.156-.008A3.28,3.28,0,0,1,270.391,163.525Zm0,0" transform="translate(-251.076 -132.207)" fill="#009edb"></path><path id="Path_2188" data-name="Path 2188" d="M315.558,101.554a.988.988,0,1,0,0-1.976h-3.87a.988.988,0,1,0,0,1.976Zm0,0" transform="translate(-295.429 -83.179)" fill="#009edb"></path><path id="Path_2189" data-name="Path 2189" d="M293.082,101.554a.988.988,0,0,0,0-1.976h-.648a.988.988,0,1,0,0,1.976Zm0,0" transform="translate(-279.346 -83.179)" fill="#009edb"></path><path id="Path_2190" data-name="Path 2190" d="M228.488,101.554a.988.988,0,0,0,0-1.976h-9.519a.988.988,0,0,0,0,1.976Zm0,0" transform="translate(-217.98 -83.179)" fill="#009edb"></path><path id="Path_2191" data-name="Path 2191" d="M410.032,18.672a.988.988,0,0,0,0-1.976h-.122a.988.988,0,1,0,0,1.976Zm0,0" transform="translate(-377.476 -13.946)" fill="#009edb"></path><path id="Path_2192" data-name="Path 2192" d="M396.283,16.7h-.08a.988.988,0,1,0,0,1.976h.08a.988.988,0,0,0,0-1.976Zm0,0" transform="translate(-366.026 -13.946)" fill="#009edb"></path><path id="Path_2193" data-name="Path 2193" d="M377.027,16.7a.988.988,0,1,0,0,1.976h.037a.988.988,0,0,0,0-1.976Zm0,0" transform="translate(-350.008 -13.946)" fill="#009edb"></path><path id="Path_2194" data-name="Path 2194" d="M303.634,3.737a.988.988,0,0,0-.988-.988h-8.62L295.1,1.674a.988.988,0,0,0-1.4-1.4l-2.761,2.762a.988.988,0,0,0,0,1.4L293.7,7.2a.988.988,0,0,0,1.4-1.4l-1.074-1.074h8.62A.988.988,0,0,0,303.634,3.737Zm0,0" transform="translate(-278.684 0.001)" fill="#009edb"></path><path id="Path_2195" data-name="Path 2195" d="M435.789,290.82h-.122a.988.988,0,1,0,0,1.976h.122a.988.988,0,0,0,0-1.976Zm0,0" transform="translate(-398.992 -242.925)" fill="#009edb"></path><path id="Path_2196" data-name="Path 2196" d="M422.037,290.82h-.08a.988.988,0,0,0,0,1.976h.08a.988.988,0,0,0,0-1.976Zm0,0" transform="translate(-387.539 -242.925)" fill="#009edb"></path><path id="Path_2197" data-name="Path 2197" d="M402.818,290.82h-.037a.988.988,0,1,0,0,1.976h.037a.988.988,0,0,0,0-1.976Zm0,0" transform="translate(-371.521 -242.925)" fill="#009edb"></path><path id="Path_2198" data-name="Path 2198" d="M300.391,276.861H286.248l1.075-1.075a.988.988,0,0,0-1.4-1.4l-2.761,2.762a.988.988,0,0,0,0,1.4l2.761,2.761a.988.988,0,0,0,1.4-1.4l-1.075-1.074h14.143a.988.988,0,0,0,0-1.976Zm0,0" transform="translate(-272.188 -228.966)" fill="#009edb"></path><path id="Path_2199" data-name="Path 2199" d="M480.371,108.07h-.122a.988.988,0,1,0,0,1.976h.122a.988.988,0,0,0,0-1.976Zm0,0" transform="translate(-436.231 -90.272)" fill="#009edb"></path><path id="Path_2200" data-name="Path 2200" d="M466.619,108.07h-.08a.988.988,0,0,0,0,1.976h.08a.988.988,0,0,0,0-1.976Zm0,0" transform="translate(-424.779 -90.272)" fill="#009edb"></path><path id="Path_2201" data-name="Path 2201" d="M447.4,108.07h-.038a.988.988,0,0,0,0,1.976h.038a.988.988,0,0,0,0-1.976Zm0,0" transform="translate(-408.758 -90.272)" fill="#009edb"></path><path id="Path_2202" data-name="Path 2202" d="M411.609,95.051a.988.988,0,0,0-.988-.988h-1.993l1.074-1.075a.988.988,0,0,0-1.4-1.4l-2.761,2.762a.988.988,0,0,0,0,1.4L408.3,98.51a.988.988,0,1,0,1.4-1.4l-1.074-1.074h1.993A.988.988,0,0,0,411.609,95.051Zm0,0" transform="translate(-374.412 -76.264)" fill="#009edb"></path><path id="Path_2203" data-name="Path 2203" d="M477.767,199.445h-.08a.988.988,0,0,0,0,1.976h.08a.988.988,0,1,0,0-1.976Zm0,0" transform="translate(-434.091 -166.599)" fill="#009edb"></path><path id="Path_2204" data-name="Path 2204" d="M458.549,199.445h-.037a.988.988,0,0,0,0,1.976h.037a.988.988,0,0,0,0-1.976Zm0,0" transform="translate(-418.073 -166.599)" fill="#009edb"></path><path id="Path_2205" data-name="Path 2205" d="M401.153,185.408H395.1l1.074-1.075a.988.988,0,1,0-1.4-1.4l-2.761,2.762a.988.988,0,0,0,0,1.4l2.761,2.761a.988.988,0,1,0,1.4-1.4l-1.074-1.074h6.057a.988.988,0,0,0,0-1.976Zm0,0" transform="translate(-363.109 -152.561)" fill="#009edb"></path></g><path id="Path_2206" data-name="Path 2206" d="M42.707,69.3H32.244V59.243h3.312v.694a.988.988,0,0,0,.988.988h3.14a.988.988,0,0,0,.988-.988V54.454H38.7v4.494H37.532V17H38.7v4.739h1.976V16.008a.988.988,0,0,0-.988-.988h-3.14a.988.988,0,0,0-.988.988v.68H5.606A5.612,5.612,0,0,0,0,22.294V53.637a5.612,5.612,0,0,0,5.606,5.606H30.268V69.3H19.805a.988.988,0,0,0,0,1.976h22.9a.988.988,0,0,0,0-1.976ZM5.606,18.664h29.95V50.241H1.976V22.293A3.634,3.634,0,0,1,5.606,18.664ZM1.976,53.637v-1.42h33.58v5.049H5.607A3.634,3.634,0,0,1,1.976,53.637Zm0,0" transform="translate(0 -12.547)" fill="#042745"></path></g></g></svg> 