<?xml version="1.0" encoding="UTF-8"?> <svg xmlns="http://www.w3.org/2000/svg" width="120" height="100" viewBox="0 0 120 100"><g id="fe-4" transform="translate(1234 -1838)"><rect id="Rectangle_1598" data-name="Rectangle 1598" width="120" height="100" transform="translate(-1234 1838)" fill="#fff" opacity="0"></rect><g id="bill" transform="translate(-1241.019 1788.995)"><path id="Path_2161" data-name="Path 2161" d="M356.682,77.636A4.4,4.4,0,0,0,350,81.4v8.96h4.556V81.4a4.406,4.406,0,0,1,2.126-3.768Z" transform="translate(-269.706 -10.177)" fill="#ebeef3"></path><path id="Path_2162" data-name="Path 2162" d="M48.556,356.8V352H44v4.8a7.783,7.783,0,0,0,7.689,7.806h4.556A7.783,7.783,0,0,1,48.556,356.8Z" transform="translate(-10.178 -243.414)" fill="#ebeef3"></path><path id="Path_2163" data-name="Path 2163" d="M110.886,77H106.33a5.153,5.153,0,0,0-5.164,5.079l-.307,34.862h4.556l.308-34.862A5.153,5.153,0,0,1,110.886,77Z" transform="translate(-58.401 -10.178)" fill="#ebeef3"></path><path id="Path_2164" data-name="Path 2164" d="M149.155,149.911a.911.911,0,0,0-.911-.911h-15a.911.911,0,1,0,0,1.822h15A.911.911,0,0,0,149.155,149.911Z" transform="translate(-85.098 -71.243)" fill="#042745"></path><path id="Path_2165" data-name="Path 2165" d="M194.463,195.911a.911.911,0,0,0-.911-.911h-9.385a.911.911,0,1,0,0,1.822h9.385A.911.911,0,0,0,194.463,195.911Z" transform="translate(-128.285 -110.257)" fill="#042745"></path><path id="Path_2166" data-name="Path 2166" d="M137.329,196.822a.911.911,0,1,0,0-1.822h-4.081a.911.911,0,1,0,0,1.822Z" transform="translate(-85.098 -110.257)" fill="#042745"></path><path id="Path_2167" data-name="Path 2167" d="M84.7,65c-.1,0-.3,0-.3.008V65H47.928a6.981,6.981,0,0,0-6.986,6.885l-.307,34.879H32.982a1.031,1.031,0,0,0-.982.975v5.646A9.623,9.623,0,0,0,41.112,123v.01H70.271V123c.152.01.378.016.556.016a9.571,9.571,0,0,0,9.467-9.629v-6.669c0-.5-1.822-.5-1.822,0v6.669a7.671,7.671,0,1,1-15.339,0v-5.646a.946.946,0,0,0-.884-.975H42.458L42.765,71.9a5.153,5.153,0,0,1,5.164-5.079h32.3a6.148,6.148,0,0,0-1.759,4.4V86.467c0,.5,1.822.5,1.822,0V82.009h9.649a.975.975,0,0,0,.982-.911V71.227A6.234,6.234,0,0,0,84.7,65ZM65.263,121.192H41.511a7.783,7.783,0,0,1-7.689-7.806v-4.8H61.311v4.8a9.7,9.7,0,0,0,3.952,7.806Zm23.84-41H80.294v-8.96a4.4,4.4,0,0,1,8.808,0Z" fill="#042745"></path><path id="Path_2168" data-name="Path 2168" d="M260.858,150.822a.911.911,0,1,0,0-1.822h-5.077a.911.911,0,1,0,0,1.822Z" transform="translate(-189.023 -71.243)" fill="#042745"></path><path id="Path_2169" data-name="Path 2169" d="M137.078,246.488a1.064,1.064,0,0,1,1.063,1.063.911.911,0,0,0,.911.911.89.89,0,0,0,.886-.911,2.825,2.825,0,0,0-2-2.736v-.323a.911.911,0,1,0-1.822,0v.323a2.979,2.979,0,0,0-1.949,2.736,2.9,2.9,0,0,0,2.9,2.886,1.063,1.063,0,1,1,.024,2.126h-.027a1.063,1.063,0,0,1-1.048-1.063.911.911,0,0,0-.911-.911.933.933,0,0,0-.937.911,2.979,2.979,0,0,0,1.949,2.736v.413a.911.911,0,0,0,1.822,0v-.413a2.825,2.825,0,0,0,2-2.736,2.878,2.878,0,0,0-2.873-2.886,1.059,1.059,0,0,1-1.057-1.063A1.07,1.07,0,0,1,137.078,246.488Z" transform="translate(-86.651 -151.46)" fill="#042745"></path><path id="Path_2170" data-name="Path 2170" d="M207.078,246.488a1.064,1.064,0,0,1,1.063,1.063.911.911,0,0,0,.911.911.89.89,0,0,0,.886-.911,2.825,2.825,0,0,0-2-2.736v-.323a.911.911,0,1,0-1.822,0v.323a2.979,2.979,0,0,0-1.949,2.736,2.9,2.9,0,0,0,2.9,2.886,1.063,1.063,0,1,1,.024,2.126h-.027a1.063,1.063,0,0,1-1.048-1.063.911.911,0,0,0-.911-.911.933.933,0,0,0-.937.911,2.979,2.979,0,0,0,1.949,2.736v.413a.911.911,0,0,0,1.822,0v-.413a2.825,2.825,0,0,0,2-2.736,2.878,2.878,0,0,0-2.873-2.886,1.059,1.059,0,0,1-1.057-1.063A1.07,1.07,0,0,1,207.078,246.488Z" transform="translate(-146.02 -151.46)" fill="#042745"></path><path id="Path_2171" data-name="Path 2171" d="M300.2,202.43a2.43,2.43,0,0,0-2.43-2.43H270.43a2.43,2.43,0,0,0-2.43,2.43v17.161a2.43,2.43,0,0,0,2.43,2.43h27.336a2.43,2.43,0,0,0,2.43-2.43Zm-30.374,3.949h28.551v1.367H269.822Zm.537-4.556H297.7a.72.72,0,0,1,.678.661v2.073H269.822v-2.073A.6.6,0,0,1,270.359,201.822ZM297.7,220.35H270.359a.6.6,0,0,1-.537-.655V209.568h28.551V219.7a.715.715,0,0,1-.678.655Z" transform="translate(-200.159 -114.498)" fill="#009edb"></path><path id="Path_2172" data-name="Path 2172" d="M396.836,276.25a3.715,3.715,0,1,0,3.446,2.326,3.706,3.706,0,0,0-3.446-2.326Zm-4.929,3.715a1.892,1.892,0,1,1,1.892,1.892A1.892,1.892,0,0,1,391.906,279.965ZM397,281.849a3.714,3.714,0,0,0,0-3.768,1.891,1.891,0,0,1,0,3.768Z" transform="translate(-303.699 -179.167)" fill="#009edb"></path></g></g></svg> 