<?xml version="1.0" encoding="UTF-8"?> <svg xmlns="http://www.w3.org/2000/svg" width="120" height="100" viewBox="0 0 120 100"><g id="fe-5" transform="translate(1729 -2003)"><rect id="Rectangle_1598" data-name="Rectangle 1598" width="120" height="100" transform="translate(-1729 2003)" fill="#fff" opacity="0"></rect><g id="rupee" transform="translate(-1712 2008.363)"><path id="Path_2123" data-name="Path 2123" d="M300.375,14A14.375,14.375,0,1,0,314.75,28.375,14.375,14.375,0,0,0,300.375,14Zm0,27.122a12.747,12.747,0,1,1,12.747-12.747A12.747,12.747,0,0,1,300.375,41.122Z" transform="translate(-235.114)" fill="#042745"></path><path id="Path_2125" data-name="Path 2125" d="M61.626,88.889A29.988,29.988,0,0,0,50.858,87.1a35.754,35.754,0,0,0-5.669.438V65.453c0-1.935-1.716-3.689-4.838-4.937A29.915,29.915,0,0,0,29.6,58.726a29.925,29.925,0,0,0-10.756,1.79c-3.122,1.249-4.84,3-4.84,4.937v35.485c0,1.935,1.72,3.689,4.841,4.937a30.023,30.023,0,0,0,10.774,1.79,35.425,35.425,0,0,0,5.676-.44v4.343c0,1.935,1.7,3.689,4.825,4.937a29.876,29.876,0,0,0,10.748,1.79,29.985,29.985,0,0,0,10.766-1.79c3.122-1.249,4.851-3,4.851-4.937V93.827C66.481,91.892,64.748,90.138,61.626,88.889ZM29.6,60.353c8.234,0,13.972,2.688,13.972,5.1s-5.738,5.1-13.972,5.1-13.971-2.688-13.971-5.1S21.365,60.353,29.6,60.353Zm-13.971,8.18a11.27,11.27,0,0,0,3.214,1.858A29.925,29.925,0,0,0,29.6,72.181a29.916,29.916,0,0,0,10.754-1.79,11.455,11.455,0,0,0,3.211-1.858v2.834c0,2.412-5.734,5.1-13.968,5.1s-13.968-2.688-13.968-5.1Zm0,5.914A11.267,11.267,0,0,0,18.841,76.3,29.928,29.928,0,0,0,29.6,78.1,29.919,29.919,0,0,0,40.352,76.3a11.462,11.462,0,0,0,3.211-1.858v2.834c0,2.412-5.734,5.1-13.968,5.1s-13.968-2.688-13.968-5.1Zm0,5.914a11.264,11.264,0,0,0,3.214,1.858A29.925,29.925,0,0,0,29.6,84.009a29.916,29.916,0,0,0,10.754-1.79,11.455,11.455,0,0,0,3.211-1.858V83.2c0,2.412-5.734,5.1-13.968,5.1s-13.968-2.688-13.968-5.1Zm0,5.914a11.27,11.27,0,0,0,3.214,1.858A29.925,29.925,0,0,0,29.6,89.923a29.916,29.916,0,0,0,10.754-1.79,11.462,11.462,0,0,0,3.211-1.858v1.57a23.526,23.526,0,0,0-3.468,1.044c-3.08,1.232-4.792,2.956-4.838,4.86a33.647,33.647,0,0,1-5.659.461c-8.234,0-13.971-2.688-13.971-5.1Zm0,5.914a11.27,11.27,0,0,0,3.214,1.858,30.026,30.026,0,0,0,10.774,1.79,35.411,35.411,0,0,0,5.676-.439v4.266a33.676,33.676,0,0,1-5.675.461c-8.233,0-13.989-2.689-13.989-5.1Zm0,8.749V98.1a11.264,11.264,0,0,0,3.214,1.858,30.023,30.023,0,0,0,10.774,1.79,35.41,35.41,0,0,0,5.676-.44v4.265a33.689,33.689,0,0,1-5.675.461C21.382,106.038,15.627,103.35,15.627,100.938Zm35.259,15.731c-8.234,0-13.968-2.688-13.968-5.1v-2.834a11.372,11.372,0,0,0,3.2,1.858,29.879,29.879,0,0,0,10.748,1.79,29.988,29.988,0,0,0,10.766-1.79,11.549,11.549,0,0,0,3.224-1.858v2.834C64.854,113.981,59.12,116.669,50.886,116.669Zm0-5.914c-8.234,0-13.968-2.688-13.968-5.1V102.82a11.376,11.376,0,0,0,3.2,1.858,29.876,29.876,0,0,0,10.748,1.79,29.985,29.985,0,0,0,10.766-1.79,11.563,11.563,0,0,0,3.224-1.858v2.834C64.854,108.067,59.12,110.755,50.886,110.755Zm0-5.914c-8.234,0-13.968-2.688-13.968-5.1V96.906a11.372,11.372,0,0,0,3.2,1.858,29.879,29.879,0,0,0,10.748,1.79,29.988,29.988,0,0,0,10.766-1.79,11.546,11.546,0,0,0,3.224-1.858v2.834c0,2.412-5.734,5.1-13.968,5.1Zm-.031-5.914c-8.233,0-13.971-2.688-13.971-5.1s5.738-5.1,13.971-5.1,13.972,2.688,13.972,5.1S59.089,98.927,50.855,98.927Z" transform="translate(0 -38.661)" fill="#009edb"></path><path id="Path_2126" data-name="Path 2126" d="M28.712,75.824c0-2.278,5.115-4.8,12.615-5.075q-.666-.024-1.356-.025c-8.233,0-13.971,2.688-13.971,5.1s5.738,5.1,13.971,5.1q.69,0,1.356-.025C33.827,80.625,28.712,78.1,28.712,75.824Z" transform="translate(-10.373 -49.032)" fill="#ebeef3"></path><path id="Path_2127" data-name="Path 2127" d="M28.712,133.878v-1.187A10.65,10.65,0,0,1,26,131.044v2.834c0,2.412,5.734,5.1,13.968,5.1q.69,0,1.356-.025C33.824,138.679,28.712,136.156,28.712,133.878Z" transform="translate(-10.373 -101.172)" fill="#ebeef3"></path><path id="Path_2128" data-name="Path 2128" d="M28.712,177.49V176.3A10.646,10.646,0,0,1,26,174.656v2.834c0,2.412,5.734,5.1,13.968,5.1q.69,0,1.356-.025C33.824,182.29,28.712,179.768,28.712,177.49Z" transform="translate(-10.373 -138.869)" fill="#ebeef3"></path><path id="Path_2129" data-name="Path 2129" d="M28.712,221.1v-1.188A10.644,10.644,0,0,1,26,218.264V221.1c0,2.412,5.734,5.1,13.968,5.1q.69,0,1.356-.025C33.824,225.9,28.712,223.376,28.712,221.1Z" transform="translate(-10.373 -176.564)" fill="#ebeef3"></path><path id="Path_2130" data-name="Path 2130" d="M28.712,264.709v-1.187A10.651,10.651,0,0,1,26,261.875v2.834c0,2.412,5.736,5.1,13.971,5.1q.679,0,1.346-.025C33.822,269.507,28.712,266.986,28.712,264.709Z" transform="translate(-10.373 -214.26)" fill="#ebeef3"></path><path id="Path_2131" data-name="Path 2131" d="M28.712,308.319v-1.188A10.646,10.646,0,0,1,26,305.485v2.834c0,2.412,5.755,5.1,13.989,5.1.452,0,.9-.009,1.348-.025C33.838,313.118,28.712,310.6,28.712,308.319Z" transform="translate(-10.373 -251.956)" fill="#ebeef3"></path><path id="Path_2132" data-name="Path 2132" d="M28.712,351.933v-1.188A10.643,10.643,0,0,1,26,349.1v2.834c0,2.412,5.755,5.1,13.989,5.1q.678,0,1.348-.025C33.838,356.731,28.712,354.209,28.712,351.933Z" transform="translate(-10.373 -289.656)" fill="#ebeef3"></path><path id="Path_2133" data-name="Path 2133" d="M185.712,430.324v-1.18A10.91,10.91,0,0,1,183,427.49v2.834c0,2.412,5.734,5.1,13.968,5.1q.69,0,1.356-.025C190.824,435.124,185.712,432.6,185.712,430.324Z" transform="translate(-146.082 -357.416)" fill="#ebeef3"></path><path id="Path_2134" data-name="Path 2134" d="M185.712,386.713v-1.18A10.906,10.906,0,0,1,183,383.879v2.834c0,2.412,5.734,5.1,13.968,5.1q.69,0,1.356-.025C190.824,391.514,185.712,388.991,185.712,386.713Z" transform="translate(-146.082 -319.719)" fill="#ebeef3"></path><path id="Path_2135" data-name="Path 2135" d="M185.712,343.1v-1.18A10.91,10.91,0,0,1,183,340.269V343.1c0,2.412,5.734,5.1,13.968,5.1q.69,0,1.356-.025C190.824,347.9,185.712,345.381,185.712,343.1Z" transform="translate(-146.082 -282.023)" fill="#ebeef3"></path><path id="Path_2136" data-name="Path 2136" d="M185.458,285.048c0-2.278,5.115-4.8,12.615-5.075q-.666-.025-1.356-.025c-8.233,0-13.971,2.688-13.971,5.1s5.738,5.1,13.971,5.1q.69,0,1.356-.025C190.573,289.849,185.458,287.326,185.458,285.048Z" transform="translate(-145.862 -229.883)" fill="#ebeef3"></path><path id="Path_2137" data-name="Path 2137" d="M313.4,54.869a12.744,12.744,0,0,1-7-23.4,12.746,12.746,0,1,0,11.283,22.655A12.69,12.69,0,0,1,313.4,54.869Z" transform="translate(-245.431 -15.103)" fill="#ebeef3"></path><path id="Path_2183" data-name="Path 2183" d="M223.548,205.453a1.69,1.69,0,0,1,1.688,1.689.811.811,0,0,0,.811.811.84.84,0,0,0,.844-.811,3.381,3.381,0,0,0-2.466-3.21v-.663a.811.811,0,0,0-1.622,0v.663a3.306,3.306,0,0,0,.762,6.52,1.688,1.688,0,1,1,.006,3.375h-.04a1.69,1.69,0,0,1-1.67-1.687.811.811,0,0,0-.811-.811.784.784,0,0,0-.779.811,3.288,3.288,0,0,0,2.531,3.209v.777a.811.811,0,0,0,1.623,0v-.777a3.382,3.382,0,0,0,2.466-3.21,3.328,3.328,0,0,0-3.327-3.31,1.688,1.688,0,1,1-.016-3.376Z" transform="translate(-158.614 -182.053)" fill="#042745"></path></g></g></svg> 