<?xml version="1.0" encoding="UTF-8"?> <svg xmlns="http://www.w3.org/2000/svg" width="120" height="100" viewBox="0 0 120 100"><g id="fe-6" transform="translate(1564 -2003)"><rect id="Rectangle_1598" data-name="Rectangle 1598" width="120" height="100" transform="translate(-1564 2003)" fill="#fff" opacity="0"></rect><g id="corporate" transform="translate(-1536.501 2015.258)"><path id="Path_2259" data-name="Path 2259" d="M44.319,190.9a7.8,7.8,0,0,1,6.978-8.3q-.4-.04-.8-.04a7.8,7.8,0,0,0-7.781,8.336l.11,1.6a4.294,4.294,0,0,1,1.536-1Z" transform="translate(-34.478 -156.395)" fill="#ebeef3"></path><path id="Path_2260" data-name="Path 2260" d="M33.313,247.933a7.263,7.263,0,0,1-2.228-5.012.466.466,0,0,0-.481-.448h-.14a1.53,1.53,0,0,1-1.511-1.531,1.688,1.688,0,0,1,.044-.381,1.012,1.012,0,0,1,1.016-.769,1.116,1.116,0,0,1,.206.021.484.484,0,0,0,.09.01h.06l0,0h.005a.494.494,0,0,0,.055,0l.018,0,.046-.01.014,0a.463.463,0,0,0,.057-.021l.008,0a.47.47,0,0,0,.046-.025l.015-.009a.471.471,0,0,0,.04-.029l.01-.008a.45.45,0,0,0,.038-.037l0-.006.011-.013a.482.482,0,0,0,.03-.039l.009-.013a.483.483,0,0,0,.031-.056v0a3.31,3.31,0,0,1,3.006-1.92,7.162,7.162,0,0,0,5.285-2.307,8.1,8.1,0,0,1-.162-1.739l-1.084,1.321a7.167,7.167,0,0,1-5.643,2.725,3.31,3.31,0,0,0-3.006,1.92v0a.482.482,0,0,1-.031.056l-.009.013q-.014.02-.03.039l-.011.013,0,.006a.466.466,0,0,1-.038.037l-.01.008a.472.472,0,0,1-.04.029l-.015.009a.465.465,0,0,1-.046.025l-.008,0a.466.466,0,0,1-.057.021l-.015,0-.045.01-.018,0a.5.5,0,0,1-.055,0h-.005s0,0,0,0H28.7a.486.486,0,0,1-.09-.01,1.114,1.114,0,0,0-.206-.021,1.012,1.012,0,0,0-1.016.769,1.682,1.682,0,0,0-.044.381,1.53,1.53,0,0,0,1.511,1.531H29a.466.466,0,0,1,.481.448,7.352,7.352,0,0,0,7.342,7.087,7.478,7.478,0,0,0,.8-.045A7.307,7.307,0,0,1,33.313,247.933Z" transform="translate(-20.805 -201.835)" fill="#ebeef3"></path><path id="Path_2261" data-name="Path 2261" d="M21.7,327.012a8.24,8.24,0,0,1-.771-.6,3.227,3.227,0,0,1-1.182-.018,3.171,3.171,0,0,1-1.638-5.316c-.008-.074-.018-.147-.024-.221a2.456,2.456,0,0,1-.914-.308,3.175,3.175,0,0,0,.141,5.551,3.143,3.143,0,0,0,.83.295,3.222,3.222,0,0,0,1.332-.011.483.483,0,0,1,.583.408,3.166,3.166,0,0,0,2.518,2.7,3.3,3.3,0,0,0,.717.063v-.387A3.18,3.18,0,0,1,21.7,327.012Z" transform="translate(-10.344 -279.313)" fill="#ebeef3"></path><path id="Path_2262" data-name="Path 2262" d="M22.973,438.5a3.863,3.863,0,0,0-.8-.745,3.686,3.686,0,0,0-1.605,2.717v4.359H22.17v-4.359a3.56,3.56,0,0,1,.8-1.972Z" transform="translate(-14.765 -383.725)" fill="#ebeef3"></path><path id="Path_2263" data-name="Path 2263" d="M47.515,422.473a4.69,4.69,0,0,0-1.571-3.109l3.559-1.287-.338-.459-4.827,1.746a4.69,4.69,0,0,1,1.571,3.109c0,.013.008.027.008.04v4.38h1.605v-4.38C47.523,422.5,47.516,422.487,47.515,422.473Z" transform="translate(-35.943 -365.785)" fill="#ebeef3"></path><path id="Path_2264" data-name="Path 2264" d="M383.445,371.89V369a8.815,8.815,0,0,1-2.009-.255v3.149l2.106,2.117,1-1.01Z" transform="translate(-336.234 -322.245)" fill="#ebeef3"></path><path id="Path_2265" data-name="Path 2265" d="M354.58,173.416a2.071,2.071,0,0,0-2.046-2.064l-2.281-.022.675-.448a3.2,3.2,0,0,0,1.408-2.281,9.012,9.012,0,0,1,1.586-.653,7.979,7.979,0,0,1,1.045-.207,8.142,8.142,0,0,0-1.01-.065,7.888,7.888,0,0,0-2.044.272,9.008,9.008,0,0,0-1.586.653,3.2,3.2,0,0,1-1.408,2.281l-.675.448,2.281.022a2.071,2.071,0,0,1,2.046,2.064.758.758,0,0,0,.761.756h2.009a.758.758,0,0,1-.761-.756Z" transform="translate(-306.666 -143.134)" fill="#ebeef3"></path><path id="Path_2266" data-name="Path 2266" d="M320.085,220.089v-.012a.591.591,0,0,0-.506-.6c-.125-.043-.412-.162-.506-.206a1.462,1.462,0,0,1-.622-1.573.947.947,0,0,1,.858-.724.6.6,0,0,0,.248-.08,2.547,2.547,0,0,0,2.159-2.318,4.169,4.169,0,0,1,1.233-2.662.862.862,0,0,0-.8-.571l-.557-.006a4.392,4.392,0,0,0-1.883,3.239,2.547,2.547,0,0,1-2.159,2.318.6.6,0,0,1-.248.08.947.947,0,0,0-.858.724,1.462,1.462,0,0,0,.622,1.573c.094.044.381.164.506.206a.591.591,0,0,1,.506.6v.012a7.473,7.473,0,0,0,8.489,7.417A7.5,7.5,0,0,1,320.085,220.089Z" transform="translate(-278.299 -182.028)" fill="#ebeef3"></path><path id="Path_2267" data-name="Path 2267" d="M311.079,401.263l1.457-.526-.307-.614-3.159,1.14a3.734,3.734,0,0,0-2.006,2.972v6.321h2.009v-6.321A3.734,3.734,0,0,1,311.079,401.263Z" transform="translate(-269.981 -350.2)" fill="#ebeef3"></path><path id="Path_2268" data-name="Path 2268" d="M408.4,480.246a.769.769,0,1,0,.769.769.769.769,0,0,0-.769-.769Z" transform="translate(-359.573 -421.574)" fill="#042745"></path><circle id="Ellipse_113" data-name="Ellipse 113" cx="0.769" cy="0.769" r="0.769" transform="translate(48.063 55.27)" fill="#042745"></circle><path id="Path_2269" data-name="Path 2269" d="M138.557,7H113.325A3.282,3.282,0,0,0,110,10.27v7.815a3.331,3.331,0,0,0,3.325,3.328h8.711l3.354,5.256a.664.664,0,0,0,.552.312h0a.664.664,0,0,0,.553-.314l3.319-5.254h8.744a3.331,3.331,0,0,0,3.325-3.328V10.27A3.282,3.282,0,0,0,138.557,7Zm2.015,11.085a2.019,2.019,0,0,1-2.014,2.017h-9.1a.654.654,0,0,0-.554.3l-2.961,4.678-2.992-4.68a.654.654,0,0,0-.552-.3h-9.069a2.019,2.019,0,0,1-2.015-2.017V10.27a1.971,1.971,0,0,1,2.015-1.96h25.233a1.971,1.971,0,0,1,2.014,1.96Z" transform="translate(-94.435)" fill="#009edb"></path><path id="Path_2270" data-name="Path 2270" d="M177.4,47.774l-3.668,3.668-1.957-1.957a.655.655,0,1,0-.926.926l2.42,2.42a.655.655,0,0,0,.926,0l4.131-4.131a.655.655,0,1,0-.926-.926Z" transform="translate(-148.47 -36.151)" fill="#009edb"></path><path id="Path_2271" data-name="Path 2271" d="M298.962,49.1a.655.655,0,0,0-.926,0l-1.467,1.467L295.1,49.1a.655.655,0,1,0-.926.926l1.467,1.467-1.467,1.467a.655.655,0,1,0,.926.926l1.467-1.467,1.467,1.467a.655.655,0,1,0,.926-.926L297.5,51.489l1.467-1.467A.655.655,0,0,0,298.962,49.1Z" transform="translate(-258.33 -37.329)" fill="#009edb"></path><path id="Path_2272" data-name="Path 2272" d="M316.443,183.488a.659.659,0,0,0-.072-.03l-3.229-1.164v-1.164a.64.64,0,0,0-.4-.6v.009h.018l-1.8-.768v-.146a8.661,8.661,0,0,0,5.246-7.479,2.676,2.676,0,0,0,1.6-3.14,2.169,2.169,0,0,0-1.276-1.5l.109-.775c0-.016,0-.032,0-.048a9.1,9.1,0,0,0-11.432-9.425,10.006,10.006,0,0,0-1.8.732l-.3.145a.655.655,0,0,0-.372.591,1.913,1.913,0,0,1-.856,1.6l-2.28,1.516a.654.654,0,0,0-.2.21l-.135.227a.635.635,0,0,0-.035.068,9.126,9.126,0,0,0-.767,4.34c0,.017,0,.033.005.05l.112.77a2.164,2.164,0,0,0-1.281,1.5,2.691,2.691,0,0,0,1.194,2.926,1.853,1.853,0,0,0,.4.19,8.713,8.713,0,0,0,5.292,7.523v.114l-1.8.751.014.007s0,0,0,0a.648.648,0,0,0-.4.605v1.164l-3.229,1.164a.652.652,0,0,0-.071.03,4.947,4.947,0,0,0-2.7,3.99c0,.018,0,.036,0,.055v6.822a.7.7,0,0,0,.655.71h21.837a.7.7,0,0,0,.655-.71v-6.822c0-.018,0-.036,0-.055A4.946,4.946,0,0,0,316.443,183.488Zm-8.873,1.632-2.071-2.032v-3.012a9.034,9.034,0,0,0,2.051.238,8.932,8.932,0,0,0,2.1-.248v3.015Zm-1.025.825-1.176.784-1.961-3.921Zm5.193-3.137-1.961,3.921-1.176-.784Zm-.37-1.447-.41.41v-.579Zm-8.76-19.94a3.22,3.22,0,0,0,1.413-2.263,8.687,8.687,0,0,1,1.528-.627,7.794,7.794,0,0,1,9.786,8.046l-.156,1.092-.092.114a.122.122,0,0,1-.149.042c-.089-.031-.089-.087-.089-.111a3.119,3.119,0,0,0-3.128-3.113h-4.786a.706.706,0,0,1-.692-.707,2.114,2.114,0,0,0-2.08-2.109l-2.06-.024Zm-2.252,1.629,1.391.014a5.31,5.31,0,0,0-1.253,3.046,1.333,1.333,0,0,1-.642,1.025l-.082-.559A7.819,7.819,0,0,1,300.357,163.05Zm-.1,8.617v-.013a.674.674,0,0,0-.58-.648c-.122-.042-.41-.155-.5-.2a1.424,1.424,0,0,1-.38-.359,1.4,1.4,0,0,1-.218-1.129.875.875,0,0,1,.793-.67.651.651,0,0,0,.262-.083,2.576,2.576,0,0,0,2.168-2.341,4.276,4.276,0,0,1,1.82-3.146l.53.005a.807.807,0,0,1,.783.806,2.018,2.018,0,0,0,2,2.018h4.785a1.807,1.807,0,0,1,1.818,1.8,1.442,1.442,0,0,0,2.467,1.008.847.847,0,0,1,.52.6,1.381,1.381,0,0,1-1.1,1.686.655.655,0,0,0-.541.645v.013a7.315,7.315,0,1,1-14.631,0Zm3.931,10.111-.423-.423.423-.175Zm-6.879,5.783a3.63,3.63,0,0,1,1.946-2.884l3.068-1.107,2.2,4.409a.655.655,0,0,0,.949.252l1.44-.96v6.483H297.31Zm20.527,6.193h-9.608V187.27l1.44.96a.655.655,0,0,0,.949-.252l2.2-4.409,3.068,1.107a3.629,3.629,0,0,1,1.946,2.884Z" transform="translate(-260.126 -133.58)" fill="#042745"></path><circle id="Ellipse_114" data-name="Ellipse 114" cx="0.819" cy="0.819" r="0.819" transform="translate(48.13 58.283)" fill="#042745"></circle><path id="Path_2273" data-name="Path 2273" d="M409.073,445.911a.819.819,0,1,0,.819.819A.819.819,0,0,0,409.073,445.911Z" transform="translate(-360.124 -390.988)" fill="#042745"></path><path id="Path_2274" data-name="Path 2274" d="M21.078,199.029a4.323,4.323,0,0,0,2.146-2.619,4.369,4.369,0,0,0,1.152-.079,4.315,4.315,0,0,0,3.446-4.228,4.65,4.65,0,0,0-1.769-3.373,2.651,2.651,0,0,0,.4-2.151,2.171,2.171,0,0,0-1.774-1.621l.156-2.26a8.952,8.952,0,1,0-17.861,0l.156,2.269a2.161,2.161,0,0,0-1.781,1.611,2.642,2.642,0,0,0,.357,2.079,4.316,4.316,0,0,0,2.885,7.754,4.321,4.321,0,0,0,2.694,2.861c.076.027.155.051.234.074l-4.235,1.529a.61.61,0,0,0-.071.03,4.876,4.876,0,0,0-2.667,3.926c0,.018-.012.036-.012.055v3.879a.721.721,0,0,0,.674.71h21.43a.665.665,0,0,0,.606-.71v-3.88c0-.018.024-.036.022-.055a4.853,4.853,0,0,0-2.646-3.926.557.557,0,0,0-.064-.03L20.3,199.339c.075-.022.151-.045.224-.071A4.346,4.346,0,0,0,21.078,199.029ZM10.321,176.868a7.642,7.642,0,0,1,13.21,5.74l-.158,2.29a4.67,4.67,0,0,1-3.274-1.7c-1.419-1.892-.8-4.719-.79-4.746a.655.655,0,0,0-1.145-.563l-2.106,2.566-.007.009a6.05,6.05,0,0,1-4.766,2.3,4.467,4.467,0,0,0-2.916,1.086l-.086-1.242a7.565,7.565,0,0,1,2.038-5.74Zm-3.7,10.023a.845.845,0,0,1,.85-.639.979.979,0,0,1,.175.04.716.716,0,0,0,.122.035h.063s0-.024,0-.024a.691.691,0,0,0,.079-.018c.008,0,.016-.008.024-.01s.042-.011.063-.016l.019-.007a.642.642,0,0,0,.078-.029l.011-.006a.662.662,0,0,0,.061-.033l.022-.014c.018-.012.035-.024.052-.038l.016-.012a.627.627,0,0,0,.052-.049l.006-.007.016-.019q.021-.024.038-.05l.013-.019a.679.679,0,0,0,.042-.076v0a3.144,3.144,0,0,1,2.854-1.823,7.353,7.353,0,0,0,5.789-2.794l.788-.96a6.528,6.528,0,0,0,1.183,3.655,6.237,6.237,0,0,0,4.9,2.293c.009,0,.017-.025.025-.025s.009-.025.014-.025h.057a.677.677,0,0,0,.122.014.877.877,0,0,1,1.025.646,1.234,1.234,0,0,1,.038.306,1.331,1.331,0,0,1-1.341,1.327h-.135a.673.673,0,0,0-.655.655,7.187,7.187,0,0,1-14.368,0,.672.672,0,0,0-.655-.654h-.14a1.325,1.325,0,0,1-1.341-1.321,1.181,1.181,0,0,1,.038-.3Zm15.164,17.994v3.279H10v-3.279c0-.018.008-.036.007-.055A4.859,4.859,0,0,0,8.588,201.8l4.458-1.61,2.191,2.958v2.526a.655.655,0,0,0,1.31,0v-2.526l2.21-2.971,4.5,1.623a4.892,4.892,0,0,0-1.444,3.034C21.813,204.85,21.789,204.868,21.789,204.886Zm-3.931-5.7-1.965,2.64-1.965-2.64v-1.972a8.587,8.587,0,0,0,3.931,0Zm-8.1-3.594a.655.655,0,0,0-.792-.556,3.059,3.059,0,0,1-1.263.011,3.008,3.008,0,0,1-1-5.49,2.628,2.628,0,0,0,.749.26,8.437,8.437,0,0,0,2.529,5.229,8.322,8.322,0,0,0,2.635,1.744v1.417a3.866,3.866,0,0,1-.491-.058A3.012,3.012,0,0,1,9.758,195.6Zm-3.91,9.319A3.615,3.615,0,0,1,7.267,202.4a3.615,3.615,0,0,1,1.419,2.517v3.251H5.848Zm20.09,0v3.251H23.1v-3.251a3.615,3.615,0,0,1,1.419-2.517A3.266,3.266,0,0,1,25.938,204.915Zm-5.847-6.88a3.036,3.036,0,0,1-.408.113,2.587,2.587,0,0,1-.514.059V196.8a8.508,8.508,0,0,0,5.192-6.976,2.634,2.634,0,0,0,.678-.223,3.511,3.511,0,0,1,1.473,2.508,3,3,0,0,1-2.4,2.944,3.052,3.052,0,0,1-1.261-.01.655.655,0,0,0-.792.556A3.008,3.008,0,0,1,20.091,198.035Z" transform="translate(0 -147.992)" fill="#042745"></path></g></g></svg> 