<?xml version="1.0" encoding="UTF-8"?> <svg xmlns="http://www.w3.org/2000/svg" width="120" height="100" viewBox="0 0 120 100"><g id="fe-7" transform="translate(1399 -2003)"><rect id="Rectangle_1598" data-name="Rectangle 1598" width="120" height="100" transform="translate(-1399 2003)" fill="#fff" opacity="0"></rect><g id="identification" transform="translate(-1384.095 2041.18)"><path id="Path_2246" data-name="Path 2246" d="M14.186,37.128V15.861a3.348,3.348,0,0,1,3.349-3.349h30.87A3.342,3.342,0,0,0,45.165,10H13.349A3.348,3.348,0,0,0,10,13.349V34.616a3.348,3.348,0,0,0,3.349,3.349H14.3A3.054,3.054,0,0,1,14.186,37.128Zm0,0" transform="translate(-9.163 -9.163)" fill="#ebeef3"></path><g id="Group_468" data-name="Group 468"><path id="Path_2247" data-name="Path 2247" d="M36,0H4.186A4.188,4.188,0,0,0,0,4.186V25.453a4.188,4.188,0,0,0,4.186,4.186H36a4.188,4.188,0,0,0,4.186-4.186V4.186A4.188,4.188,0,0,0,36,0Zm2.512,25.453A2.519,2.519,0,0,1,36,27.965H4.186a2.519,2.519,0,0,1-2.512-2.512V4.186A2.519,2.519,0,0,1,4.186,1.675H36a2.519,2.519,0,0,1,2.512,2.512Zm0,0" fill="#042745"></path><path id="Path_2248" data-name="Path 2248" d="M289.49,167h-9.754a.837.837,0,1,0,0,1.675h9.754a.837.837,0,1,0,0-1.675Zm0,0" transform="translate(-255.547 -153.018)" fill="#042745"></path><path id="Path_2249" data-name="Path 2249" d="M289.49,231h-9.754a.837.837,0,0,0,0,1.675h9.754a.837.837,0,0,0,0-1.675Zm0,0" transform="translate(-255.547 -211.659)" fill="#042745"></path><path id="Path_2250" data-name="Path 2250" d="M289.49,103h-9.754a.837.837,0,1,0,0,1.675h9.754a.837.837,0,1,0,0-1.675Zm0,0" transform="translate(-255.547 -94.376)" fill="#042745"></path></g><path id="Path_2251" data-name="Path 2251" d="M96.028,78.348A4.325,4.325,0,1,0,91.7,74.02,4.324,4.324,0,0,0,96.028,78.348Zm0-6.975a2.65,2.65,0,1,1-2.654,2.646A2.65,2.65,0,0,1,96.028,71.374Zm0,0" transform="translate(-84.022 -63.864)" fill="#009edb"></path><path id="Path_2252" data-name="Path 2252" d="M70.648,192.1a6.51,6.51,0,0,0-4.705,1.968A6.943,6.943,0,0,0,64,198.982a.84.84,0,0,0,.837.837H76.459a.84.84,0,0,0,.837-.837,6.944,6.944,0,0,0-1.942-4.915A6.5,6.5,0,0,0,70.648,192.1Zm-4.915,6.045a5.122,5.122,0,0,1,1.407-2.905,4.932,4.932,0,0,1,7.016,0,5.146,5.146,0,0,1,1.407,2.905Zm0,0" transform="translate(-58.641 -176.015)" fill="#009edb"></path></g><g id="identification_1_" data-name="identification (1)" transform="translate(-1339.881 2031.258)"><path id="Path_2253" data-name="Path 2253" d="M18.94,47.974H43.775A3.972,3.972,0,0,0,39.8,44H29.868v2.583h-5.96V44H13.974A3.972,3.972,0,0,0,10,47.974V82.146a3.972,3.972,0,0,0,3.974,3.974h.993V51.947A3.972,3.972,0,0,1,18.94,47.974Zm0,0" transform="translate(-9.007 -39.629)" fill="#ebeef3"></path><g id="Group_469" data-name="Group 469"><path id="Path_2254" data-name="Path 2254" d="M30.795,3.377h-8.94V.993A1,1,0,0,0,20.861,0H14.9a1,1,0,0,0-.993.993V3.377H4.967A4.969,4.969,0,0,0,0,8.344V42.517a4.969,4.969,0,0,0,4.967,4.967H30.795a4.969,4.969,0,0,0,4.967-4.967V8.344A4.969,4.969,0,0,0,30.795,3.377Zm-14.9-1.391h3.974V5.96H15.894Zm17.881,40.53a2.989,2.989,0,0,1-2.98,2.98H4.967a2.989,2.989,0,0,1-2.98-2.98V8.344a2.989,2.989,0,0,1,2.98-2.98h8.94V6.954a1,1,0,0,0,.993.993h5.96a1,1,0,0,0,.993-.993V5.364h8.94a2.989,2.989,0,0,1,2.98,2.98Zm0,0" fill="#042745"></path><path id="Path_2255" data-name="Path 2255" d="M84.291,404h-21.5a.993.993,0,0,0,0,1.987H84.3a.993.993,0,0,0-.01-1.987Zm0,0" transform="translate(-55.662 -363.867)" fill="#042745"></path><path id="Path_2256" data-name="Path 2256" d="M112.794,361.987h11.573a.993.993,0,1,0,0-1.987H112.794a.993.993,0,0,0,0,1.987Zm0,0" transform="translate(-100.695 -324.238)" fill="#042745"></path></g><path id="Path_2257" data-name="Path 2257" d="M133.524,128.262a5.131,5.131,0,1,0-5.126-5.136A5.131,5.131,0,0,0,133.524,128.262Zm0-8.275a3.144,3.144,0,1,1-3.139,3.139A3.144,3.144,0,0,1,133.524,119.987Zm0,0" transform="translate(-115.644 -106.278)" fill="#009edb"></path><path id="Path_2258" data-name="Path 2258" d="M108.489,240.4a7.726,7.726,0,0,0-5.583,2.334,8.24,8.24,0,0,0-2.3,5.831,1,1,0,0,0,.993.993h13.788a1,1,0,0,0,.993-.993,8.24,8.24,0,0,0-2.3-5.831A7.726,7.726,0,0,0,108.489,240.4Zm-5.831,7.173a6.074,6.074,0,0,1,1.669-3.447,5.852,5.852,0,0,1,8.324,0,6.108,6.108,0,0,1,1.669,3.447Zm0,0" transform="translate(-90.608 -216.516)" fill="#009edb"></path></g></g></svg> 