<svg xmlns="http://www.w3.org/2000/svg" width="209" height="59" viewBox="0 0 209 59"><g id="agoda" transform="translate(-748 -825)"><rect id="Rectangle_1503" data-name="Rectangle 1503" width="209" height="59" transform="translate(748 825)" fill="#b8bbc1" opacity="0"></rect><g id="agoda-logo" transform="translate(799 833.015)"><path id="Path_940" data-name="Path 940" d="M62.774,14.064V24.75a11.906,11.906,0,0,1-.383,3.163,5.115,5.115,0,0,1-1.246,2.156,5.063,5.063,0,0,1-2.252,1.294,14.179,14.179,0,0,1-3.45.431,10.3,10.3,0,0,1-3.4-.527,6.119,6.119,0,0,1-2.348-1.39,2.556,2.556,0,0,1-.815-1.725,1.388,1.388,0,0,1,.479-1.1,1.6,1.6,0,0,1,1.1-.431,1.747,1.747,0,0,1,1.39.719l.623.719a3.225,3.225,0,0,0,.719.671,2.181,2.181,0,0,0,.91.383,5.223,5.223,0,0,0,1.246.144,4.875,4.875,0,0,0,2.2-.383,2.454,2.454,0,0,0,1.1-1.1,5.54,5.54,0,0,0,.383-1.533c.048-.527.048-1.438.1-2.636a7.128,7.128,0,0,1-1.965,1.821,5.617,5.617,0,0,1-2.636.623,5.864,5.864,0,0,1-3.211-.958,5.954,5.954,0,0,1-2.109-2.636,9.235,9.235,0,0,1-.719-3.929,10.364,10.364,0,0,1,.431-2.971A7.068,7.068,0,0,1,50.219,13.3a6.154,6.154,0,0,1,1.917-1.39,5.946,5.946,0,0,1,2.4-.479A6.274,6.274,0,0,1,57.215,12a6.6,6.6,0,0,1,2.109,1.869v-.479a2.133,2.133,0,0,1,.479-1.486A1.633,1.633,0,0,1,61,11.38a1.355,1.355,0,0,1,1.39.671,3.973,3.973,0,0,1,.335,1.965m-10.638,4.6a4.937,4.937,0,0,0,.958,3.354,3.185,3.185,0,0,0,2.54,1.15,3.587,3.587,0,0,0,1.725-.479,3.365,3.365,0,0,0,1.342-1.486,6,6,0,0,0,.527-2.4,5.361,5.361,0,0,0-1.006-3.5,3.3,3.3,0,0,0-5.128-.048,5.739,5.739,0,0,0-.958,3.4" transform="translate(-25.252 -5.925)" fill="#919191"></path><path id="Path_941" data-name="Path 941" d="M111.29,18.863a8.017,8.017,0,0,1-.527,3.019,6.517,6.517,0,0,1-1.486,2.4,6.681,6.681,0,0,1-2.3,1.533,8.909,8.909,0,0,1-6.038,0,6.529,6.529,0,0,1-3.786-3.929,9.453,9.453,0,0,1,0-6.086,6.668,6.668,0,0,1,3.786-3.882,8.723,8.723,0,0,1,6.038,0,6.87,6.87,0,0,1,2.348,1.533,6.74,6.74,0,0,1,1.486,2.348,9.543,9.543,0,0,1,.479,3.067m-3.69,0a5.361,5.361,0,0,0-1.006-3.5,3.179,3.179,0,0,0-2.636-1.246,3.456,3.456,0,0,0-1.917.575,3.733,3.733,0,0,0-1.246,1.629,7.694,7.694,0,0,0,0,5.08,3.608,3.608,0,0,0,1.246,1.677,3.456,3.456,0,0,0,1.917.575,3.119,3.119,0,0,0,2.636-1.246,5.574,5.574,0,0,0,1.006-3.546" transform="translate(-50.335 -5.932)" fill="#919191"></path><path id="Path_942" data-name="Path 942" d="M156.526,18.3v-.383a9.859,9.859,0,0,1-1.438,1.39,6.176,6.176,0,0,1-1.581.815,5.793,5.793,0,0,1-1.821.288,5.392,5.392,0,0,1-2.444-.575,5.736,5.736,0,0,1-1.965-1.581,6.572,6.572,0,0,1-1.246-2.444,10.693,10.693,0,0,1-.431-3.019,8,8,0,0,1,1.677-5.367,6.289,6.289,0,0,1,7.044-1.39,7.249,7.249,0,0,1,2.109,1.677V2.292a2.741,2.741,0,0,1,.431-1.725,1.451,1.451,0,0,1,1.294-.575,1.519,1.519,0,0,1,1.294.527A2.272,2.272,0,0,1,159.88,2.1V18.3a2.3,2.3,0,0,1-.479,1.581,1.736,1.736,0,0,1-2.492,0,2.307,2.307,0,0,1-.383-1.581m-7.284-5.415a6.641,6.641,0,0,0,.479,2.54A3.46,3.46,0,0,0,151.015,17a3.246,3.246,0,0,0,3.546,0,3.655,3.655,0,0,0,1.294-1.533,6.058,6.058,0,0,0,.479-2.588,6.641,6.641,0,0,0-.479-2.54,3.688,3.688,0,0,0-1.342-1.629,3.011,3.011,0,0,0-1.773-.575,3.155,3.155,0,0,0-1.821.575,3.733,3.733,0,0,0-1.246,1.629,6.043,6.043,0,0,0-.431,2.54" transform="translate(-75.828)" fill="#919191"></path><path id="Path_943" data-name="Path 943" d="M204.663,24.079a9.982,9.982,0,0,1-2.588,1.533,7.944,7.944,0,0,1-2.779.527,5.592,5.592,0,0,1-2.492-.575,3.864,3.864,0,0,1-1.629-1.533,3.975,3.975,0,0,1,.383-4.648,4.8,4.8,0,0,1,2.636-1.438l1.725-.383c.91-.192,1.725-.335,2.4-.527s1.39-.335,2.156-.575A4.276,4.276,0,0,0,203.9,14.3a2.681,2.681,0,0,0-2.156-.671,4.585,4.585,0,0,0-2.109.383,3.443,3.443,0,0,0-1.2,1.15,7.139,7.139,0,0,1-.719,1.006,1.2,1.2,0,0,1-.91.24,1.675,1.675,0,0,1-1.054-.383,1.163,1.163,0,0,1-.431-1.006,2.977,2.977,0,0,1,.671-1.869,4.863,4.863,0,0,1,2.156-1.486,9.275,9.275,0,0,1,3.594-.575,10.1,10.1,0,0,1,3.786.575,3.491,3.491,0,0,1,1.965,1.821,7.777,7.777,0,0,1,.575,3.307v4.169a8.417,8.417,0,0,0,.335,2.156,7.8,7.8,0,0,1,.335,1.438,1.339,1.339,0,0,1-.527,1.054,1.891,1.891,0,0,1-1.2.479,1.433,1.433,0,0,1-1.1-.527,4.219,4.219,0,0,1-1.246-1.486m-.24-5.271a18.767,18.767,0,0,1-2.348.623c-1.006.24-1.725.383-2.156.479a2.7,2.7,0,0,0-1.15.623,1.431,1.431,0,0,0-.527,1.246,1.941,1.941,0,0,0,.671,1.438,2.39,2.39,0,0,0,1.677.575,3.976,3.976,0,0,0,1.965-.479,3.709,3.709,0,0,0,1.342-1.246,5.427,5.427,0,0,0,.479-2.731Z" transform="translate(-101.347 -5.781)" fill="#919191"></path><path id="Path_944" data-name="Path 944" d="M10.063,24.027A10.846,10.846,0,0,1,7.476,25.56a7.944,7.944,0,0,1-2.779.527A5.592,5.592,0,0,1,2.2,25.512,3.864,3.864,0,0,1,.575,23.979,3.976,3.976,0,0,1,.958,19.33a4.8,4.8,0,0,1,2.636-1.438l1.725-.383c.91-.192,1.725-.335,2.4-.527q1.006-.216,2.156-.575A4.276,4.276,0,0,0,9.3,14.251,2.681,2.681,0,0,0,7.14,13.58a4.585,4.585,0,0,0-2.109.383,3.443,3.443,0,0,0-1.2,1.15,7.138,7.138,0,0,1-.719,1.006,1.2,1.2,0,0,1-.91.24,1.675,1.675,0,0,1-1.054-.383A1.163,1.163,0,0,1,.719,14.97,2.977,2.977,0,0,1,1.39,13.1a4.735,4.735,0,0,1,2.2-1.533,9.372,9.372,0,0,1,3.642-.575,10.1,10.1,0,0,1,3.786.575,3.492,3.492,0,0,1,1.965,1.821,7.777,7.777,0,0,1,.575,3.307v4.169A8.416,8.416,0,0,0,13.9,23.02a7.8,7.8,0,0,1,.335,1.438,1.413,1.413,0,0,1-.527,1.054,1.891,1.891,0,0,1-1.2.479,1.433,1.433,0,0,1-1.1-.527,8.543,8.543,0,0,1-1.15-1.533M9.92,18.755a18.768,18.768,0,0,1-2.348.623c-1.006.24-1.725.383-2.156.479a2.7,2.7,0,0,0-1.15.623,1.431,1.431,0,0,0-.527,1.246,1.941,1.941,0,0,0,.671,1.438,2.39,2.39,0,0,0,1.677.575,3.976,3.976,0,0,0,1.965-.479,3.079,3.079,0,0,0,1.342-1.246,5.427,5.427,0,0,0,.479-2.731l.048-.527Z" transform="translate(0 -5.729)" fill="#919191"></path><circle id="Ellipse_64" data-name="Ellipse 64" cx="7.044" cy="7.044" r="7.044" transform="translate(0 29.08)" fill="#ed2224"></circle><circle id="Ellipse_65" data-name="Ellipse 65" cx="7.044" cy="7.044" r="7.044" transform="translate(23.289 29.08)" fill="#f69e1d"></circle><circle id="Ellipse_66" data-name="Ellipse 66" cx="7.044" cy="7.044" r="7.044" transform="translate(46.627 29.08)" fill="#19ac5b"></circle><circle id="Ellipse_67" data-name="Ellipse 67" cx="7.044" cy="7.044" r="7.044" transform="translate(69.916 29.08)" fill="#8150a0"></circle><circle id="Ellipse_68" data-name="Ellipse 68" cx="7.044" cy="7.044" r="7.044" transform="translate(93.253 29.08)" fill="#347fc2"></circle></g></g></svg>