<?xml version="1.0" encoding="UTF-8"?> <svg xmlns="http://www.w3.org/2000/svg" id="carprocess-1" width="81.376" height="81.376" viewBox="0 0 81.376 81.376"><path id="Path_878" data-name="Path 878" d="M394.565,14.836a1.322,1.322,0,0,0-.07-.353c-.015-.043-.026-.084-.045-.126a1.334,1.334,0,0,0-.271-.4L380.616.4a1.361,1.361,0,0,0-.4-.271c-.044-.019-.085-.03-.129-.045a1.3,1.3,0,0,0-.347-.07c-.025,0-.052-.012-.082-.012H344.4a1.356,1.356,0,0,0-1.356,1.356V40.688h2.712V2.712h32.55V14.919a1.356,1.356,0,0,0,1.356,1.356h12.207v54.25H372.881v2.713h20.344a1.356,1.356,0,0,0,1.356-1.356V14.919C394.581,14.89,394.566,14.865,394.565,14.836Zm-13.546-1.273V4.63l8.932,8.932Zm0,0" transform="translate(-313.205)" fill="#009edb"></path><path id="Path_879" data-name="Path 879" d="M422.364,92.877h16.275A1.356,1.356,0,0,0,440,91.52V82.026a1.356,1.356,0,0,0-.928-1.287l-8.138-2.713a1.359,1.359,0,0,0-.857,0l-8.137,2.713a1.357,1.357,0,0,0-.928,1.287V91.52A1.356,1.356,0,0,0,422.364,92.877ZM423.72,86.1h2.713v4.069H423.72Zm8.138,0v4.069h-2.713V86.1Zm2.712,4.069V86.1h2.713v4.069ZM423.72,83l6.781-2.261L437.283,83v.379H423.72Zm0,0" transform="translate(-384.389 -71.176)" fill="#009edb"></path><path id="Path_880" data-name="Path 880" d="M421.008,325.421h23.057v27.126h13.562a1.357,1.357,0,0,0,1.357-1.357V313.215a1.357,1.357,0,0,0-1.357-1.356H422.364a1.356,1.356,0,0,0-1.356,1.356Zm2.712-2.712V320h20.344v2.713ZM446.777,320h9.494v2.713h-9.494Zm9.494,5.425v2.713h-9.494v-2.713ZM446.777,341.7h9.494v2.713h-9.494Zm0-2.713v-2.712h9.494v2.712Zm0-5.425v-2.713h9.494v2.713Zm0,16.275v-2.713h9.494v2.713Zm9.494-35.263v2.712h-9.494v-2.712Zm-12.206,0v2.712H423.72v-2.712Zm0,0" transform="translate(-384.389 -284.734)" fill="#009edb"></path><path id="Path_881" data-name="Path 881" d="M670.492,218.3h14.919v2.713H670.492Zm0,0" transform="translate(-612.173 -199.31)" fill="#009edb"></path><path id="Path_882" data-name="Path 882" d="M670.492,155.93h4.069v2.712h-4.069Zm0,0" transform="translate(-612.173 -142.367)" fill="#009edb"></path><path id="Path_883" data-name="Path 883" d="M6.781,536.952h43.4a6.789,6.789,0,0,0,6.782-6.781V505.758a6.789,6.789,0,0,0-6.782-6.781H6.781A6.788,6.788,0,0,0,0,505.758v24.413A6.789,6.789,0,0,0,6.781,536.952ZM2.712,505.758a4.069,4.069,0,0,1,4.069-4.069h43.4a4.069,4.069,0,0,1,4.069,4.069v24.413a4.069,4.069,0,0,1-4.069,4.069H6.781a4.07,4.07,0,0,1-4.069-4.069Zm0,0" transform="translate(0 -455.576)" fill="#009edb"></path><path id="Path_884" data-name="Path 884" d="M63.731,572.2h8.137a1.357,1.357,0,0,0,1.356-1.357V562.7a1.356,1.356,0,0,0-1.356-1.356H63.731a1.356,1.356,0,0,0-1.356,1.356v8.138A1.356,1.356,0,0,0,63.731,572.2Zm1.356-8.138h5.425v5.425H65.087Zm0,0" transform="translate(-56.95 -512.522)" fill="#009edb"></path><path id="Path_885" data-name="Path 885" d="M77.965,717.27H83.39v2.713H77.965Zm0,0" transform="translate(-71.183 -654.882)" fill="#009edb"></path><path id="Path_886" data-name="Path 886" d="M77.965,779.645H83.39v2.712H77.965Zm0,0" transform="translate(-71.183 -711.832)" fill="#009edb"></path><path id="Path_887" data-name="Path 887" d="M358.637,779.645h5.425v2.712h-5.425Zm0,0" transform="translate(-327.443 -711.832)" fill="#009edb"></path><path id="Path_888" data-name="Path 888" d="M171.52,717.27h5.425v2.713H171.52Zm0,0" transform="translate(-156.601 -654.882)" fill="#009edb"></path><path id="Path_889" data-name="Path 889" d="M265.082,717.27h5.425v2.713h-5.425Zm0,0" transform="translate(-242.025 -654.882)" fill="#009edb"></path><path id="Path_890" data-name="Path 890" d="M358.637,717.27h5.425v2.713h-5.425Zm0,0" transform="translate(-327.443 -654.882)" fill="#009edb"></path><path id="Path_891" data-name="Path 891" d="M452.191,717.27h5.425v2.713h-5.425Zm0,0" transform="translate(-412.859 -654.882)" fill="#009edb"></path><path id="Path_892" data-name="Path 892" d="M545.75,576.934h2.712v2.713H545.75Zm0,0" transform="translate(-498.281 -526.752)" fill="#009edb"></path><path id="Path_893" data-name="Path 893" d="M483.379,576.934h2.712v2.713h-2.712Zm0,0" transform="translate(-441.335 -526.752)" fill="#009edb"></path><path id="Path_894" data-name="Path 894" d="M421.008,576.934h2.712v2.713h-2.712Zm0,0" transform="translate(-384.389 -526.752)" fill="#009edb"></path><path id="Path_895" data-name="Path 895" d="M358.637,576.934h2.712v2.713h-2.712Zm0,0" transform="translate(-327.443 -526.752)" fill="#009edb"></path><path id="Path_896" data-name="Path 896" d="M453.547,779.645A1.356,1.356,0,0,0,452.191,781v5.425a1.356,1.356,0,0,0,1.356,1.356h9.494a1.356,1.356,0,0,0,1.357-1.356V781a1.356,1.356,0,0,0-1.357-1.356Zm8.138,5.425H454.9v-2.713h6.782Zm0,0" transform="translate(-412.859 -711.832)" fill="#009edb"></path></svg> 