<svg xmlns="http://www.w3.org/2000/svg" width="76" height="76" viewBox="0 0 76 76"><g transform="translate(-418.5 -5804)"><g id="Ellipse_60" data-name="Ellipse 60" transform="translate(418.5 5804)" fill="none" stroke="#009edb" stroke-width="2"><circle cx="38" cy="38" r="38" stroke="none"></circle><circle cx="38" cy="38" r="37" fill="none"></circle></g><g id="icon_id-2" transform="translate(435.61 5820.261)"><path id="Path_932" data-name="Path 932" d="M37.621,7.524H25.081V12.54a2.509,2.509,0,0,1-2.508,2.508h1.254a3.763,3.763,0,0,0,3.762-3.762c0-.477-.008-.89-.023-1.254H37.621V37.621H2.508V10.032H12.563c-.015.364-.023.777-.023,1.254A3.763,3.763,0,0,0,16.3,15.048h1.254a2.509,2.509,0,0,1-2.508-2.508V7.524H2.508A2.509,2.509,0,0,0,0,10.032V37.621a2.509,2.509,0,0,0,2.508,2.508H37.621a2.509,2.509,0,0,0,2.508-2.508V10.032A2.509,2.509,0,0,0,37.621,7.524ZM34.067,25.081H18.81a1.254,1.254,0,0,0,0,2.508H34.067a1.254,1.254,0,0,0,0-2.508Zm0,5.016H18.81a1.254,1.254,0,0,0,0,2.508H34.067a1.254,1.254,0,0,0,0-2.508ZM18.81,22.573H34.067a1.254,1.254,0,0,0,0-2.508H18.81a1.254,1.254,0,0,0,0,2.508ZM7,20.586a3.03,3.03,0,1,0,3.03-3.03A3.03,3.03,0,0,0,7,20.586Zm3.095,4.241c-2.739,0-4.956,2.975-4.956,6.646s9.912,3.669,9.912,0S12.829,24.827,10.092,24.827ZM15.048,12.54a2.509,2.509,0,0,0,2.508,2.508h5.016a2.509,2.509,0,0,0,2.508-2.508V2.508A2.509,2.509,0,0,0,22.573,0H17.556a2.509,2.509,0,0,0-2.508,2.508V12.54Zm7.524,0H17.556V2.508h5.016Z" fill="#009edb"></path></g></g></svg>