<svg xmlns="http://www.w3.org/2000/svg" width="209" height="59" viewBox="0 0 209 59"><g id="expedia" transform="translate(-532 -825)"><rect id="Rectangle_1503" data-name="Rectangle 1503" width="209" height="59" transform="translate(532 825)" fill="#b8bbc1" opacity="0"></rect><g id="expedia-2" data-name="expedia" transform="translate(563.935 833.983)"><path id="path4354" d="M392.375,140.1h-4.523c-.029,0-.029,0-.043-.014l-3.894-4.753-3.894,4.753a.053.053,0,0,1-.043.014h-3.622a.074.074,0,0,1-.057-.029.086.086,0,0,1,.014-.057l5.74-7.043L376.386,126a.129.129,0,0,1-.014-.072c.014-.014.029-.029.043-.029h4.523c.014,0,.029.014.043.029l3.421,4.237,3.478-4.237c.014-.014.029-.029.043-.029H391.6a.109.109,0,0,1,.057.029c.014.029,0,.043-.014.072l-5.368,6.456,6.155,7.558a.086.086,0,0,1,.014.057.079.079,0,0,1-.072.029" transform="translate(-322.378 -107.863)" fill="#072f54"></path><path id="path4358" d="M613.487,124.878a3.677,3.677,0,0,0-3.765,3.321h6.814v-.143a3.088,3.088,0,0,0-3.049-3.178m6.556,5.5c-.014.014-.029.029-.043.029h-10.35c.215,2.4,1.775,3.779,4.309,3.779a11.857,11.857,0,0,0,5.554-1.775c.043-.029.086.014.086.057v3.178c0,.029-.014.043-.029.043a16.983,16.983,0,0,1-6.084,1.546,7.716,7.716,0,0,1,0-15.431,6.26,6.26,0,0,1,6.671,6.5c0,.616-.1,2.033-.115,2.076" transform="translate(-519.025 -104.35)" fill="#072f54"></path><path id="path4362" d="M838.3,77.8a2.285,2.285,0,0,1-2.3-2.262,2.3,2.3,0,1,1,4.609,0,2.285,2.285,0,0,1-2.3,2.262m-1.861,17.149c-.043,0-.057-.014-.057-.057v-14.1c0-.029.014-.057.043-.057h3.736c.029,0,.043.029.043.057v14.1a.052.052,0,0,1-.057.057Z" transform="translate(-716.273 -62.707)" fill="#072f54"></path><path id="path4366" d="M500.5,134.469a8.792,8.792,0,0,1-2.162-.3l.014-9.047a8.039,8.039,0,0,1,2.534-.429c2.591,0,4.323,1.9,4.323,4.752,0,3.049-1.847,5.024-4.71,5.024m1.016-12.669a9.77,9.77,0,0,0-3.235.573h-3.722a.062.062,0,0,0-.057.057v23.118a8.764,8.764,0,0,0,3.836-1.5v-7.029a17.339,17.339,0,0,0,2.4.215c5.1,0,8.388-3.049,8.388-7.773a7.309,7.309,0,0,0-7.615-7.658" transform="translate(-423.658 -104.35)" fill="#072f54"></path><path id="path4370" d="M726.993,83a6.78,6.78,0,0,1-3.178.9c-2.3,0-3.693-1.632-3.693-4.366,0-3.149,1.761-5.2,4.495-5.2a5.617,5.617,0,0,1,2.376.587Zm0-18.38v7.372a10.613,10.613,0,0,0-3.02-.458A7.6,7.6,0,0,0,716.2,79.3c0,4.409,2.949,7.615,7.014,7.615a9.1,9.1,0,0,0,4.266-1.145v1.274a8.506,8.506,0,0,0,3.35-1.431V63.1a8.467,8.467,0,0,0-3.836,1.517" transform="translate(-613.622 -54.053)" fill="#072f54"></path><path id="path4374" d="M891.293,133.437a6.092,6.092,0,0,1-2.949.959c-2.476,0-3.951-1.632-3.951-4.366,0-3.106,1.746-5.2,4.337-5.2a5.792,5.792,0,0,1,2.562.816Zm3.836-11.065a.159.159,0,0,0-.157-.157h-3.02a.172.172,0,0,0-.172.157v.515h-.072a9.122,9.122,0,0,0-3.75-.888,7.6,7.6,0,0,0-7.458,7.9c0,4.481,2.935,7.487,7.3,7.487a4.832,4.832,0,0,0,4.065-1.689v1.818a8.663,8.663,0,0,0,3.264-1.431Z" transform="translate(-754.403 -104.521)" fill="#072f54"></path><path id="path4378" d="M280.679,85.168h9.376a8.619,8.619,0,0,1-1.3,3.521H279a2.324,2.324,0,0,1-2.29-2.09c0-.014-.014-.029-.014-.057V68.047c0-.014.014-.029.014-.043A2.325,2.325,0,0,1,279,65.9h11.037a8.565,8.565,0,0,1-1.317,3.55h-8.045v5.039h7.973a.062.062,0,0,1,.057.057v3.493a.062.062,0,0,1-.057.057h-7.973Z" transform="translate(-237.035 -56.452)" fill="#072f54"></path><path id="path4382" d="M211.961,206.807a1.505,1.505,0,0,1-1.5-1.618,1.5,1.5,0,1,1,1.5,1.618m0-3.407a1.79,1.79,0,1,0,1.746,1.789,1.739,1.739,0,0,0-1.746-1.789" transform="translate(-180.055 -174.269)" fill="#072f54"></path><path id="path4386" d="M217.629,209.33v-.658h.444c.229,0,.487.029.487.3,0,.329-.243.344-.515.344C218.03,209.33,217.629,209.33,217.629,209.33Zm1.245-.315c0-.429-.258-.616-.773-.616h-.8v2.119h.344v-.9h.329l.544.9h.4l-.587-.93a.526.526,0,0,0,.544-.573" transform="translate(-186.138 -178.554)" fill="#072f54"></path><path id="path4390" d="M993.761,121.893a1.505,1.505,0,0,1-1.5-1.618,1.5,1.5,0,1,1,1.5,1.618m0-3.393a1.79,1.79,0,1,0,1.746,1.789,1.739,1.739,0,0,0-1.746-1.789" transform="translate(-849.942 -101.522)" fill="#072f54"></path><path id="path4394" d="M999.415,124.416v-.644h.444c.229,0,.487.029.487.3,0,.329-.243.344-.515.344Zm1.26-.3c0-.429-.258-.616-.773-.616h-.8v2.119h.344v-.9h.329l.544.9h.4l-.587-.93a.534.534,0,0,0,.544-.573" transform="translate(-856.026 -105.807)" fill="#072f54"></path><path id="path4398" d="M19.81,12.984l-.673-1.918L13.354,3.35l1.031-.258,9.949,8.6,5.855-1.675a8.936,8.936,0,0,1,2.061-.215A16.876,16.876,0,0,0,.256,19.44L14.27,14.573Z" transform="translate(0 0)" fill="#072f54"></path><path id="path4402" d="M34.88,79a9.477,9.477,0,0,1-2.018,1.016l-5.869,1.675L23.085,94.26l-1.016.329L22.9,85l-.458-1.99-5.5,1.575L2.4,87.975A16.887,16.887,0,1,0,34.88,79" transform="translate(-2.001 -67.677)" fill="#072f54"></path><path id="path4406" d="M21.484,33.639l.458,1.99-.83,9.591,1.016-.329,3.908-12.568L31.9,30.647a8.854,8.854,0,0,0,2.018-1.016c-.186-.515-.386-1.016-.616-1.517a8.147,8.147,0,0,0-2.061.215L25.392,30l-9.949-8.6-1.031.258,5.769,7.716.673,1.918-5.54,1.589L1.3,37.747c.043.286.1.587.157.873L15.987,35.2l5.5-1.56Z" transform="translate(-1.058 -18.322)" fill="#fbc108"></path></g></g></svg>