<svg xmlns="http://www.w3.org/2000/svg" width="120" height="100" viewBox="0 0 120 100"><g id="fe-10" transform="translate(1564 -2168)"><rect id="Rectangle_1598" data-name="Rectangle 1598" width="120" height="100" transform="translate(-1564 2168)" fill="#fff" opacity="0"></rect><g id="inbox" transform="translate(-1531.673 2181.921)"><path id="Path_2221" data-name="Path 2221" d="M69.673,241.634H18.055a3.08,3.08,0,0,1-3.077-3.077V220.59H12v20.944a3.08,3.08,0,0,0,3.077,3.077H66.695a3.079,3.079,0,0,0,3.073-2.983C69.735,241.63,69.7,241.634,69.673,241.634Zm0,0" transform="translate(-10.213 -187.319)" fill="#ebeef3"></path><path id="Path_2222" data-name="Path 2222" d="M61.346,163.658V141.821a.889.889,0,0,0-.136-.473l-5.854-9.377-1.514.945,5,8.011H44.074a4.373,4.373,0,0,0-4.367,4.367,2.584,2.584,0,0,1-2.581,2.581h-12.9a2.584,2.584,0,0,1-2.581-2.581,4.372,4.372,0,0,0-4.367-4.367H2.5l5.006-8.02a5.079,5.079,0,0,1,2.618-2.135l-.6-1.683a6.866,6.866,0,0,0-3.537,2.88L.136,141.347h0a.891.891,0,0,0-.136.473v21.838a4.869,4.869,0,0,0,4.864,4.864H56.481A4.869,4.869,0,0,0,61.346,163.658Zm-59.559,0V142.714H17.272a2.583,2.583,0,0,1,2.581,2.581,4.372,4.372,0,0,0,4.368,4.367h12.9a4.372,4.372,0,0,0,4.368-4.367,2.583,2.583,0,0,1,2.581-2.581H59.559v20.944a3.08,3.08,0,0,1-3.077,3.077H4.864A3.08,3.08,0,0,1,1.787,163.658Zm0,0" transform="translate(0 -109.443)" fill="#042745"></path><path id="Path_2223" data-name="Path 2223" d="M154.079,288.59H134.225a.893.893,0,0,0-.893.893v3.97a.893.893,0,0,0,.893.893h19.853a.893.893,0,0,0,.893-.893v-3.97A.893.893,0,0,0,154.079,288.59Zm-.893,3.97H135.119v-2.183h18.067Zm0,0" transform="translate(-113.479 -245.194)" fill="#042745"></path><g id="Group_466" data-name="Group 466" transform="translate(8.934 0.5)"><path id="Path_2224" data-name="Path 2224" d="M101.785,8.311H87.975a2.874,2.874,0,0,1-2.558-1.552L83.469,3.014A4.655,4.655,0,0,0,79.327.5h-8.7a4.675,4.675,0,0,0-4.67,4.67V6.456H64.67A4.675,4.675,0,0,0,60,11.126V31.633h1.787V11.126A2.887,2.887,0,0,1,64.67,8.243h8.7a2.874,2.874,0,0,1,2.558,1.552l1.948,3.744a4.654,4.654,0,0,0,4.143,2.514h13.81a2.887,2.887,0,0,1,2.883,2.883V31.484H100.5V18.936a4.675,4.675,0,0,0-4.67-4.67H82.019a2.874,2.874,0,0,1-2.558-1.552L77.513,8.97a4.655,4.655,0,0,0-4.142-2.514H67.743V5.17a2.887,2.887,0,0,1,2.884-2.883h8.7a2.874,2.874,0,0,1,2.558,1.552l1.948,3.744A4.654,4.654,0,0,0,87.976,10.1h13.81a2.886,2.886,0,0,1,2.883,2.883v18.59h1.787V12.981A4.675,4.675,0,0,0,101.785,8.311Zm0,0" transform="translate(-60 -0.5)" fill="#009edb"></path><path id="Path_2225" data-name="Path 2225" d="M242.8,145.609h-1.9a.893.893,0,0,0,0,1.787h1.9a.893.893,0,1,0,0-1.787Zm0,0" transform="translate(-213.199 -124.003)" fill="#009edb"></path><path id="Path_2226" data-name="Path 2226" d="M128.108,147.4h12.413a.893.893,0,1,0,0-1.787H128.108a.893.893,0,1,0,0,1.787Zm0,0" transform="translate(-117.207 -124.003)" fill="#009edb"></path><path id="Path_2227" data-name="Path 2227" d="M179.845,175.609H166.929a.893.893,0,0,0,0,1.787h12.917a.893.893,0,1,0,0-1.787Zm0,0" transform="translate(-150.247 -149.536)" fill="#009edb"></path><path id="Path_2228" data-name="Path 2228" d="M128.108,177.4h1.99a.893.893,0,1,0,0-1.787h-1.99a.893.893,0,1,0,0,1.787Zm0,0" transform="translate(-117.207 -149.536)" fill="#009edb"></path></g></g></g></svg>