<svg xmlns="http://www.w3.org/2000/svg" width="120" height="100" viewBox="0 0 120 100"><g id="fe-12" transform="translate(1234 -2168)"><rect id="Rectangle_1598" data-name="Rectangle 1598" width="120" height="100" transform="translate(-1234 2168)" fill="#fff" opacity="0"></rect><g id="entrepreneur" transform="translate(-1212.035 2155.299)"><path id="Path_2207" data-name="Path 2207" d="M288.973,69.778l.119-3.042a.8.8,0,0,0-.313-.668l-.023-.018-.159-.123a9.532,9.532,0,0,1,0-15.634,15.39,15.39,0,0,1,7.844-3.127,17.756,17.756,0,0,0-2.009-.114,15.839,15.839,0,0,0-9.854,3.242,9.531,9.531,0,0,0,0,15.633l.159.123.023.018a.8.8,0,0,1,.313.669l-.187,4.771Z" transform="translate(-233.4 -10.392)" fill="#ebeef3"></path><path id="Path_2208" data-name="Path 2208" d="M161.5,311.937l-.5.33v-.534Z" transform="translate(-129.907 -239.618)" fill="#ebeef3"></path><path id="Path_2209" data-name="Path 2209" d="M90.671,312.177l-.515-.343.515-.212Z" transform="translate(-68.553 -239.522)" fill="#ebeef3"></path><path id="Path_2210" data-name="Path 2210" d="M59.316,340.965a6.6,6.6,0,0,0-2.222-4.39l.747-.27-.571-.761-2.856,1.03a6.6,6.6,0,0,1,2.222,4.39c0,.022,0,.044,0,.067v7.3h2.679v-7.3C59.316,341.009,59.317,340.987,59.316,340.965Z" transform="translate(-37.599 -260.239)" fill="#ebeef3"></path><path id="Path_2211" data-name="Path 2211" d="M53.654,70.729a10.482,10.482,0,0,1,6.414-3.284,10.873,10.873,0,0,0-1.34-.086A10.606,10.606,0,0,0,48.147,78.7l.246,3.56a.088.088,0,0,0,.032.062c.179.071.364.141.536.2l.3-3.807a1.246,1.246,0,0,1,1.375-1.14l.165.018a10.484,10.484,0,0,1,2.848-6.863Z" transform="translate(-32.149 -27.979)" fill="#ebeef3"></path><path id="Path_2212" data-name="Path 2212" d="M40.862,190.984v-.016a.817.817,0,0,0-.68-.791,1.944,1.944,0,0,1-1.612-1.912,2.009,2.009,0,0,1,.038-.4,12.129,12.129,0,0,1-1.427-.5c-.023-.009-.045-.02-.068-.031a1.678,1.678,0,0,1-.483-.377,1.216,1.216,0,0,0-.688.843,1.959,1.959,0,0,0,1.56,2.378.817.817,0,0,1,.68.791v.016a9.966,9.966,0,0,0,11.32,9.889A9.994,9.994,0,0,1,40.862,190.984Z" transform="translate(-21.556 -131.555)" fill="#ebeef3"></path><path id="Path_2213" data-name="Path 2213" d="M65.492,160.415c1.759.705,2.007.635,2.325.438a.828.828,0,0,0,.388-.635l.333-4.166a11.223,11.223,0,0,1-1.261-.062l-1.4-.15-.35,4.379a.819.819,0,0,1-.04.2Z" transform="translate(-47.187 -104.606)" fill="#ebeef3"></path><path id="Path_2214" data-name="Path 2214" d="M26.769,349.621a5.114,5.114,0,0,0-1.359-1.2,5.383,5.383,0,0,0-2.41,3.8v7.264h2.679v-7.264a5.955,5.955,0,0,1,1.09-2.6Z" transform="translate(-10.393 -271.394)" fill="#ebeef3"></path><path id="Path_2215" data-name="Path 2215" d="M108.679,304.05v-2.711A12.326,12.326,0,0,1,106,301v3.05l2.875,1.882,1.34-.877Z" transform="translate(-82.274 -230.322)" fill="#ebeef3"></path><path id="Path_2216" data-name="Path 2216" d="M365.466,107.628a2.944,2.944,0,1,0,2.944,2.944A2.944,2.944,0,0,0,365.466,107.628Zm0,4.281a1.337,1.337,0,1,1,1.337-1.337A1.337,1.337,0,0,1,365.466,111.909Z" transform="translate(-304.434 -62.853)" fill="#009edb"></path><path id="Path_2217" data-name="Path 2217" d="M309.553,107.628a2.944,2.944,0,1,0,2.944,2.944A2.944,2.944,0,0,0,309.553,107.628Zm0,4.281a1.337,1.337,0,1,1,1.337-1.337A1.337,1.337,0,0,1,309.553,111.909Z" transform="translate(-256.011 -62.853)" fill="#009edb"></path><path id="Path_2218" data-name="Path 2218" d="M421.379,107.628a2.944,2.944,0,1,0,2.944,2.944A2.944,2.944,0,0,0,421.379,107.628Zm0,4.281a1.337,1.337,0,1,1,1.337-1.337,1.337,1.337,0,0,1-1.337,1.337Z" transform="translate(-352.858 -62.853)" fill="#009edb"></path><path id="Path_2219" data-name="Path 2219" d="M294.892,38.643a18.2,18.2,0,0,0-21.707,0,11.123,11.123,0,0,0-.127,18.05l-.22,5.628a.8.8,0,0,0,1.116.772l6.993-2.967a19.2,19.2,0,0,0,3.078.238h.013a17.445,17.445,0,0,0,10.853-3.579,11.123,11.123,0,0,0,0-18.141Zm-1,16.882a15.834,15.834,0,0,1-9.854,3.231h-.013a17.589,17.589,0,0,1-3.036-.255.8.8,0,0,0-.452.057l-6.044,2.557.187-4.771a.8.8,0,0,0-.313-.668l-.023-.018-.159-.123a9.532,9.532,0,0,1,0-15.634,16.6,16.6,0,0,1,19.707,0,9.521,9.521,0,0,1,0,15.623Z" transform="translate(-223.007)" fill="#009edb"></path><path id="Path_2220" data-name="Path 2220" d="M26.054,111.516a.805.805,0,0,0,1.286,0l3.171-4.227H41.34a.752.752,0,0,0,.737-.806v-8.1c0-.022.033-.044.031-.067A6.577,6.577,0,0,0,38.523,93a.722.722,0,0,0-.08-.037l-4.4-1.59V89.74a.8.8,0,0,0-.422-.709A.753.753,0,0,0,33.546,89h.025l-2.478-1.031V87.71a11.564,11.564,0,0,0,7.082-10.1,3.53,3.53,0,0,0,2.159-4.162,2.846,2.846,0,0,0-1.777-2l.208-3.032a12.214,12.214,0,1,0-24.37,0l.209,3.029a2.841,2.841,0,0,0-1.782,2.006,3.561,3.561,0,0,0-.1.846,3.517,3.517,0,0,0,2.256,3.318,11.616,11.616,0,0,0,7.142,10.123v.213l-2.483,1.035.019.011a.65.65,0,0,0-.067.035.794.794,0,0,0-.415.709v1.628l-4.411,1.59a.835.835,0,0,0-.088.037,6.632,6.632,0,0,0-3.635,5.319c0,.022-.037.044-.037.067v8.1a.866.866,0,0,0,.871.806H22.883Zm-7.017-5.835v-7.3c0-.022,0-.044,0-.067a6.6,6.6,0,0,0-2.222-4.39l2.856-1.03,2.974,3.964a.8.8,0,0,0,1.089.186l.691-.459-1.69,9.1Zm1.741-14.439,4.38,2.922-1.68,1.122-2.7-3.6Zm2.947-2.975a12.281,12.281,0,0,0,2.848.341,12.136,12.136,0,0,0,2.912-.358V91.31L26.6,93.2l-2.875-1.882Zm9.814,4.628,2.876,1.038a6.612,6.612,0,0,0-2.226,4.383c0,.022-.015.044-.015.067v7.3H30.66L29,96.727l.479.319a.8.8,0,0,0,1.089-.188Zm-1.107-1.21-2.7,3.6-1.684-1.122,4.382-2.923ZM26.7,109.692l-2.463-3.285L26.29,95.34l.315-.21.528.352,2.028,10.926ZM40.47,98.417v7.264H35.781V98.417a4.939,4.939,0,0,1,2.345-3.788A4.94,4.94,0,0,1,40.47,98.417Zm-8.881-8.508-.5.33V89.7ZM18.825,60.339a10.606,10.606,0,0,1,18.334,7.967l-.25,3.627a.31.31,0,0,1-.01.06l-1.35-5.563a.8.8,0,0,0-.042-.125,5.314,5.314,0,0,0-4.632-3.212l-1.053-.046a.8.8,0,0,0-.69.337,9.631,9.631,0,0,1-8.87,3.991l-1.771-.19a1.246,1.246,0,0,0-1.375,1.14l-.3,3.807c-.172-.062-.356-.132-.536-.2a.087.087,0,0,1-.032-.062L16,68.306A10.5,10.5,0,0,1,18.825,60.339Zm-2.2,16.679V77a.817.817,0,0,0-.68-.791,1.959,1.959,0,0,1-1.56-2.376,1.216,1.216,0,0,1,.688-.843,1.679,1.679,0,0,0,.483.377c.022.011.044.022.068.031,1.759.705,2.007.635,2.325.438a.828.828,0,0,0,.388-.635l.35-4.379,1.4.151a11.245,11.245,0,0,0,10.088-4.3l.627.028A3.7,3.7,0,0,1,34,66.876l1.669,6.881a.8.8,0,0,0,1.329.4l.908-.848a1.917,1.917,0,0,0,.245-.278,1.218,1.218,0,0,1,.611.8,1.956,1.956,0,0,1,.056.464,1.926,1.926,0,0,1-1.587,1.912.792.792,0,0,0-.651.792v.017a9.98,9.98,0,1,1-19.959,0Zm5.492,13.226L21.6,89.9l.515-.211Zm-9.511,8.171a5.383,5.383,0,0,1,2.41-3.8,5,5,0,0,1,2.412,3.8v7.264H12.607Z" transform="translate(0 -17.589)" fill="#042745"></path></g></g></svg>