<svg xmlns="http://www.w3.org/2000/svg" width="120" height="100" viewBox="0 0 120 100"><g id="fe-2" transform="translate(1564 -1838)"><rect id="Rectangle_1598" data-name="Rectangle 1598" width="120" height="100" transform="translate(-1564 1838)" fill="#fff" opacity="0"></rect><g id="save" transform="translate(-1577.079 1842.021)"><path id="Path_2138" data-name="Path 2138" d="M62.779,353.622h4.855l-.5-1.622H61.292l2.256,18.388h1.288Z" transform="translate(-11.053 -294.035)" fill="#ebeef3"></path><path id="Path_2139" data-name="Path 2139" d="M265.007,352.916l-4.269-.207a27.011,27.011,0,0,0-3.55.072q-.538.051-1.073.124a.809.809,0,0,1-.115.007l-.107.013a.809.809,0,1,0,.223,1.6,25.023,25.023,0,0,1,4.55-.211l5.215.236h.037a.811.811,0,0,0,.811-.811c0-.086,0-.172-.007-.257l.644-.34,7.555-4.076a2.862,2.862,0,0,1,2.028-.267l1.32-.907a2.868,2.868,0,0,0-3.348-.448l-7.555,4.076-.644.34c0,.085.007.171.007.257a.811.811,0,0,1-.811.811h-.037l-.88-.04C265,352.9,265.005,352.907,265.007,352.916Z" transform="translate(-178.738 -289.798)" fill="#ebeef3"></path><path id="Path_2140" data-name="Path 2140" d="M126.764,346.253l1.5-1.333a9.327,9.327,0,0,1,9.68-.928l.63.332a8.152,8.152,0,0,0,3.518.834H148.2a3.737,3.737,0,0,1,2.744,1.189l.892.043a3.717,3.717,0,0,0-3.636-2.854h-6.114a8.154,8.154,0,0,1-3.518-.833l-.63-.332a9.327,9.327,0,0,0-9.68.928l-1.5,1.332a6.781,6.781,0,0,1-2.431,1.389l.445,1.46a6.779,6.779,0,0,0,1.986-1.227Z" transform="translate(-65.57 -284.894)" fill="#ebeef3"></path><path id="Path_2141" data-name="Path 2141" d="M108.308,113.154a.806.806,0,0,1,.556.125.808.808,0,0,0-.556-1.477,25.023,25.023,0,0,1-4.55.211l-5.215-.236a.811.811,0,0,0-.848.811c0,.086,0,.172.006.257l-.644.34L89.5,117.261a2.862,2.862,0,0,1-2.3.186l-1.044.717a2.868,2.868,0,0,0,3.348.448l7.555-4.076.644-.34c0-.085-.006-.171-.006-.257a.811.811,0,0,1,.848-.811l5.215.236A25.022,25.022,0,0,0,108.308,113.154Z" transform="translate(-32.554 -86.292)" fill="#ebeef3"></path><path id="Path_2142" data-name="Path 2142" d="M209.308,128.862l-1.5,1.333a9.326,9.326,0,0,1-9.68.928l-.63-.332a8.153,8.153,0,0,0-3.518-.834h-6.114a3.735,3.735,0,0,1-2.983-1.471l-.653-.032a3.717,3.717,0,0,0,3.636,2.854h6.114a8.153,8.153,0,0,1,3.518.833l.63.332a9.326,9.326,0,0,0,9.68-.928l1.5-1.333a6.781,6.781,0,0,1,2.431-1.389l-.372-1.219a6.778,6.778,0,0,0-2.059,1.257Z" transform="translate(-117.371 -99.98)" fill="#ebeef3"></path><path id="Path_2143" data-name="Path 2143" d="M408.414,24h-1.186l2.09,17.036H404.41l.415,1.352h5.845Z" transform="translate(-307.778 -10.383)" fill="#ebeef3"></path><path id="Path_2144" data-name="Path 2144" d="M195.106,222.655a7.929,7.929,0,0,1-6.243-12.827A7.931,7.931,0,1,0,200,220.962,7.894,7.894,0,0,1,195.106,222.655Z" transform="translate(-118.741 -171.085)" fill="#ebeef3"></path><path id="Path_2145" data-name="Path 2145" d="M95.411,327.827l-.181.1a3.854,3.854,0,0,0-4.523-1.064l-.018.009-.565.3a4.98,4.98,0,0,0-5.639-.435l-3.415,1.885H76.518a6.523,6.523,0,0,1-2.811-.671l-.63-.319a10.941,10.941,0,0,0-11.388,1.105c-.018.014-.035.024-.052.039l-1.522,1.354a5.156,5.156,0,0,1-1.825,1.048l-.829-2.688a.785.785,0,0,0-.775-.544H49.323a.765.765,0,0,0-.805.863l2.454,20.09a.783.783,0,0,0,.805.68H62.82a.776.776,0,0,0,.776-1.01l-1.423-4.662,4.434-2.8a2.592,2.592,0,0,1,1.889-.241l.051.012,9.191,1.693a12.022,12.022,0,0,0,7.428-1.049.8.8,0,0,0,.1-.058l15.9-10.915a.811.811,0,0,0,.236-1.087,4.489,4.489,0,0,0-5.986-1.638Zm-3.962.477a2.164,2.164,0,0,1,2.285.428l-5.87,3.168-.227.12a5.35,5.35,0,0,0-.7-1.281Zm-6.179-.171.019-.011a3.358,3.358,0,0,1,3.219-.077l-2.793,1.5a5.335,5.335,0,0,0-1.624-.776ZM52.5,347.959l-2.256-18.388h5.845l5.64,18.388Zm31.9-7.864a10.388,10.388,0,0,1-6.365.882l-9.165-1.688a4.209,4.209,0,0,0-3.067.417l-.037.022-4.077,2.578-2.919-9.575a6.781,6.781,0,0,0,2.431-1.39l1.5-1.333a9.327,9.327,0,0,1,9.68-.928l.63.332a8.153,8.153,0,0,0,3.518.834h6.114a3.717,3.717,0,0,1,3.636,2.854L82,332.895a26.676,26.676,0,0,0-4.846.216.809.809,0,1,0,.223,1.6,25.023,25.023,0,0,1,4.55-.211l5.215.236h.037a.811.811,0,0,0,.811-.811c0-.086,0-.172-.007-.257l.644-.34,7.555-4.076a2.868,2.868,0,0,1,3.348.448Z" transform="translate(0 -271.606)" fill="#042745"></path><path id="Path_2146" data-name="Path 2146" d="M92.334,453.729a2.284,2.284,0,1,0,2.284-2.284A2.284,2.284,0,0,0,92.334,453.729Zm2.284-.661a.661.661,0,1,1-.661.661A.661.661,0,0,1,94.618,453.068Z" transform="translate(-37.898 -380.034)" fill="#042745"></path><path id="Path_2147" data-name="Path 2147" d="M122.025,12.682a.789.789,0,0,0-.805-.688H110.177A.776.776,0,0,0,109.4,13l1.423,4.662-4.434,2.8a2.6,2.6,0,0,1-1.889.241l-.051-.012L95.259,19a12.019,12.019,0,0,0-7.427,1.049.8.8,0,0,0-.1.058l-15.9,10.915a.811.811,0,0,0-.236,1.087,4.488,4.488,0,0,0,5.986,1.637l.182-.1A4.084,4.084,0,0,0,80.8,35.062a3.291,3.291,0,0,0,1.493-.347l.018-.009.564-.3a4.909,4.909,0,0,0,5.64.434l3.416-1.884h4.552a6.523,6.523,0,0,1,2.811.671l.63.319a10.926,10.926,0,0,0,11.388-1.1c.018-.014.035-.026.052-.041l1.522-1.354a5.156,5.156,0,0,1,1.825-1.048l.829,2.687a.784.784,0,0,0,.775.544h7.362a.784.784,0,0,0,.607-.243.751.751,0,0,0,.2-.608ZM81.548,33.272a2.164,2.164,0,0,1-2.285-.428l5.87-3.167.227-.12a5.351,5.351,0,0,0,.7,1.281Zm6.179.171-.019.011a3.357,3.357,0,0,1-3.219.077l2.793-1.5A5.335,5.335,0,0,0,88.9,32.8ZM111.8,30.234l-1.5,1.333a9.326,9.326,0,0,1-9.68.928l-.63-.332a8.153,8.153,0,0,0-3.518-.834H90.364a3.717,3.717,0,0,1-3.636-2.854L91,28.682a26.672,26.672,0,0,0,4.846-.217.809.809,0,1,0-.223-1.6,25.022,25.022,0,0,1-4.55.211l-5.215-.236a.811.811,0,0,0-.848.811c0,.086,0,.172.006.257l-.644.34-7.555,4.076a2.868,2.868,0,0,1-3.348-.448L88.6,21.481a10.39,10.39,0,0,1,6.365-.882l9.165,1.688a4.212,4.212,0,0,0,3.067-.417l.037-.022,4.077-2.578,2.919,9.575A6.781,6.781,0,0,0,111.8,30.234Zm5.109,1.771-5.64-18.388H120.5l2.256,18.388Z" transform="translate(-19.866 0)" fill="#042745"></path><path id="Path_2148" data-name="Path 2148" d="M388.169,26.775a2.284,2.284,0,1,0,2.284,2.284A2.284,2.284,0,0,0,388.169,26.775Zm0,2.945a.661.661,0,1,1,.661-.661A.661.661,0,0,1,388.169,29.72Z" transform="translate(-291.759 -12.783)" fill="#042745"></path><path id="Path_2149" data-name="Path 2149" d="M183.38,185.306a9.558,9.558,0,1,0,9.558,9.558A9.558,9.558,0,0,0,183.38,185.306Zm0,17.494a7.936,7.936,0,1,1,7.936-7.936,7.936,7.936,0,0,1-7.936,7.936Z" transform="translate(-108.368 -149.879)" fill="#009edb"></path><path id="Path_2150" data-name="Path 2150" d="M223.548,205.453a1.69,1.69,0,0,1,1.688,1.689.811.811,0,0,0,.811.811.84.84,0,0,0,.844-.811,3.381,3.381,0,0,0-2.466-3.21v-.663a.811.811,0,0,0-1.622,0v.663a3.306,3.306,0,0,0,.762,6.52,1.688,1.688,0,1,1,.006,3.375h-.04a1.69,1.69,0,0,1-1.67-1.687.811.811,0,0,0-.811-.811.784.784,0,0,0-.779.811,3.288,3.288,0,0,0,2.531,3.209v.777a.811.811,0,0,0,1.623,0v-.777a3.382,3.382,0,0,0,2.466-3.21,3.328,3.328,0,0,0-3.327-3.31,1.688,1.688,0,1,1-.016-3.376Z" transform="translate(-148.535 -164.712)" fill="#009edb"></path></g></g></svg>