<svg xmlns="http://www.w3.org/2000/svg" width="120" height="100" viewBox="0 0 120 100"><g id="fe-3" transform="translate(1399 -1838)"><rect id="Rectangle_1598" data-name="Rectangle 1598" width="120" height="100" transform="translate(-1399 1838)" fill="#fff" opacity="0"></rect><g id="credit-card" transform="translate(-1374.457 1861.4)"><path id="Path_2173" data-name="Path 2173" d="M52.5,19.6a3.4,3.4,0,0,1,3.4-3.4h52.869v-.8a3.4,3.4,0,0,0-3.4-3.4H51.7a3.4,3.4,0,0,0-3.4,3.4V36.043a17.819,17.819,0,0,1,4.2-2.476Zm0,0" transform="translate(-41.535 -10.319)" fill="#ebeef3"></path><g id="Group_464" data-name="Group 464" transform="translate(5.085)"><path id="Path_2174" data-name="Path 2174" d="M95.053,0H41.379A5.084,5.084,0,0,0,36.3,5.078V27.572h1.681V5.078a3.4,3.4,0,0,1,3.4-3.4H95.053a3.4,3.4,0,0,1,3.4,3.4V35.855a3.4,3.4,0,0,1-3.4,3.4h-29.1v1.681h29.1a5.084,5.084,0,0,0,5.078-5.079V5.078A5.084,5.084,0,0,0,95.053,0Zm0,0" transform="translate(-36.301)" fill="#042745"></path><path id="Path_2175" data-name="Path 2175" d="M310.584,179.321a6.292,6.292,0,1,0,0-11.341,6.292,6.292,0,1,0,0,11.341Zm2.726-10.281a4.611,4.611,0,1,1-1.049,9.1,6.278,6.278,0,0,0,0-8.978,4.6,4.6,0,0,1,1.049-.123Zm-4.611,4.611a4.608,4.608,0,0,1,1.885-3.716,4.605,4.605,0,0,1,0,7.432,4.607,4.607,0,0,1-1.885-3.717Zm-5.452,0a4.608,4.608,0,0,1,5.66-4.489,6.279,6.279,0,0,0,0,8.978,4.608,4.608,0,0,1-5.66-4.489Zm0,0" transform="translate(-264.41 -143.916)" fill="#042745"></path><path id="Path_2176" data-name="Path 2176" d="M99.045,54.863H76.622a.84.84,0,1,0,0,1.681H99.045a.84.84,0,1,0,0-1.681Zm0,0" transform="translate(-70.251 -47.179)" fill="#042745"></path><path id="Path_2177" data-name="Path 2177" d="M260.886,56.544a.84.84,0,1,0,0-1.681h-2.428a.84.84,0,1,0,0,1.681Zm0,0" transform="translate(-226.618 -47.179)" fill="#042745"></path><path id="Path_2178" data-name="Path 2178" d="M76.622,86.8h1.047a.84.84,0,0,0,0-1.681H76.622a.84.84,0,1,0,0,1.681Zm0,0" transform="translate(-70.251 -73.195)" fill="#042745"></path><path id="Path_2179" data-name="Path 2179" d="M106.5,85.117a.84.84,0,0,0,0,1.681h14a.84.84,0,1,0,0-1.681Zm0,0" transform="translate(-95.942 -73.195)" fill="#042745"></path><path id="Path_2180" data-name="Path 2180" d="M227.367,85.958a.84.84,0,0,0,.84.84h6.665a.84.84,0,0,0,0-1.681h-6.665A.84.84,0,0,0,227.367,85.958Zm0,0" transform="translate(-200.605 -73.195)" fill="#042745"></path></g><path id="Path_2181" data-name="Path 2181" d="M17.79,156.25a17.79,17.79,0,1,0,17.79,17.79A17.79,17.79,0,0,0,17.79,156.25Zm0,33.9A16.109,16.109,0,1,1,33.9,174.04,16.109,16.109,0,0,1,17.79,190.149Zm0,0" transform="translate(0 -134.364)" fill="#009edb"></path><path id="Path_2182" data-name="Path 2182" d="M85.855,234.261H79.692V228.1a.84.84,0,0,0-1.681,0v6.163H71.848a.84.84,0,1,0,0,1.681h6.163v6.163a.84.84,0,0,0,1.681,0v-6.163h6.163a.84.84,0,1,0,0-1.681Zm0,0" transform="translate(-204.209 -70.81) rotate(-45)" fill="#009edb"></path></g></g></svg>