<svg xmlns="http://www.w3.org/2000/svg" width="120" height="100" viewBox="0 0 120 100"><g id="fe-8" transform="translate(1234 -2003)"><rect id="Rectangle_1598" data-name="Rectangle 1598" width="120" height="100" transform="translate(-1234 2003)" fill="#fff" opacity="0"></rect><g id="security" transform="translate(-1206.535 2024.396)"><path id="Path_2229" data-name="Path 2229" d="M118.8,88.141a.418.418,0,0,0-.418.418v18.7l2.407,1.564V88.559a.418.418,0,0,1,.418-.418Zm0,0" transform="translate(-103.697 -77.534)" fill="#ebeef3"></path><path id="Path_2230" data-name="Path 2230" d="M75.992,35.949a1.56,1.56,0,0,0-1.558,1.558v24.83L76.84,61.5V37.508A1.56,1.56,0,0,1,78.4,35.949Zm0,0" transform="translate(-65.036 -31.623)" fill="#ebeef3"></path><path id="Path_2231" data-name="Path 2231" d="M219.371,17.647V15.594a3.388,3.388,0,0,1,2.18-3.161,3.382,3.382,0,0,0-4.587,3.161v2.052a.722.722,0,0,1-.722.722h2.407A.722.722,0,0,0,219.371,17.647Zm0,0" transform="translate(-189.78 -10.742)" fill="#ebeef3"></path><path id="Path_2232" data-name="Path 2232" d="M159.707,64.375h2.407V68.4h-2.407Zm0,0" transform="translate(-140.048 -56.628)" fill="#ebeef3"></path><g id="Group_467" data-name="Group 467" transform="translate(7.953)"><path id="Path_2233" data-name="Path 2233" d="M85.516,0a4.92,4.92,0,0,0-4.433,2.8h-15.6a3.055,3.055,0,0,0-3.051,3.051V31.522a.722.722,0,0,0,1.444,0V5.846a1.609,1.609,0,0,1,1.607-1.607H80.649a4.917,4.917,0,0,0-.048.676V6.289H73.637a.722.722,0,0,0-.722.722v2.2H69.722A1.889,1.889,0,0,0,67.836,11.1V30.107a.722.722,0,0,0,1.444,0V11.1a.442.442,0,0,1,.442-.442h3.193V12.6a.722.722,0,0,0,.722.722H97.395a.722.722,0,0,0,.722-.722V10.654h3.193a.442.442,0,0,1,.442.442v31.7h-3.74a3.054,3.054,0,0,0-3.051,3.051v3.641h-17.9a.722.722,0,0,0,0,1.444H95.232a2.176,2.176,0,0,0,.282-.021.716.716,0,0,0,.711-.226,2.109,2.109,0,0,0,.505-.375l5.845-5.845a2.105,2.105,0,0,0,.621-1.5V11.1A1.889,1.889,0,0,0,101.31,9.21H98.117v-2.2a.722.722,0,0,0-.722-.722H90.431V4.915a4.92,4.92,0,0,0-.048-.676h15.164a1.609,1.609,0,0,1,1.607,1.607V54.293a1.609,1.609,0,0,1-1.607,1.607H71.011a.722.722,0,1,0,0,1.444h34.536a3.055,3.055,0,0,0,3.051-3.051V5.846A3.055,3.055,0,0,0,105.546,2.8h-15.6A4.921,4.921,0,0,0,85.516,0ZM96.4,48.592V45.844a1.608,1.608,0,0,1,1.607-1.607h2.748Zm.268-40.859v4.146H74.359V7.733h6.964a.722.722,0,0,0,.722-.722v-2.1a3.471,3.471,0,1,1,6.941,0v2.1a.722.722,0,0,0,.722.722Zm0,0" transform="translate(-62.434)" fill="#042745"></path><path id="Path_2234" data-name="Path 2234" d="M341.274,161.3a.722.722,0,1,0,0-1.444H340.4a.722.722,0,1,0,0,1.444Zm0,0" transform="translate(-306.312 -140.615)" fill="#042745"></path><path id="Path_2235" data-name="Path 2235" d="M223.913,159.852H211.078a.722.722,0,0,0,0,1.444h12.836a.722.722,0,1,0,0-1.444Zm0,0" transform="translate(-192.554 -140.615)" fill="#042745"></path><path id="Path_2236" data-name="Path 2236" d="M150.253,161.3h4.538a.722.722,0,1,0,0-1.444h-4.538a.722.722,0,1,0,0,1.444Zm0,0" transform="translate(-139.05 -140.615)" fill="#042745"></path><path id="Path_2237" data-name="Path 2237" d="M326.563,212.753a.722.722,0,0,0,.722.722h2.454a.722.722,0,0,0,0-1.444h-2.454A.722.722,0,0,0,326.563,212.753Zm0,0" transform="translate(-294.777 -186.515)" fill="#042745"></path><path id="Path_2238" data-name="Path 2238" d="M280.765,213.475a.722.722,0,0,0,0-1.444h-3.344a.722.722,0,0,0,0,1.444Zm0,0" transform="translate(-250.914 -186.515)" fill="#042745"></path><path id="Path_2239" data-name="Path 2239" d="M150.253,213.475h12.969a.722.722,0,1,0,0-1.444H150.253a.722.722,0,0,0,0,1.444Zm0,0" transform="translate(-139.05 -186.515)" fill="#042745"></path><path id="Path_2240" data-name="Path 2240" d="M248.5,267.465H234.929a.722.722,0,0,0,0,1.444H248.5a.722.722,0,0,0,0-1.444Zm0,0" transform="translate(-213.536 -235.278)" fill="#042745"></path><path id="Path_2241" data-name="Path 2241" d="M190,268.187a.722.722,0,0,0-.722-.722h-3.224a.722.722,0,0,0,0,1.444h3.224A.722.722,0,0,0,190,268.187Zm0,0" transform="translate(-170.546 -235.278)" fill="#042745"></path><path id="Path_2242" data-name="Path 2242" d="M283.766,318.7h-8.743a.722.722,0,0,0,0,1.444h8.743a.722.722,0,0,0,0-1.444Zm0,0" transform="translate(-248.805 -280.347)" fill="#042745"></path><path id="Path_2243" data-name="Path 2243" d="M214.839,320.143h4.585a.722.722,0,0,0,0-1.444h-4.585a.722.722,0,0,0,0,1.444Zm0,0" transform="translate(-195.864 -280.347)" fill="#042745"></path></g><path id="Path_2244" data-name="Path 2244" d="M64.589,334.8l-6.65,5.41-2.632-3.082a.722.722,0,1,0-1.1.938l3.09,3.619a.722.722,0,0,0,1,.091l7.2-5.855a.722.722,0,0,0-.911-1.12Zm0,0" transform="translate(-47.091 -294.377)" fill="#009edb"></path><path id="Path_2245" data-name="Path 2245" d="M25.12,251.9v-7.062a.721.721,0,0,0-.383-.637l-11.751-6.262a.721.721,0,0,0-.686,0L.875,244.2a.722.722,0,0,0-.375.633v7.225a17.073,17.073,0,0,0,10.233,15.625l1.586.691a.721.721,0,0,0,.575,0l1.787-.771A17.039,17.039,0,0,0,25.12,251.9ZM14.109,266.276l-1.5.648-1.3-.566a15.626,15.626,0,0,1-9.367-14.3v-6.8l10.708-5.868,11.023,5.874V251.9a15.6,15.6,0,0,1-9.561,14.379Zm0,0" transform="translate(0 -209.227)" fill="#009edb"></path></g></g></svg>