<svg xmlns="http://www.w3.org/2000/svg" width="120" height="100" viewBox="0 0 120 100"><g id="fe-9" transform="translate(1729 -2168)"><rect id="Rectangle_1598" data-name="Rectangle 1598" width="120" height="100" transform="translate(-1729 2168)" fill="#fff" opacity="0"></rect><g id="sheet" transform="translate(-1742.757 2145.795)"><path id="Path_2151" data-name="Path 2151" d="M306.936,311.515l-1.383-1.383-1.153,4.986,1.8-.416Z" transform="translate(-219.56 -227.995)" fill="#ebeef3"></path><path id="Path_2152" data-name="Path 2152" d="M319.294,231.394l10.985-10.963,3.345,3.345-4.727-4.727-10.985,10.963,4.75,4.75Z" transform="translate(-231.203 -149.505)" fill="#ebeef3"></path><path id="Path_2153" data-name="Path 2153" d="M407.235,203.019l1.291-1.289a.5.5,0,0,1,.7,0l-1.383-1.383a.5.5,0,0,0-.7,0l-1.291,1.289,4.725,4.725Z" transform="translate(-306.984 -133.266)" fill="#ebeef3"></path><g id="Group_463" data-name="Group 463" transform="translate(49.609 45.553)"><path id="Path_2154" data-name="Path 2154" d="M56.658,103.751H86.184a.852.852,0,0,0,.115-.009c.116.005.233.009.35.009a7.406,7.406,0,0,0,7.4-7.4V84.666a.83.83,0,0,0-1.659,0V96.354a5.738,5.738,0,0,1-11.477,0V92.11a.83.83,0,0,0-.83-.83H59l.228-40.307a3.8,3.8,0,0,1,3.82-3.762H94.08a5.694,5.694,0,0,0-1.691,4.053V72.837a.83.83,0,0,0,1.659,0V59.883h8.935a.83.83,0,0,0,.83-.83V51.265A5.719,5.719,0,0,0,98.1,45.553H63.051a5.456,5.456,0,0,0-5.48,5.417l-.228,40.311H50.439a.83.83,0,0,0-.83.83v4.243a7.406,7.406,0,0,0,6.864,7.376.83.83,0,0,0,.185.021Zm45.495-52.486v6.959H94.047V51.265a4.053,4.053,0,1,1,8.106,0ZM51.268,96.354V92.94H79.252v3.413a7.386,7.386,0,0,0,2.736,5.739H57.007A5.745,5.745,0,0,1,51.268,96.354Z" transform="translate(-49.609 -45.553)" fill="#042745"></path><path id="Path_2155" data-name="Path 2155" d="M160.151,117.411h9.009a.83.83,0,1,0,0-1.659h-9.009a.83.83,0,1,0,0,1.659Z" transform="translate(-144.151 -106.045)" fill="#042745"></path><path id="Path_2156" data-name="Path 2156" d="M179.622,166.2H160.151a.83.83,0,0,0,0,1.659h19.471a.83.83,0,0,0,0-1.659Z" transform="translate(-144.151 -149.518)" fill="#042745"></path><path id="Path_2157" data-name="Path 2157" d="M179.622,216.49H160.151a.83.83,0,0,0,0,1.659h19.471a.83.83,0,0,0,0-1.659Z" transform="translate(-144.151 -192.854)" fill="#042745"></path><path id="Path_2158" data-name="Path 2158" d="M180.452,267.615a.83.83,0,0,0-.83-.83H160.151a.83.83,0,1,0,0,1.659h19.471A.83.83,0,0,0,180.452,267.615Z" transform="translate(-144.151 -236.195)" fill="#042745"></path><path id="Path_2159" data-name="Path 2159" d="M160.151,317.08a.83.83,0,1,0,0,1.659h14.632a.83.83,0,1,0,0-1.659Z" transform="translate(-144.151 -279.535)" fill="#042745"></path></g><path id="Path_2160" data-name="Path 2160" d="M309.523,188.841a2.159,2.159,0,0,0-3.048,0l-13.924,13.9a1.49,1.49,0,0,0-.4.72l-1.739,7.52a.83.83,0,0,0,1,1l7.52-1.738a1.491,1.491,0,0,0,.721-.4l13.9-13.924a2.159,2.159,0,0,0,0-3.048Zm-16.042,16.228,3.833,3.833-4.986,1.153Zm5.465,3.118-4.75-4.75,10.985-10.963,4.727,4.727Zm13.424-13.451-1.288,1.291-4.725-4.725,1.291-1.289a.5.5,0,0,1,.7,0l4.019,4.019A.5.5,0,0,1,312.369,194.736Z" transform="translate(-207.488 -122.932)" fill="#009edb"></path></g></g></svg>