<svg xmlns="http://www.w3.org/2000/svg" width="76" height="76" viewBox="0 0 76 76"><g id="flexible-icon" transform="translate(-976 -3862)"><g id="Ellipse_57" data-name="Ellipse 57" transform="translate(976 3862)" fill="none" stroke="#009edb" stroke-width="2"><circle cx="38" cy="38" r="38" stroke="none"></circle><circle cx="38" cy="38" r="37" fill="none"></circle></g><g id="icon_creditcard" transform="translate(994.168 3884.8)"><path id="Path_929" data-name="Path 929" d="M37.185,4H2.479A2.48,2.48,0,0,0,0,6.479v24.79a2.48,2.48,0,0,0,2.479,2.479H37.185a2.48,2.48,0,0,0,2.479-2.479V6.479A2.48,2.48,0,0,0,37.185,4Zm0,27.269H2.479V16.395H37.185ZM2.479,11.541V6.479H37.185v5.062ZM6.2,28.79H18.592a1.239,1.239,0,1,0,0-2.479H6.2a1.239,1.239,0,1,0,0,2.479ZM22.311,27.55a1.239,1.239,0,1,0,1.239-1.239A1.239,1.239,0,0,0,22.311,27.55Zm4.958,0a1.239,1.239,0,1,0,1.239-1.239A1.239,1.239,0,0,0,27.269,27.55Zm4.958,0a1.239,1.239,0,1,0,1.239-1.239A1.239,1.239,0,0,0,32.227,27.55Z" transform="translate(0 -4)" fill="#009edb"></path></g></g></svg>