<svg xmlns="http://www.w3.org/2000/svg" width="76" height="76" viewBox="0 0 76 76"><g id="guest" transform="translate(-974.5 -6401)"><g id="Ellipse_62" data-name="Ellipse 62" transform="translate(974.5 6401)" fill="none" stroke="#009edb" stroke-width="2"><circle cx="38" cy="38" r="38" stroke="none"></circle><circle cx="38" cy="38" r="37" fill="none"></circle></g><g id="icon_contacts_alt" transform="translate(994 6419)"><path id="Path_935" data-name="Path 935" d="M32.655,0H2.512A2.513,2.513,0,0,0,0,2.512V37.679a2.513,2.513,0,0,0,2.512,2.512H32.655a2.513,2.513,0,0,0,2.512-2.512V2.512A2.513,2.513,0,0,0,32.655,0ZM2.512,2.512H7.536V37.679H2.512ZM32.655,37.679H10.048V2.512H32.655ZM17.41,13.482a3.8,3.8,0,1,0,3.8-3.8,3.8,3.8,0,0,0-3.8,3.8ZM21.291,18.8c-3.434,0-6.22,3.735-6.22,8.342s12.442,4.607,12.442,0S24.727,18.8,21.291,18.8ZM37.679,2.512h2.512v7.536H37.679Zm0,10.048h2.512V20.1H37.679Zm0,10.048h2.512v7.536H37.679Z" fill="#009edb"></path></g></g></svg>