<svg xmlns="http://www.w3.org/2000/svg" width="209" height="59" viewBox="0 0 209 59"><g id="Group_312" data-name="Group 312" transform="translate(-1394 -825)"><rect id="Rectangle_1503" data-name="Rectangle 1503" width="209" height="59" transform="translate(1394 825)" fill="#b8bbc1" opacity="0"></rect><g id="Hotels.com_logo" transform="translate(1346.36 656.027)"><g id="g5994" transform="translate(64.64 181.973)"><path id="path3013" d="M92.781,185.721a.254.254,0,0,1-.251-.253v-1.7h-.484a.221.221,0,0,1,0-.443h1.468a.221.221,0,0,1,0,.443h-.486v1.7a.253.253,0,0,1-.247.253m3.629,0a.253.253,0,0,1-.247-.253v-1.476l-.631,1.636a.145.145,0,0,1-.134.092.142.142,0,0,1-.132-.092l-.631-1.636v1.476a.25.25,0,0,1-.243.253.255.255,0,0,1-.253-.253v-1.753a.405.405,0,0,1,.786-.145L95.4,184.8l.479-1.235a.4.4,0,0,1,.377-.268.409.409,0,0,1,.407.412v1.753a.254.254,0,0,1-.251.253" transform="translate(78.69 -175.773)" fill="#ee2841"></path><path id="path3017" d="M69.164,185.027a4.032,4.032,0,0,1,.711-2.286,3.233,3.233,0,0,0-2.332,3.1v2.594l1.621.081Z" transform="translate(-51.327 -179.35)" fill="#ee2841"></path><path id="path3021" d="M67.542,189.8a3.232,3.232,0,0,0,2.334,3.1,4.019,4.019,0,0,1-.712-2.286v-4.865H67.542Z" transform="translate(-51.328 -161.538)" fill="#ee2841"></path><path id="path3025" d="M69.619,185.747H68v4.865a3.233,3.233,0,0,0,2.332,3.1,4.032,4.032,0,0,1-.711-2.286Z" transform="translate(-49.35 -161.539)" fill="#ee2841"></path><path id="path3029" d="M69.619,184.875a4.032,4.032,0,0,1,.711-2.286,3.233,3.233,0,0,0-2.332,3.1v3.527l1.621.081Z" transform="translate(-49.35 -180.01)" fill="#ee2841"></path><path id="path3033" d="M66.5,182.822a5.167,5.167,0,0,0-1.989,4.208v18.68a5.164,5.164,0,0,0,1.989,4.208,6.942,6.942,0,0,1-.368-2.242V185.064a6.962,6.962,0,0,1,.368-2.242" transform="translate(-64.508 -178.994)" fill="#ee2841"></path><path id="path3037" d="M66.584,184.706a6.646,6.646,0,0,1,.368-2.188,5,5,0,0,0-1.989,4.107v22.069a4.812,4.812,0,0,0,2.648,4.481,6.413,6.413,0,0,1-1.027-3.522Z" transform="translate(-62.53 -180.315)" fill="#ee2841"></path><path id="path3041" d="M84.875,183.99a3.536,3.536,0,0,0-3.242,3.77v6.128l-8.107-.471v-6.6c0-2.6-1.815-4.712-4.055-4.712s-4.053,2.111-4.053,4.712V211.33c0,2.6,1.813,4.713,4.053,4.713s4.055-2.109,4.055-4.713v-7.542h8.107v7.542a3.279,3.279,0,1,0,6.484,0V187.761a3.536,3.536,0,0,0-3.242-3.77" transform="translate(-60.553 -182.106)" fill="#ee2841"></path><path id="path3045" d="M83.346,202.6v-7.779H74.589V202.6c0,.83-.522,1.536-1.163,1.536a1.418,1.418,0,0,1-1.21-1.536V184.855a1.419,1.419,0,0,1,1.188-1.536,1.4,1.4,0,0,1,1.186,1.536v7.227h8.758v-7.227a1.226,1.226,0,1,1,2.373,0V202.6a1.226,1.226,0,1,1-2.373,0" transform="translate(-23.667 -176.835)" fill="#ee2841"></path><path id="path3049" d="M75.057,190.109a5.8,5.8,0,1,1,5.791,6.028,5.69,5.69,0,0,1-5.791-6.028m9.351,0c0-2.16-1.259-4.106-3.561-4.106-2.279,0-3.559,1.945-3.559,4.106,0,2.183,1.28,4.13,3.559,4.13,2.3,0,3.561-1.947,3.561-4.13" transform="translate(-8.752 -170.46)" fill="#ee2841"></path><path id="path3053" d="M84.216,184.105a5.493,5.493,0,0,1,5.578,5.7c0,.641-.452,1.02-1.259,1.02H80.727a3.761,3.761,0,0,0,3.892,3.561,4.906,4.906,0,0,0,2.848-.927.753.753,0,0,1,.475-.117.856.856,0,0,1,.475,1.566,6.663,6.663,0,0,1-4.011,1.233,6.019,6.019,0,0,1-.19-12.032M80.7,189.279h7a3.391,3.391,0,0,0-3.489-3.417,3.509,3.509,0,0,0-3.512,3.417" transform="translate(9.28 -170.463)" fill="#ee2841"></path><path id="path3057" d="M80.846,202.753V184.7a1.252,1.252,0,0,1,1.069-1.382,1.268,1.268,0,0,1,1.067,1.382v18.052a1.269,1.269,0,0,1-1.067,1.385,1.253,1.253,0,0,1-1.069-1.385" transform="translate(20.87 -176.836)" fill="#ee2841"></path><path id="path3061" d="M81.5,194.1a.912.912,0,0,1,.926-.925.982.982,0,0,1,.522.166,5.553,5.553,0,0,0,3.227,1.091c1.614,0,2.467-.664,2.467-1.638,0-1.139-1.3-1.518-2.777-1.849-1.945-.453-4.222-.975-4.222-3.442,0-1.827,1.565-3.393,4.366-3.393a6.307,6.307,0,0,1,3.821,1.186.871.871,0,0,1-.5,1.589.816.816,0,0,1-.475-.166,4.764,4.764,0,0,0-2.824-.877c-1.448,0-2.351.569-2.351,1.495,0,1,1.235,1.329,2.658,1.661,1.994.451,4.367,1,4.367,3.63,0,1.97-1.614,3.514-4.628,3.514a6.77,6.77,0,0,1-4.177-1.282.942.942,0,0,1-.4-.76" transform="translate(25.051 -170.461)" fill="#ee2841"></path><path id="path3065" d="M84.947,185.8a1.5,1.5,0,0,1,1.495,1.472,1.52,1.52,0,0,1-1.495,1.495,1.5,1.5,0,0,1-1.472-1.495,1.48,1.48,0,0,1,1.472-1.472" transform="translate(34.702 -162.493)" fill="#ee2841"></path><path id="path3069" d="M86.105,190.109a5.8,5.8,0,1,1,5.791,6.028,5.689,5.689,0,0,1-5.791-6.028m9.351,0c0-2.16-1.259-4.106-3.561-4.106-2.279,0-3.561,1.945-3.561,4.106,0,2.183,1.282,4.13,3.561,4.13,2.3,0,3.561-1.947,3.561-4.13" transform="translate(49.648 -170.46)" fill="#ee2841"></path><path id="path3073" d="M104.641,187.57V194.9a1.085,1.085,0,0,1-1.091,1.067A1.059,1.059,0,0,1,102.5,194.9v-6.694c0-1.329-.594-1.97-1.994-1.97-1.163,0-2.3,1.308-2.848,2.139V194.9a1.062,1.062,0,0,1-1.067,1.067,1.08,1.08,0,0,1-1.069-1.067v-6.694c0-1.329-.569-1.97-2.017-1.97-1.116,0-2.23,1.387-2.8,2.217V194.9a1.078,1.078,0,0,1-1.067,1.067,1.064,1.064,0,0,1-1.069-1.067V185.34a1.059,1.059,0,0,1,1.044-1.069,1.084,1.084,0,0,1,1.091,1.069V186a4.962,4.962,0,0,1,3.7-1.9,2.961,2.961,0,0,1,3.11,2.136,4.865,4.865,0,0,1,3.9-2.136c2.113,0,3.22,1.163,3.22,3.465" transform="translate(64.565 -170.487)" fill="#ee2841"></path><path id="path3077" d="M89.973,184.106a5.111,5.111,0,0,1,3.655,1.329,1.013,1.013,0,0,1,.332.713.958.958,0,0,1-.948.973.976.976,0,0,1-.643-.238,3.183,3.183,0,0,0-2.3-.878c-2.254,0-3.7,1.732-3.7,4.106a3.794,3.794,0,0,0,3.7,4.13c1.521.053,3.054-1.054,4.285-3,.153-.242.377-.69.562-.924.349-.441.6-.23.8-.016a1.832,1.832,0,0,1,.128,1.789,9.189,9.189,0,0,1-1.936,2.539,5.613,5.613,0,0,1-3.936,1.506,6.019,6.019,0,0,1,0-12.032" transform="translate(39.276 -170.464)" fill="#ee2841"></path><path id="path3081" d="M85.582,196.507c0,.4-1.156,1.306-1.987,1.71a3.507,3.507,0,0,1-1.638.332,2.494,2.494,0,0,1-2.729-2.824v-7.048H78.137a.938.938,0,1,1,0-1.875h1.091v-2.183A1.064,1.064,0,0,1,80.3,183.55a1.078,1.078,0,0,1,1.067,1.069V186.8h1.5a.938.938,0,1,1,0,1.875h-1.5v6.573c0,.807.381,1.4,1.116,1.4,1.306,0,2.334-2.028,2.912-2.028.545,0,.19,1.363.19,1.885" transform="translate(2.251 -173.247)" fill="#ee2841"></path></g></g></g></svg>