<svg xmlns="http://www.w3.org/2000/svg" id="guarantee" width="25.694" height="26.001" viewBox="0 0 25.694 26.001"><path id="Path_844" data-name="Path 844" d="M67.716,10.471A10.472,10.472,0,1,0,57.245,20.942,10.483,10.483,0,0,0,67.716,10.471ZM55.378,14.938,51.8,11.363l1.084-1.083,2.491,2.491L61.6,6.546,62.686,7.63Zm0,0" transform="translate(-44.398)" fill="#042745"></path><path id="Path_845" data-name="Path 845" d="M3.17,345.875,0,350.5l4.687-.874.874,4.687,2.968-4.329a12.064,12.064,0,0,1-5.359-4.107Zm0,0" transform="translate(0 -328.311)" fill="#009edb"></path><path id="Path_846" data-name="Path 846" d="M343.371,345.875a12.064,12.064,0,0,1-5.359,4.107l2.968,4.329.874-4.687,4.687.874Zm0,0" transform="translate(-320.847 -328.311)" fill="#009edb"></path></svg>