<svg xmlns="http://www.w3.org/2000/svg" id="cash-register" width="25.544" height="23" viewBox="0 0 25.544 23"><path id="Path_847" data-name="Path 847" d="M73.57,0h6.857V10.106H73.57Zm0,0" transform="translate(-69.9)" fill="#009edb"></path><path id="Path_848" data-name="Path 848" d="M0,383.051H25.544v3.889H0Zm0,0" transform="translate(0 -363.94)" fill="#042745"></path><path id="Path_849" data-name="Path 849" d="M241,0h10.976V4.186H241Zm0,0" transform="translate(-228.976)" fill="#042745"></path><path id="Path_850" data-name="Path 850" d="M25.6,113.9H14.492v5.92H4.641v-4.681L2.6,125.83H27.883Zm-7.368,10.01h-2v-2h2Zm0-2.987h-2v-2h2Zm0-2.987h-2v-2h2Zm2.987,5.974h-2v-2h2Zm0-2.987h-2v-2h2Zm0-2.987h-2v-2h2Zm2.987,5.974h-2v-2h2Zm0-2.987h-2v-2h2Zm0-2.987h-2v-2h2Zm0,0" transform="translate(-2.468 -108.215)" fill="#042745"></path></svg>