<svg xmlns="http://www.w3.org/2000/svg" width="76" height="76" viewBox="0 0 76 76"><g id="pms" transform="translate(-418.5 -8292)"><g id="Ellipse_111" data-name="Ellipse 111" transform="translate(418.5 8292)" fill="none" stroke="#009edb" stroke-width="2"><circle cx="38" cy="38" r="38" stroke="none"></circle><circle cx="38" cy="38" r="37" fill="none"></circle></g><g id="icon_flowchart" transform="translate(431.859 8306.088)"><path id="Path_936" data-name="Path 936" d="M44.019,28.011v-6a3,3,0,0,0-3-3H26.011V13h9a3,3,0,0,0,3-3V7a3,3,0,0,0-3-3H14.005a3,3,0,0,0-3,3v3a3,3,0,0,0,3,3h9v6H8a3,3,0,0,0-3,3v6a3,3,0,0,0-3,3v6a3,3,0,0,0,3,3H8a3,3,0,0,0,3-3v-6a3,3,0,0,0-3-3v-6H23.009v6a3,3,0,0,0-3,3v6a3,3,0,0,0,3,3h3a3,3,0,0,0,3-3v-6a3,3,0,0,0-3-3v-6H41.017v6a3,3,0,0,0-3,3v6a3,3,0,0,0,3,3h3a3,3,0,0,0,3-3v-6A3,3,0,0,0,44.019,28.011ZM14.005,7H35.015v3H14.005ZM8,34.013v3H5v-6H8Zm18.008,3h-3v-6h3Zm15.007-3v-3h3v6h-3Z" fill="#009edb"></path></g></g></svg>