<svg xmlns="http://www.w3.org/2000/svg" id="schedule" width="26.443" height="25.255" viewBox="0 0 26.443 25.255"><path id="Path_851" data-name="Path 851" d="M329.243,301.324a4.846,4.846,0,1,0,4.844,4.846A4.851,4.851,0,0,0,329.243,301.324ZM328.5,308.6l-1.748-1.748,1.1-1.1.652.652,2.128-2.129,1.1,1.1Zm0,0" transform="translate(-307.644 -285.762)" fill="#009edb"></path><path id="Path_852" data-name="Path 852" d="M0,0H26.443V4.611H0ZM0,0" fill="#042745"></path><path id="Path_853" data-name="Path 853" d="M0,134.368H15.252a6.391,6.391,0,0,1,11.191-4.943V119.352H0Zm21.227-12.223h2.066v2.066H21.227Zm-6.026,0h2.066v2.066H15.2Zm-6.025,0h2.066v2.066H9.176Zm0,5.815h2.066v2.066H9.176Zm-6.026,0H5.216v2.066H3.15Zm0,0" transform="translate(0 -113.188)" fill="#042745"></path></svg>