<svg xmlns="http://www.w3.org/2000/svg" width="209" height="59" viewBox="0 0 209 59"><g id="tavelocity" transform="translate(-963 -825)"><rect id="Rectangle_1503" data-name="Rectangle 1503" width="209" height="59" transform="translate(963 825)" fill="#b8bbc1" opacity="0"></rect><g id="logo" transform="translate(960.7 779.496)"><g id="g82" transform="translate(19.3 53.504)"><g id="g18"><path id="path12" d="M22.563,97.184c.306-.153.663-.153.969-.306a12.063,12.063,0,0,1-1.478-1.733c-.153-.2-.051-.255.051-.306.1,0,.051-.2.1-.306.2-.051.2-.306.306-.459,0-.051,0-.2.051-.255a.168.168,0,0,1,.255,0,7.061,7.061,0,0,0,1.325,1.173,9.736,9.736,0,0,1,1.631,1.223c.051,0,.2.1.2,0a4.269,4.269,0,0,1,.459-1.427,2.13,2.13,0,0,1,.2-.51,2.558,2.558,0,0,1,.765-.714c.459-.255.969,0,1.325-.408.1-.1.306,0,.408,0,.306.153.714.051.969.306a25.959,25.959,0,0,0-.714,2.855c-.051.2-.153.51-.051.612a4.066,4.066,0,0,0,1.682-.1,7.044,7.044,0,0,1,1.784.153,2.49,2.49,0,0,1,1.173.663,2.334,2.334,0,0,1,.561,2.243c0,.051-.306.357-.408.306-.051,0-.051-.2-.1-.255-.255.2-.714.663-.867.663-.051,0-.357-.306-.51-.408a2.406,2.406,0,0,0-1.682-.2,5.344,5.344,0,0,0-1.988.255,4.272,4.272,0,0,0,1.071,1.071c.612.612,1.223,1.071,1.835,1.682a6.185,6.185,0,0,1,1.071,1.274c-.153.1,0,.153-.1.255-.1.051-.1-.153-.2-.153s-.153.153-.153.255c.051.051-.1.357-.2.357a1.025,1.025,0,0,1-.408.2c-.051,0-.357-.153-.357-.1.1.153.2.357.153.408-.255-.051-.408-.051-.561-.255-.816-.714-1.58-1.478-2.447-2.243a8.279,8.279,0,0,0-.918-1.02c-.612,1.427-1.02,2.447-1.631,3.874-.153.255-.2.918-.357.969-.1.051-.459-.459-.663-.867,0-.867.1-1.173.153-2.09v-.153c.051-1.173.408-2.192.357-3.416,0-.1-.153-.153-.306-.153-1.529-.153-3.008-.357-4.537-.561a3.971,3.971,0,0,1-1.071-.2.861.861,0,0,0-.306-.153c-.051-.051-.051-.051-.1-.051a6.212,6.212,0,0,1,1.988-1.631,4.2,4.2,0,0,0,1.274-.357Z" transform="translate(-19.3 -72.92)" fill="#f58025"></path><path id="path14" d="M53.539,112.782a.112.112,0,0,1-.051-.153.465.465,0,0,1,.408-.153c.408-.1.867,0,1.274-.1.1-.051.153-.153.2-.153a5.385,5.385,0,0,1,.969-.306c.1-.051.306-.153.2-.306a5.123,5.123,0,0,1-.918-1.223c-.1-.255-.306-.459-.306-.714,0-.2.255-.255.459-.153a7.771,7.771,0,0,1,2.192,2.09c.1.153.255-.2.306-.357.306-.663.51-1.427.867-2.09.1-.2.255-.459.459-.51a3.8,3.8,0,0,0,.765-.459c.2-.1.357,0,.561-.1.1-.051.306.153.459.1.255-.153.459-.051.714,0a.342.342,0,0,1,.153.408,9.355,9.355,0,0,1-.765,1.835c-.306.459-.51.918-.867,1.376,0,.051-.051.153.051.153.2.051.459,0,.612.1a11.213,11.213,0,0,0,1.886.255c.306.1.306.561.612.816.153.1-.1.255-.306.306-.459.153-.918-.051-1.376.1a10.812,10.812,0,0,0-2.243.306,9.423,9.423,0,0,1,.714.714l.612.918a4.261,4.261,0,0,1,.408,1.02c.1.153.051.408.051.612-.1-.051-.1-.2-.153-.255-.1,0-.153.153-.306.153-.1-.051-.153-.153-.2-.2a1.491,1.491,0,0,1-.357-.612,4.271,4.271,0,0,0-1.376-1.478,20.323,20.323,0,0,1-1.58,3.161c-.051.1-.153.1-.306.1-.051-.051-.1.1-.153.1-.051-.1-.1-.1-.153-.153-.2-.153-.51-.357-.561-.612a1.89,1.89,0,0,1-.2-.714c0-.051-.1-.153-.1-.153a2.747,2.747,0,0,0,.153-.51c.1-.153.306-.306.306-.459a8.94,8.94,0,0,0,.663-1.427,14.847,14.847,0,0,1-2.957-.459,3.844,3.844,0,0,1-.663-.306c-.1-.357-.051-.459-.153-.51Z" transform="translate(-36.053 -80.259)" fill="#004681"></path><path id="path16" d="M52,70.172c.306-.765.816-1.223.867-2.09-1.631-.918-3.569-.357-4.792-2.5a5.884,5.884,0,0,1,.153-2.855c.357-.765,1.071-.765,1.733-.255a1.76,1.76,0,0,1,.663.153,6.116,6.116,0,0,1,2.09.306,11.361,11.361,0,0,0,2.549.357.845.845,0,0,0,.153-.51c-.2-1.274-.51-2.4-.816-3.721a7.218,7.218,0,0,1-.2-1.02c-.051-.765-.561-1.937-.1-2.294.051-.051.153.153.2.1.153-.1.2-.306.357-.255a26.379,26.379,0,0,1,4.333,4.282c.459.459.561-.765.918-1.173.1-.2,0-.663.1-.816.357-.663.408-1.478.714-2.09.561-.765.867-1.937,1.682-2.243a1.672,1.672,0,0,1,1.682.612c.1.051.357,0,.51.153.561.51,1.02,1.173,1.631,1.784a1.07,1.07,0,0,1,.2.918c-.153.867-.918.918-1.376,1.529-.867,1.427-1.784,2.855-2.651,4.282-.1.2-.357.663-.153.867a29.318,29.318,0,0,0,3.67,3.467c.867.561,1.784.51,2.549,1.274a6.011,6.011,0,0,1,1.223,2.243c-3.11,1.988-6.627-1.274-9.941-1.223-.255.051-.2.408-.2.561.153,1.427.408,2.8.561,4.18a25.958,25.958,0,0,0,.714,2.855c.051.357.357,1.274-.1,1.223a1.605,1.605,0,0,1-1.58-.969,32.841,32.841,0,0,1-1.274-3.365c-.051-.357-.2-.663-.051-.969a3.366,3.366,0,0,0-.459-1.478c-.1-.2-.306.1-.459.2a17.671,17.671,0,0,0-1.325,1.886,6.331,6.331,0,0,1-2.651,2.192,1.675,1.675,0,0,1-2.4-.714c.255-.051.459-.612.306-.765-1.173-1.784.459-2.855.969-4.129Z" transform="translate(-33.341 -53.504)" fill="#7baed4"></path></g><g id="g80" transform="translate(37.928 15.19)"><g id="g78"><g id="g72"><g id="g66"><g id="g58"><g id="g22" transform="translate(12.133 6.015)"><path id="path20" d="M120.355,110.6H117.5V95.355h2.855V97.9a5.309,5.309,0,0,1,4.945-2.8h.2v2.447h-.2a4.232,4.232,0,0,0-3.059,1.223,6.205,6.205,0,0,0-1.886,3.925v7.9Z" transform="translate(-117.5 -95.1)" fill="#004681"></path></g><g id="g26" transform="translate(21.411 5.914)"><path id="path24" d="M140.645,110.805c-3.416,0-4.945-2.243-4.945-4.282,0-3.263,2.753-5,9.839-6.219v-.663c0-1.682-1.02-2.549-3.008-2.549a3.946,3.946,0,0,0-3.823,2.192l-.051.2-2.6-1.122.1-.2A7.221,7.221,0,0,1,142.48,94.9c2.957,0,5.914,1.427,5.914,4.639v7.494a11.672,11.672,0,0,0,.357,3.161l.051.255h-2.957l-.2-1.835A6.859,6.859,0,0,1,140.645,110.805Zm4.843-8.31c-4.69.816-6.984,2.141-6.984,4.027a2.342,2.342,0,0,0,2.4,2.09,7.043,7.043,0,0,0,4.588-2.345Z" transform="translate(-135.7 -94.9)" fill="#004681"></path></g><g id="g30" transform="translate(35.634 6.27)"><path id="path28" d="M171.961,110.843h-3.467L163.6,95.6h2.906l3.823,11.98,3.823-11.98h2.6Z" transform="translate(-163.6 -95.6)" fill="#004681"></path></g><g id="g34" transform="translate(66.476)"><path id="path32" d="M227.006,104.813H224.1V84.523l2.906-1.223Z" transform="translate(-224.1 -83.3)" fill="#004681"></path></g><g id="g38" transform="translate(71.982 6.015)"><path id="path36" d="M241.782,110.9c-4.129,0-6.882-3.161-6.882-7.9s2.753-7.9,6.882-7.9,6.882,3.161,6.882,7.9S245.911,110.9,241.782,110.9Zm0-13.662c-2.5,0-4.027,2.141-4.027,5.761s1.529,5.761,4.027,5.761,4.027-2.141,4.027-5.761S244.28,97.241,241.782,97.241Z" transform="translate(-234.9 -95.1)" fill="#004681"></path></g><g id="g42" transform="translate(87.378 6.015)"><path id="path40" d="M271.982,110.9c-4.129,0-6.882-3.161-6.882-7.9s2.753-7.9,6.882-7.9a6.172,6.172,0,0,1,6.168,4.129l.1.2-2.7.816-.051-.153a3.615,3.615,0,0,0-3.518-2.8c-2.549,0-4.027,2.09-4.027,5.761s1.478,5.761,4.027,5.761c1.988,0,2.957-.663,4.129-2.651l.1-.153,2.447.867-.1.2C276.774,109.833,274.939,110.9,271.982,110.9Z" transform="translate(-265.1 -95.1)" fill="#004681"></path></g><g id="g46" transform="translate(103.028 6.27)"><path id="path44" d="M298.655,110.843H295.8V95.6h2.855Z" transform="translate(-295.8 -95.6)" fill="#004681"></path></g><g id="g52" transform="translate(0 0.918)"><g id="g50"><path id="path48" d="M99.817,106c-2.141,0-3.569-.459-3.823-2.6V92.645H93.7V90.5h2.294v-4.18L98.849,85.1v5.4h3.67l-.561,2.141H98.9v10.4c0,.408.2.816,1.58.816a12.071,12.071,0,0,0,2.192-.2l.306-.051-.561,2.141h-.1A11.779,11.779,0,0,1,99.817,106Z" transform="translate(-93.7 -85.1)" fill="#004681"></path></g></g><g id="g56" transform="translate(119.188 6.168)"><path id="path54" d="M329.743,116.352a16.778,16.778,0,0,1-2.039-.153l-.2-.051.663-2.141h.357a4.955,4.955,0,0,0,.918.051c1.427,0,3.161-.357,3.874-3.365l-5.506-15.243h2.7l.051.1,4.027,10.909L338.155,95.4h3.008l-5.557,16.466C334.178,115.792,331.323,116.352,329.743,116.352Z" transform="translate(-327.5 -95.4)" fill="#004681"></path></g></g><g id="g64" transform="translate(108.942 0.867)"><g id="g62"><path id="path60" d="M313.517,105.952c-2.141,0-3.569-.459-3.823-2.6V92.545H307.4V90.4h2.294v-4.18L312.549,85v5.4h3.67l-.561,2.141H312.6v10.4c0,.408.2.816,1.58.816a12.071,12.071,0,0,0,2.192-.2l.306-.051-.561,2.141h-.1A9.048,9.048,0,0,1,313.517,105.952Z" transform="translate(-307.4 -85)" fill="#004681"></path></g></g></g><g id="g70" transform="translate(50.061 6.015)"><path id="path68" d="M199.19,110.9a7.239,7.239,0,0,1-5-1.886A7.951,7.951,0,0,1,191.9,103c0-4.741,2.753-7.9,6.882-7.9a6.472,6.472,0,0,1,4.486,1.631,7.151,7.151,0,0,1,1.988,5.3v1.58H194.806c.1,2.957,1.937,5.149,4.384,5.149a4.526,4.526,0,0,0,4.078-2.345l.1-.2L205.205,108l-.1.153C203.268,110.7,202.147,110.9,199.19,110.9Zm-4.333-9.482h7.494c-.051-2.6-1.376-4.18-3.518-4.18C196.539,97.241,195.112,98.77,194.857,101.421Z" transform="translate(-191.9 -95.1)" fill="#004681"></path></g></g><g id="g76" transform="translate(103.028 1.223)"><path id="path74" d="M298.655,88.555H295.8V85.7h2.855Z" transform="translate(-295.8 -85.7)" fill="#004681"></path></g></g></g></g><g id="g88" transform="translate(191.048 74.964)"><path id="path84" d="M356.353,96.722a2.263,2.263,0,0,1,.408-.561,1.833,1.833,0,0,1,.612-.408,1.742,1.742,0,0,1,1.427,0,2.133,2.133,0,0,1,.612.408,2.265,2.265,0,0,1,.408.561,1.742,1.742,0,0,1,0,1.427,4.255,4.255,0,0,1-.408.612,1.833,1.833,0,0,1-.612.408,1.742,1.742,0,0,1-1.427,0,2.133,2.133,0,0,1-.612-.408,1.833,1.833,0,0,1-.408-.612,1.742,1.742,0,0,1,0-1.427Zm.306,1.376a4.487,4.487,0,0,0,.306.51,1.831,1.831,0,0,0,.51.357,1.293,1.293,0,0,0,.612.1,2.559,2.559,0,0,0,.612-.1,1.11,1.11,0,0,0,.459-.357,1.058,1.058,0,0,0,.306-.51,1.293,1.293,0,0,0,.1-.612,2.557,2.557,0,0,0-.1-.612,4.479,4.479,0,0,0-.306-.51,1.2,1.2,0,0,0-.459-.306,1.293,1.293,0,0,0-.612-.1,2.559,2.559,0,0,0-.612.1,4.482,4.482,0,0,0-.51.306,1.058,1.058,0,0,0-.306.51,1.293,1.293,0,0,0-.1.612A2.56,2.56,0,0,0,356.659,98.1Zm1.529-1.733a.82.82,0,0,1,.561.153.646.646,0,0,1,.2.459c0,.2-.051.357-.153.408a.579.579,0,0,1-.408.153l.612.969h-.357l-.612-.918h-.357v.918h-.357V96.365Zm-.153.969h.2a.307.307,0,0,0,.2-.051.11.11,0,0,0,.1-.1c.051-.051.051-.1.051-.2,0-.051,0-.153-.051-.153s-.051-.051-.1-.1c-.051,0-.1-.051-.153-.051h-.612v.663Z" transform="translate(-356.2 -95.6)" fill="#004681"></path><path id="path86" d="M356.353,96.722a2.263,2.263,0,0,1,.408-.561,1.833,1.833,0,0,1,.612-.408,1.742,1.742,0,0,1,1.427,0,2.133,2.133,0,0,1,.612.408,2.265,2.265,0,0,1,.408.561,1.742,1.742,0,0,1,0,1.427,4.255,4.255,0,0,1-.408.612,1.833,1.833,0,0,1-.612.408,1.742,1.742,0,0,1-1.427,0,2.133,2.133,0,0,1-.612-.408,1.833,1.833,0,0,1-.408-.612,1.742,1.742,0,0,1,0-1.427Zm.306,1.376a4.487,4.487,0,0,0,.306.51,1.831,1.831,0,0,0,.51.357,1.293,1.293,0,0,0,.612.1,2.559,2.559,0,0,0,.612-.1,1.11,1.11,0,0,0,.459-.357,1.058,1.058,0,0,0,.306-.51,1.293,1.293,0,0,0,.1-.612,2.557,2.557,0,0,0-.1-.612,4.479,4.479,0,0,0-.306-.51,1.2,1.2,0,0,0-.459-.306,1.293,1.293,0,0,0-.612-.1,2.559,2.559,0,0,0-.612.1,4.482,4.482,0,0,0-.51.306,1.058,1.058,0,0,0-.306.51,1.293,1.293,0,0,0-.1.612A2.56,2.56,0,0,0,356.659,98.1Zm1.529-1.733a.82.82,0,0,1,.561.153.646.646,0,0,1,.2.459c0,.2-.051.357-.153.408a.579.579,0,0,1-.408.153l.612.969h-.357l-.612-.918h-.357v.918h-.357V96.365Zm-.153.969h.2a.307.307,0,0,0,.2-.051.11.11,0,0,0,.1-.1c.051-.051.051-.1.051-.2,0-.051,0-.153-.051-.153s-.051-.051-.1-.1c-.051,0-.1-.051-.153-.051h-.612v.663Z" transform="translate(-356.2 -95.6)" fill="#004681"></path></g></g></g></svg>