<?xml version="1.0" encoding="UTF-8"?> <svg xmlns="http://www.w3.org/2000/svg" width="287.129" height="45" viewBox="0 0 287.129 45"><g id="Group_450" data-name="Group 450" transform="translate(-320 -20)"><g id="Group_298" data-name="Group 298" transform="translate(320 20)"><g id="Group_9" data-name="Group 9" transform="translate(0 0.001)"><path id="Path_158" data-name="Path 158" d="M-139.037,1036.715h-28.82c-1.946.012-2.619,1.71-1.593,3.561l7.53,13.586a6.6,6.6,0,0,0,5.375,3.127h28.755c1.946-.013,2.691-1.506,1.665-3.358l-7.53-13.585A6.836,6.836,0,0,0-139.037,1036.715Z" transform="translate(169.935 -1011.99)" fill="#042745"></path><path id="Path_159" data-name="Path 159" d="M-156.579,950.911h28.82c1.946.013,2.619,1.71,1.592,3.562l-7.53,13.586a6.6,6.6,0,0,1-5.375,3.127l-28.755,0c-1.946-.013-2.691-1.506-1.665-3.358l7.53-13.586A6.837,6.837,0,0,1-156.579,950.911Z" transform="translate(169.952 -950.911)" fill="#009edb"></path><path id="Path_160" data-name="Path 160" d="M-116.793,971.2l-35.9-.046,2.29-4.132h35.923Z" transform="translate(157.665 -962.377)" fill="#fff"></path><path id="Path_161" data-name="Path 161" d="M-125.2,1086.55l-2.046-2.364a1.757,1.757,0,0,0-1.23-.619l-4.535-.256a.24.24,0,0,0-.171.4l2.382,2.752a1.062,1.062,0,0,0,.778.376l4.658.111A.241.241,0,0,0-125.2,1086.55Z" transform="translate(143.823 -1045.16)" fill="#fff"></path></g><g id="Group_10" data-name="Group 10" transform="translate(51.189)"><path id="Path_162" data-name="Path 162" d="M9.275,950.907h8.213A7.017,7.017,0,0,1,23.5,954.2l9.81,16.119a1.316,1.316,0,0,1-1.2,1.973H22.533a6.2,6.2,0,0,1-5.39-3.041L7.889,953.126A1.5,1.5,0,0,1,9.275,950.907Z" transform="translate(-7.694 -950.907)" fill="#009edb"></path><path id="Path_163" data-name="Path 163" d="M9.275,1054.24h8.213a7.017,7.017,0,0,0,6.01-3.295l9.81-16.12a1.316,1.316,0,0,0-1.2-1.973H22.533a6.194,6.194,0,0,0-5.39,3.041l-9.254,16.127A1.5,1.5,0,0,0,9.275,1054.24Z" transform="translate(-7.694 -1009.24)" fill="#042745"></path></g></g><path id="Path_2105" data-name="Path 2105" d="M6.912.216a5.573,5.573,0,0,0,5.112-2.952L9.828-3.8A3.255,3.255,0,0,1,6.912-2.052,3.721,3.721,0,0,1,3.24-5.994,3.721,3.721,0,0,1,6.912-9.936,3.288,3.288,0,0,1,9.828-8.19l2.2-1.08A5.54,5.54,0,0,0,6.912-12.2a6.077,6.077,0,0,0-6.3,6.21A6.077,6.077,0,0,0,6.912.216ZM21.78,0h2.574V-12.006H21.78V-7.29H16.11v-4.716H13.554V0H16.11V-5.04h5.67ZM35.118,0h2.79L33.282-12.006h-3.2L25.434,0h2.808L29-2.07h5.364ZM31.68-9.792l1.98,5.508H29.682ZM45.81,0h2.934l-2.7-4.572a3.445,3.445,0,0,0,2.628-3.564,3.739,3.739,0,0,0-4.032-3.87H39.024V0H41.58V-4.3h1.872Zm.252-8.154a1.657,1.657,0,0,1-1.8,1.656H41.58V-9.81h2.682A1.657,1.657,0,0,1,46.062-8.154Zm3.96,2.16A6.113,6.113,0,0,0,56.412.234a6.664,6.664,0,0,0,5.112-2.268v-4.59H55.8v2.2H59V-2.97a4.056,4.056,0,0,1-2.592.918A3.739,3.739,0,0,1,52.65-5.994a3.739,3.739,0,0,1,3.762-3.942,3.407,3.407,0,0,1,2.844,1.512L61.38-9.576A5.624,5.624,0,0,0,56.412-12.2,6.088,6.088,0,0,0,50.022-5.994ZM63.558,0h8.5V-2.214h-5.94V-5h5.814V-7.2H66.114V-9.81h5.94v-2.2h-8.5ZM87.066,0h2.79L85.23-12.006h-3.2L77.382,0H80.19l.756-2.07H86.31ZM83.628-9.792l1.98,5.508H81.63Zm6.75,5c0,2.952,1.71,5,5.382,5,3.636,0,5.346-2.034,5.346-5.022v-7.2H98.514v7.128A2.555,2.555,0,0,1,95.76-2.052a2.565,2.565,0,0,1-2.79-2.826v-7.128H90.378ZM106.254,0h2.574V-9.756h3.492v-2.25h-9.576v2.25h3.51Zm6.7-5.994a6.028,6.028,0,0,0,6.264,6.21,6.032,6.032,0,0,0,6.282-6.21,6.032,6.032,0,0,0-6.282-6.21A6.028,6.028,0,0,0,112.95-5.994Zm9.918,0a3.654,3.654,0,0,1-3.654,3.942,3.64,3.64,0,0,1-3.636-3.942,3.631,3.631,0,0,1,3.636-3.942A3.644,3.644,0,0,1,122.868-5.994ZM137.736,0h2.574V-12.006h-3.6l-2.916,7.488-2.916-7.488H127.3V0h2.556V-8.64L133.236,0h1.116l3.384-8.64Zm13.356,0h2.79l-4.626-12.006h-3.2L141.408,0h2.808l.756-2.07h5.364Zm-3.438-9.792,1.98,5.508h-3.978ZM156.618,0h2.574V-9.756h3.492v-2.25h-9.576v2.25h3.51Zm7.7,0h2.556V-12.006h-2.556Zm4.356-5.994a6.028,6.028,0,0,0,6.264,6.21,6.032,6.032,0,0,0,6.282-6.21,6.032,6.032,0,0,0-6.282-6.21A6.028,6.028,0,0,0,168.678-5.994Zm9.918,0a3.654,3.654,0,0,1-3.654,3.942,3.64,3.64,0,0,1-3.636-3.942,3.631,3.631,0,0,1,3.636-3.942A3.644,3.644,0,0,1,178.6-5.994ZM191.3,0h2.466V-12.006h-2.556V-4.23l-5.562-7.776h-2.628V0h2.556V-8.064Z" transform="translate(413.359 49)" fill="#042745"></path></g></svg> 