<svg xmlns="http://www.w3.org/2000/svg" width="150" height="29" viewBox="0 0 150 29" fill="none"><path d="M116.313 24.362C115.938 23.7619 115.738 22.9117 115.738 21.8365V15.5101H114.613V13.7597H115.738V10.359H118.413V13.7597H120.112V15.5101H118.413V22.0615C118.413 22.4366 118.488 22.7117 118.663 22.8867C118.813 23.0617 119.088 23.1368 119.437 23.1618C119.662 23.1868 119.937 23.1368 120.262 23.0868V25.1622C119.662 25.2622 119.038 25.3122 118.413 25.2872C117.388 25.2622 116.688 24.9622 116.313 24.362ZM108.864 13.7597H111.513V15.5101C112.213 14.2598 112.988 13.6097 113.863 13.6097C113.963 13.6097 114.113 13.6347 114.263 13.6597V16.2103C113.988 16.1102 113.713 16.0852 113.438 16.0602C113.038 16.0852 112.688 16.1852 112.363 16.3853C112.063 16.5853 111.763 16.8854 111.488 17.3355V25.1122H108.839L108.864 13.7597ZM104.439 22.9867C104.564 22.6617 104.639 22.1866 104.639 21.5614V17.3605C104.639 16.7354 104.564 16.2603 104.439 15.9352C104.314 15.6101 104.039 15.4351 103.639 15.4351C103.239 15.4351 102.964 15.6101 102.839 15.9352C102.714 16.2603 102.639 16.7354 102.639 17.3605V21.5614C102.639 22.1866 102.714 22.6617 102.839 22.9867C102.964 23.3118 103.239 23.4618 103.639 23.4618C104.039 23.4618 104.314 23.3118 104.439 22.9867ZM100.939 24.287C100.339 23.6119 100.04 22.6367 100.04 21.3364V17.5105C100.04 16.2353 100.339 15.235 100.939 14.5599C101.539 13.8847 102.439 13.5347 103.664 13.5347C104.864 13.5347 105.764 13.8847 106.389 14.5599C106.989 15.235 107.289 16.2103 107.289 17.4855V21.3114C107.289 22.5866 106.989 23.5619 106.389 24.237C105.789 24.9122 104.889 25.2622 103.664 25.2622C102.439 25.3122 101.539 24.9622 100.939 24.287ZM95.84 22.8867C95.9649 22.5116 96.0399 22.0115 96.0399 21.3364V17.2355C96.0399 15.9852 95.715 15.3601 95.04 15.3601C94.7151 15.3601 94.3151 15.5351 93.8902 15.8602V23.0367C94.2651 23.2868 94.6401 23.4368 95.065 23.4368C95.44 23.4368 95.69 23.2618 95.84 22.8867ZM91.2404 13.7597H93.8902V14.6349C94.6151 13.9348 95.34 13.5847 96.1149 13.5847C97.0398 13.5847 97.7148 13.9598 98.0897 14.7099C98.4647 15.4601 98.6647 16.3603 98.6647 17.3855V21.2364C98.6647 22.4616 98.4647 23.4368 98.0397 24.187C97.6148 24.9372 96.9648 25.3122 96.0399 25.3122C95.315 25.3122 94.5901 24.9622 93.8902 24.287V28.863H91.2404V13.7597ZM87.2159 18.2357V17.1605C87.2159 16.5603 87.1409 16.1352 86.9909 15.8852C86.8409 15.6351 86.5909 15.5101 86.241 15.5101C85.866 15.5101 85.616 15.6351 85.466 15.9352C85.3161 16.2353 85.2411 16.7354 85.2411 17.4605V18.2357H87.2159ZM83.5162 24.262C82.9413 23.5619 82.6413 22.5116 82.6413 21.1363V17.7606C82.6413 16.3603 82.9413 15.3351 83.5162 14.6349C84.1162 13.9348 85.0161 13.5847 86.241 13.5847C87.5158 13.5847 88.4157 13.9348 88.9407 14.6599C89.4656 15.3851 89.7406 16.4603 89.7406 17.9356V19.561H85.2661V21.3364C85.2661 22.0365 85.316 22.5616 85.441 22.8867C85.566 23.2118 85.841 23.3868 86.241 23.3868C86.5909 23.3868 86.8409 23.2618 86.9909 23.0117C87.1409 22.7617 87.2159 22.3866 87.2159 21.9115V20.9363H89.7156V21.7115C89.7156 22.8867 89.4156 23.7619 88.8407 24.387C88.2657 24.9872 87.3908 25.3122 86.241 25.3122C85.0161 25.3122 84.0912 24.9622 83.5162 24.262ZM76.142 16.0102C76.9669 16.0102 77.5419 15.8102 77.8668 15.4351C78.2168 15.06 78.3918 14.4349 78.3918 13.5597C78.3918 12.7095 78.2418 12.1094 77.9418 11.7343C77.6419 11.3592 77.0919 11.1591 76.292 11.1591H75.2421V16.0102H76.142ZM72.3674 9.18372H76.167C77.8168 9.18372 79.0667 9.50878 79.8916 10.1339C80.7165 10.7591 81.1165 11.8593 81.1165 13.4096C81.1165 14.4099 80.9665 15.235 80.6915 15.8852C80.3916 16.5103 79.8916 16.9854 79.1917 17.2855L81.3915 25.1372H78.5168L76.642 17.8356H75.2421V25.1372H72.3924L72.3674 9.18372ZM63.2184 9.18372H65.8681V14.86C66.718 14.0098 67.6429 13.5847 68.6428 13.5847C69.2677 13.5847 69.7427 13.8097 70.0427 14.2848C70.3426 14.7599 70.4926 15.3601 70.4926 16.0852V25.1372H67.8679V16.6103C67.8679 16.2353 67.8179 15.9852 67.6929 15.8102C67.5929 15.6351 67.3929 15.5601 67.093 15.5601C66.718 15.5851 66.293 15.7601 65.8431 16.1352V25.1622H63.1934L63.2184 9.18372ZM55.4942 24.237C54.9192 23.5118 54.6443 22.4866 54.6443 21.1613V17.7356C54.6443 16.3853 54.9192 15.3601 55.4942 14.6349C56.0691 13.9348 56.969 13.5847 58.2439 13.5847C59.4438 13.5847 60.3187 13.8847 60.8686 14.4599C61.4186 15.035 61.6935 15.9102 61.6935 17.0854V18.0356H59.1938V17.0354C59.1938 16.4353 59.1188 16.0352 58.9938 15.8102C58.8688 15.5851 58.6189 15.4851 58.2689 15.4851C57.8939 15.4851 57.644 15.6101 57.494 15.9102C57.369 16.1852 57.294 16.6854 57.294 17.4355V21.6114C57.294 22.3116 57.369 22.8117 57.519 23.0617C57.669 23.3118 57.9189 23.4618 58.2689 23.4618C58.6189 23.4618 58.8688 23.3368 59.0188 23.0868C59.1438 22.8367 59.2188 22.4616 59.2188 21.9115V20.6862H61.7185V21.7615C61.7185 22.9367 61.4436 23.8119 60.8936 24.412C60.3437 25.0122 59.4688 25.3122 58.2939 25.3122C56.994 25.3122 56.0691 24.9622 55.4942 24.237ZM50.8197 18.2357V17.1605C50.8197 16.5603 50.7447 16.1352 50.5947 15.8852C50.4447 15.6351 50.1947 15.5101 49.8448 15.5101C49.4698 15.5101 49.2198 15.6351 49.0699 15.9352C48.9199 16.2102 48.8449 16.7354 48.8449 17.4605V18.2357H50.8197ZM47.1201 24.262C46.5451 23.5619 46.2452 22.5116 46.2452 21.1363V17.7606C46.2452 16.3603 46.5451 15.3351 47.1201 14.6349C47.72 13.9348 48.6199 13.5847 49.8448 13.5847C51.1196 13.5847 52.0195 13.9348 52.5445 14.6599C53.0694 15.3851 53.3194 16.4603 53.3194 17.9356V19.561H48.8449V21.3364C48.8449 22.0365 48.8949 22.5616 49.0199 22.8867C49.1448 23.2118 49.4198 23.3868 49.8198 23.3868C50.1697 23.3868 50.4197 23.2618 50.5697 23.0117C50.7197 22.7617 50.7947 22.3866 50.7947 21.9115V20.9363H53.2944V21.7115C53.2944 22.8867 52.9944 23.7619 52.4195 24.387C51.8446 24.9872 50.9697 25.3122 49.8448 25.3122C48.5949 25.3122 47.695 24.9622 47.1201 24.262ZM40.4208 11.3342H37.796V9.18372H45.8702V11.3342H43.2955V25.1372H40.4458V11.3342H40.4208ZM34.2464 9.18372H36.8711V25.1372H34.2464V9.18372ZM30.0468 18.2357V17.1605C30.0468 16.5603 29.9719 16.1352 29.8219 15.8852C29.6719 15.6351 29.4219 15.5101 29.072 15.5101C28.697 15.5101 28.422 15.6351 28.297 15.9352C28.147 16.2102 28.0721 16.7354 28.0721 17.4605V18.2357H30.0468ZM26.3222 24.262C25.7473 23.5619 25.4473 22.5116 25.4473 21.1363V17.7606C25.4473 16.3603 25.7473 15.3351 26.3222 14.6349C26.9222 13.9348 27.8221 13.5847 29.047 13.5847C30.3218 13.5847 31.2217 13.9348 31.7467 14.6599C32.2716 15.3851 32.5466 16.4603 32.5466 17.9356V19.561H28.0721V21.3364C28.0721 22.0365 28.1221 22.5616 28.247 22.8867C28.372 23.2118 28.647 23.3868 29.047 23.3868C29.3969 23.3868 29.6469 23.2618 29.7969 23.0117C29.9469 22.7617 30.0219 22.3866 30.0219 21.9115V20.9363H32.5216V21.7115C32.5216 22.8867 32.2216 23.7619 31.6467 24.387C31.0717 24.9872 30.1968 25.3122 29.072 25.3122C27.8221 25.3122 26.9222 24.9622 26.3222 24.262ZM20.5228 24.362C20.1479 23.7619 19.9479 22.9117 19.9479 21.8365V15.5101H18.823V13.7597H19.9479V10.359H22.6226V13.7597H24.3225V15.5101H22.6226V22.0615C22.6226 22.4366 22.6976 22.7117 22.8726 22.8867C23.0226 23.0617 23.2976 23.1368 23.6475 23.1618C23.8725 23.1868 24.1475 23.1368 24.4724 23.0868V25.1622C23.8725 25.2622 23.2476 25.3122 22.6226 25.2872C21.5727 25.2622 20.8978 24.9622 20.5228 24.362ZM15.1234 22.9867C15.2484 22.6617 15.3234 22.1866 15.3234 21.5614V17.3605C15.3234 16.7354 15.2484 16.2603 15.1234 15.9352C14.9984 15.6101 14.7235 15.4351 14.3235 15.4351C13.9235 15.4351 13.6486 15.6101 13.5236 15.9352C13.3986 16.2603 13.3236 16.7354 13.3236 17.3605V21.5614C13.3236 22.1866 13.3986 22.6617 13.5236 22.9867C13.6486 23.3118 13.9235 23.4618 14.3235 23.4618C14.7235 23.4618 14.9734 23.3118 15.1234 22.9867ZM11.5988 24.287C10.9988 23.6119 10.6989 22.6367 10.6989 21.3364V17.5105C10.6989 16.2353 10.9988 15.235 11.5988 14.5599C12.1987 13.8847 13.0986 13.5347 14.3235 13.5347C15.5484 13.5347 16.4233 13.8847 17.0232 14.5599C17.6232 15.235 17.9231 16.2103 17.9231 17.4855V21.3114C17.9231 22.5866 17.6232 23.5619 17.0232 24.237C16.4233 24.9122 15.5234 25.2622 14.3235 25.2622C13.1236 25.2622 12.1987 24.9622 11.5988 24.287ZM0 9.18372H2.8497V15.8352H6.04937V9.18372H8.92406V25.1372H6.07436V17.9356H2.8497V25.1372H0V9.18372Z" fill="#27283B"></path><path d="M134.561 2.54349C132.43 3.04221 130.525 4.0646 129.021 5.43608C126.791 7.45591 125.437 10.2488 125.437 13.3408C125.437 16.0339 126.49 18.5276 128.244 20.4476L124.71 25.3351C124.485 25.6593 124.811 25.9336 125.161 25.7341L131.954 21.6446L131.302 22.3428C131.001 22.667 131.001 22.667 131.302 22.8415C133.257 23.9387 135.463 24.4873 137.719 24.4873C144.486 24.4873 150 19.4751 150 13.3159C150 10.2238 148.622 7.43097 146.416 5.41115C144.887 4.01472 142.982 3.01727 140.877 2.51855C140.225 2.36894 140.225 2.36894 140.225 2.91753V4.23914C140.225 4.83761 140.225 4.83762 140.852 5.0371C141.654 5.28647 142.381 5.61064 143.057 6.03455C145.739 7.6554 147.368 10.3984 147.368 13.3408C147.368 18.1784 143.057 22.0934 137.744 22.0934C132.43 22.0934 128.119 18.1784 128.119 13.3408C128.119 10.922 129.197 8.72765 130.926 7.15668C131.979 6.18417 133.257 5.48596 134.611 5.06204C135.237 4.86255 135.237 4.86255 135.237 4.26408V2.94247C135.212 2.36894 135.212 2.36894 134.561 2.54349ZM139.122 0.598474C139.122 0.274304 138.847 0 138.521 0H137.042C136.716 0 136.44 0.274304 136.44 0.598474V5.78519C136.44 6.10936 136.716 6.38365 137.042 6.38365H138.521C138.847 6.38365 139.122 6.10936 139.122 5.78519V0.598474ZM133.708 16.5576V14.3383H141.453V16.5576H143.784V9.77497H141.453V11.9943H133.708V9.77497H131.377V16.5576H133.708Z" fill="#5B5E93"></path></svg>