<svg xmlns="http://www.w3.org/2000/svg" width="150" height="58" viewBox="0 0 150 58" fill="none"><path d="M102.408 32.5946L103.908 33.0445C103.808 33.4694 103.658 33.8194 103.433 34.0943C103.208 34.3693 102.958 34.5943 102.633 34.7192C102.308 34.8692 101.908 34.9442 101.408 34.9442C100.808 34.9442 100.333 34.8692 99.9335 34.6942C99.5585 34.5193 99.2336 34.2193 98.9586 33.7694C98.6837 33.3445 98.5337 32.7696 98.5337 32.0947C98.5337 31.1948 98.7836 30.4949 99.2586 29.995C99.7335 29.4951 100.433 29.2701 101.308 29.2701C102.008 29.2701 102.533 29.4201 102.933 29.6951C103.333 29.97 103.633 30.395 103.808 30.9949L102.308 31.3198C102.258 31.1448 102.208 31.0199 102.133 30.9449C102.033 30.8199 101.933 30.7199 101.783 30.6449C101.633 30.5699 101.483 30.5449 101.333 30.5449C100.958 30.5449 100.658 30.6949 100.458 31.0198C100.308 31.2448 100.233 31.6198 100.233 32.0947C100.233 32.6946 100.333 33.1195 100.508 33.3445C100.683 33.5694 100.958 33.6944 101.283 33.6944C101.608 33.6944 101.858 33.5944 102.008 33.4195C102.208 33.1945 102.333 32.9445 102.408 32.5946Z" fill="#225E63"></path><path d="M104.508 32.0946C104.508 31.1948 104.758 30.4949 105.258 29.995C105.758 29.4951 106.457 29.2451 107.357 29.2451C108.282 29.2451 108.982 29.4951 109.482 29.97C109.982 30.4699 110.232 31.1448 110.232 32.0447C110.232 32.6945 110.132 33.2195 109.907 33.6194C109.682 34.0193 109.382 34.3443 108.957 34.5692C108.557 34.7942 108.032 34.9192 107.432 34.9192C106.807 34.9192 106.308 34.8192 105.883 34.6192C105.483 34.4193 105.158 34.1193 104.883 33.6694C104.608 33.2195 104.508 32.7445 104.508 32.0946ZM106.208 32.0946C106.208 32.6446 106.308 33.0445 106.507 33.2944C106.707 33.5444 106.982 33.6694 107.357 33.6694C107.732 33.6694 108.007 33.5444 108.207 33.3194C108.407 33.0695 108.507 32.6446 108.507 32.0447C108.507 31.5197 108.407 31.1448 108.182 30.9198C107.982 30.6699 107.682 30.5699 107.332 30.5699C106.982 30.5699 106.707 30.6949 106.507 30.9448C106.308 31.1448 106.208 31.5447 106.208 32.0946Z" fill="#225E63"></path><path d="M111.107 29.3451H113.331L114.181 32.6945L115.031 29.3451H117.256V34.8442H115.856V30.6449L114.781 34.8442H113.531L112.456 30.6449V34.8442H111.057V29.3451H111.107Z" fill="#225E63"></path><path d="M118.355 29.3451H121.18C121.805 29.3451 122.255 29.4951 122.555 29.795C122.855 30.095 123.005 30.4949 123.005 31.0448C123.005 31.5947 122.83 32.0446 122.505 32.3446C122.18 32.6695 121.655 32.8195 120.98 32.8195H120.055V34.8692H118.355V29.3451ZM120.055 31.6947H120.48C120.805 31.6947 121.03 31.6447 121.18 31.5197C121.305 31.3947 121.38 31.2698 121.38 31.0948C121.38 30.9198 121.33 30.7699 121.205 30.6449C121.08 30.5199 120.88 30.4699 120.555 30.4699H120.08V31.6947H120.055Z" fill="#225E63"></path><path d="M123.904 29.3451H125.604V33.4944H128.254V34.8442H123.904V29.3451Z" fill="#225E63"></path><path d="M129.104 29.3451H130.803V34.8442H129.104V29.3451Z" fill="#225E63"></path><path d="M135.402 33.9193H133.478L133.203 34.8192H131.478L133.553 29.3201H135.402L137.477 34.8192H135.702L135.402 33.9193ZM135.052 32.7445L134.453 30.7698L133.853 32.7445H135.052Z" fill="#225E63"></path><path d="M138.002 29.3451H139.577L141.651 32.3946V29.3451H143.251V34.8442H141.651L139.602 31.8197V34.8442H138.002V29.3451Z" fill="#225E63"></path><path d="M144.001 29.3451H149.175V30.6949H147.45V34.8442H145.751V30.6949H144.026V29.3451H144.001Z" fill="#225E63"></path><path d="M81.9613 37.7187L86.8855 36.169L85.2858 32.6196C84.111 34.0943 82.9362 35.994 81.9613 37.7187ZM80.2866 21.4964L70.6382 0L0 3.99933L19.5717 57.3904L57.2405 45.5174C54.8409 42.068 53.966 37.9687 56.7405 35.969C59.84 33.7194 64.5142 36.3189 67.4887 39.9933C70.3633 35.1941 78.4369 24.021 80.2866 21.4964Z" fill="#225E63"></path><path d="M68.4375 15.5348C71.387 15.5348 73.7866 13.2852 73.7866 10.4857C73.7866 7.68615 71.387 5.43652 68.4375 5.43652C65.488 5.43652 63.0884 7.68615 63.0884 10.4857C63.0884 13.2602 65.488 15.5348 68.4375 15.5348ZM64.0632 17.7095H72.8118V40.5807H64.0632V17.7095Z" fill="#FEFEFE"></path><path d="M59.7388 24.3834C59.8138 24.4083 59.8638 24.3834 59.8638 24.3084V18.5093C59.8638 18.4343 59.8138 18.3594 59.7388 18.3094C59.7388 18.3094 58.589 17.5595 55.0896 17.3595C54.9146 17.2595 51.8401 17.2345 51.0153 17.3595C38.2674 18.3844 37.7925 27.6078 37.7925 28.0077V30.2574C37.7925 30.5323 37.7925 39.9558 51.0153 40.7806C52.3151 40.8806 54.8396 40.7806 55.0896 40.7806C58.1391 40.7806 60.2387 39.8558 60.2387 39.8558C60.3137 39.8308 60.3637 39.7558 60.3637 39.6808V34.2567C60.3637 34.1817 60.3137 34.1567 60.2637 34.2067C60.2637 34.2067 59.3139 34.9566 55.1646 35.3815C53.9898 35.5065 53.4149 35.4565 52.9899 35.3815C47.0909 34.3817 46.816 30.0824 46.816 30.0824C46.816 30.0074 46.791 29.8824 46.791 29.8324V28.1827C46.791 28.1077 46.791 27.9828 46.816 27.9328C46.816 27.9328 47.2159 23.3085 52.9899 22.8086H55.1646C57.6892 23.1336 59.7388 24.3834 59.7388 24.3834Z" fill="#FEFEFE"></path><path d="M13.4966 40.5057C13.4966 40.5806 13.5466 40.6306 13.6216 40.6306H22.1451C22.2201 40.6306 22.2701 40.5806 22.2701 40.5057V33.8568C22.2701 33.7818 22.3201 33.7318 22.3951 33.7318C22.3951 33.7318 36.0178 34.7066 36.0178 25.5831C36.0178 18.3593 27.4693 17.5845 24.6697 17.7095C24.6197 17.7095 13.6216 17.7095 13.6216 17.7095C13.5466 17.7095 13.4966 17.7595 13.4966 17.8344V40.5057ZM22.1201 28.6576V22.6836H24.2198C24.2198 22.6836 27.2443 22.8086 27.4942 24.8833C27.5442 25.0332 27.5442 26.0581 27.4942 26.1081C27.0943 28.5327 24.4698 28.6576 24.4698 28.6576H22.1201Z" fill="#FEFEFE"></path><path d="M68.6886 51.6164C69.3885 51.6164 69.9384 51.6164 70.8382 51.2164C73.9377 49.5917 84.411 24.021 95.4591 16.1473C95.5341 16.0973 95.6091 16.0223 95.6591 15.9473C95.7341 15.8473 95.7341 15.7474 95.7341 15.7474C95.7341 15.7474 95.7341 15.2224 94.1093 15.2224C84.286 14.9475 74.0627 35.5691 68.6886 43.7177C68.6136 43.8177 68.2636 43.7177 68.2636 43.7177C68.2636 43.7177 64.6642 39.4684 61.5398 37.8437C61.4648 37.8187 61.1148 37.6937 60.7399 37.7187C60.4899 37.7187 59.0402 38.0186 58.3653 38.7185C57.5654 39.5684 57.5904 40.0433 57.5904 41.0681C57.5904 41.1431 57.6404 41.4931 57.7404 41.668C58.5153 43.0178 61.9897 47.817 64.8642 50.4666C65.2891 50.7915 65.964 51.6164 68.6886 51.6164Z" fill="#2BBC5D"></path><path d="M98.3584 8.42358H106.532C108.157 8.42358 109.457 8.64855 110.431 9.07348C111.431 9.5234 112.256 10.1483 112.881 10.9482C113.531 11.773 114.006 12.7229 114.281 13.7977C114.581 14.8725 114.731 16.0223 114.731 17.2471C114.731 19.1468 114.506 20.6216 114.081 21.6714C113.656 22.7212 113.056 23.5961 112.281 24.3209C111.506 25.0208 110.681 25.4957 109.806 25.7457C108.607 26.0706 107.507 26.2206 106.532 26.2206H98.3584V8.42358ZM103.857 12.4479V22.1713H105.207C106.357 22.1713 107.182 22.0463 107.657 21.7964C108.132 21.5464 108.532 21.0965 108.807 20.4716C109.082 19.8467 109.232 18.7969 109.232 17.3721C109.232 15.4724 108.932 14.1976 108.307 13.4977C107.682 12.7979 106.682 12.4479 105.232 12.4479H103.857Z" fill="#225E63"></path><path d="M116.255 20.3466L121.504 20.0216C121.629 20.8715 121.854 21.5214 122.204 21.9713C122.779 22.6962 123.579 23.0461 124.629 23.0461C125.404 23.0461 126.029 22.8712 126.454 22.4962C126.879 22.1213 127.104 21.6964 127.104 21.2214C127.104 20.7715 126.904 20.3466 126.504 19.9717C126.104 19.5967 125.154 19.2718 123.679 18.9468C121.255 18.3969 119.555 17.672 118.505 16.7722C117.455 15.8723 116.955 14.7225 116.955 13.3228C116.955 12.3979 117.23 11.5481 117.755 10.7232C118.28 9.89834 119.08 9.27344 120.155 8.79852C121.23 8.3236 122.679 8.09863 124.529 8.09863C126.804 8.09863 128.553 8.52356 129.728 9.37342C130.928 10.2233 131.628 11.5731 131.853 13.4227L126.654 13.7227C126.504 12.9228 126.229 12.3479 125.779 11.973C125.329 11.5981 124.729 11.4231 123.954 11.4231C123.304 11.4231 122.829 11.5481 122.504 11.823C122.179 12.098 122.029 12.4229 122.029 12.8228C122.029 13.0978 122.154 13.3728 122.429 13.5977C122.679 13.8227 123.304 14.0476 124.279 14.2476C126.679 14.7725 128.403 15.2974 129.453 15.8223C130.503 16.3473 131.253 17.0221 131.728 17.797C132.203 18.5719 132.428 19.4717 132.428 20.4466C132.428 21.5964 132.103 22.6462 131.478 23.5961C130.853 24.5709 129.953 25.2958 128.828 25.7957C127.703 26.2956 126.254 26.5456 124.529 26.5456C121.504 26.5456 119.405 25.9707 118.23 24.7959C117.08 23.621 116.43 22.1463 116.255 20.3466Z" fill="#225E63"></path><path d="M133.828 20.3466L139.077 20.0216C139.202 20.8715 139.427 21.5214 139.777 21.9713C140.352 22.6962 141.151 23.0461 142.201 23.0461C142.976 23.0461 143.601 22.8712 144.026 22.4962C144.451 22.1213 144.676 21.6964 144.676 21.2214C144.676 20.7715 144.476 20.3466 144.076 19.9717C143.676 19.5967 142.726 19.2718 141.251 18.9468C138.827 18.3969 137.127 17.672 136.077 16.7722C135.052 15.8723 134.528 14.7225 134.528 13.3228C134.528 12.3979 134.802 11.5481 135.327 10.7232C135.852 9.89834 136.652 9.27344 137.727 8.79852C138.802 8.3236 140.252 8.09863 142.101 8.09863C144.376 8.09863 146.126 8.52356 147.3 9.37342C148.5 10.2233 149.2 11.5731 149.425 13.4227L144.226 13.7227C144.076 12.9228 143.801 12.3479 143.351 11.973C142.901 11.5981 142.301 11.4231 141.526 11.4231C140.876 11.4231 140.402 11.5481 140.077 11.823C139.752 12.098 139.602 12.4229 139.602 12.8228C139.602 13.0978 139.727 13.3728 140.002 13.5977C140.252 13.8227 140.876 14.0476 141.851 14.2476C144.251 14.7725 145.976 15.2974 147.025 15.8223C148.075 16.3473 148.825 17.0221 149.3 17.797C149.775 18.5719 150 19.4717 150 20.4466C150 21.5964 149.675 22.6462 149.05 23.5961C148.425 24.5709 147.525 25.2958 146.401 25.7957C145.276 26.2956 143.826 26.5456 142.101 26.5456C139.077 26.5456 136.977 25.9707 135.802 24.7959C134.627 23.621 133.978 22.1463 133.828 20.3466Z" fill="#225E63"></path></svg>